M48
; DRILL file {KiCad (5.1.10)-1} date 01/30/22 14:23:47
; FORMAT={-:-/ absolute / metric / decimal}
; #@! TF.CreationDate,2022-01-30T14:23:47-06:00
; #@! TF.GenerationSoftware,Kicad,Pcbnew,(5.1.10)-1
; #@! TF.FileFunction,Plated,1,4,PTH
FMAT,2
METRIC
T1C0.300
T2C0.400
T3C0.500
T4C0.800
T5C1.000
T6C1.020
T7C1.100
%
G90
G05
T1
X97.2Y-39.0
X97.2Y-40.1
X97.2Y-41.4
X97.2Y-42.6
X98.4Y-39.0
X98.4Y-40.1
X98.4Y-41.4
X98.4Y-42.6
T2
X83.0Y-60.0
X87.0Y-102.0
X87.0Y-107.25
X88.25Y-110.25
X88.75Y-99.5
X89.75Y-81.25
X89.75Y-96.0
X89.75Y-118.0
X90.5Y-63.25
X90.5Y-83.75
X91.0Y-35.0
X91.0Y-36.0
X91.95Y-93.981
X92.0Y-35.0
X92.0Y-36.0
X92.7Y-113.95
X93.0Y-35.0
X93.0Y-36.0
X93.0Y-123.25
X93.25Y-108.0
X94.0Y-35.0
X94.0Y-36.0
X94.25Y-133.75
X94.75Y-102.5
X95.0Y-35.0
X95.0Y-36.0
X95.2Y-93.5
X95.25Y-118.0
X95.7Y-68.9
X95.7Y-70.3
X96.0Y-35.0
X96.0Y-36.0
X97.0Y-35.0
X97.0Y-36.0
X98.25Y-102.5
X98.5Y-111.0
X98.75Y-123.25
X99.0Y-119.0
X99.3Y-100.0
X102.0Y-71.75
X102.2Y-136.3
X102.5Y-76.75
X102.5Y-140.4
X103.2Y-99.95
X103.25Y-98.25
X103.25Y-117.75
X103.5Y-68.25
X103.75Y-78.5
X103.75Y-125.25
X104.0Y-129.75
X104.25Y-90.5
X104.25Y-94.5
X104.25Y-105.0
X105.0Y-27.0
X105.0Y-28.0
X105.0Y-29.0
X105.0Y-30.0
X105.0Y-31.0
X105.0Y-32.0
X105.0Y-33.0
X105.25Y-76.75
X105.5Y-68.25
X105.5Y-111.0
X105.5Y-118.5
X106.0Y-27.0
X106.0Y-28.0
X106.0Y-29.0
X106.0Y-30.0
X106.0Y-31.0
X106.0Y-32.0
X106.0Y-33.0
X106.0Y-89.0
X106.0Y-93.0
X106.0Y-97.25
X106.0Y-103.5
X106.5Y-76.75
X106.75Y-112.0
X107.0Y-27.0
X107.0Y-28.0
X107.0Y-29.0
X107.0Y-30.0
X107.0Y-31.0
X107.0Y-32.0
X107.0Y-33.0
X107.25Y-72.5
X107.25Y-125.5
X108.75Y-113.5
X108.75Y-119.75
X109.0Y-76.75
X109.0Y-78.25
X109.25Y-87.25
X109.4Y-55.9
X110.5Y-108.0
X110.75Y-125.5
X111.4Y-61.55
X111.5Y-76.75
X111.75Y-65.75
X112.2Y-117.3
X112.375Y-101.125
X113.0Y-63.75
X113.2Y-119.8
X113.475Y-104.4
X113.5Y-111.75
X113.525Y-102.8
X113.75Y-47.5
X113.75Y-94.5
X114.25Y-92.25
X114.25Y-106.75
X114.25Y-123.25
X114.8Y-66.9
X115.0Y-101.25
X115.0Y-134.0
X115.0Y-136.5
X115.5Y-47.5
X115.75Y-36.25
X115.75Y-84.75
X118.1Y-80.8
X118.25Y-68.0
X118.25Y-71.0
X118.25Y-107.5
X118.7Y-81.4
X119.0Y-103.0
X119.25Y-110.75
X119.5Y-87.0
X119.5Y-92.25
X119.75Y-100.0
X120.097Y-127.347
X120.652Y-106.652
X120.75Y-98.75
X123.75Y-127.5
X124.5Y-102.0
X124.75Y-46.75
X125.25Y-42.0
X125.25Y-90.0
X126.5Y-90.0
X127.5Y-110.25
X127.75Y-74.5
X127.75Y-89.25
X128.0Y-115.0
X128.5Y-75.25
X129.0Y-71.75
X129.25Y-110.25
X130.0Y-115.0
X130.5Y-93.75
X130.5Y-110.25
X130.95Y-81.8
X131.0Y-66.9
X131.0Y-76.6
X131.0Y-98.0
X131.2Y-59.4
X131.4Y-102.2
X131.5Y-84.75
X132.0Y-120.0
X132.5Y-114.5
X133.0Y-121.5
X133.5Y-110.5
X133.75Y-89.0
X134.75Y-100.25
X134.75Y-102.5
X136.5Y-102.5
X137.0Y-89.0
X137.75Y-111.0
T3
X85.0Y-116.25
X87.5Y-116.25
X89.8Y-91.8
X91.6Y-65.0
X96.5Y-92.3
X96.5Y-111.25
X98.5Y-135.25
X108.6Y-68.8
X109.6Y-71.5
X112.6Y-68.8
X113.7Y-71.5
X119.7Y-104.5
X123.75Y-84.25
X126.5Y-84.25
X127.0Y-138.0
X127.0Y-140.5
X136.5Y-112.25
X136.5Y-115.2
X136.5Y-118.0
T4
X85.0Y-102.0
X85.0Y-104.54
X85.0Y-107.08
X101.57Y-91.04
X101.57Y-93.58
X101.57Y-96.12
X101.57Y-98.66
X101.57Y-101.2
X101.57Y-103.74
X101.57Y-106.28
X101.57Y-108.82
X101.57Y-111.36
X101.57Y-113.9
X101.57Y-116.44
X101.57Y-118.98
X101.57Y-121.52
X101.57Y-124.06
X101.57Y-126.6
X116.81Y-91.04
X116.81Y-93.58
X116.81Y-96.12
X116.81Y-98.66
X116.81Y-101.2
X116.81Y-103.74
X116.81Y-106.28
X116.81Y-108.82
X116.81Y-111.36
X116.81Y-113.9
X116.81Y-116.44
X116.81Y-118.98
X116.81Y-121.52
X116.81Y-124.06
X116.81Y-126.6
T5
X83.0Y-65.0
X83.0Y-68.0
X83.0Y-71.0
X83.0Y-74.0
X83.0Y-77.0
X83.0Y-80.0
X83.0Y-83.0
X83.0Y-86.0
X84.0Y-112.8
X86.0Y-65.0
X86.0Y-68.0
X86.0Y-71.0
X86.0Y-74.0
X86.0Y-77.0
X86.0Y-80.0
X86.0Y-83.0
X86.0Y-86.0
X92.5Y-75.4
X92.5Y-79.4
X95.04Y-75.4
X95.04Y-79.4
X134.0Y-65.5
X134.0Y-68.5
X134.0Y-71.5
X134.0Y-74.5
X137.0Y-65.5
X137.0Y-68.5
X137.0Y-71.5
X137.0Y-74.5
T6
X89.5Y-138.75
X89.5Y-141.75
X89.6Y-127.2
X89.6Y-130.2
X89.8Y-56.0
X92.5Y-138.75
X92.5Y-141.75
X92.6Y-127.2
X92.6Y-130.2
X92.8Y-56.0
X127.4Y-46.6
X127.68Y-132.0
X127.68Y-135.0
X130.4Y-46.6
X130.68Y-132.0
X130.68Y-135.0
T7
X112.0Y-28.2
X114.54Y-28.2
X122.16Y-28.2
X127.24Y-28.2
T0
M30
