G04 #@! TF.GenerationSoftware,KiCad,Pcbnew,(5.1.10)-1*
G04 #@! TF.CreationDate,2022-01-30T14:23:45-06:00*
G04 #@! TF.ProjectId,22-ELC-1-01-R1,32322d45-4c43-42d3-912d-30312d52312e,rev?*
G04 #@! TF.SameCoordinates,Original*
G04 #@! TF.FileFunction,Legend,Bot*
G04 #@! TF.FilePolarity,Positive*
%FSLAX46Y46*%
G04 Gerber Fmt 4.6, Leading zero omitted, Abs format (unit mm)*
G04 Created by KiCad (PCBNEW (5.1.10)-1) date 2022-01-30 14:23:45*
%MOMM*%
%LPD*%
G01*
G04 APERTURE LIST*
%ADD10C,0.150000*%
%ADD11C,0.100000*%
%ADD12C,1.000000*%
%ADD13C,0.500000*%
%ADD14C,0.750000*%
%ADD15C,0.010000*%
%ADD16C,3.000000*%
%ADD17C,1.500000*%
%ADD18C,1.000000*%
%ADD19O,1.600000X1.600000*%
%ADD20R,1.600000X1.600000*%
%ADD21C,3.700000*%
%ADD22R,1.700000X1.700000*%
%ADD23O,1.700000X1.700000*%
%ADD24C,1.440000*%
%ADD25C,1.800000*%
G04 APERTURE END LIST*
D10*
X129366666Y-36602380D02*
X129366666Y-35602380D01*
X129128571Y-35602380D01*
X128985714Y-35650000D01*
X128890476Y-35745238D01*
X128842857Y-35840476D01*
X128795238Y-36030952D01*
X128795238Y-36173809D01*
X128842857Y-36364285D01*
X128890476Y-36459523D01*
X128985714Y-36554761D01*
X129128571Y-36602380D01*
X129366666Y-36602380D01*
X127938095Y-36602380D02*
X127938095Y-36078571D01*
X127985714Y-35983333D01*
X128080952Y-35935714D01*
X128271428Y-35935714D01*
X128366666Y-35983333D01*
X127938095Y-36554761D02*
X128033333Y-36602380D01*
X128271428Y-36602380D01*
X128366666Y-36554761D01*
X128414285Y-36459523D01*
X128414285Y-36364285D01*
X128366666Y-36269047D01*
X128271428Y-36221428D01*
X128033333Y-36221428D01*
X127938095Y-36173809D01*
X127461904Y-35935714D02*
X127461904Y-36602380D01*
X127461904Y-36030952D02*
X127414285Y-35983333D01*
X127319047Y-35935714D01*
X127176190Y-35935714D01*
X127080952Y-35983333D01*
X127033333Y-36078571D01*
X127033333Y-36602380D01*
X126128571Y-35935714D02*
X126128571Y-36745238D01*
X126176190Y-36840476D01*
X126223809Y-36888095D01*
X126319047Y-36935714D01*
X126461904Y-36935714D01*
X126557142Y-36888095D01*
X126128571Y-36554761D02*
X126223809Y-36602380D01*
X126414285Y-36602380D01*
X126509523Y-36554761D01*
X126557142Y-36507142D01*
X126604761Y-36411904D01*
X126604761Y-36126190D01*
X126557142Y-36030952D01*
X126509523Y-35983333D01*
X126414285Y-35935714D01*
X126223809Y-35935714D01*
X126128571Y-35983333D01*
X125271428Y-36554761D02*
X125366666Y-36602380D01*
X125557142Y-36602380D01*
X125652380Y-36554761D01*
X125700000Y-36459523D01*
X125700000Y-36078571D01*
X125652380Y-35983333D01*
X125557142Y-35935714D01*
X125366666Y-35935714D01*
X125271428Y-35983333D01*
X125223809Y-36078571D01*
X125223809Y-36173809D01*
X125700000Y-36269047D01*
X124795238Y-36602380D02*
X124795238Y-35935714D01*
X124795238Y-36126190D02*
X124747619Y-36030952D01*
X124700000Y-35983333D01*
X124604761Y-35935714D01*
X124509523Y-35935714D01*
X124033333Y-36507142D02*
X123985714Y-36554761D01*
X124033333Y-36602380D01*
X124080952Y-36554761D01*
X124033333Y-36507142D01*
X124033333Y-36602380D01*
X124223809Y-35650000D02*
X124128571Y-35602380D01*
X123890476Y-35602380D01*
X123795238Y-35650000D01*
X123747619Y-35745238D01*
X123747619Y-35840476D01*
X123795238Y-35935714D01*
X123842857Y-35983333D01*
X123938095Y-36030952D01*
X123985714Y-36078571D01*
X124033333Y-36173809D01*
X124033333Y-36221428D01*
X128890476Y-38252380D02*
X128890476Y-37252380D01*
X127652380Y-38252380D02*
X127652380Y-37252380D01*
X127223809Y-38252380D02*
X127223809Y-37728571D01*
X127271428Y-37633333D01*
X127366666Y-37585714D01*
X127509523Y-37585714D01*
X127604761Y-37633333D01*
X127652380Y-37680952D01*
X126319047Y-38252380D02*
X126319047Y-37728571D01*
X126366666Y-37633333D01*
X126461904Y-37585714D01*
X126652380Y-37585714D01*
X126747619Y-37633333D01*
X126319047Y-38204761D02*
X126414285Y-38252380D01*
X126652380Y-38252380D01*
X126747619Y-38204761D01*
X126795238Y-38109523D01*
X126795238Y-38014285D01*
X126747619Y-37919047D01*
X126652380Y-37871428D01*
X126414285Y-37871428D01*
X126319047Y-37823809D01*
X125842857Y-38252380D02*
X125842857Y-37585714D01*
X125842857Y-37776190D02*
X125795238Y-37680952D01*
X125747619Y-37633333D01*
X125652380Y-37585714D01*
X125557142Y-37585714D01*
X124795238Y-38252380D02*
X124795238Y-37252380D01*
X124795238Y-38204761D02*
X124890476Y-38252380D01*
X125080952Y-38252380D01*
X125176190Y-38204761D01*
X125223809Y-38157142D01*
X125271428Y-38061904D01*
X125271428Y-37776190D01*
X125223809Y-37680952D01*
X125176190Y-37633333D01*
X125080952Y-37585714D01*
X124890476Y-37585714D01*
X124795238Y-37633333D01*
X124176190Y-38252380D02*
X124271428Y-38204761D01*
X124319047Y-38109523D01*
X124319047Y-37252380D01*
X123890476Y-37585714D02*
X123652380Y-38252380D01*
X123414285Y-37585714D02*
X123652380Y-38252380D01*
X123747619Y-38490476D01*
X123795238Y-38538095D01*
X123890476Y-38585714D01*
X129604761Y-39902380D02*
X129604761Y-38902380D01*
X129509523Y-39521428D02*
X129223809Y-39902380D01*
X129223809Y-39235714D02*
X129604761Y-39616666D01*
X128795238Y-39235714D02*
X128795238Y-39902380D01*
X128795238Y-39330952D02*
X128747619Y-39283333D01*
X128652380Y-39235714D01*
X128509523Y-39235714D01*
X128414285Y-39283333D01*
X128366666Y-39378571D01*
X128366666Y-39902380D01*
X127747619Y-39902380D02*
X127842857Y-39854761D01*
X127890476Y-39807142D01*
X127938095Y-39711904D01*
X127938095Y-39426190D01*
X127890476Y-39330952D01*
X127842857Y-39283333D01*
X127747619Y-39235714D01*
X127604761Y-39235714D01*
X127509523Y-39283333D01*
X127461904Y-39330952D01*
X127414285Y-39426190D01*
X127414285Y-39711904D01*
X127461904Y-39807142D01*
X127509523Y-39854761D01*
X127604761Y-39902380D01*
X127747619Y-39902380D01*
X127080952Y-39235714D02*
X126890476Y-39902380D01*
X126699999Y-39426190D01*
X126509523Y-39902380D01*
X126319047Y-39235714D01*
X125176190Y-39902380D02*
X125176190Y-38902380D01*
X124747619Y-39902380D02*
X124747619Y-39378571D01*
X124795238Y-39283333D01*
X124890476Y-39235714D01*
X125033333Y-39235714D01*
X125128571Y-39283333D01*
X125176190Y-39330952D01*
X123890476Y-39854761D02*
X123985714Y-39902380D01*
X124176190Y-39902380D01*
X124271428Y-39854761D01*
X124319047Y-39759523D01*
X124319047Y-39378571D01*
X124271428Y-39283333D01*
X124176190Y-39235714D01*
X123985714Y-39235714D01*
X123890476Y-39283333D01*
X123842857Y-39378571D01*
X123842857Y-39473809D01*
X124319047Y-39569047D01*
X123414285Y-39902380D02*
X123414285Y-39235714D01*
X123414285Y-39426190D02*
X123366666Y-39330952D01*
X123319047Y-39283333D01*
X123223809Y-39235714D01*
X123128571Y-39235714D01*
X122795238Y-39807142D02*
X122747619Y-39854761D01*
X122795238Y-39902380D01*
X122842857Y-39854761D01*
X122795238Y-39807142D01*
X122795238Y-39902380D01*
X122795238Y-39521428D02*
X122842857Y-38950000D01*
X122795238Y-38902380D01*
X122747619Y-38950000D01*
X122795238Y-39521428D01*
X122795238Y-38902380D01*
X98619047Y-162802380D02*
X98619047Y-163516666D01*
X98666666Y-163659523D01*
X98761904Y-163754761D01*
X98904761Y-163802380D01*
X99000000Y-163802380D01*
X97666666Y-163802380D02*
X98142857Y-163802380D01*
X98142857Y-162802380D01*
X96761904Y-163707142D02*
X96809523Y-163754761D01*
X96952380Y-163802380D01*
X97047619Y-163802380D01*
X97190476Y-163754761D01*
X97285714Y-163659523D01*
X97333333Y-163564285D01*
X97380952Y-163373809D01*
X97380952Y-163230952D01*
X97333333Y-163040476D01*
X97285714Y-162945238D01*
X97190476Y-162850000D01*
X97047619Y-162802380D01*
X96952380Y-162802380D01*
X96809523Y-162850000D01*
X96761904Y-162897619D01*
X96047619Y-162802380D02*
X96047619Y-163516666D01*
X96095238Y-163659523D01*
X96190476Y-163754761D01*
X96333333Y-163802380D01*
X96428571Y-163802380D01*
X95095238Y-163802380D02*
X95571428Y-163802380D01*
X95571428Y-162802380D01*
X94190476Y-163707142D02*
X94238095Y-163754761D01*
X94380952Y-163802380D01*
X94476190Y-163802380D01*
X94619047Y-163754761D01*
X94714285Y-163659523D01*
X94761904Y-163564285D01*
X94809523Y-163373809D01*
X94809523Y-163230952D01*
X94761904Y-163040476D01*
X94714285Y-162945238D01*
X94619047Y-162850000D01*
X94476190Y-162802380D01*
X94380952Y-162802380D01*
X94238095Y-162850000D01*
X94190476Y-162897619D01*
X93476190Y-162802380D02*
X93476190Y-163516666D01*
X93523809Y-163659523D01*
X93619047Y-163754761D01*
X93761904Y-163802380D01*
X93857142Y-163802380D01*
X92523809Y-163802380D02*
X93000000Y-163802380D01*
X93000000Y-162802380D01*
X91619047Y-163707142D02*
X91666666Y-163754761D01*
X91809523Y-163802380D01*
X91904761Y-163802380D01*
X92047619Y-163754761D01*
X92142857Y-163659523D01*
X92190476Y-163564285D01*
X92238095Y-163373809D01*
X92238095Y-163230952D01*
X92190476Y-163040476D01*
X92142857Y-162945238D01*
X92047619Y-162850000D01*
X91904761Y-162802380D01*
X91809523Y-162802380D01*
X91666666Y-162850000D01*
X91619047Y-162897619D01*
X90904761Y-162802380D02*
X90904761Y-163516666D01*
X90952380Y-163659523D01*
X91047619Y-163754761D01*
X91190476Y-163802380D01*
X91285714Y-163802380D01*
X89952380Y-163802380D02*
X90428571Y-163802380D01*
X90428571Y-162802380D01*
X89047619Y-163707142D02*
X89095238Y-163754761D01*
X89238095Y-163802380D01*
X89333333Y-163802380D01*
X89476190Y-163754761D01*
X89571428Y-163659523D01*
X89619047Y-163564285D01*
X89666666Y-163373809D01*
X89666666Y-163230952D01*
X89619047Y-163040476D01*
X89571428Y-162945238D01*
X89476190Y-162850000D01*
X89333333Y-162802380D01*
X89238095Y-162802380D01*
X89095238Y-162850000D01*
X89047619Y-162897619D01*
D11*
X99504761Y-85278571D02*
X99480952Y-85302380D01*
X99504761Y-85326190D01*
X99528571Y-85302380D01*
X99504761Y-85278571D01*
X99504761Y-85326190D01*
X99504761Y-85135714D02*
X99528571Y-84850000D01*
X99504761Y-84826190D01*
X99480952Y-84850000D01*
X99504761Y-85135714D01*
X99504761Y-84826190D01*
X99266666Y-85326190D02*
X99266666Y-84826190D01*
X99147619Y-84826190D01*
X99076190Y-84850000D01*
X99028571Y-84897619D01*
X99004761Y-84945238D01*
X98980952Y-85040476D01*
X98980952Y-85111904D01*
X99004761Y-85207142D01*
X99028571Y-85254761D01*
X99076190Y-85302380D01*
X99147619Y-85326190D01*
X99266666Y-85326190D01*
X98766666Y-85326190D02*
X98766666Y-84826190D01*
X98552380Y-85302380D02*
X98480952Y-85326190D01*
X98361904Y-85326190D01*
X98314285Y-85302380D01*
X98290476Y-85278571D01*
X98266666Y-85230952D01*
X98266666Y-85183333D01*
X98290476Y-85135714D01*
X98314285Y-85111904D01*
X98361904Y-85088095D01*
X98457142Y-85064285D01*
X98504761Y-85040476D01*
X98528571Y-85016666D01*
X98552380Y-84969047D01*
X98552380Y-84921428D01*
X98528571Y-84873809D01*
X98504761Y-84850000D01*
X98457142Y-84826190D01*
X98338095Y-84826190D01*
X98266666Y-84850000D01*
X97671428Y-85326190D02*
X97671428Y-84826190D01*
X97552380Y-84826190D01*
X97480952Y-84850000D01*
X97433333Y-84897619D01*
X97409523Y-84945238D01*
X97385714Y-85040476D01*
X97385714Y-85111904D01*
X97409523Y-85207142D01*
X97433333Y-85254761D01*
X97480952Y-85302380D01*
X97552380Y-85326190D01*
X97671428Y-85326190D01*
X97171428Y-85326190D02*
X97171428Y-84826190D01*
X96957142Y-85302380D02*
X96885714Y-85326190D01*
X96766666Y-85326190D01*
X96719047Y-85302380D01*
X96695238Y-85278571D01*
X96671428Y-85230952D01*
X96671428Y-85183333D01*
X96695238Y-85135714D01*
X96719047Y-85111904D01*
X96766666Y-85088095D01*
X96861904Y-85064285D01*
X96909523Y-85040476D01*
X96933333Y-85016666D01*
X96957142Y-84969047D01*
X96957142Y-84921428D01*
X96933333Y-84873809D01*
X96909523Y-84850000D01*
X96861904Y-84826190D01*
X96742857Y-84826190D01*
X96671428Y-84850000D01*
X99719047Y-84602380D02*
X99647619Y-84626190D01*
X99528571Y-84626190D01*
X99480952Y-84602380D01*
X99457142Y-84578571D01*
X99433333Y-84530952D01*
X99433333Y-84483333D01*
X99457142Y-84435714D01*
X99480952Y-84411904D01*
X99528571Y-84388095D01*
X99623809Y-84364285D01*
X99671428Y-84340476D01*
X99695238Y-84316666D01*
X99719047Y-84269047D01*
X99719047Y-84221428D01*
X99695238Y-84173809D01*
X99671428Y-84150000D01*
X99623809Y-84126190D01*
X99504761Y-84126190D01*
X99433333Y-84150000D01*
X99219047Y-84626190D02*
X99219047Y-84126190D01*
X99100000Y-84126190D01*
X99028571Y-84150000D01*
X98980952Y-84197619D01*
X98957142Y-84245238D01*
X98933333Y-84340476D01*
X98933333Y-84411904D01*
X98957142Y-84507142D01*
X98980952Y-84554761D01*
X99028571Y-84602380D01*
X99100000Y-84626190D01*
X99219047Y-84626190D01*
X98719047Y-84626190D02*
X98719047Y-84126190D01*
X98433333Y-84626190D01*
X98433333Y-84126190D01*
X97528571Y-84578571D02*
X97552380Y-84602380D01*
X97623809Y-84626190D01*
X97671428Y-84626190D01*
X97742857Y-84602380D01*
X97790476Y-84554761D01*
X97814285Y-84507142D01*
X97838095Y-84411904D01*
X97838095Y-84340476D01*
X97814285Y-84245238D01*
X97790476Y-84197619D01*
X97742857Y-84150000D01*
X97671428Y-84126190D01*
X97623809Y-84126190D01*
X97552380Y-84150000D01*
X97528571Y-84173809D01*
X97219047Y-84126190D02*
X97123809Y-84126190D01*
X97076190Y-84150000D01*
X97028571Y-84197619D01*
X97004761Y-84292857D01*
X97004761Y-84459523D01*
X97028571Y-84554761D01*
X97076190Y-84602380D01*
X97123809Y-84626190D01*
X97219047Y-84626190D01*
X97266666Y-84602380D01*
X97314285Y-84554761D01*
X97338095Y-84459523D01*
X97338095Y-84292857D01*
X97314285Y-84197619D01*
X97266666Y-84150000D01*
X97219047Y-84126190D01*
X96790476Y-84626190D02*
X96790476Y-84126190D01*
X96504761Y-84626190D01*
X96504761Y-84126190D01*
X99659523Y-83926190D02*
X99659523Y-83426190D01*
X99540476Y-83426190D01*
X99469047Y-83450000D01*
X99421428Y-83497619D01*
X99397619Y-83545238D01*
X99373809Y-83640476D01*
X99373809Y-83711904D01*
X99397619Y-83807142D01*
X99421428Y-83854761D01*
X99469047Y-83902380D01*
X99540476Y-83926190D01*
X99659523Y-83926190D01*
X98873809Y-83878571D02*
X98897619Y-83902380D01*
X98969047Y-83926190D01*
X99016666Y-83926190D01*
X99088095Y-83902380D01*
X99135714Y-83854761D01*
X99159523Y-83807142D01*
X99183333Y-83711904D01*
X99183333Y-83640476D01*
X99159523Y-83545238D01*
X99135714Y-83497619D01*
X99088095Y-83450000D01*
X99016666Y-83426190D01*
X98969047Y-83426190D01*
X98897619Y-83450000D01*
X98873809Y-83473809D01*
X98659523Y-83926190D02*
X98659523Y-83426190D01*
X98540476Y-83426190D01*
X98469047Y-83450000D01*
X98421428Y-83497619D01*
X98397619Y-83545238D01*
X98373809Y-83640476D01*
X98373809Y-83711904D01*
X98397619Y-83807142D01*
X98421428Y-83854761D01*
X98469047Y-83902380D01*
X98540476Y-83926190D01*
X98659523Y-83926190D01*
X97873809Y-83878571D02*
X97897619Y-83902380D01*
X97969047Y-83926190D01*
X98016666Y-83926190D01*
X98088095Y-83902380D01*
X98135714Y-83854761D01*
X98159523Y-83807142D01*
X98183333Y-83711904D01*
X98183333Y-83640476D01*
X98159523Y-83545238D01*
X98135714Y-83497619D01*
X98088095Y-83450000D01*
X98016666Y-83426190D01*
X97969047Y-83426190D01*
X97897619Y-83450000D01*
X97873809Y-83473809D01*
X97278571Y-83664285D02*
X97111904Y-83664285D01*
X97040476Y-83926190D02*
X97278571Y-83926190D01*
X97278571Y-83426190D01*
X97040476Y-83426190D01*
X96826190Y-83926190D02*
X96826190Y-83426190D01*
X96540476Y-83926190D01*
X96540476Y-83426190D01*
X99504761Y-83226190D02*
X99504761Y-82726190D01*
X99266666Y-83226190D02*
X99266666Y-82726190D01*
X99100000Y-83083333D01*
X98933333Y-82726190D01*
X98933333Y-83226190D01*
X98695238Y-83226190D02*
X98695238Y-82726190D01*
X98576190Y-82726190D01*
X98504761Y-82750000D01*
X98457142Y-82797619D01*
X98433333Y-82845238D01*
X98409523Y-82940476D01*
X98409523Y-83011904D01*
X98433333Y-83107142D01*
X98457142Y-83154761D01*
X98504761Y-83202380D01*
X98576190Y-83226190D01*
X98695238Y-83226190D01*
X97576190Y-83226190D02*
X97814285Y-83226190D01*
X97814285Y-82726190D01*
X97409523Y-82964285D02*
X97242857Y-82964285D01*
X97171428Y-83226190D02*
X97409523Y-83226190D01*
X97409523Y-82726190D01*
X97171428Y-82726190D01*
X96957142Y-83226190D02*
X96957142Y-82726190D01*
X96838095Y-82726190D01*
X96766666Y-82750000D01*
X96719047Y-82797619D01*
X96695238Y-82845238D01*
X96671428Y-82940476D01*
X96671428Y-83011904D01*
X96695238Y-83107142D01*
X96719047Y-83154761D01*
X96766666Y-83202380D01*
X96838095Y-83226190D01*
X96957142Y-83226190D01*
X99611904Y-82383333D02*
X99373809Y-82383333D01*
X99659523Y-82526190D02*
X99492857Y-82026190D01*
X99326190Y-82526190D01*
X99159523Y-82526190D02*
X99159523Y-82026190D01*
X98992857Y-82383333D01*
X98826190Y-82026190D01*
X98826190Y-82526190D01*
X98611904Y-82502380D02*
X98540476Y-82526190D01*
X98421428Y-82526190D01*
X98373809Y-82502380D01*
X98350000Y-82478571D01*
X98326190Y-82430952D01*
X98326190Y-82383333D01*
X98350000Y-82335714D01*
X98373809Y-82311904D01*
X98421428Y-82288095D01*
X98516666Y-82264285D01*
X98564285Y-82240476D01*
X98588095Y-82216666D01*
X98611904Y-82169047D01*
X98611904Y-82121428D01*
X98588095Y-82073809D01*
X98564285Y-82050000D01*
X98516666Y-82026190D01*
X98397619Y-82026190D01*
X98326190Y-82050000D01*
X97492857Y-82526190D02*
X97730952Y-82526190D01*
X97730952Y-82026190D01*
X97326190Y-82264285D02*
X97159523Y-82264285D01*
X97088095Y-82526190D02*
X97326190Y-82526190D01*
X97326190Y-82026190D01*
X97088095Y-82026190D01*
X96873809Y-82526190D02*
X96873809Y-82026190D01*
X96754761Y-82026190D01*
X96683333Y-82050000D01*
X96635714Y-82097619D01*
X96611904Y-82145238D01*
X96588095Y-82240476D01*
X96588095Y-82311904D01*
X96611904Y-82407142D01*
X96635714Y-82454761D01*
X96683333Y-82502380D01*
X96754761Y-82526190D01*
X96873809Y-82526190D01*
X100380952Y-84826190D02*
X100619047Y-84826190D01*
X100642857Y-85064285D01*
X100619047Y-85040476D01*
X100571428Y-85016666D01*
X100452380Y-85016666D01*
X100404761Y-85040476D01*
X100380952Y-85064285D01*
X100357142Y-85111904D01*
X100357142Y-85230952D01*
X100380952Y-85278571D01*
X100404761Y-85302380D01*
X100452380Y-85326190D01*
X100571428Y-85326190D01*
X100619047Y-85302380D01*
X100642857Y-85278571D01*
X100404761Y-84292857D02*
X100404761Y-84626190D01*
X100523809Y-84102380D02*
X100642857Y-84459523D01*
X100333333Y-84459523D01*
X100666666Y-83426190D02*
X100357142Y-83426190D01*
X100523809Y-83616666D01*
X100452380Y-83616666D01*
X100404761Y-83640476D01*
X100380952Y-83664285D01*
X100357142Y-83711904D01*
X100357142Y-83830952D01*
X100380952Y-83878571D01*
X100404761Y-83902380D01*
X100452380Y-83926190D01*
X100595238Y-83926190D01*
X100642857Y-83902380D01*
X100666666Y-83878571D01*
X100642857Y-82773809D02*
X100619047Y-82750000D01*
X100571428Y-82726190D01*
X100452380Y-82726190D01*
X100404761Y-82750000D01*
X100380952Y-82773809D01*
X100357142Y-82821428D01*
X100357142Y-82869047D01*
X100380952Y-82940476D01*
X100666666Y-83226190D01*
X100357142Y-83226190D01*
X100357142Y-82526190D02*
X100642857Y-82526190D01*
X100500000Y-82526190D02*
X100500000Y-82026190D01*
X100547619Y-82097619D01*
X100595238Y-82145238D01*
X100642857Y-82169047D01*
D10*
X96000000Y-85500000D02*
X101000000Y-85500000D01*
X96000000Y-81800000D02*
X96000000Y-85500000D01*
X101000000Y-81800000D02*
X96000000Y-81800000D01*
X101000000Y-85500000D02*
X101000000Y-81800000D01*
D11*
X104080952Y-103926190D02*
X104319047Y-103926190D01*
X104342857Y-104164285D01*
X104319047Y-104140476D01*
X104271428Y-104116666D01*
X104152380Y-104116666D01*
X104104761Y-104140476D01*
X104080952Y-104164285D01*
X104057142Y-104211904D01*
X104057142Y-104330952D01*
X104080952Y-104378571D01*
X104104761Y-104402380D01*
X104152380Y-104426190D01*
X104271428Y-104426190D01*
X104319047Y-104402380D01*
X104342857Y-104378571D01*
X103104761Y-99092857D02*
X103104761Y-99426190D01*
X103223809Y-98902380D02*
X103342857Y-99259523D01*
X103033333Y-99259523D01*
X103366666Y-97226190D02*
X103057142Y-97226190D01*
X103223809Y-97416666D01*
X103152380Y-97416666D01*
X103104761Y-97440476D01*
X103080952Y-97464285D01*
X103057142Y-97511904D01*
X103057142Y-97630952D01*
X103080952Y-97678571D01*
X103104761Y-97702380D01*
X103152380Y-97726190D01*
X103295238Y-97726190D01*
X103342857Y-97702380D01*
X103366666Y-97678571D01*
X104242857Y-93473809D02*
X104219047Y-93450000D01*
X104171428Y-93426190D01*
X104052380Y-93426190D01*
X104004761Y-93450000D01*
X103980952Y-93473809D01*
X103957142Y-93521428D01*
X103957142Y-93569047D01*
X103980952Y-93640476D01*
X104266666Y-93926190D01*
X103957142Y-93926190D01*
X104057142Y-89926190D02*
X104342857Y-89926190D01*
X104200000Y-89926190D02*
X104200000Y-89426190D01*
X104247619Y-89497619D01*
X104295238Y-89545238D01*
X104342857Y-89569047D01*
D12*
X137000000Y-133500000D02*
G75*
G03*
X137000000Y-133500000I-2000000J0D01*
G01*
X87200000Y-140200000D02*
G75*
G03*
X87200000Y-140200000I-2000000J0D01*
G01*
X87300000Y-128700000D02*
G75*
G03*
X87300000Y-128700000I-2000000J0D01*
G01*
X87500000Y-56000000D02*
G75*
G03*
X87500000Y-56000000I-2000000J0D01*
G01*
X136700000Y-46600000D02*
G75*
G03*
X136700000Y-46600000I-2000000J0D01*
G01*
X137000000Y-160000000D02*
G75*
G03*
X137000000Y-160000000I-2000000J0D01*
G01*
X87000000Y-160000000D02*
G75*
G03*
X87000000Y-160000000I-2000000J0D01*
G01*
X87000000Y-95000000D02*
G75*
G03*
X87000000Y-95000000I-2000000J0D01*
G01*
X137000000Y-95000000D02*
G75*
G03*
X137000000Y-95000000I-2000000J0D01*
G01*
X137000000Y-30000000D02*
G75*
G03*
X137000000Y-30000000I-2000000J0D01*
G01*
X87000000Y-30000000D02*
G75*
G03*
X87000000Y-30000000I-2000000J0D01*
G01*
D11*
X129369047Y-136702380D02*
X129297619Y-136726190D01*
X129178571Y-136726190D01*
X129130952Y-136702380D01*
X129107142Y-136678571D01*
X129083333Y-136630952D01*
X129083333Y-136583333D01*
X129107142Y-136535714D01*
X129130952Y-136511904D01*
X129178571Y-136488095D01*
X129273809Y-136464285D01*
X129321428Y-136440476D01*
X129345238Y-136416666D01*
X129369047Y-136369047D01*
X129369047Y-136321428D01*
X129345238Y-136273809D01*
X129321428Y-136250000D01*
X129273809Y-136226190D01*
X129154761Y-136226190D01*
X129083333Y-136250000D01*
X128869047Y-136726190D02*
X128869047Y-136226190D01*
X128750000Y-136226190D01*
X128678571Y-136250000D01*
X128630952Y-136297619D01*
X128607142Y-136345238D01*
X128583333Y-136440476D01*
X128583333Y-136511904D01*
X128607142Y-136607142D01*
X128630952Y-136654761D01*
X128678571Y-136702380D01*
X128750000Y-136726190D01*
X128869047Y-136726190D01*
X128369047Y-136726190D02*
X128369047Y-136226190D01*
X128083333Y-136726190D01*
X128083333Y-136226190D01*
X127178571Y-136678571D02*
X127202380Y-136702380D01*
X127273809Y-136726190D01*
X127321428Y-136726190D01*
X127392857Y-136702380D01*
X127440476Y-136654761D01*
X127464285Y-136607142D01*
X127488095Y-136511904D01*
X127488095Y-136440476D01*
X127464285Y-136345238D01*
X127440476Y-136297619D01*
X127392857Y-136250000D01*
X127321428Y-136226190D01*
X127273809Y-136226190D01*
X127202380Y-136250000D01*
X127178571Y-136273809D01*
X126869047Y-136226190D02*
X126773809Y-136226190D01*
X126726190Y-136250000D01*
X126678571Y-136297619D01*
X126654761Y-136392857D01*
X126654761Y-136559523D01*
X126678571Y-136654761D01*
X126726190Y-136702380D01*
X126773809Y-136726190D01*
X126869047Y-136726190D01*
X126916666Y-136702380D01*
X126964285Y-136654761D01*
X126988095Y-136559523D01*
X126988095Y-136392857D01*
X126964285Y-136297619D01*
X126916666Y-136250000D01*
X126869047Y-136226190D01*
X126440476Y-136726190D02*
X126440476Y-136226190D01*
X126154761Y-136726190D01*
X126154761Y-136226190D01*
X128833333Y-133726190D02*
X128833333Y-133226190D01*
X128833333Y-133464285D02*
X128547619Y-133464285D01*
X128547619Y-133726190D02*
X128547619Y-133226190D01*
X128333333Y-133702380D02*
X128261904Y-133726190D01*
X128142857Y-133726190D01*
X128095238Y-133702380D01*
X128071428Y-133678571D01*
X128047619Y-133630952D01*
X128047619Y-133583333D01*
X128071428Y-133535714D01*
X128095238Y-133511904D01*
X128142857Y-133488095D01*
X128238095Y-133464285D01*
X128285714Y-133440476D01*
X128309523Y-133416666D01*
X128333333Y-133369047D01*
X128333333Y-133321428D01*
X128309523Y-133273809D01*
X128285714Y-133250000D01*
X128238095Y-133226190D01*
X128119047Y-133226190D01*
X128047619Y-133250000D01*
X127452380Y-133726190D02*
X127452380Y-133226190D01*
X127333333Y-133226190D01*
X127261904Y-133250000D01*
X127214285Y-133297619D01*
X127190476Y-133345238D01*
X127166666Y-133440476D01*
X127166666Y-133511904D01*
X127190476Y-133607142D01*
X127214285Y-133654761D01*
X127261904Y-133702380D01*
X127333333Y-133726190D01*
X127452380Y-133726190D01*
X126666666Y-133726190D02*
X126833333Y-133488095D01*
X126952380Y-133726190D02*
X126952380Y-133226190D01*
X126761904Y-133226190D01*
X126714285Y-133250000D01*
X126690476Y-133273809D01*
X126666666Y-133321428D01*
X126666666Y-133392857D01*
X126690476Y-133440476D01*
X126714285Y-133464285D01*
X126761904Y-133488095D01*
X126952380Y-133488095D01*
X126452380Y-133726190D02*
X126452380Y-133226190D01*
X126166666Y-133726190D01*
X126166666Y-133226190D01*
X132035714Y-133726190D02*
X132035714Y-133226190D01*
X132035714Y-133464285D02*
X131750000Y-133464285D01*
X131750000Y-133726190D02*
X131750000Y-133226190D01*
X131535714Y-133702380D02*
X131464285Y-133726190D01*
X131345238Y-133726190D01*
X131297619Y-133702380D01*
X131273809Y-133678571D01*
X131250000Y-133630952D01*
X131250000Y-133583333D01*
X131273809Y-133535714D01*
X131297619Y-133511904D01*
X131345238Y-133488095D01*
X131440476Y-133464285D01*
X131488095Y-133440476D01*
X131511904Y-133416666D01*
X131535714Y-133369047D01*
X131535714Y-133321428D01*
X131511904Y-133273809D01*
X131488095Y-133250000D01*
X131440476Y-133226190D01*
X131321428Y-133226190D01*
X131250000Y-133250000D01*
X130678571Y-133583333D02*
X130440476Y-133583333D01*
X130726190Y-133726190D02*
X130559523Y-133226190D01*
X130392857Y-133726190D01*
X130226190Y-133226190D02*
X130226190Y-133630952D01*
X130202380Y-133678571D01*
X130178571Y-133702380D01*
X130130952Y-133726190D01*
X130035714Y-133726190D01*
X129988095Y-133702380D01*
X129964285Y-133678571D01*
X129940476Y-133630952D01*
X129940476Y-133226190D01*
X129750000Y-133226190D02*
X129416666Y-133726190D01*
X129416666Y-133226190D02*
X129750000Y-133726190D01*
X131130952Y-130250000D02*
X131178571Y-130226190D01*
X131250000Y-130226190D01*
X131321428Y-130250000D01*
X131369047Y-130297619D01*
X131392857Y-130345238D01*
X131416666Y-130440476D01*
X131416666Y-130511904D01*
X131392857Y-130607142D01*
X131369047Y-130654761D01*
X131321428Y-130702380D01*
X131250000Y-130726190D01*
X131202380Y-130726190D01*
X131130952Y-130702380D01*
X131107142Y-130678571D01*
X131107142Y-130511904D01*
X131202380Y-130511904D01*
X130892857Y-130726190D02*
X130892857Y-130226190D01*
X130607142Y-130726190D01*
X130607142Y-130226190D01*
X130369047Y-130726190D02*
X130369047Y-130226190D01*
X130250000Y-130226190D01*
X130178571Y-130250000D01*
X130130952Y-130297619D01*
X130107142Y-130345238D01*
X130083333Y-130440476D01*
X130083333Y-130511904D01*
X130107142Y-130607142D01*
X130130952Y-130654761D01*
X130178571Y-130702380D01*
X130250000Y-130726190D01*
X130369047Y-130726190D01*
X94500000Y-143476190D02*
X94738095Y-143476190D01*
X94738095Y-142976190D01*
X94357142Y-143452380D02*
X94285714Y-143476190D01*
X94166666Y-143476190D01*
X94119047Y-143452380D01*
X94095238Y-143428571D01*
X94071428Y-143380952D01*
X94071428Y-143333333D01*
X94095238Y-143285714D01*
X94119047Y-143261904D01*
X94166666Y-143238095D01*
X94261904Y-143214285D01*
X94309523Y-143190476D01*
X94333333Y-143166666D01*
X94357142Y-143119047D01*
X94357142Y-143071428D01*
X94333333Y-143023809D01*
X94309523Y-143000000D01*
X94261904Y-142976190D01*
X94142857Y-142976190D01*
X94071428Y-143000000D01*
X93190476Y-143428571D02*
X93214285Y-143452380D01*
X93285714Y-143476190D01*
X93333333Y-143476190D01*
X93404761Y-143452380D01*
X93452380Y-143404761D01*
X93476190Y-143357142D01*
X93500000Y-143261904D01*
X93500000Y-143190476D01*
X93476190Y-143095238D01*
X93452380Y-143047619D01*
X93404761Y-143000000D01*
X93333333Y-142976190D01*
X93285714Y-142976190D01*
X93214285Y-143000000D01*
X93190476Y-143023809D01*
X92880952Y-142976190D02*
X92785714Y-142976190D01*
X92738095Y-143000000D01*
X92690476Y-143047619D01*
X92666666Y-143142857D01*
X92666666Y-143309523D01*
X92690476Y-143404761D01*
X92738095Y-143452380D01*
X92785714Y-143476190D01*
X92880952Y-143476190D01*
X92928571Y-143452380D01*
X92976190Y-143404761D01*
X93000000Y-143309523D01*
X93000000Y-143142857D01*
X92976190Y-143047619D01*
X92928571Y-143000000D01*
X92880952Y-142976190D01*
X92452380Y-143476190D02*
X92452380Y-142976190D01*
X92166666Y-143476190D01*
X92166666Y-142976190D01*
X91285714Y-143000000D02*
X91333333Y-142976190D01*
X91404761Y-142976190D01*
X91476190Y-143000000D01*
X91523809Y-143047619D01*
X91547619Y-143095238D01*
X91571428Y-143190476D01*
X91571428Y-143261904D01*
X91547619Y-143357142D01*
X91523809Y-143404761D01*
X91476190Y-143452380D01*
X91404761Y-143476190D01*
X91357142Y-143476190D01*
X91285714Y-143452380D01*
X91261904Y-143428571D01*
X91261904Y-143261904D01*
X91357142Y-143261904D01*
X91047619Y-143476190D02*
X91047619Y-142976190D01*
X90761904Y-143476190D01*
X90761904Y-142976190D01*
X90523809Y-143476190D02*
X90523809Y-142976190D01*
X90404761Y-142976190D01*
X90333333Y-143000000D01*
X90285714Y-143047619D01*
X90261904Y-143095238D01*
X90238095Y-143190476D01*
X90238095Y-143261904D01*
X90261904Y-143357142D01*
X90285714Y-143404761D01*
X90333333Y-143452380D01*
X90404761Y-143476190D01*
X90523809Y-143476190D01*
X94119047Y-140452380D02*
X94047619Y-140476190D01*
X93928571Y-140476190D01*
X93880952Y-140452380D01*
X93857142Y-140428571D01*
X93833333Y-140380952D01*
X93833333Y-140333333D01*
X93857142Y-140285714D01*
X93880952Y-140261904D01*
X93928571Y-140238095D01*
X94023809Y-140214285D01*
X94071428Y-140190476D01*
X94095238Y-140166666D01*
X94119047Y-140119047D01*
X94119047Y-140071428D01*
X94095238Y-140023809D01*
X94071428Y-140000000D01*
X94023809Y-139976190D01*
X93904761Y-139976190D01*
X93833333Y-140000000D01*
X93619047Y-140476190D02*
X93619047Y-139976190D01*
X93500000Y-139976190D01*
X93428571Y-140000000D01*
X93380952Y-140047619D01*
X93357142Y-140095238D01*
X93333333Y-140190476D01*
X93333333Y-140261904D01*
X93357142Y-140357142D01*
X93380952Y-140404761D01*
X93428571Y-140452380D01*
X93500000Y-140476190D01*
X93619047Y-140476190D01*
X93119047Y-140476190D02*
X93119047Y-139976190D01*
X92833333Y-140476190D01*
X92833333Y-139976190D01*
X91928571Y-140428571D02*
X91952380Y-140452380D01*
X92023809Y-140476190D01*
X92071428Y-140476190D01*
X92142857Y-140452380D01*
X92190476Y-140404761D01*
X92214285Y-140357142D01*
X92238095Y-140261904D01*
X92238095Y-140190476D01*
X92214285Y-140095238D01*
X92190476Y-140047619D01*
X92142857Y-140000000D01*
X92071428Y-139976190D01*
X92023809Y-139976190D01*
X91952380Y-140000000D01*
X91928571Y-140023809D01*
X91619047Y-139976190D02*
X91523809Y-139976190D01*
X91476190Y-140000000D01*
X91428571Y-140047619D01*
X91404761Y-140142857D01*
X91404761Y-140309523D01*
X91428571Y-140404761D01*
X91476190Y-140452380D01*
X91523809Y-140476190D01*
X91619047Y-140476190D01*
X91666666Y-140452380D01*
X91714285Y-140404761D01*
X91738095Y-140309523D01*
X91738095Y-140142857D01*
X91714285Y-140047619D01*
X91666666Y-140000000D01*
X91619047Y-139976190D01*
X91190476Y-140476190D02*
X91190476Y-139976190D01*
X90904761Y-140476190D01*
X90904761Y-139976190D01*
X89880952Y-140000000D02*
X89928571Y-139976190D01*
X90000000Y-139976190D01*
X90071428Y-140000000D01*
X90119047Y-140047619D01*
X90142857Y-140095238D01*
X90166666Y-140190476D01*
X90166666Y-140261904D01*
X90142857Y-140357142D01*
X90119047Y-140404761D01*
X90071428Y-140452380D01*
X90000000Y-140476190D01*
X89952380Y-140476190D01*
X89880952Y-140452380D01*
X89857142Y-140428571D01*
X89857142Y-140261904D01*
X89952380Y-140261904D01*
X89642857Y-140476190D02*
X89642857Y-139976190D01*
X89357142Y-140476190D01*
X89357142Y-139976190D01*
X89119047Y-140476190D02*
X89119047Y-139976190D01*
X89000000Y-139976190D01*
X88928571Y-140000000D01*
X88880952Y-140047619D01*
X88857142Y-140095238D01*
X88833333Y-140190476D01*
X88833333Y-140261904D01*
X88857142Y-140357142D01*
X88880952Y-140404761D01*
X88928571Y-140452380D01*
X89000000Y-140476190D01*
X89119047Y-140476190D01*
X90488095Y-137476190D02*
X90726190Y-137476190D01*
X90726190Y-136976190D01*
X90345238Y-137452380D02*
X90273809Y-137476190D01*
X90154761Y-137476190D01*
X90107142Y-137452380D01*
X90083333Y-137428571D01*
X90059523Y-137380952D01*
X90059523Y-137333333D01*
X90083333Y-137285714D01*
X90107142Y-137261904D01*
X90154761Y-137238095D01*
X90250000Y-137214285D01*
X90297619Y-137190476D01*
X90321428Y-137166666D01*
X90345238Y-137119047D01*
X90345238Y-137071428D01*
X90321428Y-137023809D01*
X90297619Y-137000000D01*
X90250000Y-136976190D01*
X90130952Y-136976190D01*
X90059523Y-137000000D01*
X89488095Y-137333333D02*
X89250000Y-137333333D01*
X89535714Y-137476190D02*
X89369047Y-136976190D01*
X89202380Y-137476190D01*
X89035714Y-136976190D02*
X89035714Y-137380952D01*
X89011904Y-137428571D01*
X88988095Y-137452380D01*
X88940476Y-137476190D01*
X88845238Y-137476190D01*
X88797619Y-137452380D01*
X88773809Y-137428571D01*
X88750000Y-137380952D01*
X88750000Y-136976190D01*
X88559523Y-136976190D02*
X88226190Y-137476190D01*
X88226190Y-136976190D02*
X88559523Y-137476190D01*
X95400000Y-131976190D02*
X95638095Y-131976190D01*
X95638095Y-131476190D01*
X95257142Y-131952380D02*
X95185714Y-131976190D01*
X95066666Y-131976190D01*
X95019047Y-131952380D01*
X94995238Y-131928571D01*
X94971428Y-131880952D01*
X94971428Y-131833333D01*
X94995238Y-131785714D01*
X95019047Y-131761904D01*
X95066666Y-131738095D01*
X95161904Y-131714285D01*
X95209523Y-131690476D01*
X95233333Y-131666666D01*
X95257142Y-131619047D01*
X95257142Y-131571428D01*
X95233333Y-131523809D01*
X95209523Y-131500000D01*
X95161904Y-131476190D01*
X95042857Y-131476190D01*
X94971428Y-131500000D01*
X94090476Y-131928571D02*
X94114285Y-131952380D01*
X94185714Y-131976190D01*
X94233333Y-131976190D01*
X94304761Y-131952380D01*
X94352380Y-131904761D01*
X94376190Y-131857142D01*
X94400000Y-131761904D01*
X94400000Y-131690476D01*
X94376190Y-131595238D01*
X94352380Y-131547619D01*
X94304761Y-131500000D01*
X94233333Y-131476190D01*
X94185714Y-131476190D01*
X94114285Y-131500000D01*
X94090476Y-131523809D01*
X93780952Y-131476190D02*
X93685714Y-131476190D01*
X93638095Y-131500000D01*
X93590476Y-131547619D01*
X93566666Y-131642857D01*
X93566666Y-131809523D01*
X93590476Y-131904761D01*
X93638095Y-131952380D01*
X93685714Y-131976190D01*
X93780952Y-131976190D01*
X93828571Y-131952380D01*
X93876190Y-131904761D01*
X93900000Y-131809523D01*
X93900000Y-131642857D01*
X93876190Y-131547619D01*
X93828571Y-131500000D01*
X93780952Y-131476190D01*
X93352380Y-131976190D02*
X93352380Y-131476190D01*
X93066666Y-131976190D01*
X93066666Y-131476190D01*
X92185714Y-131500000D02*
X92233333Y-131476190D01*
X92304761Y-131476190D01*
X92376190Y-131500000D01*
X92423809Y-131547619D01*
X92447619Y-131595238D01*
X92471428Y-131690476D01*
X92471428Y-131761904D01*
X92447619Y-131857142D01*
X92423809Y-131904761D01*
X92376190Y-131952380D01*
X92304761Y-131976190D01*
X92257142Y-131976190D01*
X92185714Y-131952380D01*
X92161904Y-131928571D01*
X92161904Y-131761904D01*
X92257142Y-131761904D01*
X91947619Y-131976190D02*
X91947619Y-131476190D01*
X91661904Y-131976190D01*
X91661904Y-131476190D01*
X91423809Y-131976190D02*
X91423809Y-131476190D01*
X91304761Y-131476190D01*
X91233333Y-131500000D01*
X91185714Y-131547619D01*
X91161904Y-131595238D01*
X91138095Y-131690476D01*
X91138095Y-131761904D01*
X91161904Y-131857142D01*
X91185714Y-131904761D01*
X91233333Y-131952380D01*
X91304761Y-131976190D01*
X91423809Y-131976190D01*
X91745238Y-128976190D02*
X91745238Y-128476190D01*
X91554761Y-128476190D01*
X91507142Y-128500000D01*
X91483333Y-128523809D01*
X91459523Y-128571428D01*
X91459523Y-128642857D01*
X91483333Y-128690476D01*
X91507142Y-128714285D01*
X91554761Y-128738095D01*
X91745238Y-128738095D01*
X90959523Y-128976190D02*
X91126190Y-128738095D01*
X91245238Y-128976190D02*
X91245238Y-128476190D01*
X91054761Y-128476190D01*
X91007142Y-128500000D01*
X90983333Y-128523809D01*
X90959523Y-128571428D01*
X90959523Y-128642857D01*
X90983333Y-128690476D01*
X91007142Y-128714285D01*
X91054761Y-128738095D01*
X91245238Y-128738095D01*
X90459523Y-128928571D02*
X90483333Y-128952380D01*
X90554761Y-128976190D01*
X90602380Y-128976190D01*
X90673809Y-128952380D01*
X90721428Y-128904761D01*
X90745238Y-128857142D01*
X90769047Y-128761904D01*
X90769047Y-128690476D01*
X90745238Y-128595238D01*
X90721428Y-128547619D01*
X90673809Y-128500000D01*
X90602380Y-128476190D01*
X90554761Y-128476190D01*
X90483333Y-128500000D01*
X90459523Y-128523809D01*
X90245238Y-128976190D02*
X90245238Y-128476190D01*
X90245238Y-128714285D02*
X89959523Y-128714285D01*
X89959523Y-128976190D02*
X89959523Y-128476190D01*
X89078571Y-128500000D02*
X89126190Y-128476190D01*
X89197619Y-128476190D01*
X89269047Y-128500000D01*
X89316666Y-128547619D01*
X89340476Y-128595238D01*
X89364285Y-128690476D01*
X89364285Y-128761904D01*
X89340476Y-128857142D01*
X89316666Y-128904761D01*
X89269047Y-128952380D01*
X89197619Y-128976190D01*
X89150000Y-128976190D01*
X89078571Y-128952380D01*
X89054761Y-128928571D01*
X89054761Y-128761904D01*
X89150000Y-128761904D01*
X88840476Y-128976190D02*
X88840476Y-128476190D01*
X88554761Y-128976190D01*
X88554761Y-128476190D01*
X88316666Y-128976190D02*
X88316666Y-128476190D01*
X88197619Y-128476190D01*
X88126190Y-128500000D01*
X88078571Y-128547619D01*
X88054761Y-128595238D01*
X88030952Y-128690476D01*
X88030952Y-128761904D01*
X88054761Y-128857142D01*
X88078571Y-128904761D01*
X88126190Y-128952380D01*
X88197619Y-128976190D01*
X88316666Y-128976190D01*
X93842857Y-128976190D02*
X93842857Y-128476190D01*
X93557142Y-128976190D01*
X93557142Y-128476190D01*
X93033333Y-128928571D02*
X93057142Y-128952380D01*
X93128571Y-128976190D01*
X93176190Y-128976190D01*
X93247619Y-128952380D01*
X93295238Y-128904761D01*
X93319047Y-128857142D01*
X93342857Y-128761904D01*
X93342857Y-128690476D01*
X93319047Y-128595238D01*
X93295238Y-128547619D01*
X93247619Y-128500000D01*
X93176190Y-128476190D01*
X93128571Y-128476190D01*
X93057142Y-128500000D01*
X93033333Y-128523809D01*
X91797619Y-125976190D02*
X91797619Y-125476190D01*
X91797619Y-125714285D02*
X91511904Y-125714285D01*
X91511904Y-125976190D02*
X91511904Y-125476190D01*
X91297619Y-125952380D02*
X91226190Y-125976190D01*
X91107142Y-125976190D01*
X91059523Y-125952380D01*
X91035714Y-125928571D01*
X91011904Y-125880952D01*
X91011904Y-125833333D01*
X91035714Y-125785714D01*
X91059523Y-125761904D01*
X91107142Y-125738095D01*
X91202380Y-125714285D01*
X91250000Y-125690476D01*
X91273809Y-125666666D01*
X91297619Y-125619047D01*
X91297619Y-125571428D01*
X91273809Y-125523809D01*
X91250000Y-125500000D01*
X91202380Y-125476190D01*
X91083333Y-125476190D01*
X91011904Y-125500000D01*
X90130952Y-125928571D02*
X90154761Y-125952380D01*
X90226190Y-125976190D01*
X90273809Y-125976190D01*
X90345238Y-125952380D01*
X90392857Y-125904761D01*
X90416666Y-125857142D01*
X90440476Y-125761904D01*
X90440476Y-125690476D01*
X90416666Y-125595238D01*
X90392857Y-125547619D01*
X90345238Y-125500000D01*
X90273809Y-125476190D01*
X90226190Y-125476190D01*
X90154761Y-125500000D01*
X90130952Y-125523809D01*
X89821428Y-125476190D02*
X89726190Y-125476190D01*
X89678571Y-125500000D01*
X89630952Y-125547619D01*
X89607142Y-125642857D01*
X89607142Y-125809523D01*
X89630952Y-125904761D01*
X89678571Y-125952380D01*
X89726190Y-125976190D01*
X89821428Y-125976190D01*
X89869047Y-125952380D01*
X89916666Y-125904761D01*
X89940476Y-125809523D01*
X89940476Y-125642857D01*
X89916666Y-125547619D01*
X89869047Y-125500000D01*
X89821428Y-125476190D01*
X89392857Y-125976190D02*
X89392857Y-125476190D01*
X89107142Y-125976190D01*
X89107142Y-125476190D01*
X88226190Y-125500000D02*
X88273809Y-125476190D01*
X88345238Y-125476190D01*
X88416666Y-125500000D01*
X88464285Y-125547619D01*
X88488095Y-125595238D01*
X88511904Y-125690476D01*
X88511904Y-125761904D01*
X88488095Y-125857142D01*
X88464285Y-125904761D01*
X88416666Y-125952380D01*
X88345238Y-125976190D01*
X88297619Y-125976190D01*
X88226190Y-125952380D01*
X88202380Y-125928571D01*
X88202380Y-125761904D01*
X88297619Y-125761904D01*
X87988095Y-125976190D02*
X87988095Y-125476190D01*
X87702380Y-125976190D01*
X87702380Y-125476190D01*
X87464285Y-125976190D02*
X87464285Y-125476190D01*
X87345238Y-125476190D01*
X87273809Y-125500000D01*
X87226190Y-125547619D01*
X87202380Y-125595238D01*
X87178571Y-125690476D01*
X87178571Y-125761904D01*
X87202380Y-125857142D01*
X87226190Y-125904761D01*
X87273809Y-125952380D01*
X87345238Y-125976190D01*
X87464285Y-125976190D01*
X138916666Y-73226190D02*
X138916666Y-72726190D01*
X138678571Y-73226190D02*
X138678571Y-72726190D01*
X138511904Y-73083333D01*
X138345238Y-72726190D01*
X138345238Y-73226190D01*
X138107142Y-73226190D02*
X138107142Y-72726190D01*
X137988095Y-72726190D01*
X137916666Y-72750000D01*
X137869047Y-72797619D01*
X137845238Y-72845238D01*
X137821428Y-72940476D01*
X137821428Y-73011904D01*
X137845238Y-73107142D01*
X137869047Y-73154761D01*
X137916666Y-73202380D01*
X137988095Y-73226190D01*
X138107142Y-73226190D01*
X137250000Y-73202380D02*
X137178571Y-73226190D01*
X137059523Y-73226190D01*
X137011904Y-73202380D01*
X136988095Y-73178571D01*
X136964285Y-73130952D01*
X136964285Y-73083333D01*
X136988095Y-73035714D01*
X137011904Y-73011904D01*
X137059523Y-72988095D01*
X137154761Y-72964285D01*
X137202380Y-72940476D01*
X137226190Y-72916666D01*
X137250000Y-72869047D01*
X137250000Y-72821428D01*
X137226190Y-72773809D01*
X137202380Y-72750000D01*
X137154761Y-72726190D01*
X137035714Y-72726190D01*
X136964285Y-72750000D01*
X136821428Y-72726190D02*
X136535714Y-72726190D01*
X136678571Y-73226190D02*
X136678571Y-72726190D01*
X136273809Y-72726190D02*
X136178571Y-72726190D01*
X136130952Y-72750000D01*
X136083333Y-72797619D01*
X136059523Y-72892857D01*
X136059523Y-73059523D01*
X136083333Y-73154761D01*
X136130952Y-73202380D01*
X136178571Y-73226190D01*
X136273809Y-73226190D01*
X136321428Y-73202380D01*
X136369047Y-73154761D01*
X136392857Y-73059523D01*
X136392857Y-72892857D01*
X136369047Y-72797619D01*
X136321428Y-72750000D01*
X136273809Y-72726190D01*
X138869047Y-70226190D02*
X138869047Y-69726190D01*
X138630952Y-70226190D02*
X138630952Y-69726190D01*
X138464285Y-70083333D01*
X138297619Y-69726190D01*
X138297619Y-70226190D01*
X138059523Y-70226190D02*
X138059523Y-69726190D01*
X137940476Y-69726190D01*
X137869047Y-69750000D01*
X137821428Y-69797619D01*
X137797619Y-69845238D01*
X137773809Y-69940476D01*
X137773809Y-70011904D01*
X137797619Y-70107142D01*
X137821428Y-70154761D01*
X137869047Y-70202380D01*
X137940476Y-70226190D01*
X138059523Y-70226190D01*
X137178571Y-70226190D02*
X137178571Y-69726190D01*
X137059523Y-69726190D01*
X136988095Y-69750000D01*
X136940476Y-69797619D01*
X136916666Y-69845238D01*
X136892857Y-69940476D01*
X136892857Y-70011904D01*
X136916666Y-70107142D01*
X136940476Y-70154761D01*
X136988095Y-70202380D01*
X137059523Y-70226190D01*
X137178571Y-70226190D01*
X136797619Y-70273809D02*
X136416666Y-70273809D01*
X136059523Y-70226190D02*
X136297619Y-70226190D01*
X136297619Y-69726190D01*
X138916666Y-67226190D02*
X138916666Y-66726190D01*
X138678571Y-67226190D02*
X138678571Y-66726190D01*
X138511904Y-67083333D01*
X138345238Y-66726190D01*
X138345238Y-67226190D01*
X138107142Y-67226190D02*
X138107142Y-66726190D01*
X137988095Y-66726190D01*
X137916666Y-66750000D01*
X137869047Y-66797619D01*
X137845238Y-66845238D01*
X137821428Y-66940476D01*
X137821428Y-67011904D01*
X137845238Y-67107142D01*
X137869047Y-67154761D01*
X137916666Y-67202380D01*
X137988095Y-67226190D01*
X138107142Y-67226190D01*
X136964285Y-67226190D02*
X137250000Y-67226190D01*
X137107142Y-67226190D02*
X137107142Y-66726190D01*
X137154761Y-66797619D01*
X137202380Y-66845238D01*
X137250000Y-66869047D01*
X136773809Y-66773809D02*
X136750000Y-66750000D01*
X136702380Y-66726190D01*
X136583333Y-66726190D01*
X136535714Y-66750000D01*
X136511904Y-66773809D01*
X136488095Y-66821428D01*
X136488095Y-66869047D01*
X136511904Y-66940476D01*
X136797619Y-67226190D01*
X136488095Y-67226190D01*
X136345238Y-66726190D02*
X136178571Y-67226190D01*
X136011904Y-66726190D01*
X137880952Y-63750000D02*
X137928571Y-63726190D01*
X138000000Y-63726190D01*
X138071428Y-63750000D01*
X138119047Y-63797619D01*
X138142857Y-63845238D01*
X138166666Y-63940476D01*
X138166666Y-64011904D01*
X138142857Y-64107142D01*
X138119047Y-64154761D01*
X138071428Y-64202380D01*
X138000000Y-64226190D01*
X137952380Y-64226190D01*
X137880952Y-64202380D01*
X137857142Y-64178571D01*
X137857142Y-64011904D01*
X137952380Y-64011904D01*
X137642857Y-64226190D02*
X137642857Y-63726190D01*
X137357142Y-64226190D01*
X137357142Y-63726190D01*
X137119047Y-64226190D02*
X137119047Y-63726190D01*
X137000000Y-63726190D01*
X136928571Y-63750000D01*
X136880952Y-63797619D01*
X136857142Y-63845238D01*
X136833333Y-63940476D01*
X136833333Y-64011904D01*
X136857142Y-64107142D01*
X136880952Y-64154761D01*
X136928571Y-64202380D01*
X137000000Y-64226190D01*
X137119047Y-64226190D01*
X134202380Y-76226190D02*
X134202380Y-75726190D01*
X133964285Y-76226190D02*
X133964285Y-75726190D01*
X133797619Y-76083333D01*
X133630952Y-75726190D01*
X133630952Y-76226190D01*
X133392857Y-76226190D02*
X133392857Y-75726190D01*
X133273809Y-75726190D01*
X133202380Y-75750000D01*
X133154761Y-75797619D01*
X133130952Y-75845238D01*
X133107142Y-75940476D01*
X133107142Y-76011904D01*
X133130952Y-76107142D01*
X133154761Y-76154761D01*
X133202380Y-76202380D01*
X133273809Y-76226190D01*
X133392857Y-76226190D01*
X132511904Y-76226190D02*
X132511904Y-75726190D01*
X132226190Y-76226190D02*
X132440476Y-75940476D01*
X132226190Y-75726190D02*
X132511904Y-76011904D01*
X132011904Y-75964285D02*
X131845238Y-75964285D01*
X131773809Y-76226190D02*
X132011904Y-76226190D01*
X132011904Y-75726190D01*
X131773809Y-75726190D01*
X133952380Y-73226190D02*
X133952380Y-72726190D01*
X133714285Y-73226190D02*
X133714285Y-72726190D01*
X133547619Y-73083333D01*
X133380952Y-72726190D01*
X133380952Y-73226190D01*
X133142857Y-73226190D02*
X133142857Y-72726190D01*
X133023809Y-72726190D01*
X132952380Y-72750000D01*
X132904761Y-72797619D01*
X132880952Y-72845238D01*
X132857142Y-72940476D01*
X132857142Y-73011904D01*
X132880952Y-73107142D01*
X132904761Y-73154761D01*
X132952380Y-73202380D01*
X133023809Y-73226190D01*
X133142857Y-73226190D01*
X132261904Y-72964285D02*
X132095238Y-72964285D01*
X132023809Y-73226190D02*
X132261904Y-73226190D01*
X132261904Y-72726190D01*
X132023809Y-72726190D01*
X133952380Y-70226190D02*
X133952380Y-69726190D01*
X133714285Y-70226190D02*
X133714285Y-69726190D01*
X133547619Y-70083333D01*
X133380952Y-69726190D01*
X133380952Y-70226190D01*
X133142857Y-70226190D02*
X133142857Y-69726190D01*
X133023809Y-69726190D01*
X132952380Y-69750000D01*
X132904761Y-69797619D01*
X132880952Y-69845238D01*
X132857142Y-69940476D01*
X132857142Y-70011904D01*
X132880952Y-70107142D01*
X132904761Y-70154761D01*
X132952380Y-70202380D01*
X133023809Y-70226190D01*
X133142857Y-70226190D01*
X132261904Y-69964285D02*
X132095238Y-69964285D01*
X132023809Y-70226190D02*
X132261904Y-70226190D01*
X132261904Y-69726190D01*
X132023809Y-69726190D01*
X134202380Y-67226190D02*
X134202380Y-66726190D01*
X133964285Y-67226190D02*
X133964285Y-66726190D01*
X133797619Y-67083333D01*
X133630952Y-66726190D01*
X133630952Y-67226190D01*
X133392857Y-67226190D02*
X133392857Y-66726190D01*
X133273809Y-66726190D01*
X133202380Y-66750000D01*
X133154761Y-66797619D01*
X133130952Y-66845238D01*
X133107142Y-66940476D01*
X133107142Y-67011904D01*
X133130952Y-67107142D01*
X133154761Y-67154761D01*
X133202380Y-67202380D01*
X133273809Y-67226190D01*
X133392857Y-67226190D01*
X132511904Y-67226190D02*
X132511904Y-66726190D01*
X132226190Y-67226190D02*
X132440476Y-66940476D01*
X132226190Y-66726190D02*
X132511904Y-67011904D01*
X132011904Y-66964285D02*
X131845238Y-66964285D01*
X131773809Y-67226190D02*
X132011904Y-67226190D01*
X132011904Y-66726190D01*
X131773809Y-66726190D01*
D10*
X130952380Y-42666666D02*
X129952380Y-42666666D01*
X130428571Y-42666666D02*
X130428571Y-43238095D01*
X130952380Y-43238095D02*
X129952380Y-43238095D01*
X129952380Y-43571428D02*
X130952380Y-43904761D01*
X129952380Y-44238095D01*
X130571428Y-44571428D02*
X130571428Y-45333333D01*
X130952380Y-44952380D02*
X130190476Y-44952380D01*
X127952380Y-42666666D02*
X126952380Y-42666666D01*
X127428571Y-42666666D02*
X127428571Y-43238095D01*
X127952380Y-43238095D02*
X126952380Y-43238095D01*
X126952380Y-43571428D02*
X127952380Y-43904761D01*
X126952380Y-44238095D01*
X127571428Y-44571428D02*
X127571428Y-45333333D01*
D11*
X95445238Y-57776190D02*
X95445238Y-57276190D01*
X95254761Y-57276190D01*
X95207142Y-57300000D01*
X95183333Y-57323809D01*
X95159523Y-57371428D01*
X95159523Y-57442857D01*
X95183333Y-57490476D01*
X95207142Y-57514285D01*
X95254761Y-57538095D01*
X95445238Y-57538095D01*
X94659523Y-57776190D02*
X94826190Y-57538095D01*
X94945238Y-57776190D02*
X94945238Y-57276190D01*
X94754761Y-57276190D01*
X94707142Y-57300000D01*
X94683333Y-57323809D01*
X94659523Y-57371428D01*
X94659523Y-57442857D01*
X94683333Y-57490476D01*
X94707142Y-57514285D01*
X94754761Y-57538095D01*
X94945238Y-57538095D01*
X94159523Y-57728571D02*
X94183333Y-57752380D01*
X94254761Y-57776190D01*
X94302380Y-57776190D01*
X94373809Y-57752380D01*
X94421428Y-57704761D01*
X94445238Y-57657142D01*
X94469047Y-57561904D01*
X94469047Y-57490476D01*
X94445238Y-57395238D01*
X94421428Y-57347619D01*
X94373809Y-57300000D01*
X94302380Y-57276190D01*
X94254761Y-57276190D01*
X94183333Y-57300000D01*
X94159523Y-57323809D01*
X93945238Y-57776190D02*
X93945238Y-57276190D01*
X93945238Y-57514285D02*
X93659523Y-57514285D01*
X93659523Y-57776190D02*
X93659523Y-57276190D01*
X92778571Y-57300000D02*
X92826190Y-57276190D01*
X92897619Y-57276190D01*
X92969047Y-57300000D01*
X93016666Y-57347619D01*
X93040476Y-57395238D01*
X93064285Y-57490476D01*
X93064285Y-57561904D01*
X93040476Y-57657142D01*
X93016666Y-57704761D01*
X92969047Y-57752380D01*
X92897619Y-57776190D01*
X92850000Y-57776190D01*
X92778571Y-57752380D01*
X92754761Y-57728571D01*
X92754761Y-57561904D01*
X92850000Y-57561904D01*
X92540476Y-57776190D02*
X92540476Y-57276190D01*
X92254761Y-57776190D01*
X92254761Y-57276190D01*
X92016666Y-57776190D02*
X92016666Y-57276190D01*
X91897619Y-57276190D01*
X91826190Y-57300000D01*
X91778571Y-57347619D01*
X91754761Y-57395238D01*
X91730952Y-57490476D01*
X91730952Y-57561904D01*
X91754761Y-57657142D01*
X91778571Y-57704761D01*
X91826190Y-57752380D01*
X91897619Y-57776190D01*
X92016666Y-57776190D01*
X91419047Y-54802380D02*
X91347619Y-54826190D01*
X91228571Y-54826190D01*
X91180952Y-54802380D01*
X91157142Y-54778571D01*
X91133333Y-54730952D01*
X91133333Y-54683333D01*
X91157142Y-54635714D01*
X91180952Y-54611904D01*
X91228571Y-54588095D01*
X91323809Y-54564285D01*
X91371428Y-54540476D01*
X91395238Y-54516666D01*
X91419047Y-54469047D01*
X91419047Y-54421428D01*
X91395238Y-54373809D01*
X91371428Y-54350000D01*
X91323809Y-54326190D01*
X91204761Y-54326190D01*
X91133333Y-54350000D01*
X90919047Y-54826190D02*
X90919047Y-54326190D01*
X90800000Y-54326190D01*
X90728571Y-54350000D01*
X90680952Y-54397619D01*
X90657142Y-54445238D01*
X90633333Y-54540476D01*
X90633333Y-54611904D01*
X90657142Y-54707142D01*
X90680952Y-54754761D01*
X90728571Y-54802380D01*
X90800000Y-54826190D01*
X90919047Y-54826190D01*
X90419047Y-54826190D02*
X90419047Y-54326190D01*
X90133333Y-54826190D01*
X90133333Y-54326190D01*
X89228571Y-54778571D02*
X89252380Y-54802380D01*
X89323809Y-54826190D01*
X89371428Y-54826190D01*
X89442857Y-54802380D01*
X89490476Y-54754761D01*
X89514285Y-54707142D01*
X89538095Y-54611904D01*
X89538095Y-54540476D01*
X89514285Y-54445238D01*
X89490476Y-54397619D01*
X89442857Y-54350000D01*
X89371428Y-54326190D01*
X89323809Y-54326190D01*
X89252380Y-54350000D01*
X89228571Y-54373809D01*
X88919047Y-54326190D02*
X88823809Y-54326190D01*
X88776190Y-54350000D01*
X88728571Y-54397619D01*
X88704761Y-54492857D01*
X88704761Y-54659523D01*
X88728571Y-54754761D01*
X88776190Y-54802380D01*
X88823809Y-54826190D01*
X88919047Y-54826190D01*
X88966666Y-54802380D01*
X89014285Y-54754761D01*
X89038095Y-54659523D01*
X89038095Y-54492857D01*
X89014285Y-54397619D01*
X88966666Y-54350000D01*
X88919047Y-54326190D01*
X88490476Y-54826190D02*
X88490476Y-54326190D01*
X88204761Y-54826190D01*
X88204761Y-54326190D01*
X88559523Y-87726190D02*
X88559523Y-87226190D01*
X88440476Y-87226190D01*
X88369047Y-87250000D01*
X88321428Y-87297619D01*
X88297619Y-87345238D01*
X88273809Y-87440476D01*
X88273809Y-87511904D01*
X88297619Y-87607142D01*
X88321428Y-87654761D01*
X88369047Y-87702380D01*
X88440476Y-87726190D01*
X88559523Y-87726190D01*
X87773809Y-87678571D02*
X87797619Y-87702380D01*
X87869047Y-87726190D01*
X87916666Y-87726190D01*
X87988095Y-87702380D01*
X88035714Y-87654761D01*
X88059523Y-87607142D01*
X88083333Y-87511904D01*
X88083333Y-87440476D01*
X88059523Y-87345238D01*
X88035714Y-87297619D01*
X87988095Y-87250000D01*
X87916666Y-87226190D01*
X87869047Y-87226190D01*
X87797619Y-87250000D01*
X87773809Y-87273809D01*
X87559523Y-87726190D02*
X87559523Y-87226190D01*
X87440476Y-87226190D01*
X87369047Y-87250000D01*
X87321428Y-87297619D01*
X87297619Y-87345238D01*
X87273809Y-87440476D01*
X87273809Y-87511904D01*
X87297619Y-87607142D01*
X87321428Y-87654761D01*
X87369047Y-87702380D01*
X87440476Y-87726190D01*
X87559523Y-87726190D01*
X86773809Y-87678571D02*
X86797619Y-87702380D01*
X86869047Y-87726190D01*
X86916666Y-87726190D01*
X86988095Y-87702380D01*
X87035714Y-87654761D01*
X87059523Y-87607142D01*
X87083333Y-87511904D01*
X87083333Y-87440476D01*
X87059523Y-87345238D01*
X87035714Y-87297619D01*
X86988095Y-87250000D01*
X86916666Y-87226190D01*
X86869047Y-87226190D01*
X86797619Y-87250000D01*
X86773809Y-87273809D01*
X86178571Y-87464285D02*
X86011904Y-87464285D01*
X85940476Y-87726190D02*
X86178571Y-87726190D01*
X86178571Y-87226190D01*
X85940476Y-87226190D01*
X85726190Y-87726190D02*
X85726190Y-87226190D01*
X85440476Y-87726190D01*
X85440476Y-87226190D01*
X87392857Y-84726190D02*
X87392857Y-84226190D01*
X87107142Y-84726190D01*
X87107142Y-84226190D01*
X86583333Y-84678571D02*
X86607142Y-84702380D01*
X86678571Y-84726190D01*
X86726190Y-84726190D01*
X86797619Y-84702380D01*
X86845238Y-84654761D01*
X86869047Y-84607142D01*
X86892857Y-84511904D01*
X86892857Y-84440476D01*
X86869047Y-84345238D01*
X86845238Y-84297619D01*
X86797619Y-84250000D01*
X86726190Y-84226190D01*
X86678571Y-84226190D01*
X86607142Y-84250000D01*
X86583333Y-84273809D01*
X88285714Y-81678571D02*
X88309523Y-81702380D01*
X88380952Y-81726190D01*
X88428571Y-81726190D01*
X88500000Y-81702380D01*
X88547619Y-81654761D01*
X88571428Y-81607142D01*
X88595238Y-81511904D01*
X88595238Y-81440476D01*
X88571428Y-81345238D01*
X88547619Y-81297619D01*
X88500000Y-81250000D01*
X88428571Y-81226190D01*
X88380952Y-81226190D01*
X88309523Y-81250000D01*
X88285714Y-81273809D01*
X88095238Y-81583333D02*
X87857142Y-81583333D01*
X88142857Y-81726190D02*
X87976190Y-81226190D01*
X87809523Y-81726190D01*
X87642857Y-81726190D02*
X87642857Y-81226190D01*
X87357142Y-81726190D01*
X87357142Y-81226190D01*
X86738095Y-81726190D02*
X86738095Y-81226190D01*
X86738095Y-81464285D02*
X86452380Y-81464285D01*
X86452380Y-81726190D02*
X86452380Y-81226190D01*
X85952380Y-81250000D02*
X86000000Y-81226190D01*
X86071428Y-81226190D01*
X86142857Y-81250000D01*
X86190476Y-81297619D01*
X86214285Y-81345238D01*
X86238095Y-81440476D01*
X86238095Y-81511904D01*
X86214285Y-81607142D01*
X86190476Y-81654761D01*
X86142857Y-81702380D01*
X86071428Y-81726190D01*
X86023809Y-81726190D01*
X85952380Y-81702380D01*
X85928571Y-81678571D01*
X85928571Y-81511904D01*
X86023809Y-81511904D01*
X85714285Y-81726190D02*
X85714285Y-81226190D01*
X85714285Y-81464285D02*
X85428571Y-81464285D01*
X85428571Y-81726190D02*
X85428571Y-81226190D01*
X88261904Y-78678571D02*
X88285714Y-78702380D01*
X88357142Y-78726190D01*
X88404761Y-78726190D01*
X88476190Y-78702380D01*
X88523809Y-78654761D01*
X88547619Y-78607142D01*
X88571428Y-78511904D01*
X88571428Y-78440476D01*
X88547619Y-78345238D01*
X88523809Y-78297619D01*
X88476190Y-78250000D01*
X88404761Y-78226190D01*
X88357142Y-78226190D01*
X88285714Y-78250000D01*
X88261904Y-78273809D01*
X88071428Y-78583333D02*
X87833333Y-78583333D01*
X88119047Y-78726190D02*
X87952380Y-78226190D01*
X87785714Y-78726190D01*
X87619047Y-78726190D02*
X87619047Y-78226190D01*
X87333333Y-78726190D01*
X87333333Y-78226190D01*
X86476190Y-78726190D02*
X86714285Y-78726190D01*
X86714285Y-78226190D01*
X86214285Y-78226190D02*
X86119047Y-78226190D01*
X86071428Y-78250000D01*
X86023809Y-78297619D01*
X86000000Y-78392857D01*
X86000000Y-78559523D01*
X86023809Y-78654761D01*
X86071428Y-78702380D01*
X86119047Y-78726190D01*
X86214285Y-78726190D01*
X86261904Y-78702380D01*
X86309523Y-78654761D01*
X86333333Y-78559523D01*
X86333333Y-78392857D01*
X86309523Y-78297619D01*
X86261904Y-78250000D01*
X86214285Y-78226190D01*
X85833333Y-78226190D02*
X85714285Y-78726190D01*
X85619047Y-78369047D01*
X85523809Y-78726190D01*
X85404761Y-78226190D01*
X88285714Y-75678571D02*
X88309523Y-75702380D01*
X88380952Y-75726190D01*
X88428571Y-75726190D01*
X88500000Y-75702380D01*
X88547619Y-75654761D01*
X88571428Y-75607142D01*
X88595238Y-75511904D01*
X88595238Y-75440476D01*
X88571428Y-75345238D01*
X88547619Y-75297619D01*
X88500000Y-75250000D01*
X88428571Y-75226190D01*
X88380952Y-75226190D01*
X88309523Y-75250000D01*
X88285714Y-75273809D01*
X88095238Y-75583333D02*
X87857142Y-75583333D01*
X88142857Y-75726190D02*
X87976190Y-75226190D01*
X87809523Y-75726190D01*
X87642857Y-75726190D02*
X87642857Y-75226190D01*
X87357142Y-75726190D01*
X87357142Y-75226190D01*
X86738095Y-75726190D02*
X86738095Y-75226190D01*
X86738095Y-75464285D02*
X86452380Y-75464285D01*
X86452380Y-75726190D02*
X86452380Y-75226190D01*
X85952380Y-75250000D02*
X86000000Y-75226190D01*
X86071428Y-75226190D01*
X86142857Y-75250000D01*
X86190476Y-75297619D01*
X86214285Y-75345238D01*
X86238095Y-75440476D01*
X86238095Y-75511904D01*
X86214285Y-75607142D01*
X86190476Y-75654761D01*
X86142857Y-75702380D01*
X86071428Y-75726190D01*
X86023809Y-75726190D01*
X85952380Y-75702380D01*
X85928571Y-75678571D01*
X85928571Y-75511904D01*
X86023809Y-75511904D01*
X85714285Y-75726190D02*
X85714285Y-75226190D01*
X85714285Y-75464285D02*
X85428571Y-75464285D01*
X85428571Y-75726190D02*
X85428571Y-75226190D01*
X88261904Y-72678571D02*
X88285714Y-72702380D01*
X88357142Y-72726190D01*
X88404761Y-72726190D01*
X88476190Y-72702380D01*
X88523809Y-72654761D01*
X88547619Y-72607142D01*
X88571428Y-72511904D01*
X88571428Y-72440476D01*
X88547619Y-72345238D01*
X88523809Y-72297619D01*
X88476190Y-72250000D01*
X88404761Y-72226190D01*
X88357142Y-72226190D01*
X88285714Y-72250000D01*
X88261904Y-72273809D01*
X88071428Y-72583333D02*
X87833333Y-72583333D01*
X88119047Y-72726190D02*
X87952380Y-72226190D01*
X87785714Y-72726190D01*
X87619047Y-72726190D02*
X87619047Y-72226190D01*
X87333333Y-72726190D01*
X87333333Y-72226190D01*
X86476190Y-72726190D02*
X86714285Y-72726190D01*
X86714285Y-72226190D01*
X86214285Y-72226190D02*
X86119047Y-72226190D01*
X86071428Y-72250000D01*
X86023809Y-72297619D01*
X86000000Y-72392857D01*
X86000000Y-72559523D01*
X86023809Y-72654761D01*
X86071428Y-72702380D01*
X86119047Y-72726190D01*
X86214285Y-72726190D01*
X86261904Y-72702380D01*
X86309523Y-72654761D01*
X86333333Y-72559523D01*
X86333333Y-72392857D01*
X86309523Y-72297619D01*
X86261904Y-72250000D01*
X86214285Y-72226190D01*
X85833333Y-72226190D02*
X85714285Y-72726190D01*
X85619047Y-72369047D01*
X85523809Y-72726190D01*
X85404761Y-72226190D01*
X88476190Y-69226190D02*
X88380952Y-69226190D01*
X88333333Y-69250000D01*
X88285714Y-69297619D01*
X88261904Y-69392857D01*
X88261904Y-69559523D01*
X88285714Y-69654761D01*
X88333333Y-69702380D01*
X88380952Y-69726190D01*
X88476190Y-69726190D01*
X88523809Y-69702380D01*
X88571428Y-69654761D01*
X88595238Y-69559523D01*
X88595238Y-69392857D01*
X88571428Y-69297619D01*
X88523809Y-69250000D01*
X88476190Y-69226190D01*
X87761904Y-69726190D02*
X87928571Y-69488095D01*
X88047619Y-69726190D02*
X88047619Y-69226190D01*
X87857142Y-69226190D01*
X87809523Y-69250000D01*
X87785714Y-69273809D01*
X87761904Y-69321428D01*
X87761904Y-69392857D01*
X87785714Y-69440476D01*
X87809523Y-69464285D01*
X87857142Y-69488095D01*
X88047619Y-69488095D01*
X87547619Y-69726190D02*
X87547619Y-69226190D01*
X87261904Y-69726190D01*
X87261904Y-69226190D01*
X86642857Y-69464285D02*
X86476190Y-69464285D01*
X86404761Y-69726190D02*
X86642857Y-69726190D01*
X86642857Y-69226190D01*
X86404761Y-69226190D01*
X85904761Y-69726190D02*
X86071428Y-69488095D01*
X86190476Y-69726190D02*
X86190476Y-69226190D01*
X86000000Y-69226190D01*
X85952380Y-69250000D01*
X85928571Y-69273809D01*
X85904761Y-69321428D01*
X85904761Y-69392857D01*
X85928571Y-69440476D01*
X85952380Y-69464285D01*
X86000000Y-69488095D01*
X86190476Y-69488095D01*
X85404761Y-69726190D02*
X85571428Y-69488095D01*
X85690476Y-69726190D02*
X85690476Y-69226190D01*
X85500000Y-69226190D01*
X85452380Y-69250000D01*
X85428571Y-69273809D01*
X85404761Y-69321428D01*
X85404761Y-69392857D01*
X85428571Y-69440476D01*
X85452380Y-69464285D01*
X85500000Y-69488095D01*
X85690476Y-69488095D01*
X88416666Y-66726190D02*
X88416666Y-66226190D01*
X88178571Y-66726190D02*
X88178571Y-66226190D01*
X88011904Y-66583333D01*
X87845238Y-66226190D01*
X87845238Y-66726190D01*
X87607142Y-66726190D02*
X87607142Y-66226190D01*
X87488095Y-66226190D01*
X87416666Y-66250000D01*
X87369047Y-66297619D01*
X87345238Y-66345238D01*
X87321428Y-66440476D01*
X87321428Y-66511904D01*
X87345238Y-66607142D01*
X87369047Y-66654761D01*
X87416666Y-66702380D01*
X87488095Y-66726190D01*
X87607142Y-66726190D01*
X86750000Y-66702380D02*
X86678571Y-66726190D01*
X86559523Y-66726190D01*
X86511904Y-66702380D01*
X86488095Y-66678571D01*
X86464285Y-66630952D01*
X86464285Y-66583333D01*
X86488095Y-66535714D01*
X86511904Y-66511904D01*
X86559523Y-66488095D01*
X86654761Y-66464285D01*
X86702380Y-66440476D01*
X86726190Y-66416666D01*
X86750000Y-66369047D01*
X86750000Y-66321428D01*
X86726190Y-66273809D01*
X86702380Y-66250000D01*
X86654761Y-66226190D01*
X86535714Y-66226190D01*
X86464285Y-66250000D01*
X86321428Y-66226190D02*
X86035714Y-66226190D01*
X86178571Y-66726190D02*
X86178571Y-66226190D01*
X85773809Y-66226190D02*
X85678571Y-66226190D01*
X85630952Y-66250000D01*
X85583333Y-66297619D01*
X85559523Y-66392857D01*
X85559523Y-66559523D01*
X85583333Y-66654761D01*
X85630952Y-66702380D01*
X85678571Y-66726190D01*
X85773809Y-66726190D01*
X85821428Y-66702380D01*
X85869047Y-66654761D01*
X85892857Y-66559523D01*
X85892857Y-66392857D01*
X85869047Y-66297619D01*
X85821428Y-66250000D01*
X85773809Y-66226190D01*
X82380952Y-84250000D02*
X82428571Y-84226190D01*
X82500000Y-84226190D01*
X82571428Y-84250000D01*
X82619047Y-84297619D01*
X82642857Y-84345238D01*
X82666666Y-84440476D01*
X82666666Y-84511904D01*
X82642857Y-84607142D01*
X82619047Y-84654761D01*
X82571428Y-84702380D01*
X82500000Y-84726190D01*
X82452380Y-84726190D01*
X82380952Y-84702380D01*
X82357142Y-84678571D01*
X82357142Y-84511904D01*
X82452380Y-84511904D01*
X82142857Y-84726190D02*
X82142857Y-84226190D01*
X81857142Y-84726190D01*
X81857142Y-84226190D01*
X81619047Y-84726190D02*
X81619047Y-84226190D01*
X81500000Y-84226190D01*
X81428571Y-84250000D01*
X81380952Y-84297619D01*
X81357142Y-84345238D01*
X81333333Y-84440476D01*
X81333333Y-84511904D01*
X81357142Y-84607142D01*
X81380952Y-84654761D01*
X81428571Y-84702380D01*
X81500000Y-84726190D01*
X81619047Y-84726190D01*
X82880952Y-81726190D02*
X83166666Y-81726190D01*
X83023809Y-81726190D02*
X83023809Y-81226190D01*
X83071428Y-81297619D01*
X83119047Y-81345238D01*
X83166666Y-81369047D01*
X82690476Y-81273809D02*
X82666666Y-81250000D01*
X82619047Y-81226190D01*
X82500000Y-81226190D01*
X82452380Y-81250000D01*
X82428571Y-81273809D01*
X82404761Y-81321428D01*
X82404761Y-81369047D01*
X82428571Y-81440476D01*
X82714285Y-81726190D01*
X82404761Y-81726190D01*
X82261904Y-81226190D02*
X82095238Y-81726190D01*
X81928571Y-81226190D01*
X81380952Y-81726190D02*
X81380952Y-81226190D01*
X81142857Y-81726190D02*
X81142857Y-81226190D01*
X80857142Y-81726190D01*
X80857142Y-81226190D01*
X83226190Y-78702380D02*
X83154761Y-78726190D01*
X83035714Y-78726190D01*
X82988095Y-78702380D01*
X82964285Y-78678571D01*
X82940476Y-78630952D01*
X82940476Y-78583333D01*
X82964285Y-78535714D01*
X82988095Y-78511904D01*
X83035714Y-78488095D01*
X83130952Y-78464285D01*
X83178571Y-78440476D01*
X83202380Y-78416666D01*
X83226190Y-78369047D01*
X83226190Y-78321428D01*
X83202380Y-78273809D01*
X83178571Y-78250000D01*
X83130952Y-78226190D01*
X83011904Y-78226190D01*
X82940476Y-78250000D01*
X82726190Y-78726190D02*
X82726190Y-78226190D01*
X82607142Y-78226190D01*
X82535714Y-78250000D01*
X82488095Y-78297619D01*
X82464285Y-78345238D01*
X82440476Y-78440476D01*
X82440476Y-78511904D01*
X82464285Y-78607142D01*
X82488095Y-78654761D01*
X82535714Y-78702380D01*
X82607142Y-78726190D01*
X82726190Y-78726190D01*
X82226190Y-78726190D02*
X82226190Y-78226190D01*
X81940476Y-78726190D01*
X81940476Y-78226190D01*
X81321428Y-78726190D02*
X81321428Y-78226190D01*
X81083333Y-78726190D02*
X81083333Y-78226190D01*
X80797619Y-78726190D01*
X80797619Y-78226190D01*
X83559523Y-75702380D02*
X83488095Y-75726190D01*
X83369047Y-75726190D01*
X83321428Y-75702380D01*
X83297619Y-75678571D01*
X83273809Y-75630952D01*
X83273809Y-75583333D01*
X83297619Y-75535714D01*
X83321428Y-75511904D01*
X83369047Y-75488095D01*
X83464285Y-75464285D01*
X83511904Y-75440476D01*
X83535714Y-75416666D01*
X83559523Y-75369047D01*
X83559523Y-75321428D01*
X83535714Y-75273809D01*
X83511904Y-75250000D01*
X83464285Y-75226190D01*
X83345238Y-75226190D01*
X83273809Y-75250000D01*
X83059523Y-75726190D02*
X83059523Y-75226190D01*
X82940476Y-75226190D01*
X82869047Y-75250000D01*
X82821428Y-75297619D01*
X82797619Y-75345238D01*
X82773809Y-75440476D01*
X82773809Y-75511904D01*
X82797619Y-75607142D01*
X82821428Y-75654761D01*
X82869047Y-75702380D01*
X82940476Y-75726190D01*
X83059523Y-75726190D01*
X82559523Y-75726190D02*
X82559523Y-75226190D01*
X82273809Y-75726190D01*
X82273809Y-75226190D01*
X81559523Y-75226190D02*
X81464285Y-75226190D01*
X81416666Y-75250000D01*
X81369047Y-75297619D01*
X81345238Y-75392857D01*
X81345238Y-75559523D01*
X81369047Y-75654761D01*
X81416666Y-75702380D01*
X81464285Y-75726190D01*
X81559523Y-75726190D01*
X81607142Y-75702380D01*
X81654761Y-75654761D01*
X81678571Y-75559523D01*
X81678571Y-75392857D01*
X81654761Y-75297619D01*
X81607142Y-75250000D01*
X81559523Y-75226190D01*
X81130952Y-75226190D02*
X81130952Y-75630952D01*
X81107142Y-75678571D01*
X81083333Y-75702380D01*
X81035714Y-75726190D01*
X80940476Y-75726190D01*
X80892857Y-75702380D01*
X80869047Y-75678571D01*
X80845238Y-75630952D01*
X80845238Y-75226190D01*
X80678571Y-75226190D02*
X80392857Y-75226190D01*
X80535714Y-75726190D02*
X80535714Y-75226190D01*
X83619047Y-72702380D02*
X83547619Y-72726190D01*
X83428571Y-72726190D01*
X83380952Y-72702380D01*
X83357142Y-72678571D01*
X83333333Y-72630952D01*
X83333333Y-72583333D01*
X83357142Y-72535714D01*
X83380952Y-72511904D01*
X83428571Y-72488095D01*
X83523809Y-72464285D01*
X83571428Y-72440476D01*
X83595238Y-72416666D01*
X83619047Y-72369047D01*
X83619047Y-72321428D01*
X83595238Y-72273809D01*
X83571428Y-72250000D01*
X83523809Y-72226190D01*
X83404761Y-72226190D01*
X83333333Y-72250000D01*
X83119047Y-72726190D02*
X83119047Y-72226190D01*
X83000000Y-72226190D01*
X82928571Y-72250000D01*
X82880952Y-72297619D01*
X82857142Y-72345238D01*
X82833333Y-72440476D01*
X82833333Y-72511904D01*
X82857142Y-72607142D01*
X82880952Y-72654761D01*
X82928571Y-72702380D01*
X83000000Y-72726190D01*
X83119047Y-72726190D01*
X82619047Y-72726190D02*
X82619047Y-72226190D01*
X82333333Y-72726190D01*
X82333333Y-72226190D01*
X81428571Y-72678571D02*
X81452380Y-72702380D01*
X81523809Y-72726190D01*
X81571428Y-72726190D01*
X81642857Y-72702380D01*
X81690476Y-72654761D01*
X81714285Y-72607142D01*
X81738095Y-72511904D01*
X81738095Y-72440476D01*
X81714285Y-72345238D01*
X81690476Y-72297619D01*
X81642857Y-72250000D01*
X81571428Y-72226190D01*
X81523809Y-72226190D01*
X81452380Y-72250000D01*
X81428571Y-72273809D01*
X81119047Y-72226190D02*
X81023809Y-72226190D01*
X80976190Y-72250000D01*
X80928571Y-72297619D01*
X80904761Y-72392857D01*
X80904761Y-72559523D01*
X80928571Y-72654761D01*
X80976190Y-72702380D01*
X81023809Y-72726190D01*
X81119047Y-72726190D01*
X81166666Y-72702380D01*
X81214285Y-72654761D01*
X81238095Y-72559523D01*
X81238095Y-72392857D01*
X81214285Y-72297619D01*
X81166666Y-72250000D01*
X81119047Y-72226190D01*
X80690476Y-72726190D02*
X80690476Y-72226190D01*
X80404761Y-72726190D01*
X80404761Y-72226190D01*
X83404761Y-69010000D02*
X82904761Y-69010000D01*
X83285714Y-69726190D02*
X83285714Y-69226190D01*
X83166666Y-69226190D01*
X83095238Y-69250000D01*
X83047619Y-69297619D01*
X83023809Y-69345238D01*
X83000000Y-69440476D01*
X83000000Y-69511904D01*
X83023809Y-69607142D01*
X83047619Y-69654761D01*
X83095238Y-69702380D01*
X83166666Y-69726190D01*
X83285714Y-69726190D01*
X82904761Y-69010000D02*
X82666666Y-69010000D01*
X82785714Y-69726190D02*
X82785714Y-69226190D01*
X82666666Y-69010000D02*
X82190476Y-69010000D01*
X82571428Y-69702380D02*
X82500000Y-69726190D01*
X82380952Y-69726190D01*
X82333333Y-69702380D01*
X82309523Y-69678571D01*
X82285714Y-69630952D01*
X82285714Y-69583333D01*
X82309523Y-69535714D01*
X82333333Y-69511904D01*
X82380952Y-69488095D01*
X82476190Y-69464285D01*
X82523809Y-69440476D01*
X82547619Y-69416666D01*
X82571428Y-69369047D01*
X82571428Y-69321428D01*
X82547619Y-69273809D01*
X82523809Y-69250000D01*
X82476190Y-69226190D01*
X82357142Y-69226190D01*
X82285714Y-69250000D01*
X82190476Y-69010000D02*
X81809523Y-69010000D01*
X81809523Y-69010000D02*
X81309523Y-69010000D01*
X81690476Y-69726190D02*
X81690476Y-69226190D01*
X81571428Y-69226190D01*
X81500000Y-69250000D01*
X81452380Y-69297619D01*
X81428571Y-69345238D01*
X81404761Y-69440476D01*
X81404761Y-69511904D01*
X81428571Y-69607142D01*
X81452380Y-69654761D01*
X81500000Y-69702380D01*
X81571428Y-69726190D01*
X81690476Y-69726190D01*
X81309523Y-69010000D02*
X81071428Y-69010000D01*
X81190476Y-69726190D02*
X81190476Y-69226190D01*
X81071428Y-69010000D02*
X80595238Y-69010000D01*
X80976190Y-69702380D02*
X80904761Y-69726190D01*
X80785714Y-69726190D01*
X80738095Y-69702380D01*
X80714285Y-69678571D01*
X80690476Y-69630952D01*
X80690476Y-69583333D01*
X80714285Y-69535714D01*
X80738095Y-69511904D01*
X80785714Y-69488095D01*
X80880952Y-69464285D01*
X80928571Y-69440476D01*
X80952380Y-69416666D01*
X80976190Y-69369047D01*
X80976190Y-69321428D01*
X80952380Y-69273809D01*
X80928571Y-69250000D01*
X80880952Y-69226190D01*
X80761904Y-69226190D01*
X80690476Y-69250000D01*
X83404761Y-66726190D02*
X83404761Y-66226190D01*
X83166666Y-66726190D02*
X83166666Y-66226190D01*
X83000000Y-66583333D01*
X82833333Y-66226190D01*
X82833333Y-66726190D01*
X82595238Y-66726190D02*
X82595238Y-66226190D01*
X82476190Y-66226190D01*
X82404761Y-66250000D01*
X82357142Y-66297619D01*
X82333333Y-66345238D01*
X82309523Y-66440476D01*
X82309523Y-66511904D01*
X82333333Y-66607142D01*
X82357142Y-66654761D01*
X82404761Y-66702380D01*
X82476190Y-66726190D01*
X82595238Y-66726190D01*
X81476190Y-66726190D02*
X81714285Y-66726190D01*
X81714285Y-66226190D01*
X81309523Y-66464285D02*
X81142857Y-66464285D01*
X81071428Y-66726190D02*
X81309523Y-66726190D01*
X81309523Y-66226190D01*
X81071428Y-66226190D01*
X80857142Y-66726190D02*
X80857142Y-66226190D01*
X80738095Y-66226190D01*
X80666666Y-66250000D01*
X80619047Y-66297619D01*
X80595238Y-66345238D01*
X80571428Y-66440476D01*
X80571428Y-66511904D01*
X80595238Y-66607142D01*
X80619047Y-66654761D01*
X80666666Y-66702380D01*
X80738095Y-66726190D01*
X80857142Y-66726190D01*
X83511904Y-63583333D02*
X83273809Y-63583333D01*
X83559523Y-63726190D02*
X83392857Y-63226190D01*
X83226190Y-63726190D01*
X83059523Y-63726190D02*
X83059523Y-63226190D01*
X82892857Y-63583333D01*
X82726190Y-63226190D01*
X82726190Y-63726190D01*
X82511904Y-63702380D02*
X82440476Y-63726190D01*
X82321428Y-63726190D01*
X82273809Y-63702380D01*
X82250000Y-63678571D01*
X82226190Y-63630952D01*
X82226190Y-63583333D01*
X82250000Y-63535714D01*
X82273809Y-63511904D01*
X82321428Y-63488095D01*
X82416666Y-63464285D01*
X82464285Y-63440476D01*
X82488095Y-63416666D01*
X82511904Y-63369047D01*
X82511904Y-63321428D01*
X82488095Y-63273809D01*
X82464285Y-63250000D01*
X82416666Y-63226190D01*
X82297619Y-63226190D01*
X82226190Y-63250000D01*
X81392857Y-63726190D02*
X81630952Y-63726190D01*
X81630952Y-63226190D01*
X81226190Y-63464285D02*
X81059523Y-63464285D01*
X80988095Y-63726190D02*
X81226190Y-63726190D01*
X81226190Y-63226190D01*
X80988095Y-63226190D01*
X80773809Y-63726190D02*
X80773809Y-63226190D01*
X80654761Y-63226190D01*
X80583333Y-63250000D01*
X80535714Y-63297619D01*
X80511904Y-63345238D01*
X80488095Y-63440476D01*
X80488095Y-63511904D01*
X80511904Y-63607142D01*
X80535714Y-63654761D01*
X80583333Y-63702380D01*
X80654761Y-63726190D01*
X80773809Y-63726190D01*
G36*
X135300000Y-96600000D02*
G01*
X117000000Y-102700000D01*
X117000000Y-97500000D01*
X135300000Y-91500000D01*
X135300000Y-96600000D01*
G37*
X135300000Y-96600000D02*
X117000000Y-102700000D01*
X117000000Y-97500000D01*
X135300000Y-91500000D01*
X135300000Y-96600000D01*
G36*
X135300000Y-81500000D02*
G01*
X117000000Y-87600000D01*
X117000000Y-82400000D01*
X135300000Y-76400000D01*
X135300000Y-81500000D01*
G37*
X135300000Y-81500000D02*
X117000000Y-87600000D01*
X117000000Y-82400000D01*
X135300000Y-76400000D01*
X135300000Y-81500000D01*
G36*
X102100000Y-92300000D02*
G01*
X83800000Y-98400000D01*
X83800000Y-93200000D01*
X102100000Y-87200000D01*
X102100000Y-92300000D01*
G37*
X102100000Y-92300000D02*
X83800000Y-98400000D01*
X83800000Y-93200000D01*
X102100000Y-87200000D01*
X102100000Y-92300000D01*
G36*
X102100000Y-107500000D02*
G01*
X83800000Y-113600000D01*
X83800000Y-108400000D01*
X102100000Y-102400000D01*
X102100000Y-107500000D01*
G37*
X102100000Y-107500000D02*
X83800000Y-113600000D01*
X83800000Y-108400000D01*
X102100000Y-102400000D01*
X102100000Y-107500000D01*
G36*
X102200000Y-100500000D02*
G01*
X80000000Y-107800000D01*
X80000000Y-101400000D01*
X102200000Y-94200000D01*
X102200000Y-100500000D01*
G37*
X102200000Y-100500000D02*
X80000000Y-107800000D01*
X80000000Y-101400000D01*
X102200000Y-94200000D01*
X102200000Y-100500000D01*
G36*
X140000000Y-88200000D02*
G01*
X116900000Y-95800000D01*
X116900000Y-89400000D01*
X140000000Y-81900000D01*
X140000000Y-88200000D01*
G37*
X140000000Y-88200000D02*
X116900000Y-95800000D01*
X116900000Y-89400000D01*
X140000000Y-81900000D01*
X140000000Y-88200000D01*
D10*
X137761904Y-140952380D02*
X137761904Y-139952380D01*
X137761904Y-140428571D02*
X137190476Y-140428571D01*
X137190476Y-140952380D02*
X137190476Y-139952380D01*
X136761904Y-140904761D02*
X136619047Y-140952380D01*
X136380952Y-140952380D01*
X136285714Y-140904761D01*
X136238095Y-140857142D01*
X136190476Y-140761904D01*
X136190476Y-140666666D01*
X136238095Y-140571428D01*
X136285714Y-140523809D01*
X136380952Y-140476190D01*
X136571428Y-140428571D01*
X136666666Y-140380952D01*
X136714285Y-140333333D01*
X136761904Y-140238095D01*
X136761904Y-140142857D01*
X136714285Y-140047619D01*
X136666666Y-140000000D01*
X136571428Y-139952380D01*
X136333333Y-139952380D01*
X136190476Y-140000000D01*
X134428571Y-140857142D02*
X134476190Y-140904761D01*
X134619047Y-140952380D01*
X134714285Y-140952380D01*
X134857142Y-140904761D01*
X134952380Y-140809523D01*
X135000000Y-140714285D01*
X135047619Y-140523809D01*
X135047619Y-140380952D01*
X135000000Y-140190476D01*
X134952380Y-140095238D01*
X134857142Y-140000000D01*
X134714285Y-139952380D01*
X134619047Y-139952380D01*
X134476190Y-140000000D01*
X134428571Y-140047619D01*
X133857142Y-140952380D02*
X133952380Y-140904761D01*
X134000000Y-140857142D01*
X134047619Y-140761904D01*
X134047619Y-140476190D01*
X134000000Y-140380952D01*
X133952380Y-140333333D01*
X133857142Y-140285714D01*
X133714285Y-140285714D01*
X133619047Y-140333333D01*
X133571428Y-140380952D01*
X133523809Y-140476190D01*
X133523809Y-140761904D01*
X133571428Y-140857142D01*
X133619047Y-140904761D01*
X133714285Y-140952380D01*
X133857142Y-140952380D01*
X133095238Y-140285714D02*
X133095238Y-140952380D01*
X133095238Y-140380952D02*
X133047619Y-140333333D01*
X132952380Y-140285714D01*
X132809523Y-140285714D01*
X132714285Y-140333333D01*
X132666666Y-140428571D01*
X132666666Y-140952380D01*
X132333333Y-140285714D02*
X131952380Y-140285714D01*
X132190476Y-139952380D02*
X132190476Y-140809523D01*
X132142857Y-140904761D01*
X132047619Y-140952380D01*
X131952380Y-140952380D01*
X131190476Y-140952380D02*
X131190476Y-140428571D01*
X131238095Y-140333333D01*
X131333333Y-140285714D01*
X131523809Y-140285714D01*
X131619047Y-140333333D01*
X131190476Y-140904761D02*
X131285714Y-140952380D01*
X131523809Y-140952380D01*
X131619047Y-140904761D01*
X131666666Y-140809523D01*
X131666666Y-140714285D01*
X131619047Y-140619047D01*
X131523809Y-140571428D01*
X131285714Y-140571428D01*
X131190476Y-140523809D01*
X130285714Y-140904761D02*
X130380952Y-140952380D01*
X130571428Y-140952380D01*
X130666666Y-140904761D01*
X130714285Y-140857142D01*
X130761904Y-140761904D01*
X130761904Y-140476190D01*
X130714285Y-140380952D01*
X130666666Y-140333333D01*
X130571428Y-140285714D01*
X130380952Y-140285714D01*
X130285714Y-140333333D01*
X130000000Y-140285714D02*
X129619047Y-140285714D01*
X129857142Y-139952380D02*
X129857142Y-140809523D01*
X129809523Y-140904761D01*
X129714285Y-140952380D01*
X129619047Y-140952380D01*
X129142857Y-140952380D02*
X129238095Y-140904761D01*
X129285714Y-140857142D01*
X129333333Y-140761904D01*
X129333333Y-140476190D01*
X129285714Y-140380952D01*
X129238095Y-140333333D01*
X129142857Y-140285714D01*
X129000000Y-140285714D01*
X128904761Y-140333333D01*
X128857142Y-140380952D01*
X128809523Y-140476190D01*
X128809523Y-140761904D01*
X128857142Y-140857142D01*
X128904761Y-140904761D01*
X129000000Y-140952380D01*
X129142857Y-140952380D01*
X128380952Y-140952380D02*
X128380952Y-140285714D01*
X128380952Y-140476190D02*
X128333333Y-140380952D01*
X128285714Y-140333333D01*
X128190476Y-140285714D01*
X128095238Y-140285714D01*
D13*
X125250000Y-139500000D02*
X140000000Y-139500000D01*
X125250000Y-127500000D02*
X125250000Y-139500000D01*
X140000000Y-127500000D02*
X125250000Y-127500000D01*
D10*
X87166666Y-110452380D02*
X87166666Y-109452380D01*
X86785714Y-109452380D01*
X86690476Y-109500000D01*
X86642857Y-109547619D01*
X86595238Y-109642857D01*
X86595238Y-109785714D01*
X86642857Y-109880952D01*
X86690476Y-109928571D01*
X86785714Y-109976190D01*
X87166666Y-109976190D01*
X85595238Y-110357142D02*
X85642857Y-110404761D01*
X85785714Y-110452380D01*
X85880952Y-110452380D01*
X86023809Y-110404761D01*
X86119047Y-110309523D01*
X86166666Y-110214285D01*
X86214285Y-110023809D01*
X86214285Y-109880952D01*
X86166666Y-109690476D01*
X86119047Y-109595238D01*
X86023809Y-109500000D01*
X85880952Y-109452380D01*
X85785714Y-109452380D01*
X85642857Y-109500000D01*
X85595238Y-109547619D01*
X84833333Y-109928571D02*
X84690476Y-109976190D01*
X84642857Y-110023809D01*
X84595238Y-110119047D01*
X84595238Y-110261904D01*
X84642857Y-110357142D01*
X84690476Y-110404761D01*
X84785714Y-110452380D01*
X85166666Y-110452380D01*
X85166666Y-109452380D01*
X84833333Y-109452380D01*
X84738095Y-109500000D01*
X84690476Y-109547619D01*
X84642857Y-109642857D01*
X84642857Y-109738095D01*
X84690476Y-109833333D01*
X84738095Y-109880952D01*
X84833333Y-109928571D01*
X85166666Y-109928571D01*
X82880952Y-109500000D02*
X82976190Y-109452380D01*
X83119047Y-109452380D01*
X83261904Y-109500000D01*
X83357142Y-109595238D01*
X83404761Y-109690476D01*
X83452380Y-109880952D01*
X83452380Y-110023809D01*
X83404761Y-110214285D01*
X83357142Y-110309523D01*
X83261904Y-110404761D01*
X83119047Y-110452380D01*
X83023809Y-110452380D01*
X82880952Y-110404761D01*
X82833333Y-110357142D01*
X82833333Y-110023809D01*
X83023809Y-110023809D01*
X82404761Y-110452380D02*
X82404761Y-109452380D01*
X81833333Y-110452380D01*
X81833333Y-109452380D01*
X81357142Y-110452380D02*
X81357142Y-109452380D01*
X81119047Y-109452380D01*
X80976190Y-109500000D01*
X80880952Y-109595238D01*
X80833333Y-109690476D01*
X80785714Y-109880952D01*
X80785714Y-110023809D01*
X80833333Y-110214285D01*
X80880952Y-110309523D01*
X80976190Y-110404761D01*
X81119047Y-110452380D01*
X81357142Y-110452380D01*
X90666666Y-147952380D02*
X91142857Y-147952380D01*
X91142857Y-146952380D01*
X90380952Y-147904761D02*
X90238095Y-147952380D01*
X90000000Y-147952380D01*
X89904761Y-147904761D01*
X89857142Y-147857142D01*
X89809523Y-147761904D01*
X89809523Y-147666666D01*
X89857142Y-147571428D01*
X89904761Y-147523809D01*
X90000000Y-147476190D01*
X90190476Y-147428571D01*
X90285714Y-147380952D01*
X90333333Y-147333333D01*
X90380952Y-147238095D01*
X90380952Y-147142857D01*
X90333333Y-147047619D01*
X90285714Y-147000000D01*
X90190476Y-146952380D01*
X89952380Y-146952380D01*
X89809523Y-147000000D01*
X88047619Y-147857142D02*
X88095238Y-147904761D01*
X88238095Y-147952380D01*
X88333333Y-147952380D01*
X88476190Y-147904761D01*
X88571428Y-147809523D01*
X88619047Y-147714285D01*
X88666666Y-147523809D01*
X88666666Y-147380952D01*
X88619047Y-147190476D01*
X88571428Y-147095238D01*
X88476190Y-147000000D01*
X88333333Y-146952380D01*
X88238095Y-146952380D01*
X88095238Y-147000000D01*
X88047619Y-147047619D01*
X87476190Y-147952380D02*
X87571428Y-147904761D01*
X87619047Y-147857142D01*
X87666666Y-147761904D01*
X87666666Y-147476190D01*
X87619047Y-147380952D01*
X87571428Y-147333333D01*
X87476190Y-147285714D01*
X87333333Y-147285714D01*
X87238095Y-147333333D01*
X87190476Y-147380952D01*
X87142857Y-147476190D01*
X87142857Y-147761904D01*
X87190476Y-147857142D01*
X87238095Y-147904761D01*
X87333333Y-147952380D01*
X87476190Y-147952380D01*
X86714285Y-147285714D02*
X86714285Y-147952380D01*
X86714285Y-147380952D02*
X86666666Y-147333333D01*
X86571428Y-147285714D01*
X86428571Y-147285714D01*
X86333333Y-147333333D01*
X86285714Y-147428571D01*
X86285714Y-147952380D01*
X85952380Y-147285714D02*
X85571428Y-147285714D01*
X85809523Y-146952380D02*
X85809523Y-147809523D01*
X85761904Y-147904761D01*
X85666666Y-147952380D01*
X85571428Y-147952380D01*
X84809523Y-147952380D02*
X84809523Y-147428571D01*
X84857142Y-147333333D01*
X84952380Y-147285714D01*
X85142857Y-147285714D01*
X85238095Y-147333333D01*
X84809523Y-147904761D02*
X84904761Y-147952380D01*
X85142857Y-147952380D01*
X85238095Y-147904761D01*
X85285714Y-147809523D01*
X85285714Y-147714285D01*
X85238095Y-147619047D01*
X85142857Y-147571428D01*
X84904761Y-147571428D01*
X84809523Y-147523809D01*
X83904761Y-147904761D02*
X84000000Y-147952380D01*
X84190476Y-147952380D01*
X84285714Y-147904761D01*
X84333333Y-147857142D01*
X84380952Y-147761904D01*
X84380952Y-147476190D01*
X84333333Y-147380952D01*
X84285714Y-147333333D01*
X84190476Y-147285714D01*
X84000000Y-147285714D01*
X83904761Y-147333333D01*
X83619047Y-147285714D02*
X83238095Y-147285714D01*
X83476190Y-146952380D02*
X83476190Y-147809523D01*
X83428571Y-147904761D01*
X83333333Y-147952380D01*
X83238095Y-147952380D01*
X82761904Y-147952380D02*
X82857142Y-147904761D01*
X82904761Y-147857142D01*
X82952380Y-147761904D01*
X82952380Y-147476190D01*
X82904761Y-147380952D01*
X82857142Y-147333333D01*
X82761904Y-147285714D01*
X82619047Y-147285714D01*
X82523809Y-147333333D01*
X82476190Y-147380952D01*
X82428571Y-147476190D01*
X82428571Y-147761904D01*
X82476190Y-147857142D01*
X82523809Y-147904761D01*
X82619047Y-147952380D01*
X82761904Y-147952380D01*
X82000000Y-147952380D02*
X82000000Y-147285714D01*
X82000000Y-147476190D02*
X81952380Y-147380952D01*
X81904761Y-147333333D01*
X81809523Y-147285714D01*
X81714285Y-147285714D01*
X92619047Y-121952380D02*
X92619047Y-120952380D01*
X92190476Y-121904761D02*
X92047619Y-121952380D01*
X91809523Y-121952380D01*
X91714285Y-121904761D01*
X91666666Y-121857142D01*
X91619047Y-121761904D01*
X91619047Y-121666666D01*
X91666666Y-121571428D01*
X91714285Y-121523809D01*
X91809523Y-121476190D01*
X92000000Y-121428571D01*
X92095238Y-121380952D01*
X92142857Y-121333333D01*
X92190476Y-121238095D01*
X92190476Y-121142857D01*
X92142857Y-121047619D01*
X92095238Y-121000000D01*
X92000000Y-120952380D01*
X91761904Y-120952380D01*
X91619047Y-121000000D01*
X91000000Y-120952380D02*
X90809523Y-120952380D01*
X90714285Y-121000000D01*
X90619047Y-121095238D01*
X90571428Y-121285714D01*
X90571428Y-121619047D01*
X90619047Y-121809523D01*
X90714285Y-121904761D01*
X90809523Y-121952380D01*
X91000000Y-121952380D01*
X91095238Y-121904761D01*
X91190476Y-121809523D01*
X91238095Y-121619047D01*
X91238095Y-121285714D01*
X91190476Y-121095238D01*
X91095238Y-121000000D01*
X91000000Y-120952380D01*
X90142857Y-121571428D02*
X89380952Y-121571428D01*
X88380952Y-121000000D02*
X88476190Y-120952380D01*
X88619047Y-120952380D01*
X88761904Y-121000000D01*
X88857142Y-121095238D01*
X88904761Y-121190476D01*
X88952380Y-121380952D01*
X88952380Y-121523809D01*
X88904761Y-121714285D01*
X88857142Y-121809523D01*
X88761904Y-121904761D01*
X88619047Y-121952380D01*
X88523809Y-121952380D01*
X88380952Y-121904761D01*
X88333333Y-121857142D01*
X88333333Y-121523809D01*
X88523809Y-121523809D01*
X87904761Y-121952380D02*
X87904761Y-120952380D01*
X87333333Y-121952380D01*
X87333333Y-120952380D01*
X86857142Y-121952380D02*
X86857142Y-120952380D01*
X86619047Y-120952380D01*
X86476190Y-121000000D01*
X86380952Y-121095238D01*
X86333333Y-121190476D01*
X86285714Y-121380952D01*
X86285714Y-121523809D01*
X86333333Y-121714285D01*
X86380952Y-121809523D01*
X86476190Y-121904761D01*
X86619047Y-121952380D01*
X86857142Y-121952380D01*
X85095238Y-121952380D02*
X85095238Y-120952380D01*
X84714285Y-120952380D01*
X84619047Y-121000000D01*
X84571428Y-121047619D01*
X84523809Y-121142857D01*
X84523809Y-121285714D01*
X84571428Y-121380952D01*
X84619047Y-121428571D01*
X84714285Y-121476190D01*
X85095238Y-121476190D01*
X83666666Y-121952380D02*
X83666666Y-121428571D01*
X83714285Y-121333333D01*
X83809523Y-121285714D01*
X84000000Y-121285714D01*
X84095238Y-121333333D01*
X83666666Y-121904761D02*
X83761904Y-121952380D01*
X84000000Y-121952380D01*
X84095238Y-121904761D01*
X84142857Y-121809523D01*
X84142857Y-121714285D01*
X84095238Y-121619047D01*
X84000000Y-121571428D01*
X83761904Y-121571428D01*
X83666666Y-121523809D01*
X83333333Y-121285714D02*
X82952380Y-121285714D01*
X83190476Y-120952380D02*
X83190476Y-121809523D01*
X83142857Y-121904761D01*
X83047619Y-121952380D01*
X82952380Y-121952380D01*
X82619047Y-121952380D02*
X82619047Y-120952380D01*
X82190476Y-121952380D02*
X82190476Y-121428571D01*
X82238095Y-121333333D01*
X82333333Y-121285714D01*
X82476190Y-121285714D01*
X82571428Y-121333333D01*
X82619047Y-121380952D01*
X81761904Y-121904761D02*
X81666666Y-121952380D01*
X81476190Y-121952380D01*
X81380952Y-121904761D01*
X81333333Y-121809523D01*
X81333333Y-121761904D01*
X81380952Y-121666666D01*
X81476190Y-121619047D01*
X81619047Y-121619047D01*
X81714285Y-121571428D01*
X81761904Y-121476190D01*
X81761904Y-121428571D01*
X81714285Y-121333333D01*
X81619047Y-121285714D01*
X81476190Y-121285714D01*
X81380952Y-121333333D01*
X86000000Y-111000000D02*
X82000000Y-111000000D01*
X86000000Y-114500000D02*
X86000000Y-111000000D01*
X82000000Y-114500000D02*
X86000000Y-114500000D01*
X82000000Y-111000000D02*
X82000000Y-114500000D01*
D13*
X96500000Y-134500000D02*
X80000000Y-134500000D01*
X96500000Y-146500000D02*
X80000000Y-146500000D01*
X96500000Y-122500000D02*
X96500000Y-146500000D01*
X80000000Y-122500000D02*
X96500000Y-122500000D01*
D10*
X97214285Y-50652380D02*
X97214285Y-49652380D01*
X96833333Y-49652380D01*
X96738095Y-49700000D01*
X96690476Y-49747619D01*
X96642857Y-49842857D01*
X96642857Y-49985714D01*
X96690476Y-50080952D01*
X96738095Y-50128571D01*
X96833333Y-50176190D01*
X97214285Y-50176190D01*
X96214285Y-50652380D02*
X96214285Y-49985714D01*
X96214285Y-50176190D02*
X96166666Y-50080952D01*
X96119047Y-50033333D01*
X96023809Y-49985714D01*
X95928571Y-49985714D01*
X95214285Y-50604761D02*
X95309523Y-50652380D01*
X95500000Y-50652380D01*
X95595238Y-50604761D01*
X95642857Y-50509523D01*
X95642857Y-50128571D01*
X95595238Y-50033333D01*
X95500000Y-49985714D01*
X95309523Y-49985714D01*
X95214285Y-50033333D01*
X95166666Y-50128571D01*
X95166666Y-50223809D01*
X95642857Y-50319047D01*
X94738095Y-50271428D02*
X93976190Y-50271428D01*
X92928571Y-50557142D02*
X92976190Y-50604761D01*
X93119047Y-50652380D01*
X93214285Y-50652380D01*
X93357142Y-50604761D01*
X93452380Y-50509523D01*
X93500000Y-50414285D01*
X93547619Y-50223809D01*
X93547619Y-50080952D01*
X93500000Y-49890476D01*
X93452380Y-49795238D01*
X93357142Y-49700000D01*
X93214285Y-49652380D01*
X93119047Y-49652380D01*
X92976190Y-49700000D01*
X92928571Y-49747619D01*
X92500000Y-50652380D02*
X92500000Y-49652380D01*
X92071428Y-50652380D02*
X92071428Y-50128571D01*
X92119047Y-50033333D01*
X92214285Y-49985714D01*
X92357142Y-49985714D01*
X92452380Y-50033333D01*
X92500000Y-50080952D01*
X91166666Y-50652380D02*
X91166666Y-50128571D01*
X91214285Y-50033333D01*
X91309523Y-49985714D01*
X91500000Y-49985714D01*
X91595238Y-50033333D01*
X91166666Y-50604761D02*
X91261904Y-50652380D01*
X91500000Y-50652380D01*
X91595238Y-50604761D01*
X91642857Y-50509523D01*
X91642857Y-50414285D01*
X91595238Y-50319047D01*
X91500000Y-50271428D01*
X91261904Y-50271428D01*
X91166666Y-50223809D01*
X90690476Y-50652380D02*
X90690476Y-49985714D01*
X90690476Y-50176190D02*
X90642857Y-50080952D01*
X90595238Y-50033333D01*
X90500000Y-49985714D01*
X90404761Y-49985714D01*
X89642857Y-49985714D02*
X89642857Y-50795238D01*
X89690476Y-50890476D01*
X89738095Y-50938095D01*
X89833333Y-50985714D01*
X89976190Y-50985714D01*
X90071428Y-50938095D01*
X89642857Y-50604761D02*
X89738095Y-50652380D01*
X89928571Y-50652380D01*
X90023809Y-50604761D01*
X90071428Y-50557142D01*
X90119047Y-50461904D01*
X90119047Y-50176190D01*
X90071428Y-50080952D01*
X90023809Y-50033333D01*
X89928571Y-49985714D01*
X89738095Y-49985714D01*
X89642857Y-50033333D01*
X88785714Y-50604761D02*
X88880952Y-50652380D01*
X89071428Y-50652380D01*
X89166666Y-50604761D01*
X89214285Y-50509523D01*
X89214285Y-50128571D01*
X89166666Y-50033333D01*
X89071428Y-49985714D01*
X88880952Y-49985714D01*
X88785714Y-50033333D01*
X88738095Y-50128571D01*
X88738095Y-50223809D01*
X89214285Y-50319047D01*
X86976190Y-50557142D02*
X87023809Y-50604761D01*
X87166666Y-50652380D01*
X87261904Y-50652380D01*
X87404761Y-50604761D01*
X87500000Y-50509523D01*
X87547619Y-50414285D01*
X87595238Y-50223809D01*
X87595238Y-50080952D01*
X87547619Y-49890476D01*
X87500000Y-49795238D01*
X87404761Y-49700000D01*
X87261904Y-49652380D01*
X87166666Y-49652380D01*
X87023809Y-49700000D01*
X86976190Y-49747619D01*
X86404761Y-50652380D02*
X86500000Y-50604761D01*
X86547619Y-50557142D01*
X86595238Y-50461904D01*
X86595238Y-50176190D01*
X86547619Y-50080952D01*
X86500000Y-50033333D01*
X86404761Y-49985714D01*
X86261904Y-49985714D01*
X86166666Y-50033333D01*
X86119047Y-50080952D01*
X86071428Y-50176190D01*
X86071428Y-50461904D01*
X86119047Y-50557142D01*
X86166666Y-50604761D01*
X86261904Y-50652380D01*
X86404761Y-50652380D01*
X85642857Y-49985714D02*
X85642857Y-50652380D01*
X85642857Y-50080952D02*
X85595238Y-50033333D01*
X85500000Y-49985714D01*
X85357142Y-49985714D01*
X85261904Y-50033333D01*
X85214285Y-50128571D01*
X85214285Y-50652380D01*
X84880952Y-49985714D02*
X84500000Y-49985714D01*
X84738095Y-49652380D02*
X84738095Y-50509523D01*
X84690476Y-50604761D01*
X84595238Y-50652380D01*
X84500000Y-50652380D01*
X83738095Y-50652380D02*
X83738095Y-50128571D01*
X83785714Y-50033333D01*
X83880952Y-49985714D01*
X84071428Y-49985714D01*
X84166666Y-50033333D01*
X83738095Y-50604761D02*
X83833333Y-50652380D01*
X84071428Y-50652380D01*
X84166666Y-50604761D01*
X84214285Y-50509523D01*
X84214285Y-50414285D01*
X84166666Y-50319047D01*
X84071428Y-50271428D01*
X83833333Y-50271428D01*
X83738095Y-50223809D01*
X82833333Y-50604761D02*
X82928571Y-50652380D01*
X83119047Y-50652380D01*
X83214285Y-50604761D01*
X83261904Y-50557142D01*
X83309523Y-50461904D01*
X83309523Y-50176190D01*
X83261904Y-50080952D01*
X83214285Y-50033333D01*
X83119047Y-49985714D01*
X82928571Y-49985714D01*
X82833333Y-50033333D01*
X82547619Y-49985714D02*
X82166666Y-49985714D01*
X82404761Y-49652380D02*
X82404761Y-50509523D01*
X82357142Y-50604761D01*
X82261904Y-50652380D01*
X82166666Y-50652380D01*
X81690476Y-50652380D02*
X81785714Y-50604761D01*
X81833333Y-50557142D01*
X81880952Y-50461904D01*
X81880952Y-50176190D01*
X81833333Y-50080952D01*
X81785714Y-50033333D01*
X81690476Y-49985714D01*
X81547619Y-49985714D01*
X81452380Y-50033333D01*
X81404761Y-50080952D01*
X81357142Y-50176190D01*
X81357142Y-50461904D01*
X81404761Y-50557142D01*
X81452380Y-50604761D01*
X81547619Y-50652380D01*
X81690476Y-50652380D01*
X80928571Y-50652380D02*
X80928571Y-49985714D01*
X80928571Y-50176190D02*
X80880952Y-50080952D01*
X80833333Y-50033333D01*
X80738095Y-49985714D01*
X80642857Y-49985714D01*
X90500000Y-80214285D02*
X90547619Y-80309523D01*
X90547619Y-80452380D01*
X90500000Y-80595238D01*
X90404761Y-80690476D01*
X90309523Y-80738095D01*
X90119047Y-80785714D01*
X89976190Y-80785714D01*
X89785714Y-80738095D01*
X89690476Y-80690476D01*
X89595238Y-80595238D01*
X89547619Y-80452380D01*
X89547619Y-80357142D01*
X89595238Y-80214285D01*
X89642857Y-80166666D01*
X89976190Y-80166666D01*
X89976190Y-80357142D01*
X89547619Y-79261904D02*
X89547619Y-79738095D01*
X90547619Y-79738095D01*
X90547619Y-79071428D02*
X89547619Y-78738095D01*
X90547619Y-78404761D01*
X89642857Y-76738095D02*
X89595238Y-76785714D01*
X89547619Y-76928571D01*
X89547619Y-77023809D01*
X89595238Y-77166666D01*
X89690476Y-77261904D01*
X89785714Y-77309523D01*
X89976190Y-77357142D01*
X90119047Y-77357142D01*
X90309523Y-77309523D01*
X90404761Y-77261904D01*
X90500000Y-77166666D01*
X90547619Y-77023809D01*
X90547619Y-76928571D01*
X90500000Y-76785714D01*
X90452380Y-76738095D01*
X89547619Y-76166666D02*
X89595238Y-76261904D01*
X89642857Y-76309523D01*
X89738095Y-76357142D01*
X90023809Y-76357142D01*
X90119047Y-76309523D01*
X90166666Y-76261904D01*
X90214285Y-76166666D01*
X90214285Y-76023809D01*
X90166666Y-75928571D01*
X90119047Y-75880952D01*
X90023809Y-75833333D01*
X89738095Y-75833333D01*
X89642857Y-75880952D01*
X89595238Y-75928571D01*
X89547619Y-76023809D01*
X89547619Y-76166666D01*
X90214285Y-75404761D02*
X89547619Y-75404761D01*
X90119047Y-75404761D02*
X90166666Y-75357142D01*
X90214285Y-75261904D01*
X90214285Y-75119047D01*
X90166666Y-75023809D01*
X90071428Y-74976190D01*
X89547619Y-74976190D01*
X90214285Y-74500000D02*
X89547619Y-74500000D01*
X90119047Y-74500000D02*
X90166666Y-74452380D01*
X90214285Y-74357142D01*
X90214285Y-74214285D01*
X90166666Y-74119047D01*
X90071428Y-74071428D01*
X89547619Y-74071428D01*
X89595238Y-73214285D02*
X89547619Y-73309523D01*
X89547619Y-73500000D01*
X89595238Y-73595238D01*
X89690476Y-73642857D01*
X90071428Y-73642857D01*
X90166666Y-73595238D01*
X90214285Y-73500000D01*
X90214285Y-73309523D01*
X90166666Y-73214285D01*
X90071428Y-73166666D01*
X89976190Y-73166666D01*
X89880952Y-73642857D01*
X89595238Y-72309523D02*
X89547619Y-72404761D01*
X89547619Y-72595238D01*
X89595238Y-72690476D01*
X89642857Y-72738095D01*
X89738095Y-72785714D01*
X90023809Y-72785714D01*
X90119047Y-72738095D01*
X90166666Y-72690476D01*
X90214285Y-72595238D01*
X90214285Y-72404761D01*
X90166666Y-72309523D01*
X90214285Y-72023809D02*
X90214285Y-71642857D01*
X90547619Y-71880952D02*
X89690476Y-71880952D01*
X89595238Y-71833333D01*
X89547619Y-71738095D01*
X89547619Y-71642857D01*
X89547619Y-71166666D02*
X89595238Y-71261904D01*
X89642857Y-71309523D01*
X89738095Y-71357142D01*
X90023809Y-71357142D01*
X90119047Y-71309523D01*
X90166666Y-71261904D01*
X90214285Y-71166666D01*
X90214285Y-71023809D01*
X90166666Y-70928571D01*
X90119047Y-70880952D01*
X90023809Y-70833333D01*
X89738095Y-70833333D01*
X89642857Y-70880952D01*
X89595238Y-70928571D01*
X89547619Y-71023809D01*
X89547619Y-71166666D01*
X89547619Y-70404761D02*
X90214285Y-70404761D01*
X90023809Y-70404761D02*
X90119047Y-70357142D01*
X90166666Y-70309523D01*
X90214285Y-70214285D01*
X90214285Y-70119047D01*
D13*
X96000000Y-51200000D02*
X80000000Y-51200000D01*
X96000000Y-61000000D02*
X96000000Y-51200000D01*
X88500000Y-61000000D02*
X96000000Y-61000000D01*
X89000000Y-90000000D02*
X80000000Y-90000000D01*
X89000000Y-61000000D02*
X89000000Y-90000000D01*
X80000000Y-61000000D02*
X88500000Y-61000000D01*
D10*
X130452380Y-64285714D02*
X129452380Y-64285714D01*
X130452380Y-64761904D02*
X129452380Y-64761904D01*
X130166666Y-65095238D01*
X129452380Y-65428571D01*
X130452380Y-65428571D01*
X130452380Y-65904761D02*
X129452380Y-65904761D01*
X129452380Y-66142857D01*
X129500000Y-66285714D01*
X129595238Y-66380952D01*
X129690476Y-66428571D01*
X129880952Y-66476190D01*
X130023809Y-66476190D01*
X130214285Y-66428571D01*
X130309523Y-66380952D01*
X130404761Y-66285714D01*
X130452380Y-66142857D01*
X130452380Y-65904761D01*
X130357142Y-68238095D02*
X130404761Y-68190476D01*
X130452380Y-68047619D01*
X130452380Y-67952380D01*
X130404761Y-67809523D01*
X130309523Y-67714285D01*
X130214285Y-67666666D01*
X130023809Y-67619047D01*
X129880952Y-67619047D01*
X129690476Y-67666666D01*
X129595238Y-67714285D01*
X129500000Y-67809523D01*
X129452380Y-67952380D01*
X129452380Y-68047619D01*
X129500000Y-68190476D01*
X129547619Y-68238095D01*
X130452380Y-68809523D02*
X130404761Y-68714285D01*
X130357142Y-68666666D01*
X130261904Y-68619047D01*
X129976190Y-68619047D01*
X129880952Y-68666666D01*
X129833333Y-68714285D01*
X129785714Y-68809523D01*
X129785714Y-68952380D01*
X129833333Y-69047619D01*
X129880952Y-69095238D01*
X129976190Y-69142857D01*
X130261904Y-69142857D01*
X130357142Y-69095238D01*
X130404761Y-69047619D01*
X130452380Y-68952380D01*
X130452380Y-68809523D01*
X129785714Y-69571428D02*
X130452380Y-69571428D01*
X129880952Y-69571428D02*
X129833333Y-69619047D01*
X129785714Y-69714285D01*
X129785714Y-69857142D01*
X129833333Y-69952380D01*
X129928571Y-70000000D01*
X130452380Y-70000000D01*
X129785714Y-70476190D02*
X130452380Y-70476190D01*
X129880952Y-70476190D02*
X129833333Y-70523809D01*
X129785714Y-70619047D01*
X129785714Y-70761904D01*
X129833333Y-70857142D01*
X129928571Y-70904761D01*
X130452380Y-70904761D01*
X130404761Y-71761904D02*
X130452380Y-71666666D01*
X130452380Y-71476190D01*
X130404761Y-71380952D01*
X130309523Y-71333333D01*
X129928571Y-71333333D01*
X129833333Y-71380952D01*
X129785714Y-71476190D01*
X129785714Y-71666666D01*
X129833333Y-71761904D01*
X129928571Y-71809523D01*
X130023809Y-71809523D01*
X130119047Y-71333333D01*
X130404761Y-72666666D02*
X130452380Y-72571428D01*
X130452380Y-72380952D01*
X130404761Y-72285714D01*
X130357142Y-72238095D01*
X130261904Y-72190476D01*
X129976190Y-72190476D01*
X129880952Y-72238095D01*
X129833333Y-72285714D01*
X129785714Y-72380952D01*
X129785714Y-72571428D01*
X129833333Y-72666666D01*
X129785714Y-72952380D02*
X129785714Y-73333333D01*
X129452380Y-73095238D02*
X130309523Y-73095238D01*
X130404761Y-73142857D01*
X130452380Y-73238095D01*
X130452380Y-73333333D01*
X130452380Y-73809523D02*
X130404761Y-73714285D01*
X130357142Y-73666666D01*
X130261904Y-73619047D01*
X129976190Y-73619047D01*
X129880952Y-73666666D01*
X129833333Y-73714285D01*
X129785714Y-73809523D01*
X129785714Y-73952380D01*
X129833333Y-74047619D01*
X129880952Y-74095238D01*
X129976190Y-74142857D01*
X130261904Y-74142857D01*
X130357142Y-74095238D01*
X130404761Y-74047619D01*
X130452380Y-73952380D01*
X130452380Y-73809523D01*
X130452380Y-74571428D02*
X129785714Y-74571428D01*
X129976190Y-74571428D02*
X129880952Y-74619047D01*
X129833333Y-74666666D01*
X129785714Y-74761904D01*
X129785714Y-74857142D01*
D13*
X131000000Y-79000000D02*
X140000000Y-79000000D01*
X131000000Y-61000000D02*
X131000000Y-79000000D01*
X140000000Y-61000000D02*
X131000000Y-61000000D01*
X135390000Y-40390000D02*
X135190000Y-40950000D01*
X134630000Y-40570000D02*
X135380000Y-40390000D01*
X135190000Y-40950000D02*
X134630000Y-40580000D01*
X134390000Y-38550000D02*
X135190000Y-40950000D01*
X135690000Y-39050000D02*
X134390000Y-38550000D01*
X134900000Y-36600000D02*
X135690000Y-39050000D01*
X138490000Y-41250000D02*
X138290000Y-41550000D01*
X130990000Y-41250000D02*
X131190000Y-41550000D01*
X134690000Y-35350000D02*
X135090000Y-35350000D01*
X138490000Y-41250000D02*
X135090000Y-35350000D01*
X131190000Y-41550000D02*
X138290000Y-41550000D01*
X134690000Y-35350000D02*
X130990000Y-41250000D01*
D10*
X138571428Y-52452380D02*
X138571428Y-51452380D01*
X138571428Y-51928571D02*
X138000000Y-51928571D01*
X138000000Y-52452380D02*
X138000000Y-51452380D01*
X137523809Y-52452380D02*
X137523809Y-51785714D01*
X137523809Y-51452380D02*
X137571428Y-51500000D01*
X137523809Y-51547619D01*
X137476190Y-51500000D01*
X137523809Y-51452380D01*
X137523809Y-51547619D01*
X136619047Y-51785714D02*
X136619047Y-52595238D01*
X136666666Y-52690476D01*
X136714285Y-52738095D01*
X136809523Y-52785714D01*
X136952380Y-52785714D01*
X137047619Y-52738095D01*
X136619047Y-52404761D02*
X136714285Y-52452380D01*
X136904761Y-52452380D01*
X137000000Y-52404761D01*
X137047619Y-52357142D01*
X137095238Y-52261904D01*
X137095238Y-51976190D01*
X137047619Y-51880952D01*
X137000000Y-51833333D01*
X136904761Y-51785714D01*
X136714285Y-51785714D01*
X136619047Y-51833333D01*
X136142857Y-52452380D02*
X136142857Y-51452380D01*
X135714285Y-52452380D02*
X135714285Y-51928571D01*
X135761904Y-51833333D01*
X135857142Y-51785714D01*
X136000000Y-51785714D01*
X136095238Y-51833333D01*
X136142857Y-51880952D01*
X134619047Y-51452380D02*
X134285714Y-52452380D01*
X133952380Y-51452380D01*
X133476190Y-52452380D02*
X133571428Y-52404761D01*
X133619047Y-52357142D01*
X133666666Y-52261904D01*
X133666666Y-51976190D01*
X133619047Y-51880952D01*
X133571428Y-51833333D01*
X133476190Y-51785714D01*
X133333333Y-51785714D01*
X133238095Y-51833333D01*
X133190476Y-51880952D01*
X133142857Y-51976190D01*
X133142857Y-52261904D01*
X133190476Y-52357142D01*
X133238095Y-52404761D01*
X133333333Y-52452380D01*
X133476190Y-52452380D01*
X132571428Y-52452380D02*
X132666666Y-52404761D01*
X132714285Y-52309523D01*
X132714285Y-51452380D01*
X132333333Y-51785714D02*
X131952380Y-51785714D01*
X132190476Y-51452380D02*
X132190476Y-52309523D01*
X132142857Y-52404761D01*
X132047619Y-52452380D01*
X131952380Y-52452380D01*
X131190476Y-52452380D02*
X131190476Y-51928571D01*
X131238095Y-51833333D01*
X131333333Y-51785714D01*
X131523809Y-51785714D01*
X131619047Y-51833333D01*
X131190476Y-52404761D02*
X131285714Y-52452380D01*
X131523809Y-52452380D01*
X131619047Y-52404761D01*
X131666666Y-52309523D01*
X131666666Y-52214285D01*
X131619047Y-52119047D01*
X131523809Y-52071428D01*
X131285714Y-52071428D01*
X131190476Y-52023809D01*
X130285714Y-51785714D02*
X130285714Y-52595238D01*
X130333333Y-52690476D01*
X130380952Y-52738095D01*
X130476190Y-52785714D01*
X130619047Y-52785714D01*
X130714285Y-52738095D01*
X130285714Y-52404761D02*
X130380952Y-52452380D01*
X130571428Y-52452380D01*
X130666666Y-52404761D01*
X130714285Y-52357142D01*
X130761904Y-52261904D01*
X130761904Y-51976190D01*
X130714285Y-51880952D01*
X130666666Y-51833333D01*
X130571428Y-51785714D01*
X130380952Y-51785714D01*
X130285714Y-51833333D01*
X129428571Y-52404761D02*
X129523809Y-52452380D01*
X129714285Y-52452380D01*
X129809523Y-52404761D01*
X129857142Y-52309523D01*
X129857142Y-51928571D01*
X129809523Y-51833333D01*
X129714285Y-51785714D01*
X129523809Y-51785714D01*
X129428571Y-51833333D01*
X129380952Y-51928571D01*
X129380952Y-52023809D01*
X129857142Y-52119047D01*
D14*
X119500000Y-47000000D02*
X119500000Y-25000000D01*
X124404013Y-51999079D02*
G75*
G02*
X119500000Y-47000000I95987J4999079D01*
G01*
X128500000Y-52000000D02*
X124400000Y-52000000D01*
D10*
X124499992Y-54799359D02*
G75*
G02*
X116600000Y-47000000I-99992J7799359D01*
G01*
X124400000Y-50800000D02*
G75*
G02*
X120600000Y-47000000I0J3800000D01*
G01*
X140000000Y-54800000D02*
X124500000Y-54800000D01*
X140000000Y-50800000D02*
X124400000Y-50800000D01*
X116600000Y-25000000D02*
X116600000Y-47000000D01*
X120600000Y-25000000D02*
X120600000Y-47000000D01*
D15*
G36*
X96222150Y-102509239D02*
G01*
X96251106Y-102500227D01*
X96324780Y-102476737D01*
X96439556Y-102439939D01*
X96591822Y-102390999D01*
X96777962Y-102331085D01*
X96994363Y-102261365D01*
X97237411Y-102183008D01*
X97503492Y-102097181D01*
X97788992Y-102005051D01*
X98090297Y-101907787D01*
X98403793Y-101806557D01*
X98725866Y-101702528D01*
X99052902Y-101596868D01*
X99381287Y-101490746D01*
X99707407Y-101385329D01*
X100027648Y-101281784D01*
X100338396Y-101181280D01*
X100636037Y-101084985D01*
X100916957Y-100994066D01*
X101177543Y-100909691D01*
X101414179Y-100833029D01*
X101623253Y-100765246D01*
X101801149Y-100707512D01*
X101944255Y-100660993D01*
X102048956Y-100626858D01*
X102111638Y-100606274D01*
X102127966Y-100600776D01*
X102136569Y-100607098D01*
X102143395Y-100635571D01*
X102148560Y-100690265D01*
X102152176Y-100775253D01*
X102154357Y-100894605D01*
X102155218Y-101052394D01*
X102154872Y-101252691D01*
X102153433Y-101499567D01*
X102153366Y-101508893D01*
X102146700Y-102428435D01*
X100495700Y-102963586D01*
X98844700Y-103498736D01*
X98838229Y-106069268D01*
X98837466Y-106425924D01*
X98837000Y-106767911D01*
X98836819Y-107091849D01*
X98836914Y-107394357D01*
X98837276Y-107672055D01*
X98837893Y-107921563D01*
X98838756Y-108139500D01*
X98839855Y-108322487D01*
X98841181Y-108467143D01*
X98842723Y-108570087D01*
X98844471Y-108627939D01*
X98845789Y-108639800D01*
X98871044Y-108632222D01*
X98939805Y-108610526D01*
X99047259Y-108576268D01*
X99188592Y-108531003D01*
X99358988Y-108476286D01*
X99553634Y-108413673D01*
X99767715Y-108344719D01*
X99996416Y-108270979D01*
X100234923Y-108194010D01*
X100478422Y-108115367D01*
X100722098Y-108036605D01*
X100961137Y-107959279D01*
X101190724Y-107884945D01*
X101406045Y-107815159D01*
X101602285Y-107751476D01*
X101774630Y-107695451D01*
X101918266Y-107648640D01*
X102028377Y-107612599D01*
X102100150Y-107588882D01*
X102127649Y-107579488D01*
X102133906Y-107586484D01*
X102139337Y-107614424D01*
X102143993Y-107666201D01*
X102147924Y-107744711D01*
X102151181Y-107852846D01*
X102153815Y-107993501D01*
X102155875Y-108169570D01*
X102157411Y-108383948D01*
X102158475Y-108639528D01*
X102159115Y-108939205D01*
X102159384Y-109285873D01*
X102159399Y-109405588D01*
X102159592Y-109778176D01*
X102160213Y-110103829D01*
X102161334Y-110386411D01*
X102163021Y-110629786D01*
X102165343Y-110837817D01*
X102168369Y-111014369D01*
X102172168Y-111163305D01*
X102176808Y-111288489D01*
X102182357Y-111393785D01*
X102188884Y-111483057D01*
X102196457Y-111560168D01*
X102197817Y-111572032D01*
X102294138Y-112182915D01*
X102437738Y-112775628D01*
X102627983Y-113348887D01*
X102864241Y-113901412D01*
X103145879Y-114431919D01*
X103472265Y-114939126D01*
X103842766Y-115421752D01*
X104256751Y-115878515D01*
X104385441Y-116006530D01*
X104829553Y-116406430D01*
X105293583Y-116761305D01*
X105782363Y-117074637D01*
X106134521Y-117267383D01*
X106650303Y-117510362D01*
X107161404Y-117707293D01*
X107675344Y-117859975D01*
X108199647Y-117970209D01*
X108741834Y-118039793D01*
X109309428Y-118070526D01*
X109500000Y-118072450D01*
X110077437Y-118053916D01*
X110627032Y-117997115D01*
X111156304Y-117900247D01*
X111672778Y-117761513D01*
X112183975Y-117579113D01*
X112697416Y-117351249D01*
X112865478Y-117267383D01*
X113384210Y-116973442D01*
X113878298Y-116636341D01*
X114344684Y-116258905D01*
X114780313Y-115843957D01*
X115182128Y-115394322D01*
X115547072Y-114912825D01*
X115754884Y-114597279D01*
X116031853Y-114107941D01*
X116273738Y-113588689D01*
X116476277Y-113049989D01*
X116635212Y-112502305D01*
X116672763Y-112342282D01*
X116691819Y-112257494D01*
X116709227Y-112180879D01*
X116725069Y-112109937D01*
X116739425Y-112042168D01*
X116752376Y-111975072D01*
X116764003Y-111906149D01*
X116774385Y-111832900D01*
X116783605Y-111752825D01*
X116791742Y-111663424D01*
X116798877Y-111562198D01*
X116805091Y-111446647D01*
X116810464Y-111314271D01*
X116815078Y-111162570D01*
X116819012Y-110989045D01*
X116822348Y-110791196D01*
X116825167Y-110566524D01*
X116827548Y-110312528D01*
X116829573Y-110026709D01*
X116831323Y-109706567D01*
X116832877Y-109349603D01*
X116834317Y-108953316D01*
X116835723Y-108515207D01*
X116837177Y-108032777D01*
X116838758Y-107503525D01*
X116839786Y-107167497D01*
X116853300Y-102812295D01*
X118504300Y-102277195D01*
X120155300Y-101742094D01*
X120161770Y-99171147D01*
X120162533Y-98814461D01*
X120162999Y-98472444D01*
X120163180Y-98148476D01*
X120163085Y-97845937D01*
X120162724Y-97568207D01*
X120162107Y-97318666D01*
X120161244Y-97100693D01*
X120160144Y-96917670D01*
X120158819Y-96772975D01*
X120157278Y-96669989D01*
X120155530Y-96612092D01*
X120154210Y-96600200D01*
X120128950Y-96607777D01*
X120060182Y-96629473D01*
X119952722Y-96663733D01*
X119811383Y-96709000D01*
X119640980Y-96763719D01*
X119446326Y-96826335D01*
X119232237Y-96895292D01*
X119003526Y-96969036D01*
X118765008Y-97046009D01*
X118521497Y-97124658D01*
X118277807Y-97203426D01*
X118038752Y-97280759D01*
X117809148Y-97355100D01*
X117593807Y-97424895D01*
X117397545Y-97488587D01*
X117225175Y-97544622D01*
X117081513Y-97591444D01*
X116971371Y-97627497D01*
X116899565Y-97651226D01*
X116872030Y-97660634D01*
X116863433Y-97654504D01*
X116856610Y-97626249D01*
X116851447Y-97571801D01*
X116847829Y-97487091D01*
X116845643Y-97368051D01*
X116844775Y-97210613D01*
X116845112Y-97010707D01*
X116846540Y-96764265D01*
X116846630Y-96751794D01*
X116853300Y-95830908D01*
X119844085Y-94863004D01*
X122834871Y-93895100D01*
X122834935Y-90685596D01*
X122835000Y-87476092D01*
X122777850Y-87490706D01*
X122749145Y-87499650D01*
X122675722Y-87523072D01*
X122561192Y-87559806D01*
X122409166Y-87608685D01*
X122223256Y-87668541D01*
X122007074Y-87738207D01*
X121764232Y-87816515D01*
X121498341Y-87902299D01*
X121213012Y-87994392D01*
X120911858Y-88091625D01*
X120598490Y-88192831D01*
X120276519Y-88296844D01*
X119949558Y-88402497D01*
X119621218Y-88508620D01*
X119295110Y-88614049D01*
X118974847Y-88717614D01*
X118664039Y-88818150D01*
X118366300Y-88914488D01*
X118085239Y-89005462D01*
X117824469Y-89089904D01*
X117587602Y-89166647D01*
X117378249Y-89234523D01*
X117200021Y-89292366D01*
X117056531Y-89339008D01*
X116951391Y-89373281D01*
X116888211Y-89394019D01*
X116872033Y-89399449D01*
X116863428Y-89393057D01*
X116856600Y-89364511D01*
X116851436Y-89309736D01*
X116847820Y-89224660D01*
X116845640Y-89105211D01*
X116844781Y-88947317D01*
X116845130Y-88746903D01*
X116846572Y-88499899D01*
X116846633Y-88491414D01*
X116853300Y-87572180D01*
X120155300Y-86502590D01*
X120161770Y-83931395D01*
X120162533Y-83574692D01*
X120162999Y-83232657D01*
X120163180Y-82908671D01*
X120163085Y-82606114D01*
X120162724Y-82328364D01*
X120162107Y-82078803D01*
X120161244Y-81860809D01*
X120160145Y-81677764D01*
X120158820Y-81533046D01*
X120157279Y-81430035D01*
X120155531Y-81372112D01*
X120154210Y-81360200D01*
X120128955Y-81367777D01*
X120060194Y-81389473D01*
X119952740Y-81423731D01*
X119811407Y-81468996D01*
X119641011Y-81523713D01*
X119446365Y-81586326D01*
X119232284Y-81655280D01*
X119003583Y-81729020D01*
X118765076Y-81805989D01*
X118521577Y-81884632D01*
X118277901Y-81963394D01*
X118038862Y-82040720D01*
X117809275Y-82115054D01*
X117593954Y-82184840D01*
X117397714Y-82248523D01*
X117225369Y-82304548D01*
X117081733Y-82351359D01*
X116971622Y-82387400D01*
X116899849Y-82411117D01*
X116872350Y-82420511D01*
X116866093Y-82413515D01*
X116860662Y-82385575D01*
X116856006Y-82333798D01*
X116852075Y-82255288D01*
X116848818Y-82147153D01*
X116846184Y-82006498D01*
X116844124Y-81830429D01*
X116842588Y-81616051D01*
X116841524Y-81360471D01*
X116840884Y-81060794D01*
X116840615Y-80714126D01*
X116840600Y-80594411D01*
X116840407Y-80221823D01*
X116839786Y-79896170D01*
X116838665Y-79613588D01*
X116836978Y-79370213D01*
X116834656Y-79162182D01*
X116831630Y-78985630D01*
X116827831Y-78836694D01*
X116823191Y-78711510D01*
X116817642Y-78606214D01*
X116811115Y-78516942D01*
X116803542Y-78439831D01*
X116802182Y-78427967D01*
X116705861Y-77817084D01*
X116562261Y-77224371D01*
X116372016Y-76651112D01*
X116135758Y-76098587D01*
X115854120Y-75568080D01*
X115527734Y-75060873D01*
X115157233Y-74578247D01*
X114743248Y-74121484D01*
X114614558Y-73993469D01*
X114170446Y-73593569D01*
X113706416Y-73238694D01*
X113217636Y-72925362D01*
X112865478Y-72732616D01*
X112349696Y-72489637D01*
X111838595Y-72292706D01*
X111324655Y-72140024D01*
X110800352Y-72029790D01*
X110258165Y-71960206D01*
X109690571Y-71929473D01*
X109500000Y-71927549D01*
X109500000Y-72368600D01*
X110077171Y-72391347D01*
X110638193Y-72460256D01*
X111187295Y-72576327D01*
X111728710Y-72740558D01*
X112266667Y-72953949D01*
X112560700Y-73091691D01*
X113073865Y-73373058D01*
X113559491Y-73696385D01*
X114015486Y-74059670D01*
X114439759Y-74460908D01*
X114830218Y-74898094D01*
X115184773Y-75369223D01*
X115501332Y-75872292D01*
X115548047Y-75955127D01*
X115787649Y-76434758D01*
X115991824Y-76943918D01*
X116157759Y-77473192D01*
X116282643Y-78013165D01*
X116363666Y-78554418D01*
X116381443Y-78746317D01*
X116382581Y-78786402D01*
X116383691Y-78875909D01*
X116384773Y-79013460D01*
X116385825Y-79197677D01*
X116386846Y-79427182D01*
X116387834Y-79700597D01*
X116388788Y-80016544D01*
X116389707Y-80373645D01*
X116390588Y-80770522D01*
X116391431Y-81205797D01*
X116392235Y-81678092D01*
X116392997Y-82186030D01*
X116393716Y-82728231D01*
X116394392Y-83303318D01*
X116395022Y-83909914D01*
X116395605Y-84546639D01*
X116396140Y-85212117D01*
X116396625Y-85904969D01*
X116397060Y-86623817D01*
X116397442Y-87367283D01*
X116397770Y-88133989D01*
X116398042Y-88922557D01*
X116398258Y-89731609D01*
X116398416Y-90559768D01*
X116398515Y-91405654D01*
X116398552Y-92267891D01*
X116398527Y-93145100D01*
X116398438Y-94035903D01*
X116398285Y-94938922D01*
X116398236Y-95165100D01*
X116397989Y-96251843D01*
X116397741Y-97288967D01*
X116397488Y-98277650D01*
X116397229Y-99219071D01*
X116396958Y-100114411D01*
X116396672Y-100964849D01*
X116396369Y-101771564D01*
X116396044Y-102535737D01*
X116395694Y-103258546D01*
X116395315Y-103941172D01*
X116394905Y-104584793D01*
X116394460Y-105190590D01*
X116393976Y-105759742D01*
X116393449Y-106293429D01*
X116392877Y-106792830D01*
X116392256Y-107259125D01*
X116391582Y-107693493D01*
X116390852Y-108097115D01*
X116390062Y-108471169D01*
X116389210Y-108816835D01*
X116388291Y-109135293D01*
X116387302Y-109427723D01*
X116386239Y-109695303D01*
X116385100Y-109939214D01*
X116383881Y-110160635D01*
X116382578Y-110360747D01*
X116381187Y-110540727D01*
X116379706Y-110701756D01*
X116378131Y-110845014D01*
X116376458Y-110971680D01*
X116374684Y-111082934D01*
X116372805Y-111179955D01*
X116370819Y-111263924D01*
X116368721Y-111336018D01*
X116366508Y-111397419D01*
X116364177Y-111449305D01*
X116361723Y-111492857D01*
X116359145Y-111529253D01*
X116356438Y-111559674D01*
X116353598Y-111585299D01*
X116350623Y-111607308D01*
X116349978Y-111611600D01*
X116264410Y-112083523D01*
X116155408Y-112538582D01*
X116026022Y-112965107D01*
X115923582Y-113243900D01*
X115680828Y-113786408D01*
X115396398Y-114301606D01*
X115072417Y-114787560D01*
X114711011Y-115242335D01*
X114314304Y-115663995D01*
X113884423Y-116050607D01*
X113423494Y-116400235D01*
X112933640Y-116710945D01*
X112416989Y-116980801D01*
X111875665Y-117207868D01*
X111394709Y-117366665D01*
X110845566Y-117500300D01*
X110282220Y-117587325D01*
X109710671Y-117627739D01*
X109136920Y-117621543D01*
X108566967Y-117568738D01*
X108006811Y-117469322D01*
X107605290Y-117366665D01*
X107064572Y-117184476D01*
X106538606Y-116957552D01*
X106032302Y-116688953D01*
X105550575Y-116381738D01*
X105098335Y-116038964D01*
X104680495Y-115663691D01*
X104399857Y-115370800D01*
X104013970Y-114904038D01*
X103673497Y-114414547D01*
X103378591Y-113902663D01*
X103129404Y-113368723D01*
X102926090Y-112813064D01*
X102768802Y-112236023D01*
X102657691Y-111637938D01*
X102637076Y-111484600D01*
X102634712Y-111440153D01*
X102632426Y-111346564D01*
X102630218Y-111205492D01*
X102628089Y-111018595D01*
X102626038Y-110787530D01*
X102624066Y-110513957D01*
X102622172Y-110199533D01*
X102620357Y-109845916D01*
X102618620Y-109454765D01*
X102616962Y-109027737D01*
X102615382Y-108566492D01*
X102613881Y-108072687D01*
X102612458Y-107547981D01*
X102611113Y-106994031D01*
X102609847Y-106412495D01*
X102608659Y-105805033D01*
X102607550Y-105173302D01*
X102606520Y-104518961D01*
X102605568Y-103843667D01*
X102604694Y-103149079D01*
X102603899Y-102436855D01*
X102603182Y-101708654D01*
X102602543Y-100966132D01*
X102601984Y-100210949D01*
X102601502Y-99444764D01*
X102601099Y-98669233D01*
X102600775Y-97886015D01*
X102600529Y-97096769D01*
X102600361Y-96303152D01*
X102600272Y-95506823D01*
X102600261Y-94709440D01*
X102600329Y-93912661D01*
X102600475Y-93118145D01*
X102600700Y-92327549D01*
X102601003Y-91542533D01*
X102601385Y-90764753D01*
X102601845Y-89995868D01*
X102602384Y-89237537D01*
X102603001Y-88491417D01*
X102603696Y-87759167D01*
X102604470Y-87042445D01*
X102605323Y-86342909D01*
X102606254Y-85662217D01*
X102607263Y-85002029D01*
X102608351Y-84364000D01*
X102609517Y-83749791D01*
X102610762Y-83161059D01*
X102612085Y-82599463D01*
X102613487Y-82066660D01*
X102614967Y-81564308D01*
X102616526Y-81094067D01*
X102618163Y-80657594D01*
X102619878Y-80256547D01*
X102621672Y-79892585D01*
X102623545Y-79567365D01*
X102625495Y-79282546D01*
X102627525Y-79039787D01*
X102629633Y-78840745D01*
X102631819Y-78687078D01*
X102634084Y-78580445D01*
X102636427Y-78522505D01*
X102637076Y-78515400D01*
X102736314Y-77915382D01*
X102881759Y-77334755D01*
X103072324Y-76775271D01*
X103306927Y-76238683D01*
X103584483Y-75726743D01*
X103903906Y-75241203D01*
X104264113Y-74783817D01*
X104664018Y-74356336D01*
X105102537Y-73960513D01*
X105578586Y-73598101D01*
X105753500Y-73479717D01*
X106246237Y-73186526D01*
X106764044Y-72936094D01*
X107302703Y-72729672D01*
X107857998Y-72568510D01*
X108425710Y-72453859D01*
X109001625Y-72386971D01*
X109500000Y-72368600D01*
X109500000Y-71927549D01*
X108922562Y-71946083D01*
X108372967Y-72002884D01*
X107843695Y-72099752D01*
X107327221Y-72238486D01*
X106816024Y-72420886D01*
X106302583Y-72648750D01*
X106134521Y-72732616D01*
X105615789Y-73026557D01*
X105121701Y-73363658D01*
X104655315Y-73741094D01*
X104219686Y-74156042D01*
X103817871Y-74605677D01*
X103452927Y-75087174D01*
X103245115Y-75402720D01*
X102968146Y-75892058D01*
X102726261Y-76411310D01*
X102523722Y-76950010D01*
X102364787Y-77497694D01*
X102327236Y-77657717D01*
X102308181Y-77742501D01*
X102290773Y-77819113D01*
X102274932Y-77890053D01*
X102260576Y-77957819D01*
X102247625Y-78024913D01*
X102235999Y-78093833D01*
X102225616Y-78167079D01*
X102216397Y-78247150D01*
X102208260Y-78336547D01*
X102201125Y-78437768D01*
X102194911Y-78553313D01*
X102189537Y-78685683D01*
X102184924Y-78837376D01*
X102180989Y-79010892D01*
X102177652Y-79208731D01*
X102174834Y-79433392D01*
X102172452Y-79687375D01*
X102170427Y-79973179D01*
X102168678Y-80293304D01*
X102167123Y-80650250D01*
X102165683Y-81046516D01*
X102164277Y-81484601D01*
X102162824Y-81967007D01*
X102161243Y-82496231D01*
X102160213Y-82832864D01*
X102146700Y-87188428D01*
X98844700Y-88258736D01*
X98838229Y-90829268D01*
X98837466Y-91185924D01*
X98837000Y-91527911D01*
X98836819Y-91851849D01*
X98836914Y-92154357D01*
X98837276Y-92432055D01*
X98837893Y-92681563D01*
X98838756Y-92899500D01*
X98839855Y-93082487D01*
X98841181Y-93227143D01*
X98842723Y-93330087D01*
X98844471Y-93387939D01*
X98845789Y-93399800D01*
X98871049Y-93392222D01*
X98939817Y-93370526D01*
X99047277Y-93336266D01*
X99188616Y-93290999D01*
X99359019Y-93236280D01*
X99553673Y-93173664D01*
X99767762Y-93104707D01*
X99996473Y-93030963D01*
X100234991Y-92953990D01*
X100478502Y-92875341D01*
X100722192Y-92796573D01*
X100961247Y-92719240D01*
X101190851Y-92644899D01*
X101406192Y-92575104D01*
X101602454Y-92511412D01*
X101774824Y-92455377D01*
X101918486Y-92408555D01*
X102028628Y-92372502D01*
X102100434Y-92348773D01*
X102127969Y-92339365D01*
X102136563Y-92345496D01*
X102143384Y-92373748D01*
X102148547Y-92428189D01*
X102152166Y-92512886D01*
X102154353Y-92631906D01*
X102155223Y-92789316D01*
X102154889Y-92989184D01*
X102153465Y-93235575D01*
X102153369Y-93248923D01*
X102146700Y-94170527D01*
X99156125Y-95137713D01*
X96165551Y-96104900D01*
X96165275Y-99314403D01*
X96165000Y-102523907D01*
X96222150Y-102509239D01*
G37*
X96222150Y-102509239D02*
X96251106Y-102500227D01*
X96324780Y-102476737D01*
X96439556Y-102439939D01*
X96591822Y-102390999D01*
X96777962Y-102331085D01*
X96994363Y-102261365D01*
X97237411Y-102183008D01*
X97503492Y-102097181D01*
X97788992Y-102005051D01*
X98090297Y-101907787D01*
X98403793Y-101806557D01*
X98725866Y-101702528D01*
X99052902Y-101596868D01*
X99381287Y-101490746D01*
X99707407Y-101385329D01*
X100027648Y-101281784D01*
X100338396Y-101181280D01*
X100636037Y-101084985D01*
X100916957Y-100994066D01*
X101177543Y-100909691D01*
X101414179Y-100833029D01*
X101623253Y-100765246D01*
X101801149Y-100707512D01*
X101944255Y-100660993D01*
X102048956Y-100626858D01*
X102111638Y-100606274D01*
X102127966Y-100600776D01*
X102136569Y-100607098D01*
X102143395Y-100635571D01*
X102148560Y-100690265D01*
X102152176Y-100775253D01*
X102154357Y-100894605D01*
X102155218Y-101052394D01*
X102154872Y-101252691D01*
X102153433Y-101499567D01*
X102153366Y-101508893D01*
X102146700Y-102428435D01*
X100495700Y-102963586D01*
X98844700Y-103498736D01*
X98838229Y-106069268D01*
X98837466Y-106425924D01*
X98837000Y-106767911D01*
X98836819Y-107091849D01*
X98836914Y-107394357D01*
X98837276Y-107672055D01*
X98837893Y-107921563D01*
X98838756Y-108139500D01*
X98839855Y-108322487D01*
X98841181Y-108467143D01*
X98842723Y-108570087D01*
X98844471Y-108627939D01*
X98845789Y-108639800D01*
X98871044Y-108632222D01*
X98939805Y-108610526D01*
X99047259Y-108576268D01*
X99188592Y-108531003D01*
X99358988Y-108476286D01*
X99553634Y-108413673D01*
X99767715Y-108344719D01*
X99996416Y-108270979D01*
X100234923Y-108194010D01*
X100478422Y-108115367D01*
X100722098Y-108036605D01*
X100961137Y-107959279D01*
X101190724Y-107884945D01*
X101406045Y-107815159D01*
X101602285Y-107751476D01*
X101774630Y-107695451D01*
X101918266Y-107648640D01*
X102028377Y-107612599D01*
X102100150Y-107588882D01*
X102127649Y-107579488D01*
X102133906Y-107586484D01*
X102139337Y-107614424D01*
X102143993Y-107666201D01*
X102147924Y-107744711D01*
X102151181Y-107852846D01*
X102153815Y-107993501D01*
X102155875Y-108169570D01*
X102157411Y-108383948D01*
X102158475Y-108639528D01*
X102159115Y-108939205D01*
X102159384Y-109285873D01*
X102159399Y-109405588D01*
X102159592Y-109778176D01*
X102160213Y-110103829D01*
X102161334Y-110386411D01*
X102163021Y-110629786D01*
X102165343Y-110837817D01*
X102168369Y-111014369D01*
X102172168Y-111163305D01*
X102176808Y-111288489D01*
X102182357Y-111393785D01*
X102188884Y-111483057D01*
X102196457Y-111560168D01*
X102197817Y-111572032D01*
X102294138Y-112182915D01*
X102437738Y-112775628D01*
X102627983Y-113348887D01*
X102864241Y-113901412D01*
X103145879Y-114431919D01*
X103472265Y-114939126D01*
X103842766Y-115421752D01*
X104256751Y-115878515D01*
X104385441Y-116006530D01*
X104829553Y-116406430D01*
X105293583Y-116761305D01*
X105782363Y-117074637D01*
X106134521Y-117267383D01*
X106650303Y-117510362D01*
X107161404Y-117707293D01*
X107675344Y-117859975D01*
X108199647Y-117970209D01*
X108741834Y-118039793D01*
X109309428Y-118070526D01*
X109500000Y-118072450D01*
X110077437Y-118053916D01*
X110627032Y-117997115D01*
X111156304Y-117900247D01*
X111672778Y-117761513D01*
X112183975Y-117579113D01*
X112697416Y-117351249D01*
X112865478Y-117267383D01*
X113384210Y-116973442D01*
X113878298Y-116636341D01*
X114344684Y-116258905D01*
X114780313Y-115843957D01*
X115182128Y-115394322D01*
X115547072Y-114912825D01*
X115754884Y-114597279D01*
X116031853Y-114107941D01*
X116273738Y-113588689D01*
X116476277Y-113049989D01*
X116635212Y-112502305D01*
X116672763Y-112342282D01*
X116691819Y-112257494D01*
X116709227Y-112180879D01*
X116725069Y-112109937D01*
X116739425Y-112042168D01*
X116752376Y-111975072D01*
X116764003Y-111906149D01*
X116774385Y-111832900D01*
X116783605Y-111752825D01*
X116791742Y-111663424D01*
X116798877Y-111562198D01*
X116805091Y-111446647D01*
X116810464Y-111314271D01*
X116815078Y-111162570D01*
X116819012Y-110989045D01*
X116822348Y-110791196D01*
X116825167Y-110566524D01*
X116827548Y-110312528D01*
X116829573Y-110026709D01*
X116831323Y-109706567D01*
X116832877Y-109349603D01*
X116834317Y-108953316D01*
X116835723Y-108515207D01*
X116837177Y-108032777D01*
X116838758Y-107503525D01*
X116839786Y-107167497D01*
X116853300Y-102812295D01*
X118504300Y-102277195D01*
X120155300Y-101742094D01*
X120161770Y-99171147D01*
X120162533Y-98814461D01*
X120162999Y-98472444D01*
X120163180Y-98148476D01*
X120163085Y-97845937D01*
X120162724Y-97568207D01*
X120162107Y-97318666D01*
X120161244Y-97100693D01*
X120160144Y-96917670D01*
X120158819Y-96772975D01*
X120157278Y-96669989D01*
X120155530Y-96612092D01*
X120154210Y-96600200D01*
X120128950Y-96607777D01*
X120060182Y-96629473D01*
X119952722Y-96663733D01*
X119811383Y-96709000D01*
X119640980Y-96763719D01*
X119446326Y-96826335D01*
X119232237Y-96895292D01*
X119003526Y-96969036D01*
X118765008Y-97046009D01*
X118521497Y-97124658D01*
X118277807Y-97203426D01*
X118038752Y-97280759D01*
X117809148Y-97355100D01*
X117593807Y-97424895D01*
X117397545Y-97488587D01*
X117225175Y-97544622D01*
X117081513Y-97591444D01*
X116971371Y-97627497D01*
X116899565Y-97651226D01*
X116872030Y-97660634D01*
X116863433Y-97654504D01*
X116856610Y-97626249D01*
X116851447Y-97571801D01*
X116847829Y-97487091D01*
X116845643Y-97368051D01*
X116844775Y-97210613D01*
X116845112Y-97010707D01*
X116846540Y-96764265D01*
X116846630Y-96751794D01*
X116853300Y-95830908D01*
X119844085Y-94863004D01*
X122834871Y-93895100D01*
X122834935Y-90685596D01*
X122835000Y-87476092D01*
X122777850Y-87490706D01*
X122749145Y-87499650D01*
X122675722Y-87523072D01*
X122561192Y-87559806D01*
X122409166Y-87608685D01*
X122223256Y-87668541D01*
X122007074Y-87738207D01*
X121764232Y-87816515D01*
X121498341Y-87902299D01*
X121213012Y-87994392D01*
X120911858Y-88091625D01*
X120598490Y-88192831D01*
X120276519Y-88296844D01*
X119949558Y-88402497D01*
X119621218Y-88508620D01*
X119295110Y-88614049D01*
X118974847Y-88717614D01*
X118664039Y-88818150D01*
X118366300Y-88914488D01*
X118085239Y-89005462D01*
X117824469Y-89089904D01*
X117587602Y-89166647D01*
X117378249Y-89234523D01*
X117200021Y-89292366D01*
X117056531Y-89339008D01*
X116951391Y-89373281D01*
X116888211Y-89394019D01*
X116872033Y-89399449D01*
X116863428Y-89393057D01*
X116856600Y-89364511D01*
X116851436Y-89309736D01*
X116847820Y-89224660D01*
X116845640Y-89105211D01*
X116844781Y-88947317D01*
X116845130Y-88746903D01*
X116846572Y-88499899D01*
X116846633Y-88491414D01*
X116853300Y-87572180D01*
X120155300Y-86502590D01*
X120161770Y-83931395D01*
X120162533Y-83574692D01*
X120162999Y-83232657D01*
X120163180Y-82908671D01*
X120163085Y-82606114D01*
X120162724Y-82328364D01*
X120162107Y-82078803D01*
X120161244Y-81860809D01*
X120160145Y-81677764D01*
X120158820Y-81533046D01*
X120157279Y-81430035D01*
X120155531Y-81372112D01*
X120154210Y-81360200D01*
X120128955Y-81367777D01*
X120060194Y-81389473D01*
X119952740Y-81423731D01*
X119811407Y-81468996D01*
X119641011Y-81523713D01*
X119446365Y-81586326D01*
X119232284Y-81655280D01*
X119003583Y-81729020D01*
X118765076Y-81805989D01*
X118521577Y-81884632D01*
X118277901Y-81963394D01*
X118038862Y-82040720D01*
X117809275Y-82115054D01*
X117593954Y-82184840D01*
X117397714Y-82248523D01*
X117225369Y-82304548D01*
X117081733Y-82351359D01*
X116971622Y-82387400D01*
X116899849Y-82411117D01*
X116872350Y-82420511D01*
X116866093Y-82413515D01*
X116860662Y-82385575D01*
X116856006Y-82333798D01*
X116852075Y-82255288D01*
X116848818Y-82147153D01*
X116846184Y-82006498D01*
X116844124Y-81830429D01*
X116842588Y-81616051D01*
X116841524Y-81360471D01*
X116840884Y-81060794D01*
X116840615Y-80714126D01*
X116840600Y-80594411D01*
X116840407Y-80221823D01*
X116839786Y-79896170D01*
X116838665Y-79613588D01*
X116836978Y-79370213D01*
X116834656Y-79162182D01*
X116831630Y-78985630D01*
X116827831Y-78836694D01*
X116823191Y-78711510D01*
X116817642Y-78606214D01*
X116811115Y-78516942D01*
X116803542Y-78439831D01*
X116802182Y-78427967D01*
X116705861Y-77817084D01*
X116562261Y-77224371D01*
X116372016Y-76651112D01*
X116135758Y-76098587D01*
X115854120Y-75568080D01*
X115527734Y-75060873D01*
X115157233Y-74578247D01*
X114743248Y-74121484D01*
X114614558Y-73993469D01*
X114170446Y-73593569D01*
X113706416Y-73238694D01*
X113217636Y-72925362D01*
X112865478Y-72732616D01*
X112349696Y-72489637D01*
X111838595Y-72292706D01*
X111324655Y-72140024D01*
X110800352Y-72029790D01*
X110258165Y-71960206D01*
X109690571Y-71929473D01*
X109500000Y-71927549D01*
X109500000Y-72368600D01*
X110077171Y-72391347D01*
X110638193Y-72460256D01*
X111187295Y-72576327D01*
X111728710Y-72740558D01*
X112266667Y-72953949D01*
X112560700Y-73091691D01*
X113073865Y-73373058D01*
X113559491Y-73696385D01*
X114015486Y-74059670D01*
X114439759Y-74460908D01*
X114830218Y-74898094D01*
X115184773Y-75369223D01*
X115501332Y-75872292D01*
X115548047Y-75955127D01*
X115787649Y-76434758D01*
X115991824Y-76943918D01*
X116157759Y-77473192D01*
X116282643Y-78013165D01*
X116363666Y-78554418D01*
X116381443Y-78746317D01*
X116382581Y-78786402D01*
X116383691Y-78875909D01*
X116384773Y-79013460D01*
X116385825Y-79197677D01*
X116386846Y-79427182D01*
X116387834Y-79700597D01*
X116388788Y-80016544D01*
X116389707Y-80373645D01*
X116390588Y-80770522D01*
X116391431Y-81205797D01*
X116392235Y-81678092D01*
X116392997Y-82186030D01*
X116393716Y-82728231D01*
X116394392Y-83303318D01*
X116395022Y-83909914D01*
X116395605Y-84546639D01*
X116396140Y-85212117D01*
X116396625Y-85904969D01*
X116397060Y-86623817D01*
X116397442Y-87367283D01*
X116397770Y-88133989D01*
X116398042Y-88922557D01*
X116398258Y-89731609D01*
X116398416Y-90559768D01*
X116398515Y-91405654D01*
X116398552Y-92267891D01*
X116398527Y-93145100D01*
X116398438Y-94035903D01*
X116398285Y-94938922D01*
X116398236Y-95165100D01*
X116397989Y-96251843D01*
X116397741Y-97288967D01*
X116397488Y-98277650D01*
X116397229Y-99219071D01*
X116396958Y-100114411D01*
X116396672Y-100964849D01*
X116396369Y-101771564D01*
X116396044Y-102535737D01*
X116395694Y-103258546D01*
X116395315Y-103941172D01*
X116394905Y-104584793D01*
X116394460Y-105190590D01*
X116393976Y-105759742D01*
X116393449Y-106293429D01*
X116392877Y-106792830D01*
X116392256Y-107259125D01*
X116391582Y-107693493D01*
X116390852Y-108097115D01*
X116390062Y-108471169D01*
X116389210Y-108816835D01*
X116388291Y-109135293D01*
X116387302Y-109427723D01*
X116386239Y-109695303D01*
X116385100Y-109939214D01*
X116383881Y-110160635D01*
X116382578Y-110360747D01*
X116381187Y-110540727D01*
X116379706Y-110701756D01*
X116378131Y-110845014D01*
X116376458Y-110971680D01*
X116374684Y-111082934D01*
X116372805Y-111179955D01*
X116370819Y-111263924D01*
X116368721Y-111336018D01*
X116366508Y-111397419D01*
X116364177Y-111449305D01*
X116361723Y-111492857D01*
X116359145Y-111529253D01*
X116356438Y-111559674D01*
X116353598Y-111585299D01*
X116350623Y-111607308D01*
X116349978Y-111611600D01*
X116264410Y-112083523D01*
X116155408Y-112538582D01*
X116026022Y-112965107D01*
X115923582Y-113243900D01*
X115680828Y-113786408D01*
X115396398Y-114301606D01*
X115072417Y-114787560D01*
X114711011Y-115242335D01*
X114314304Y-115663995D01*
X113884423Y-116050607D01*
X113423494Y-116400235D01*
X112933640Y-116710945D01*
X112416989Y-116980801D01*
X111875665Y-117207868D01*
X111394709Y-117366665D01*
X110845566Y-117500300D01*
X110282220Y-117587325D01*
X109710671Y-117627739D01*
X109136920Y-117621543D01*
X108566967Y-117568738D01*
X108006811Y-117469322D01*
X107605290Y-117366665D01*
X107064572Y-117184476D01*
X106538606Y-116957552D01*
X106032302Y-116688953D01*
X105550575Y-116381738D01*
X105098335Y-116038964D01*
X104680495Y-115663691D01*
X104399857Y-115370800D01*
X104013970Y-114904038D01*
X103673497Y-114414547D01*
X103378591Y-113902663D01*
X103129404Y-113368723D01*
X102926090Y-112813064D01*
X102768802Y-112236023D01*
X102657691Y-111637938D01*
X102637076Y-111484600D01*
X102634712Y-111440153D01*
X102632426Y-111346564D01*
X102630218Y-111205492D01*
X102628089Y-111018595D01*
X102626038Y-110787530D01*
X102624066Y-110513957D01*
X102622172Y-110199533D01*
X102620357Y-109845916D01*
X102618620Y-109454765D01*
X102616962Y-109027737D01*
X102615382Y-108566492D01*
X102613881Y-108072687D01*
X102612458Y-107547981D01*
X102611113Y-106994031D01*
X102609847Y-106412495D01*
X102608659Y-105805033D01*
X102607550Y-105173302D01*
X102606520Y-104518961D01*
X102605568Y-103843667D01*
X102604694Y-103149079D01*
X102603899Y-102436855D01*
X102603182Y-101708654D01*
X102602543Y-100966132D01*
X102601984Y-100210949D01*
X102601502Y-99444764D01*
X102601099Y-98669233D01*
X102600775Y-97886015D01*
X102600529Y-97096769D01*
X102600361Y-96303152D01*
X102600272Y-95506823D01*
X102600261Y-94709440D01*
X102600329Y-93912661D01*
X102600475Y-93118145D01*
X102600700Y-92327549D01*
X102601003Y-91542533D01*
X102601385Y-90764753D01*
X102601845Y-89995868D01*
X102602384Y-89237537D01*
X102603001Y-88491417D01*
X102603696Y-87759167D01*
X102604470Y-87042445D01*
X102605323Y-86342909D01*
X102606254Y-85662217D01*
X102607263Y-85002029D01*
X102608351Y-84364000D01*
X102609517Y-83749791D01*
X102610762Y-83161059D01*
X102612085Y-82599463D01*
X102613487Y-82066660D01*
X102614967Y-81564308D01*
X102616526Y-81094067D01*
X102618163Y-80657594D01*
X102619878Y-80256547D01*
X102621672Y-79892585D01*
X102623545Y-79567365D01*
X102625495Y-79282546D01*
X102627525Y-79039787D01*
X102629633Y-78840745D01*
X102631819Y-78687078D01*
X102634084Y-78580445D01*
X102636427Y-78522505D01*
X102637076Y-78515400D01*
X102736314Y-77915382D01*
X102881759Y-77334755D01*
X103072324Y-76775271D01*
X103306927Y-76238683D01*
X103584483Y-75726743D01*
X103903906Y-75241203D01*
X104264113Y-74783817D01*
X104664018Y-74356336D01*
X105102537Y-73960513D01*
X105578586Y-73598101D01*
X105753500Y-73479717D01*
X106246237Y-73186526D01*
X106764044Y-72936094D01*
X107302703Y-72729672D01*
X107857998Y-72568510D01*
X108425710Y-72453859D01*
X109001625Y-72386971D01*
X109500000Y-72368600D01*
X109500000Y-71927549D01*
X108922562Y-71946083D01*
X108372967Y-72002884D01*
X107843695Y-72099752D01*
X107327221Y-72238486D01*
X106816024Y-72420886D01*
X106302583Y-72648750D01*
X106134521Y-72732616D01*
X105615789Y-73026557D01*
X105121701Y-73363658D01*
X104655315Y-73741094D01*
X104219686Y-74156042D01*
X103817871Y-74605677D01*
X103452927Y-75087174D01*
X103245115Y-75402720D01*
X102968146Y-75892058D01*
X102726261Y-76411310D01*
X102523722Y-76950010D01*
X102364787Y-77497694D01*
X102327236Y-77657717D01*
X102308181Y-77742501D01*
X102290773Y-77819113D01*
X102274932Y-77890053D01*
X102260576Y-77957819D01*
X102247625Y-78024913D01*
X102235999Y-78093833D01*
X102225616Y-78167079D01*
X102216397Y-78247150D01*
X102208260Y-78336547D01*
X102201125Y-78437768D01*
X102194911Y-78553313D01*
X102189537Y-78685683D01*
X102184924Y-78837376D01*
X102180989Y-79010892D01*
X102177652Y-79208731D01*
X102174834Y-79433392D01*
X102172452Y-79687375D01*
X102170427Y-79973179D01*
X102168678Y-80293304D01*
X102167123Y-80650250D01*
X102165683Y-81046516D01*
X102164277Y-81484601D01*
X102162824Y-81967007D01*
X102161243Y-82496231D01*
X102160213Y-82832864D01*
X102146700Y-87188428D01*
X98844700Y-88258736D01*
X98838229Y-90829268D01*
X98837466Y-91185924D01*
X98837000Y-91527911D01*
X98836819Y-91851849D01*
X98836914Y-92154357D01*
X98837276Y-92432055D01*
X98837893Y-92681563D01*
X98838756Y-92899500D01*
X98839855Y-93082487D01*
X98841181Y-93227143D01*
X98842723Y-93330087D01*
X98844471Y-93387939D01*
X98845789Y-93399800D01*
X98871049Y-93392222D01*
X98939817Y-93370526D01*
X99047277Y-93336266D01*
X99188616Y-93290999D01*
X99359019Y-93236280D01*
X99553673Y-93173664D01*
X99767762Y-93104707D01*
X99996473Y-93030963D01*
X100234991Y-92953990D01*
X100478502Y-92875341D01*
X100722192Y-92796573D01*
X100961247Y-92719240D01*
X101190851Y-92644899D01*
X101406192Y-92575104D01*
X101602454Y-92511412D01*
X101774824Y-92455377D01*
X101918486Y-92408555D01*
X102028628Y-92372502D01*
X102100434Y-92348773D01*
X102127969Y-92339365D01*
X102136563Y-92345496D01*
X102143384Y-92373748D01*
X102148547Y-92428189D01*
X102152166Y-92512886D01*
X102154353Y-92631906D01*
X102155223Y-92789316D01*
X102154889Y-92989184D01*
X102153465Y-93235575D01*
X102153369Y-93248923D01*
X102146700Y-94170527D01*
X99156125Y-95137713D01*
X96165551Y-96104900D01*
X96165275Y-99314403D01*
X96165000Y-102523907D01*
X96222150Y-102509239D01*
G36*
X108591950Y-78089300D02*
G01*
X111366900Y-78096300D01*
X111506600Y-78162375D01*
X111637875Y-78238395D01*
X111741375Y-78326339D01*
X111806891Y-78417183D01*
X111814385Y-78434503D01*
X111816778Y-78465893D01*
X111819089Y-78545769D01*
X111821306Y-78671813D01*
X111823420Y-78841713D01*
X111825420Y-79053151D01*
X111827294Y-79303814D01*
X111829032Y-79591385D01*
X111830623Y-79913551D01*
X111832057Y-80267995D01*
X111833323Y-80652403D01*
X111834409Y-81064459D01*
X111835306Y-81501848D01*
X111836003Y-81962255D01*
X111836489Y-82443365D01*
X111836752Y-82942862D01*
X111836800Y-83266853D01*
X111836800Y-88040400D01*
X113564000Y-88040400D01*
X113560902Y-83004850D01*
X113560483Y-82500618D01*
X113559860Y-82008735D01*
X113559046Y-81531715D01*
X113558052Y-81072068D01*
X113556891Y-80632308D01*
X113555575Y-80214946D01*
X113554116Y-79822494D01*
X113552527Y-79457466D01*
X113550818Y-79122373D01*
X113549003Y-78819727D01*
X113547093Y-78552041D01*
X113545102Y-78321826D01*
X113543039Y-78131596D01*
X113540919Y-77983863D01*
X113538753Y-77881137D01*
X113536553Y-77825933D01*
X113535876Y-77818933D01*
X113479339Y-77602878D01*
X113377110Y-77399244D01*
X113233689Y-77212627D01*
X113053577Y-77047624D01*
X112841276Y-76908830D01*
X112601286Y-76800842D01*
X112509023Y-76770405D01*
X112484597Y-76763789D01*
X112455978Y-76757830D01*
X112420469Y-76752489D01*
X112375373Y-76747723D01*
X112317994Y-76743492D01*
X112245635Y-76739753D01*
X112155600Y-76736467D01*
X112045192Y-76733591D01*
X111911714Y-76731085D01*
X111752470Y-76728906D01*
X111564764Y-76727015D01*
X111345898Y-76725369D01*
X111093176Y-76723927D01*
X110803901Y-76722648D01*
X110475378Y-76721491D01*
X110104909Y-76720414D01*
X109689797Y-76719376D01*
X109227347Y-76718337D01*
X109087250Y-76718036D01*
X105817000Y-76711066D01*
X105817000Y-78082301D01*
X108591950Y-78089300D01*
G37*
X108591950Y-78089300D02*
X111366900Y-78096300D01*
X111506600Y-78162375D01*
X111637875Y-78238395D01*
X111741375Y-78326339D01*
X111806891Y-78417183D01*
X111814385Y-78434503D01*
X111816778Y-78465893D01*
X111819089Y-78545769D01*
X111821306Y-78671813D01*
X111823420Y-78841713D01*
X111825420Y-79053151D01*
X111827294Y-79303814D01*
X111829032Y-79591385D01*
X111830623Y-79913551D01*
X111832057Y-80267995D01*
X111833323Y-80652403D01*
X111834409Y-81064459D01*
X111835306Y-81501848D01*
X111836003Y-81962255D01*
X111836489Y-82443365D01*
X111836752Y-82942862D01*
X111836800Y-83266853D01*
X111836800Y-88040400D01*
X113564000Y-88040400D01*
X113560902Y-83004850D01*
X113560483Y-82500618D01*
X113559860Y-82008735D01*
X113559046Y-81531715D01*
X113558052Y-81072068D01*
X113556891Y-80632308D01*
X113555575Y-80214946D01*
X113554116Y-79822494D01*
X113552527Y-79457466D01*
X113550818Y-79122373D01*
X113549003Y-78819727D01*
X113547093Y-78552041D01*
X113545102Y-78321826D01*
X113543039Y-78131596D01*
X113540919Y-77983863D01*
X113538753Y-77881137D01*
X113536553Y-77825933D01*
X113535876Y-77818933D01*
X113479339Y-77602878D01*
X113377110Y-77399244D01*
X113233689Y-77212627D01*
X113053577Y-77047624D01*
X112841276Y-76908830D01*
X112601286Y-76800842D01*
X112509023Y-76770405D01*
X112484597Y-76763789D01*
X112455978Y-76757830D01*
X112420469Y-76752489D01*
X112375373Y-76747723D01*
X112317994Y-76743492D01*
X112245635Y-76739753D01*
X112155600Y-76736467D01*
X112045192Y-76733591D01*
X111911714Y-76731085D01*
X111752470Y-76728906D01*
X111564764Y-76727015D01*
X111345898Y-76725369D01*
X111093176Y-76723927D01*
X110803901Y-76722648D01*
X110475378Y-76721491D01*
X110104909Y-76720414D01*
X109689797Y-76719376D01*
X109227347Y-76718337D01*
X109087250Y-76718036D01*
X105817000Y-76711066D01*
X105817000Y-78082301D01*
X108591950Y-78089300D01*
G36*
X108839600Y-90732800D02*
G01*
X108839600Y-99267200D01*
X105817000Y-99267200D01*
X105817000Y-100664200D01*
X113564000Y-100664200D01*
X113564000Y-99267200D01*
X110541400Y-99267200D01*
X110541400Y-90732800D01*
X113564000Y-90732800D01*
X113564000Y-89335800D01*
X105817000Y-89335800D01*
X105817000Y-90732800D01*
X108839600Y-90732800D01*
G37*
X108839600Y-90732800D02*
X108839600Y-99267200D01*
X105817000Y-99267200D01*
X105817000Y-100664200D01*
X113564000Y-100664200D01*
X113564000Y-99267200D01*
X110541400Y-99267200D01*
X110541400Y-90732800D01*
X113564000Y-90732800D01*
X113564000Y-89335800D01*
X105817000Y-89335800D01*
X105817000Y-90732800D01*
X108839600Y-90732800D01*
G36*
X105817147Y-106995150D02*
G01*
X105817293Y-107625893D01*
X105817689Y-108220676D01*
X105818331Y-108778413D01*
X105819213Y-109298020D01*
X105820330Y-109778411D01*
X105821677Y-110218502D01*
X105823248Y-110617207D01*
X105825038Y-110973442D01*
X105827042Y-111286121D01*
X105829255Y-111554160D01*
X105831671Y-111776475D01*
X105834286Y-111951979D01*
X105837093Y-112079588D01*
X105840088Y-112158217D01*
X105842220Y-112183100D01*
X105902796Y-112399867D01*
X106009017Y-112603550D01*
X106156458Y-112789649D01*
X106340694Y-112953667D01*
X106557302Y-113091107D01*
X106801856Y-113197472D01*
X106858400Y-113216078D01*
X106904660Y-113230109D01*
X106948343Y-113241728D01*
X106994566Y-113251163D01*
X107048448Y-113258642D01*
X107115108Y-113264391D01*
X107199666Y-113268637D01*
X107307239Y-113271609D01*
X107442947Y-113273533D01*
X107611910Y-113274637D01*
X107819244Y-113275147D01*
X108070071Y-113275293D01*
X108191900Y-113275300D01*
X108462850Y-113275243D01*
X108688119Y-113274920D01*
X108872822Y-113274104D01*
X109022078Y-113272566D01*
X109141003Y-113270078D01*
X109234715Y-113266412D01*
X109308332Y-113261339D01*
X109366970Y-113254631D01*
X109415748Y-113246060D01*
X109459783Y-113235399D01*
X109504192Y-113222418D01*
X109525400Y-113215841D01*
X109777337Y-113117214D01*
X109998660Y-112989663D01*
X110184504Y-112836966D01*
X110330004Y-112662903D01*
X110403718Y-112533625D01*
X110445370Y-112454442D01*
X110483623Y-112397469D01*
X110510281Y-112374888D01*
X110510522Y-112374875D01*
X110539945Y-112382118D01*
X110613525Y-112403436D01*
X110727002Y-112437515D01*
X110876121Y-112483042D01*
X111056624Y-112538704D01*
X111264253Y-112603187D01*
X111494751Y-112675178D01*
X111743860Y-112753364D01*
X112007324Y-112836432D01*
X112029687Y-112843500D01*
X112293878Y-112926889D01*
X112543837Y-113005550D01*
X112775335Y-113078168D01*
X112984146Y-113143428D01*
X113166043Y-113200015D01*
X113316798Y-113246614D01*
X113432185Y-113281911D01*
X113507975Y-113304592D01*
X113539943Y-113313340D01*
X113540517Y-113313400D01*
X113547727Y-113288580D01*
X113553271Y-113216395D01*
X113557061Y-113100253D01*
X113559014Y-112943563D01*
X113559043Y-112749736D01*
X113558051Y-112611669D01*
X113551300Y-111909938D01*
X112046881Y-111373419D01*
X110542463Y-110836900D01*
X110541931Y-107096750D01*
X110541400Y-103356600D01*
X113564000Y-103356600D01*
X113564000Y-101959600D01*
X108839600Y-101959600D01*
X108839600Y-103356600D01*
X108839600Y-107379033D01*
X108839434Y-107968403D01*
X108838939Y-108515595D01*
X108838120Y-109019877D01*
X108836982Y-109480516D01*
X108835529Y-109896781D01*
X108833764Y-110267939D01*
X108831694Y-110593261D01*
X108829322Y-110872012D01*
X108826653Y-111103463D01*
X108823692Y-111286880D01*
X108820442Y-111421533D01*
X108816909Y-111506689D01*
X108813958Y-111538283D01*
X108774940Y-111672995D01*
X108710978Y-111772526D01*
X108613675Y-111849725D01*
X108608344Y-111852900D01*
X108563226Y-111875226D01*
X108510660Y-111890019D01*
X108439475Y-111898727D01*
X108338496Y-111902800D01*
X108216607Y-111903700D01*
X108082972Y-111902759D01*
X107987525Y-111898674D01*
X107917670Y-111889549D01*
X107860811Y-111873487D01*
X107804351Y-111848593D01*
X107784807Y-111838708D01*
X107666089Y-111756119D01*
X107601767Y-111673608D01*
X107545035Y-111573500D01*
X107544617Y-107465050D01*
X107544200Y-103356600D01*
X108839600Y-103356600D01*
X108839600Y-101959600D01*
X105817000Y-101959600D01*
X105817147Y-106995150D01*
G37*
X105817147Y-106995150D02*
X105817293Y-107625893D01*
X105817689Y-108220676D01*
X105818331Y-108778413D01*
X105819213Y-109298020D01*
X105820330Y-109778411D01*
X105821677Y-110218502D01*
X105823248Y-110617207D01*
X105825038Y-110973442D01*
X105827042Y-111286121D01*
X105829255Y-111554160D01*
X105831671Y-111776475D01*
X105834286Y-111951979D01*
X105837093Y-112079588D01*
X105840088Y-112158217D01*
X105842220Y-112183100D01*
X105902796Y-112399867D01*
X106009017Y-112603550D01*
X106156458Y-112789649D01*
X106340694Y-112953667D01*
X106557302Y-113091107D01*
X106801856Y-113197472D01*
X106858400Y-113216078D01*
X106904660Y-113230109D01*
X106948343Y-113241728D01*
X106994566Y-113251163D01*
X107048448Y-113258642D01*
X107115108Y-113264391D01*
X107199666Y-113268637D01*
X107307239Y-113271609D01*
X107442947Y-113273533D01*
X107611910Y-113274637D01*
X107819244Y-113275147D01*
X108070071Y-113275293D01*
X108191900Y-113275300D01*
X108462850Y-113275243D01*
X108688119Y-113274920D01*
X108872822Y-113274104D01*
X109022078Y-113272566D01*
X109141003Y-113270078D01*
X109234715Y-113266412D01*
X109308332Y-113261339D01*
X109366970Y-113254631D01*
X109415748Y-113246060D01*
X109459783Y-113235399D01*
X109504192Y-113222418D01*
X109525400Y-113215841D01*
X109777337Y-113117214D01*
X109998660Y-112989663D01*
X110184504Y-112836966D01*
X110330004Y-112662903D01*
X110403718Y-112533625D01*
X110445370Y-112454442D01*
X110483623Y-112397469D01*
X110510281Y-112374888D01*
X110510522Y-112374875D01*
X110539945Y-112382118D01*
X110613525Y-112403436D01*
X110727002Y-112437515D01*
X110876121Y-112483042D01*
X111056624Y-112538704D01*
X111264253Y-112603187D01*
X111494751Y-112675178D01*
X111743860Y-112753364D01*
X112007324Y-112836432D01*
X112029687Y-112843500D01*
X112293878Y-112926889D01*
X112543837Y-113005550D01*
X112775335Y-113078168D01*
X112984146Y-113143428D01*
X113166043Y-113200015D01*
X113316798Y-113246614D01*
X113432185Y-113281911D01*
X113507975Y-113304592D01*
X113539943Y-113313340D01*
X113540517Y-113313400D01*
X113547727Y-113288580D01*
X113553271Y-113216395D01*
X113557061Y-113100253D01*
X113559014Y-112943563D01*
X113559043Y-112749736D01*
X113558051Y-112611669D01*
X113551300Y-111909938D01*
X112046881Y-111373419D01*
X110542463Y-110836900D01*
X110541931Y-107096750D01*
X110541400Y-103356600D01*
X113564000Y-103356600D01*
X113564000Y-101959600D01*
X108839600Y-101959600D01*
X108839600Y-103356600D01*
X108839600Y-107379033D01*
X108839434Y-107968403D01*
X108838939Y-108515595D01*
X108838120Y-109019877D01*
X108836982Y-109480516D01*
X108835529Y-109896781D01*
X108833764Y-110267939D01*
X108831694Y-110593261D01*
X108829322Y-110872012D01*
X108826653Y-111103463D01*
X108823692Y-111286880D01*
X108820442Y-111421533D01*
X108816909Y-111506689D01*
X108813958Y-111538283D01*
X108774940Y-111672995D01*
X108710978Y-111772526D01*
X108613675Y-111849725D01*
X108608344Y-111852900D01*
X108563226Y-111875226D01*
X108510660Y-111890019D01*
X108439475Y-111898727D01*
X108338496Y-111902800D01*
X108216607Y-111903700D01*
X108082972Y-111902759D01*
X107987525Y-111898674D01*
X107917670Y-111889549D01*
X107860811Y-111873487D01*
X107804351Y-111848593D01*
X107784807Y-111838708D01*
X107666089Y-111756119D01*
X107601767Y-111673608D01*
X107545035Y-111573500D01*
X107544617Y-107465050D01*
X107544200Y-103356600D01*
X108839600Y-103356600D01*
X108839600Y-101959600D01*
X105817000Y-101959600D01*
X105817147Y-106995150D01*
%LPC*%
D16*
X135000000Y-133500000D03*
G36*
G01*
X130180000Y-131250000D02*
X131180000Y-131250000D01*
G75*
G02*
X131430000Y-131500000I0J-250000D01*
G01*
X131430000Y-132500000D01*
G75*
G02*
X131180000Y-132750000I-250000J0D01*
G01*
X130180000Y-132750000D01*
G75*
G02*
X129930000Y-132500000I0J250000D01*
G01*
X129930000Y-131500000D01*
G75*
G02*
X130180000Y-131250000I250000J0D01*
G01*
G37*
D17*
X130680000Y-135000000D03*
X127680000Y-132000000D03*
X127680000Y-135000000D03*
D18*
X87500000Y-116250000D03*
D19*
X101570000Y-91040000D03*
X116810000Y-91040000D03*
X101570000Y-126600000D03*
X116810000Y-93580000D03*
X101570000Y-124060000D03*
X116810000Y-96120000D03*
X101570000Y-121520000D03*
X116810000Y-98660000D03*
X101570000Y-118980000D03*
X116810000Y-101200000D03*
X101570000Y-116440000D03*
X116810000Y-103740000D03*
X101570000Y-113900000D03*
X116810000Y-106280000D03*
X101570000Y-111360000D03*
X116810000Y-108820000D03*
X101570000Y-108820000D03*
X116810000Y-111360000D03*
X101570000Y-106280000D03*
X116810000Y-113900000D03*
X101570000Y-103740000D03*
X116810000Y-116440000D03*
X101570000Y-101200000D03*
X116810000Y-118980000D03*
X101570000Y-98660000D03*
X116810000Y-121520000D03*
X101570000Y-96120000D03*
X116810000Y-124060000D03*
X101570000Y-93580000D03*
D20*
X116810000Y-126600000D03*
D17*
X127400000Y-46600000D03*
G36*
G01*
X129900000Y-45850000D02*
X130900000Y-45850000D01*
G75*
G02*
X131150000Y-46100000I0J-250000D01*
G01*
X131150000Y-47100000D01*
G75*
G02*
X130900000Y-47350000I-250000J0D01*
G01*
X129900000Y-47350000D01*
G75*
G02*
X129650000Y-47100000I0J250000D01*
G01*
X129650000Y-46100000D01*
G75*
G02*
X129900000Y-45850000I250000J0D01*
G01*
G37*
D16*
X134720000Y-46600000D03*
D21*
X85000000Y-30000000D03*
X135000000Y-30000000D03*
X85000000Y-95000000D03*
X135000000Y-95000000D03*
X85000000Y-160000000D03*
X135000000Y-160000000D03*
D18*
X86940000Y-89000000D03*
X86940000Y-62000000D03*
G36*
G01*
X83500000Y-86750000D02*
X82500000Y-86750000D01*
G75*
G02*
X82250000Y-86500000I0J250000D01*
G01*
X82250000Y-85500000D01*
G75*
G02*
X82500000Y-85250000I250000J0D01*
G01*
X83500000Y-85250000D01*
G75*
G02*
X83750000Y-85500000I0J-250000D01*
G01*
X83750000Y-86500000D01*
G75*
G02*
X83500000Y-86750000I-250000J0D01*
G01*
G37*
D17*
X83000000Y-83000000D03*
X83000000Y-80000000D03*
X83000000Y-77000000D03*
X83000000Y-74000000D03*
X83000000Y-71000000D03*
X83000000Y-68000000D03*
X83000000Y-65000000D03*
X86000000Y-86000000D03*
X86000000Y-83000000D03*
X86000000Y-80000000D03*
X86000000Y-77000000D03*
X86000000Y-74000000D03*
X86000000Y-71000000D03*
X86000000Y-68000000D03*
X86000000Y-65000000D03*
D18*
X133060000Y-62500000D03*
X133060000Y-77500000D03*
G36*
G01*
X136500000Y-64750000D02*
X137500000Y-64750000D01*
G75*
G02*
X137750000Y-65000000I0J-250000D01*
G01*
X137750000Y-66000000D01*
G75*
G02*
X137500000Y-66250000I-250000J0D01*
G01*
X136500000Y-66250000D01*
G75*
G02*
X136250000Y-66000000I0J250000D01*
G01*
X136250000Y-65000000D01*
G75*
G02*
X136500000Y-64750000I250000J0D01*
G01*
G37*
D17*
X137000000Y-68500000D03*
X137000000Y-71500000D03*
X137000000Y-74500000D03*
X134000000Y-65500000D03*
X134000000Y-68500000D03*
X134000000Y-71500000D03*
X134000000Y-74500000D03*
D16*
X85280000Y-128700000D03*
G36*
G01*
X90100000Y-130950000D02*
X89100000Y-130950000D01*
G75*
G02*
X88850000Y-130700000I0J250000D01*
G01*
X88850000Y-129700000D01*
G75*
G02*
X89100000Y-129450000I250000J0D01*
G01*
X90100000Y-129450000D01*
G75*
G02*
X90350000Y-129700000I0J-250000D01*
G01*
X90350000Y-130700000D01*
G75*
G02*
X90100000Y-130950000I-250000J0D01*
G01*
G37*
D17*
X89600000Y-127200000D03*
X92600000Y-130200000D03*
X92600000Y-127200000D03*
D22*
X84000000Y-112800000D03*
D16*
X85480000Y-56000000D03*
G36*
G01*
X90300000Y-56750000D02*
X89300000Y-56750000D01*
G75*
G02*
X89050000Y-56500000I0J250000D01*
G01*
X89050000Y-55500000D01*
G75*
G02*
X89300000Y-55250000I250000J0D01*
G01*
X90300000Y-55250000D01*
G75*
G02*
X90550000Y-55500000I0J-250000D01*
G01*
X90550000Y-56500000D01*
G75*
G02*
X90300000Y-56750000I-250000J0D01*
G01*
G37*
D17*
X92800000Y-56000000D03*
X92500000Y-138750000D03*
X92500000Y-141750000D03*
X89500000Y-138750000D03*
G36*
G01*
X90000000Y-142500000D02*
X89000000Y-142500000D01*
G75*
G02*
X88750000Y-142250000I0J250000D01*
G01*
X88750000Y-141250000D01*
G75*
G02*
X89000000Y-141000000I250000J0D01*
G01*
X90000000Y-141000000D01*
G75*
G02*
X90250000Y-141250000I0J-250000D01*
G01*
X90250000Y-142250000D01*
G75*
G02*
X90000000Y-142500000I-250000J0D01*
G01*
G37*
D16*
X85180000Y-140250000D03*
D22*
X92500000Y-79400000D03*
D23*
X95040000Y-79400000D03*
X95040000Y-75400000D03*
D22*
X92500000Y-75400000D03*
D24*
X85000000Y-102000000D03*
X85000000Y-104540000D03*
X85000000Y-107080000D03*
D18*
X126500000Y-84250000D03*
X123750000Y-84250000D03*
X119700000Y-104500000D03*
X136500000Y-118000000D03*
X136500000Y-115200000D03*
X96500000Y-111250000D03*
X85000000Y-116250000D03*
X109600000Y-71500000D03*
X113700000Y-71500000D03*
X108600000Y-68800000D03*
X112600000Y-68800000D03*
X89800000Y-91800000D03*
X96500000Y-92300000D03*
X91600000Y-65000000D03*
X127000000Y-138000000D03*
X127000000Y-140500000D03*
X98500000Y-135250000D03*
X136500000Y-112250000D03*
D25*
X112000000Y-28200000D03*
X114540000Y-28200000D03*
X122160000Y-28200000D03*
X127240000Y-28200000D03*
M02*
