G04 #@! TF.GenerationSoftware,KiCad,Pcbnew,(5.1.10)-1*
G04 #@! TF.CreationDate,2022-01-30T14:23:45-06:00*
G04 #@! TF.ProjectId,22-ELC-1-01-R1,32322d45-4c43-42d3-912d-30312d52312e,rev?*
G04 #@! TF.SameCoordinates,Original*
G04 #@! TF.FileFunction,Copper,L1,Top*
G04 #@! TF.FilePolarity,Positive*
%FSLAX46Y46*%
G04 Gerber Fmt 4.6, Leading zero omitted, Abs format (unit mm)*
G04 Created by KiCad (PCBNEW (5.1.10)-1) date 2022-01-30 14:23:45*
%MOMM*%
%LPD*%
G01*
G04 APERTURE LIST*
G04 #@! TA.AperFunction,EtchedComponent*
%ADD10C,0.100000*%
G04 #@! TD*
G04 #@! TA.AperFunction,SMDPad,CuDef*
%ADD11R,2.500000X1.800000*%
G04 #@! TD*
G04 #@! TA.AperFunction,SMDPad,CuDef*
%ADD12R,1.100000X1.100000*%
G04 #@! TD*
G04 #@! TA.AperFunction,ComponentPad*
%ADD13C,1.500000*%
G04 #@! TD*
G04 #@! TA.AperFunction,ComponentPad*
%ADD14C,1.000000*%
G04 #@! TD*
G04 #@! TA.AperFunction,ComponentPad*
%ADD15O,1.600000X1.600000*%
G04 #@! TD*
G04 #@! TA.AperFunction,ComponentPad*
%ADD16R,1.600000X1.600000*%
G04 #@! TD*
G04 #@! TA.AperFunction,SMDPad,CuDef*
%ADD17R,1.800000X3.500000*%
G04 #@! TD*
G04 #@! TA.AperFunction,SMDPad,CuDef*
%ADD18R,1.200000X0.900000*%
G04 #@! TD*
G04 #@! TA.AperFunction,SMDPad,CuDef*
%ADD19R,0.900000X1.200000*%
G04 #@! TD*
G04 #@! TA.AperFunction,SMDPad,CuDef*
%ADD20R,3.500000X2.300000*%
G04 #@! TD*
G04 #@! TA.AperFunction,ComponentPad*
%ADD21R,1.700000X1.700000*%
G04 #@! TD*
G04 #@! TA.AperFunction,SMDPad,CuDef*
%ADD22C,0.100000*%
G04 #@! TD*
G04 #@! TA.AperFunction,ComponentPad*
%ADD23O,1.700000X1.700000*%
G04 #@! TD*
G04 #@! TA.AperFunction,SMDPad,CuDef*
%ADD24R,0.900000X0.800000*%
G04 #@! TD*
G04 #@! TA.AperFunction,SMDPad,CuDef*
%ADD25R,0.800000X0.900000*%
G04 #@! TD*
G04 #@! TA.AperFunction,SMDPad,CuDef*
%ADD26R,2.200000X1.200000*%
G04 #@! TD*
G04 #@! TA.AperFunction,SMDPad,CuDef*
%ADD27R,6.400000X5.800000*%
G04 #@! TD*
G04 #@! TA.AperFunction,ComponentPad*
%ADD28C,1.440000*%
G04 #@! TD*
G04 #@! TA.AperFunction,SMDPad,CuDef*
%ADD29R,2.600000X3.100000*%
G04 #@! TD*
G04 #@! TA.AperFunction,SMDPad,CuDef*
%ADD30R,2.950000X4.500000*%
G04 #@! TD*
G04 #@! TA.AperFunction,SMDPad,CuDef*
%ADD31R,1.550000X0.600000*%
G04 #@! TD*
G04 #@! TA.AperFunction,ComponentPad*
%ADD32C,0.600000*%
G04 #@! TD*
G04 #@! TA.AperFunction,ComponentPad*
%ADD33C,1.800000*%
G04 #@! TD*
G04 #@! TA.AperFunction,ViaPad*
%ADD34C,0.800000*%
G04 #@! TD*
G04 #@! TA.AperFunction,Conductor*
%ADD35C,0.250000*%
G04 #@! TD*
G04 #@! TA.AperFunction,Conductor*
%ADD36C,1.000000*%
G04 #@! TD*
G04 #@! TA.AperFunction,Conductor*
%ADD37C,0.500000*%
G04 #@! TD*
G04 #@! TA.AperFunction,Conductor*
%ADD38C,0.254000*%
G04 #@! TD*
G04 #@! TA.AperFunction,Conductor*
%ADD39C,0.100000*%
G04 #@! TD*
G04 APERTURE END LIST*
D10*
G36*
X98700000Y-85450000D02*
G01*
X98700000Y-84950000D01*
X98100000Y-84950000D01*
X98100000Y-85450000D01*
X98700000Y-85450000D01*
G37*
G36*
X98100000Y-88550000D02*
G01*
X98100000Y-89050000D01*
X98700000Y-89050000D01*
X98700000Y-88550000D01*
X98100000Y-88550000D01*
G37*
G04 #@! TA.AperFunction,SMDPad,CuDef*
G36*
G01*
X112100000Y-141025000D02*
X112100000Y-139775000D01*
G75*
G02*
X112350000Y-139525000I250000J0D01*
G01*
X113150000Y-139525000D01*
G75*
G02*
X113400000Y-139775000I0J-250000D01*
G01*
X113400000Y-141025000D01*
G75*
G02*
X113150000Y-141275000I-250000J0D01*
G01*
X112350000Y-141275000D01*
G75*
G02*
X112100000Y-141025000I0J250000D01*
G01*
G37*
G04 #@! TD.AperFunction*
G04 #@! TA.AperFunction,SMDPad,CuDef*
G36*
G01*
X109000000Y-141025000D02*
X109000000Y-139775000D01*
G75*
G02*
X109250000Y-139525000I250000J0D01*
G01*
X110050000Y-139525000D01*
G75*
G02*
X110300000Y-139775000I0J-250000D01*
G01*
X110300000Y-141025000D01*
G75*
G02*
X110050000Y-141275000I-250000J0D01*
G01*
X109250000Y-141275000D01*
G75*
G02*
X109000000Y-141025000I0J250000D01*
G01*
G37*
G04 #@! TD.AperFunction*
G04 #@! TA.AperFunction,SMDPad,CuDef*
G36*
G01*
X88249999Y-39900000D02*
X89550001Y-39900000D01*
G75*
G02*
X89800000Y-40149999I0J-249999D01*
G01*
X89800000Y-40975001D01*
G75*
G02*
X89550001Y-41225000I-249999J0D01*
G01*
X88249999Y-41225000D01*
G75*
G02*
X88000000Y-40975001I0J249999D01*
G01*
X88000000Y-40149999D01*
G75*
G02*
X88249999Y-39900000I249999J0D01*
G01*
G37*
G04 #@! TD.AperFunction*
G04 #@! TA.AperFunction,SMDPad,CuDef*
G36*
G01*
X88249999Y-36775000D02*
X89550001Y-36775000D01*
G75*
G02*
X89800000Y-37024999I0J-249999D01*
G01*
X89800000Y-37850001D01*
G75*
G02*
X89550001Y-38100000I-249999J0D01*
G01*
X88249999Y-38100000D01*
G75*
G02*
X88000000Y-37850001I0J249999D01*
G01*
X88000000Y-37024999D01*
G75*
G02*
X88249999Y-36775000I249999J0D01*
G01*
G37*
G04 #@! TD.AperFunction*
G04 #@! TA.AperFunction,SMDPad,CuDef*
G36*
G01*
X91225000Y-111549997D02*
X91225000Y-112850003D01*
G75*
G02*
X90975003Y-113100000I-249997J0D01*
G01*
X90149997Y-113100000D01*
G75*
G02*
X89900000Y-112850003I0J249997D01*
G01*
X89900000Y-111549997D01*
G75*
G02*
X90149997Y-111300000I249997J0D01*
G01*
X90975003Y-111300000D01*
G75*
G02*
X91225000Y-111549997I0J-249997D01*
G01*
G37*
G04 #@! TD.AperFunction*
G04 #@! TA.AperFunction,SMDPad,CuDef*
G36*
G01*
X88100000Y-111549997D02*
X88100000Y-112850003D01*
G75*
G02*
X87850003Y-113100000I-249997J0D01*
G01*
X87024997Y-113100000D01*
G75*
G02*
X86775000Y-112850003I0J249997D01*
G01*
X86775000Y-111549997D01*
G75*
G02*
X87024997Y-111300000I249997J0D01*
G01*
X87850003Y-111300000D01*
G75*
G02*
X88100000Y-111549997I0J-249997D01*
G01*
G37*
G04 #@! TD.AperFunction*
G04 #@! TA.AperFunction,SMDPad,CuDef*
G36*
G01*
X93250001Y-30100000D02*
X91949999Y-30100000D01*
G75*
G02*
X91700000Y-29850001I0J249999D01*
G01*
X91700000Y-29024999D01*
G75*
G02*
X91949999Y-28775000I249999J0D01*
G01*
X93250001Y-28775000D01*
G75*
G02*
X93500000Y-29024999I0J-249999D01*
G01*
X93500000Y-29850001D01*
G75*
G02*
X93250001Y-30100000I-249999J0D01*
G01*
G37*
G04 #@! TD.AperFunction*
G04 #@! TA.AperFunction,SMDPad,CuDef*
G36*
G01*
X93250001Y-33225000D02*
X91949999Y-33225000D01*
G75*
G02*
X91700000Y-32975001I0J249999D01*
G01*
X91700000Y-32149999D01*
G75*
G02*
X91949999Y-31900000I249999J0D01*
G01*
X93250001Y-31900000D01*
G75*
G02*
X93500000Y-32149999I0J-249999D01*
G01*
X93500000Y-32975001D01*
G75*
G02*
X93250001Y-33225000I-249999J0D01*
G01*
G37*
G04 #@! TD.AperFunction*
G04 #@! TA.AperFunction,SMDPad,CuDef*
G36*
G01*
X85349999Y-39900000D02*
X86650001Y-39900000D01*
G75*
G02*
X86900000Y-40149999I0J-249999D01*
G01*
X86900000Y-40975001D01*
G75*
G02*
X86650001Y-41225000I-249999J0D01*
G01*
X85349999Y-41225000D01*
G75*
G02*
X85100000Y-40975001I0J249999D01*
G01*
X85100000Y-40149999D01*
G75*
G02*
X85349999Y-39900000I249999J0D01*
G01*
G37*
G04 #@! TD.AperFunction*
G04 #@! TA.AperFunction,SMDPad,CuDef*
G36*
G01*
X85349999Y-36775000D02*
X86650001Y-36775000D01*
G75*
G02*
X86900000Y-37024999I0J-249999D01*
G01*
X86900000Y-37850001D01*
G75*
G02*
X86650001Y-38100000I-249999J0D01*
G01*
X85349999Y-38100000D01*
G75*
G02*
X85100000Y-37850001I0J249999D01*
G01*
X85100000Y-37024999D01*
G75*
G02*
X85349999Y-36775000I249999J0D01*
G01*
G37*
G04 #@! TD.AperFunction*
D11*
X98400000Y-48200000D03*
X94400000Y-48200000D03*
D12*
X83000000Y-37200000D03*
X83000000Y-40000000D03*
G04 #@! TA.AperFunction,ComponentPad*
G36*
G01*
X130180000Y-131250000D02*
X131180000Y-131250000D01*
G75*
G02*
X131430000Y-131500000I0J-250000D01*
G01*
X131430000Y-132500000D01*
G75*
G02*
X131180000Y-132750000I-250000J0D01*
G01*
X130180000Y-132750000D01*
G75*
G02*
X129930000Y-132500000I0J250000D01*
G01*
X129930000Y-131500000D01*
G75*
G02*
X130180000Y-131250000I250000J0D01*
G01*
G37*
G04 #@! TD.AperFunction*
D13*
X130680000Y-135000000D03*
X127680000Y-132000000D03*
X127680000Y-135000000D03*
G04 #@! TA.AperFunction,SMDPad,CuDef*
G36*
G01*
X129410000Y-99050000D02*
X129710000Y-99050000D01*
G75*
G02*
X129860000Y-99200000I0J-150000D01*
G01*
X129860000Y-100850000D01*
G75*
G02*
X129710000Y-101000000I-150000J0D01*
G01*
X129410000Y-101000000D01*
G75*
G02*
X129260000Y-100850000I0J150000D01*
G01*
X129260000Y-99200000D01*
G75*
G02*
X129410000Y-99050000I150000J0D01*
G01*
G37*
G04 #@! TD.AperFunction*
G04 #@! TA.AperFunction,SMDPad,CuDef*
G36*
G01*
X128140000Y-99050000D02*
X128440000Y-99050000D01*
G75*
G02*
X128590000Y-99200000I0J-150000D01*
G01*
X128590000Y-100850000D01*
G75*
G02*
X128440000Y-101000000I-150000J0D01*
G01*
X128140000Y-101000000D01*
G75*
G02*
X127990000Y-100850000I0J150000D01*
G01*
X127990000Y-99200000D01*
G75*
G02*
X128140000Y-99050000I150000J0D01*
G01*
G37*
G04 #@! TD.AperFunction*
G04 #@! TA.AperFunction,SMDPad,CuDef*
G36*
G01*
X126870000Y-99050000D02*
X127170000Y-99050000D01*
G75*
G02*
X127320000Y-99200000I0J-150000D01*
G01*
X127320000Y-100850000D01*
G75*
G02*
X127170000Y-101000000I-150000J0D01*
G01*
X126870000Y-101000000D01*
G75*
G02*
X126720000Y-100850000I0J150000D01*
G01*
X126720000Y-99200000D01*
G75*
G02*
X126870000Y-99050000I150000J0D01*
G01*
G37*
G04 #@! TD.AperFunction*
G04 #@! TA.AperFunction,SMDPad,CuDef*
G36*
G01*
X125600000Y-99050000D02*
X125900000Y-99050000D01*
G75*
G02*
X126050000Y-99200000I0J-150000D01*
G01*
X126050000Y-100850000D01*
G75*
G02*
X125900000Y-101000000I-150000J0D01*
G01*
X125600000Y-101000000D01*
G75*
G02*
X125450000Y-100850000I0J150000D01*
G01*
X125450000Y-99200000D01*
G75*
G02*
X125600000Y-99050000I150000J0D01*
G01*
G37*
G04 #@! TD.AperFunction*
G04 #@! TA.AperFunction,SMDPad,CuDef*
G36*
G01*
X124330000Y-99050000D02*
X124630000Y-99050000D01*
G75*
G02*
X124780000Y-99200000I0J-150000D01*
G01*
X124780000Y-100850000D01*
G75*
G02*
X124630000Y-101000000I-150000J0D01*
G01*
X124330000Y-101000000D01*
G75*
G02*
X124180000Y-100850000I0J150000D01*
G01*
X124180000Y-99200000D01*
G75*
G02*
X124330000Y-99050000I150000J0D01*
G01*
G37*
G04 #@! TD.AperFunction*
G04 #@! TA.AperFunction,SMDPad,CuDef*
G36*
G01*
X123060000Y-99050000D02*
X123360000Y-99050000D01*
G75*
G02*
X123510000Y-99200000I0J-150000D01*
G01*
X123510000Y-100850000D01*
G75*
G02*
X123360000Y-101000000I-150000J0D01*
G01*
X123060000Y-101000000D01*
G75*
G02*
X122910000Y-100850000I0J150000D01*
G01*
X122910000Y-99200000D01*
G75*
G02*
X123060000Y-99050000I150000J0D01*
G01*
G37*
G04 #@! TD.AperFunction*
G04 #@! TA.AperFunction,SMDPad,CuDef*
G36*
G01*
X121790000Y-99050000D02*
X122090000Y-99050000D01*
G75*
G02*
X122240000Y-99200000I0J-150000D01*
G01*
X122240000Y-100850000D01*
G75*
G02*
X122090000Y-101000000I-150000J0D01*
G01*
X121790000Y-101000000D01*
G75*
G02*
X121640000Y-100850000I0J150000D01*
G01*
X121640000Y-99200000D01*
G75*
G02*
X121790000Y-99050000I150000J0D01*
G01*
G37*
G04 #@! TD.AperFunction*
G04 #@! TA.AperFunction,SMDPad,CuDef*
G36*
G01*
X121790000Y-104000000D02*
X122090000Y-104000000D01*
G75*
G02*
X122240000Y-104150000I0J-150000D01*
G01*
X122240000Y-105800000D01*
G75*
G02*
X122090000Y-105950000I-150000J0D01*
G01*
X121790000Y-105950000D01*
G75*
G02*
X121640000Y-105800000I0J150000D01*
G01*
X121640000Y-104150000D01*
G75*
G02*
X121790000Y-104000000I150000J0D01*
G01*
G37*
G04 #@! TD.AperFunction*
G04 #@! TA.AperFunction,SMDPad,CuDef*
G36*
G01*
X123060000Y-104000000D02*
X123360000Y-104000000D01*
G75*
G02*
X123510000Y-104150000I0J-150000D01*
G01*
X123510000Y-105800000D01*
G75*
G02*
X123360000Y-105950000I-150000J0D01*
G01*
X123060000Y-105950000D01*
G75*
G02*
X122910000Y-105800000I0J150000D01*
G01*
X122910000Y-104150000D01*
G75*
G02*
X123060000Y-104000000I150000J0D01*
G01*
G37*
G04 #@! TD.AperFunction*
G04 #@! TA.AperFunction,SMDPad,CuDef*
G36*
G01*
X124330000Y-104000000D02*
X124630000Y-104000000D01*
G75*
G02*
X124780000Y-104150000I0J-150000D01*
G01*
X124780000Y-105800000D01*
G75*
G02*
X124630000Y-105950000I-150000J0D01*
G01*
X124330000Y-105950000D01*
G75*
G02*
X124180000Y-105800000I0J150000D01*
G01*
X124180000Y-104150000D01*
G75*
G02*
X124330000Y-104000000I150000J0D01*
G01*
G37*
G04 #@! TD.AperFunction*
G04 #@! TA.AperFunction,SMDPad,CuDef*
G36*
G01*
X125600000Y-104000000D02*
X125900000Y-104000000D01*
G75*
G02*
X126050000Y-104150000I0J-150000D01*
G01*
X126050000Y-105800000D01*
G75*
G02*
X125900000Y-105950000I-150000J0D01*
G01*
X125600000Y-105950000D01*
G75*
G02*
X125450000Y-105800000I0J150000D01*
G01*
X125450000Y-104150000D01*
G75*
G02*
X125600000Y-104000000I150000J0D01*
G01*
G37*
G04 #@! TD.AperFunction*
G04 #@! TA.AperFunction,SMDPad,CuDef*
G36*
G01*
X126870000Y-104000000D02*
X127170000Y-104000000D01*
G75*
G02*
X127320000Y-104150000I0J-150000D01*
G01*
X127320000Y-105800000D01*
G75*
G02*
X127170000Y-105950000I-150000J0D01*
G01*
X126870000Y-105950000D01*
G75*
G02*
X126720000Y-105800000I0J150000D01*
G01*
X126720000Y-104150000D01*
G75*
G02*
X126870000Y-104000000I150000J0D01*
G01*
G37*
G04 #@! TD.AperFunction*
G04 #@! TA.AperFunction,SMDPad,CuDef*
G36*
G01*
X128140000Y-104000000D02*
X128440000Y-104000000D01*
G75*
G02*
X128590000Y-104150000I0J-150000D01*
G01*
X128590000Y-105800000D01*
G75*
G02*
X128440000Y-105950000I-150000J0D01*
G01*
X128140000Y-105950000D01*
G75*
G02*
X127990000Y-105800000I0J150000D01*
G01*
X127990000Y-104150000D01*
G75*
G02*
X128140000Y-104000000I150000J0D01*
G01*
G37*
G04 #@! TD.AperFunction*
G04 #@! TA.AperFunction,SMDPad,CuDef*
G36*
G01*
X129410000Y-104000000D02*
X129710000Y-104000000D01*
G75*
G02*
X129860000Y-104150000I0J-150000D01*
G01*
X129860000Y-105800000D01*
G75*
G02*
X129710000Y-105950000I-150000J0D01*
G01*
X129410000Y-105950000D01*
G75*
G02*
X129260000Y-105800000I0J150000D01*
G01*
X129260000Y-104150000D01*
G75*
G02*
X129410000Y-104000000I150000J0D01*
G01*
G37*
G04 #@! TD.AperFunction*
D14*
X87500000Y-116250000D03*
D15*
X101570000Y-91040000D03*
X116810000Y-91040000D03*
X101570000Y-126600000D03*
X116810000Y-93580000D03*
X101570000Y-124060000D03*
X116810000Y-96120000D03*
X101570000Y-121520000D03*
X116810000Y-98660000D03*
X101570000Y-118980000D03*
X116810000Y-101200000D03*
X101570000Y-116440000D03*
X116810000Y-103740000D03*
X101570000Y-113900000D03*
X116810000Y-106280000D03*
X101570000Y-111360000D03*
X116810000Y-108820000D03*
X101570000Y-108820000D03*
X116810000Y-111360000D03*
X101570000Y-106280000D03*
X116810000Y-113900000D03*
X101570000Y-103740000D03*
X116810000Y-116440000D03*
X101570000Y-101200000D03*
X116810000Y-118980000D03*
X101570000Y-98660000D03*
X116810000Y-121520000D03*
X101570000Y-96120000D03*
X116810000Y-124060000D03*
X101570000Y-93580000D03*
D16*
X116810000Y-126600000D03*
D13*
X127400000Y-46600000D03*
G04 #@! TA.AperFunction,ComponentPad*
G36*
G01*
X129900000Y-45850000D02*
X130900000Y-45850000D01*
G75*
G02*
X131150000Y-46100000I0J-250000D01*
G01*
X131150000Y-47100000D01*
G75*
G02*
X130900000Y-47350000I-250000J0D01*
G01*
X129900000Y-47350000D01*
G75*
G02*
X129650000Y-47100000I0J250000D01*
G01*
X129650000Y-46100000D01*
G75*
G02*
X129900000Y-45850000I250000J0D01*
G01*
G37*
G04 #@! TD.AperFunction*
G04 #@! TA.AperFunction,SMDPad,CuDef*
G36*
G01*
X132200000Y-82037500D02*
X132200000Y-81562500D01*
G75*
G02*
X132437500Y-81325000I237500J0D01*
G01*
X133037500Y-81325000D01*
G75*
G02*
X133275000Y-81562500I0J-237500D01*
G01*
X133275000Y-82037500D01*
G75*
G02*
X133037500Y-82275000I-237500J0D01*
G01*
X132437500Y-82275000D01*
G75*
G02*
X132200000Y-82037500I0J237500D01*
G01*
G37*
G04 #@! TD.AperFunction*
G04 #@! TA.AperFunction,SMDPad,CuDef*
G36*
G01*
X133925000Y-82037500D02*
X133925000Y-81562500D01*
G75*
G02*
X134162500Y-81325000I237500J0D01*
G01*
X134762500Y-81325000D01*
G75*
G02*
X135000000Y-81562500I0J-237500D01*
G01*
X135000000Y-82037500D01*
G75*
G02*
X134762500Y-82275000I-237500J0D01*
G01*
X134162500Y-82275000D01*
G75*
G02*
X133925000Y-82037500I0J237500D01*
G01*
G37*
G04 #@! TD.AperFunction*
G04 #@! TA.AperFunction,SMDPad,CuDef*
G36*
G01*
X91125000Y-37575000D02*
X92075000Y-37575000D01*
G75*
G02*
X92325000Y-37825000I0J-250000D01*
G01*
X92325000Y-38500000D01*
G75*
G02*
X92075000Y-38750000I-250000J0D01*
G01*
X91125000Y-38750000D01*
G75*
G02*
X90875000Y-38500000I0J250000D01*
G01*
X90875000Y-37825000D01*
G75*
G02*
X91125000Y-37575000I250000J0D01*
G01*
G37*
G04 #@! TD.AperFunction*
G04 #@! TA.AperFunction,SMDPad,CuDef*
G36*
G01*
X91125000Y-39650000D02*
X92075000Y-39650000D01*
G75*
G02*
X92325000Y-39900000I0J-250000D01*
G01*
X92325000Y-40575000D01*
G75*
G02*
X92075000Y-40825000I-250000J0D01*
G01*
X91125000Y-40825000D01*
G75*
G02*
X90875000Y-40575000I0J250000D01*
G01*
X90875000Y-39900000D01*
G75*
G02*
X91125000Y-39650000I250000J0D01*
G01*
G37*
G04 #@! TD.AperFunction*
G04 #@! TA.AperFunction,SMDPad,CuDef*
G36*
G01*
X104075000Y-45362500D02*
X104075000Y-45837500D01*
G75*
G02*
X103837500Y-46075000I-237500J0D01*
G01*
X103237500Y-46075000D01*
G75*
G02*
X103000000Y-45837500I0J237500D01*
G01*
X103000000Y-45362500D01*
G75*
G02*
X103237500Y-45125000I237500J0D01*
G01*
X103837500Y-45125000D01*
G75*
G02*
X104075000Y-45362500I0J-237500D01*
G01*
G37*
G04 #@! TD.AperFunction*
G04 #@! TA.AperFunction,SMDPad,CuDef*
G36*
G01*
X105800000Y-45362500D02*
X105800000Y-45837500D01*
G75*
G02*
X105562500Y-46075000I-237500J0D01*
G01*
X104962500Y-46075000D01*
G75*
G02*
X104725000Y-45837500I0J237500D01*
G01*
X104725000Y-45362500D01*
G75*
G02*
X104962500Y-45125000I237500J0D01*
G01*
X105562500Y-45125000D01*
G75*
G02*
X105800000Y-45362500I0J-237500D01*
G01*
G37*
G04 #@! TD.AperFunction*
G04 #@! TA.AperFunction,SMDPad,CuDef*
G36*
G01*
X102100003Y-33225000D02*
X99899997Y-33225000D01*
G75*
G02*
X99650000Y-32975003I0J249997D01*
G01*
X99650000Y-32149997D01*
G75*
G02*
X99899997Y-31900000I249997J0D01*
G01*
X102100003Y-31900000D01*
G75*
G02*
X102350000Y-32149997I0J-249997D01*
G01*
X102350000Y-32975003D01*
G75*
G02*
X102100003Y-33225000I-249997J0D01*
G01*
G37*
G04 #@! TD.AperFunction*
G04 #@! TA.AperFunction,SMDPad,CuDef*
G36*
G01*
X102100003Y-30100000D02*
X99899997Y-30100000D01*
G75*
G02*
X99650000Y-29850003I0J249997D01*
G01*
X99650000Y-29024997D01*
G75*
G02*
X99899997Y-28775000I249997J0D01*
G01*
X102100003Y-28775000D01*
G75*
G02*
X102350000Y-29024997I0J-249997D01*
G01*
X102350000Y-29850003D01*
G75*
G02*
X102100003Y-30100000I-249997J0D01*
G01*
G37*
G04 #@! TD.AperFunction*
G04 #@! TA.AperFunction,SMDPad,CuDef*
G36*
G01*
X97900003Y-33225000D02*
X95699997Y-33225000D01*
G75*
G02*
X95450000Y-32975003I0J249997D01*
G01*
X95450000Y-32149997D01*
G75*
G02*
X95699997Y-31900000I249997J0D01*
G01*
X97900003Y-31900000D01*
G75*
G02*
X98150000Y-32149997I0J-249997D01*
G01*
X98150000Y-32975003D01*
G75*
G02*
X97900003Y-33225000I-249997J0D01*
G01*
G37*
G04 #@! TD.AperFunction*
G04 #@! TA.AperFunction,SMDPad,CuDef*
G36*
G01*
X97900003Y-30100000D02*
X95699997Y-30100000D01*
G75*
G02*
X95450000Y-29850003I0J249997D01*
G01*
X95450000Y-29024997D01*
G75*
G02*
X95699997Y-28775000I249997J0D01*
G01*
X97900003Y-28775000D01*
G75*
G02*
X98150000Y-29024997I0J-249997D01*
G01*
X98150000Y-29850003D01*
G75*
G02*
X97900003Y-30100000I-249997J0D01*
G01*
G37*
G04 #@! TD.AperFunction*
G04 #@! TA.AperFunction,SMDPad,CuDef*
G36*
G01*
X111375000Y-106337500D02*
X111375000Y-105862500D01*
G75*
G02*
X111612500Y-105625000I237500J0D01*
G01*
X112212500Y-105625000D01*
G75*
G02*
X112450000Y-105862500I0J-237500D01*
G01*
X112450000Y-106337500D01*
G75*
G02*
X112212500Y-106575000I-237500J0D01*
G01*
X111612500Y-106575000D01*
G75*
G02*
X111375000Y-106337500I0J237500D01*
G01*
G37*
G04 #@! TD.AperFunction*
G04 #@! TA.AperFunction,SMDPad,CuDef*
G36*
G01*
X109650000Y-106337500D02*
X109650000Y-105862500D01*
G75*
G02*
X109887500Y-105625000I237500J0D01*
G01*
X110487500Y-105625000D01*
G75*
G02*
X110725000Y-105862500I0J-237500D01*
G01*
X110725000Y-106337500D01*
G75*
G02*
X110487500Y-106575000I-237500J0D01*
G01*
X109887500Y-106575000D01*
G75*
G02*
X109650000Y-106337500I0J237500D01*
G01*
G37*
G04 #@! TD.AperFunction*
G04 #@! TA.AperFunction,SMDPad,CuDef*
G36*
G01*
X127100000Y-95237500D02*
X127100000Y-94762500D01*
G75*
G02*
X127337500Y-94525000I237500J0D01*
G01*
X127937500Y-94525000D01*
G75*
G02*
X128175000Y-94762500I0J-237500D01*
G01*
X128175000Y-95237500D01*
G75*
G02*
X127937500Y-95475000I-237500J0D01*
G01*
X127337500Y-95475000D01*
G75*
G02*
X127100000Y-95237500I0J237500D01*
G01*
G37*
G04 #@! TD.AperFunction*
G04 #@! TA.AperFunction,SMDPad,CuDef*
G36*
G01*
X128825000Y-95237500D02*
X128825000Y-94762500D01*
G75*
G02*
X129062500Y-94525000I237500J0D01*
G01*
X129662500Y-94525000D01*
G75*
G02*
X129900000Y-94762500I0J-237500D01*
G01*
X129900000Y-95237500D01*
G75*
G02*
X129662500Y-95475000I-237500J0D01*
G01*
X129062500Y-95475000D01*
G75*
G02*
X128825000Y-95237500I0J237500D01*
G01*
G37*
G04 #@! TD.AperFunction*
G04 #@! TA.AperFunction,SMDPad,CuDef*
G36*
G01*
X127100000Y-107987500D02*
X127100000Y-107512500D01*
G75*
G02*
X127337500Y-107275000I237500J0D01*
G01*
X127937500Y-107275000D01*
G75*
G02*
X128175000Y-107512500I0J-237500D01*
G01*
X128175000Y-107987500D01*
G75*
G02*
X127937500Y-108225000I-237500J0D01*
G01*
X127337500Y-108225000D01*
G75*
G02*
X127100000Y-107987500I0J237500D01*
G01*
G37*
G04 #@! TD.AperFunction*
G04 #@! TA.AperFunction,SMDPad,CuDef*
G36*
G01*
X128825000Y-107987500D02*
X128825000Y-107512500D01*
G75*
G02*
X129062500Y-107275000I237500J0D01*
G01*
X129662500Y-107275000D01*
G75*
G02*
X129900000Y-107512500I0J-237500D01*
G01*
X129900000Y-107987500D01*
G75*
G02*
X129662500Y-108225000I-237500J0D01*
G01*
X129062500Y-108225000D01*
G75*
G02*
X128825000Y-107987500I0J237500D01*
G01*
G37*
G04 #@! TD.AperFunction*
G04 #@! TA.AperFunction,SMDPad,CuDef*
G36*
G01*
X128175000Y-97012500D02*
X128175000Y-97487500D01*
G75*
G02*
X127937500Y-97725000I-237500J0D01*
G01*
X127337500Y-97725000D01*
G75*
G02*
X127100000Y-97487500I0J237500D01*
G01*
X127100000Y-97012500D01*
G75*
G02*
X127337500Y-96775000I237500J0D01*
G01*
X127937500Y-96775000D01*
G75*
G02*
X128175000Y-97012500I0J-237500D01*
G01*
G37*
G04 #@! TD.AperFunction*
G04 #@! TA.AperFunction,SMDPad,CuDef*
G36*
G01*
X129900000Y-97012500D02*
X129900000Y-97487500D01*
G75*
G02*
X129662500Y-97725000I-237500J0D01*
G01*
X129062500Y-97725000D01*
G75*
G02*
X128825000Y-97487500I0J237500D01*
G01*
X128825000Y-97012500D01*
G75*
G02*
X129062500Y-96775000I237500J0D01*
G01*
X129662500Y-96775000D01*
G75*
G02*
X129900000Y-97012500I0J-237500D01*
G01*
G37*
G04 #@! TD.AperFunction*
G04 #@! TA.AperFunction,SMDPad,CuDef*
G36*
G01*
X125487500Y-110150000D02*
X125012500Y-110150000D01*
G75*
G02*
X124775000Y-109912500I0J237500D01*
G01*
X124775000Y-109312500D01*
G75*
G02*
X125012500Y-109075000I237500J0D01*
G01*
X125487500Y-109075000D01*
G75*
G02*
X125725000Y-109312500I0J-237500D01*
G01*
X125725000Y-109912500D01*
G75*
G02*
X125487500Y-110150000I-237500J0D01*
G01*
G37*
G04 #@! TD.AperFunction*
G04 #@! TA.AperFunction,SMDPad,CuDef*
G36*
G01*
X125487500Y-108425000D02*
X125012500Y-108425000D01*
G75*
G02*
X124775000Y-108187500I0J237500D01*
G01*
X124775000Y-107587500D01*
G75*
G02*
X125012500Y-107350000I237500J0D01*
G01*
X125487500Y-107350000D01*
G75*
G02*
X125725000Y-107587500I0J-237500D01*
G01*
X125725000Y-108187500D01*
G75*
G02*
X125487500Y-108425000I-237500J0D01*
G01*
G37*
G04 #@! TD.AperFunction*
G04 #@! TA.AperFunction,SMDPad,CuDef*
G36*
G01*
X134400000Y-107762500D02*
X134400000Y-108237500D01*
G75*
G02*
X134162500Y-108475000I-237500J0D01*
G01*
X133562500Y-108475000D01*
G75*
G02*
X133325000Y-108237500I0J237500D01*
G01*
X133325000Y-107762500D01*
G75*
G02*
X133562500Y-107525000I237500J0D01*
G01*
X134162500Y-107525000D01*
G75*
G02*
X134400000Y-107762500I0J-237500D01*
G01*
G37*
G04 #@! TD.AperFunction*
G04 #@! TA.AperFunction,SMDPad,CuDef*
G36*
G01*
X132675000Y-107762500D02*
X132675000Y-108237500D01*
G75*
G02*
X132437500Y-108475000I-237500J0D01*
G01*
X131837500Y-108475000D01*
G75*
G02*
X131600000Y-108237500I0J237500D01*
G01*
X131600000Y-107762500D01*
G75*
G02*
X131837500Y-107525000I237500J0D01*
G01*
X132437500Y-107525000D01*
G75*
G02*
X132675000Y-107762500I0J-237500D01*
G01*
G37*
G04 #@! TD.AperFunction*
G04 #@! TA.AperFunction,SMDPad,CuDef*
G36*
G01*
X97962500Y-107025000D02*
X98437500Y-107025000D01*
G75*
G02*
X98675000Y-107262500I0J-237500D01*
G01*
X98675000Y-107862500D01*
G75*
G02*
X98437500Y-108100000I-237500J0D01*
G01*
X97962500Y-108100000D01*
G75*
G02*
X97725000Y-107862500I0J237500D01*
G01*
X97725000Y-107262500D01*
G75*
G02*
X97962500Y-107025000I237500J0D01*
G01*
G37*
G04 #@! TD.AperFunction*
G04 #@! TA.AperFunction,SMDPad,CuDef*
G36*
G01*
X97962500Y-105300000D02*
X98437500Y-105300000D01*
G75*
G02*
X98675000Y-105537500I0J-237500D01*
G01*
X98675000Y-106137500D01*
G75*
G02*
X98437500Y-106375000I-237500J0D01*
G01*
X97962500Y-106375000D01*
G75*
G02*
X97725000Y-106137500I0J237500D01*
G01*
X97725000Y-105537500D01*
G75*
G02*
X97962500Y-105300000I237500J0D01*
G01*
G37*
G04 #@! TD.AperFunction*
G04 #@! TA.AperFunction,SMDPad,CuDef*
G36*
G01*
X96075000Y-122962500D02*
X96075000Y-123437500D01*
G75*
G02*
X95837500Y-123675000I-237500J0D01*
G01*
X95237500Y-123675000D01*
G75*
G02*
X95000000Y-123437500I0J237500D01*
G01*
X95000000Y-122962500D01*
G75*
G02*
X95237500Y-122725000I237500J0D01*
G01*
X95837500Y-122725000D01*
G75*
G02*
X96075000Y-122962500I0J-237500D01*
G01*
G37*
G04 #@! TD.AperFunction*
G04 #@! TA.AperFunction,SMDPad,CuDef*
G36*
G01*
X97800000Y-122962500D02*
X97800000Y-123437500D01*
G75*
G02*
X97562500Y-123675000I-237500J0D01*
G01*
X96962500Y-123675000D01*
G75*
G02*
X96725000Y-123437500I0J237500D01*
G01*
X96725000Y-122962500D01*
G75*
G02*
X96962500Y-122725000I237500J0D01*
G01*
X97562500Y-122725000D01*
G75*
G02*
X97800000Y-122962500I0J-237500D01*
G01*
G37*
G04 #@! TD.AperFunction*
G04 #@! TA.AperFunction,SMDPad,CuDef*
G36*
G01*
X127348008Y-75822012D02*
X127012132Y-76157888D01*
G75*
G02*
X126676256Y-76157888I-167938J167938D01*
G01*
X126251992Y-75733624D01*
G75*
G02*
X126251992Y-75397748I167938J167938D01*
G01*
X126587868Y-75061872D01*
G75*
G02*
X126923744Y-75061872I167938J-167938D01*
G01*
X127348008Y-75486136D01*
G75*
G02*
X127348008Y-75822012I-167938J-167938D01*
G01*
G37*
G04 #@! TD.AperFunction*
G04 #@! TA.AperFunction,SMDPad,CuDef*
G36*
G01*
X126128248Y-74602252D02*
X125792372Y-74938128D01*
G75*
G02*
X125456496Y-74938128I-167938J167938D01*
G01*
X125032232Y-74513864D01*
G75*
G02*
X125032232Y-74177988I167938J167938D01*
G01*
X125368108Y-73842112D01*
G75*
G02*
X125703984Y-73842112I167938J-167938D01*
G01*
X126128248Y-74266376D01*
G75*
G02*
X126128248Y-74602252I-167938J-167938D01*
G01*
G37*
G04 #@! TD.AperFunction*
G04 #@! TA.AperFunction,SMDPad,CuDef*
G36*
G01*
X120138128Y-80602252D02*
X119802252Y-80938128D01*
G75*
G02*
X119466376Y-80938128I-167938J167938D01*
G01*
X119042112Y-80513864D01*
G75*
G02*
X119042112Y-80177988I167938J167938D01*
G01*
X119377988Y-79842112D01*
G75*
G02*
X119713864Y-79842112I167938J-167938D01*
G01*
X120138128Y-80266376D01*
G75*
G02*
X120138128Y-80602252I-167938J-167938D01*
G01*
G37*
G04 #@! TD.AperFunction*
G04 #@! TA.AperFunction,SMDPad,CuDef*
G36*
G01*
X121357888Y-81822012D02*
X121022012Y-82157888D01*
G75*
G02*
X120686136Y-82157888I-167938J167938D01*
G01*
X120261872Y-81733624D01*
G75*
G02*
X120261872Y-81397748I167938J167938D01*
G01*
X120597748Y-81061872D01*
G75*
G02*
X120933624Y-81061872I167938J-167938D01*
G01*
X121357888Y-81486136D01*
G75*
G02*
X121357888Y-81822012I-167938J-167938D01*
G01*
G37*
G04 #@! TD.AperFunction*
G04 #@! TA.AperFunction,SMDPad,CuDef*
G36*
G01*
X103262500Y-69437500D02*
X103737500Y-69437500D01*
G75*
G02*
X103975000Y-69675000I0J-237500D01*
G01*
X103975000Y-70275000D01*
G75*
G02*
X103737500Y-70512500I-237500J0D01*
G01*
X103262500Y-70512500D01*
G75*
G02*
X103025000Y-70275000I0J237500D01*
G01*
X103025000Y-69675000D01*
G75*
G02*
X103262500Y-69437500I237500J0D01*
G01*
G37*
G04 #@! TD.AperFunction*
G04 #@! TA.AperFunction,SMDPad,CuDef*
G36*
G01*
X103262500Y-71162500D02*
X103737500Y-71162500D01*
G75*
G02*
X103975000Y-71400000I0J-237500D01*
G01*
X103975000Y-72000000D01*
G75*
G02*
X103737500Y-72237500I-237500J0D01*
G01*
X103262500Y-72237500D01*
G75*
G02*
X103025000Y-72000000I0J237500D01*
G01*
X103025000Y-71400000D01*
G75*
G02*
X103262500Y-71162500I237500J0D01*
G01*
G37*
G04 #@! TD.AperFunction*
G04 #@! TA.AperFunction,SMDPad,CuDef*
G36*
G01*
X92100000Y-91837500D02*
X92100000Y-91362500D01*
G75*
G02*
X92337500Y-91125000I237500J0D01*
G01*
X92937500Y-91125000D01*
G75*
G02*
X93175000Y-91362500I0J-237500D01*
G01*
X93175000Y-91837500D01*
G75*
G02*
X92937500Y-92075000I-237500J0D01*
G01*
X92337500Y-92075000D01*
G75*
G02*
X92100000Y-91837500I0J237500D01*
G01*
G37*
G04 #@! TD.AperFunction*
G04 #@! TA.AperFunction,SMDPad,CuDef*
G36*
G01*
X93825000Y-91837500D02*
X93825000Y-91362500D01*
G75*
G02*
X94062500Y-91125000I237500J0D01*
G01*
X94662500Y-91125000D01*
G75*
G02*
X94900000Y-91362500I0J-237500D01*
G01*
X94900000Y-91837500D01*
G75*
G02*
X94662500Y-92075000I-237500J0D01*
G01*
X94062500Y-92075000D01*
G75*
G02*
X93825000Y-91837500I0J237500D01*
G01*
G37*
G04 #@! TD.AperFunction*
G04 #@! TA.AperFunction,SMDPad,CuDef*
G36*
G01*
X100325000Y-78737500D02*
X100325000Y-78262500D01*
G75*
G02*
X100562500Y-78025000I237500J0D01*
G01*
X101162500Y-78025000D01*
G75*
G02*
X101400000Y-78262500I0J-237500D01*
G01*
X101400000Y-78737500D01*
G75*
G02*
X101162500Y-78975000I-237500J0D01*
G01*
X100562500Y-78975000D01*
G75*
G02*
X100325000Y-78737500I0J237500D01*
G01*
G37*
G04 #@! TD.AperFunction*
G04 #@! TA.AperFunction,SMDPad,CuDef*
G36*
G01*
X98600000Y-78737500D02*
X98600000Y-78262500D01*
G75*
G02*
X98837500Y-78025000I237500J0D01*
G01*
X99437500Y-78025000D01*
G75*
G02*
X99675000Y-78262500I0J-237500D01*
G01*
X99675000Y-78737500D01*
G75*
G02*
X99437500Y-78975000I-237500J0D01*
G01*
X98837500Y-78975000D01*
G75*
G02*
X98600000Y-78737500I0J237500D01*
G01*
G37*
G04 #@! TD.AperFunction*
G04 #@! TA.AperFunction,SMDPad,CuDef*
G36*
G01*
X128637500Y-38275000D02*
X128162500Y-38275000D01*
G75*
G02*
X127925000Y-38037500I0J237500D01*
G01*
X127925000Y-37437500D01*
G75*
G02*
X128162500Y-37200000I237500J0D01*
G01*
X128637500Y-37200000D01*
G75*
G02*
X128875000Y-37437500I0J-237500D01*
G01*
X128875000Y-38037500D01*
G75*
G02*
X128637500Y-38275000I-237500J0D01*
G01*
G37*
G04 #@! TD.AperFunction*
G04 #@! TA.AperFunction,SMDPad,CuDef*
G36*
G01*
X128637500Y-40000000D02*
X128162500Y-40000000D01*
G75*
G02*
X127925000Y-39762500I0J237500D01*
G01*
X127925000Y-39162500D01*
G75*
G02*
X128162500Y-38925000I237500J0D01*
G01*
X128637500Y-38925000D01*
G75*
G02*
X128875000Y-39162500I0J-237500D01*
G01*
X128875000Y-39762500D01*
G75*
G02*
X128637500Y-40000000I-237500J0D01*
G01*
G37*
G04 #@! TD.AperFunction*
G04 #@! TA.AperFunction,SMDPad,CuDef*
G36*
G01*
X123475000Y-44562500D02*
X123475000Y-45037500D01*
G75*
G02*
X123237500Y-45275000I-237500J0D01*
G01*
X122637500Y-45275000D01*
G75*
G02*
X122400000Y-45037500I0J237500D01*
G01*
X122400000Y-44562500D01*
G75*
G02*
X122637500Y-44325000I237500J0D01*
G01*
X123237500Y-44325000D01*
G75*
G02*
X123475000Y-44562500I0J-237500D01*
G01*
G37*
G04 #@! TD.AperFunction*
G04 #@! TA.AperFunction,SMDPad,CuDef*
G36*
G01*
X125200000Y-44562500D02*
X125200000Y-45037500D01*
G75*
G02*
X124962500Y-45275000I-237500J0D01*
G01*
X124362500Y-45275000D01*
G75*
G02*
X124125000Y-45037500I0J237500D01*
G01*
X124125000Y-44562500D01*
G75*
G02*
X124362500Y-44325000I237500J0D01*
G01*
X124962500Y-44325000D01*
G75*
G02*
X125200000Y-44562500I0J-237500D01*
G01*
G37*
G04 #@! TD.AperFunction*
G04 #@! TA.AperFunction,SMDPad,CuDef*
G36*
G01*
X116000000Y-44562500D02*
X116000000Y-45037500D01*
G75*
G02*
X115762500Y-45275000I-237500J0D01*
G01*
X115162500Y-45275000D01*
G75*
G02*
X114925000Y-45037500I0J237500D01*
G01*
X114925000Y-44562500D01*
G75*
G02*
X115162500Y-44325000I237500J0D01*
G01*
X115762500Y-44325000D01*
G75*
G02*
X116000000Y-44562500I0J-237500D01*
G01*
G37*
G04 #@! TD.AperFunction*
G04 #@! TA.AperFunction,SMDPad,CuDef*
G36*
G01*
X114275000Y-44562500D02*
X114275000Y-45037500D01*
G75*
G02*
X114037500Y-45275000I-237500J0D01*
G01*
X113437500Y-45275000D01*
G75*
G02*
X113200000Y-45037500I0J237500D01*
G01*
X113200000Y-44562500D01*
G75*
G02*
X113437500Y-44325000I237500J0D01*
G01*
X114037500Y-44325000D01*
G75*
G02*
X114275000Y-44562500I0J-237500D01*
G01*
G37*
G04 #@! TD.AperFunction*
G04 #@! TA.AperFunction,SMDPad,CuDef*
G36*
G01*
X106725000Y-129037500D02*
X106725000Y-128562500D01*
G75*
G02*
X106962500Y-128325000I237500J0D01*
G01*
X107562500Y-128325000D01*
G75*
G02*
X107800000Y-128562500I0J-237500D01*
G01*
X107800000Y-129037500D01*
G75*
G02*
X107562500Y-129275000I-237500J0D01*
G01*
X106962500Y-129275000D01*
G75*
G02*
X106725000Y-129037500I0J237500D01*
G01*
G37*
G04 #@! TD.AperFunction*
G04 #@! TA.AperFunction,SMDPad,CuDef*
G36*
G01*
X105000000Y-129037500D02*
X105000000Y-128562500D01*
G75*
G02*
X105237500Y-128325000I237500J0D01*
G01*
X105837500Y-128325000D01*
G75*
G02*
X106075000Y-128562500I0J-237500D01*
G01*
X106075000Y-129037500D01*
G75*
G02*
X105837500Y-129275000I-237500J0D01*
G01*
X105237500Y-129275000D01*
G75*
G02*
X105000000Y-129037500I0J237500D01*
G01*
G37*
G04 #@! TD.AperFunction*
G04 #@! TA.AperFunction,SMDPad,CuDef*
G36*
G01*
X113000000Y-128562500D02*
X113000000Y-129037500D01*
G75*
G02*
X112762500Y-129275000I-237500J0D01*
G01*
X112162500Y-129275000D01*
G75*
G02*
X111925000Y-129037500I0J237500D01*
G01*
X111925000Y-128562500D01*
G75*
G02*
X112162500Y-128325000I237500J0D01*
G01*
X112762500Y-128325000D01*
G75*
G02*
X113000000Y-128562500I0J-237500D01*
G01*
G37*
G04 #@! TD.AperFunction*
G04 #@! TA.AperFunction,SMDPad,CuDef*
G36*
G01*
X111275000Y-128562500D02*
X111275000Y-129037500D01*
G75*
G02*
X111037500Y-129275000I-237500J0D01*
G01*
X110437500Y-129275000D01*
G75*
G02*
X110200000Y-129037500I0J237500D01*
G01*
X110200000Y-128562500D01*
G75*
G02*
X110437500Y-128325000I237500J0D01*
G01*
X111037500Y-128325000D01*
G75*
G02*
X111275000Y-128562500I0J-237500D01*
G01*
G37*
G04 #@! TD.AperFunction*
G04 #@! TA.AperFunction,SMDPad,CuDef*
G36*
G01*
X98037500Y-96525000D02*
X97562500Y-96525000D01*
G75*
G02*
X97325000Y-96287500I0J237500D01*
G01*
X97325000Y-95687500D01*
G75*
G02*
X97562500Y-95450000I237500J0D01*
G01*
X98037500Y-95450000D01*
G75*
G02*
X98275000Y-95687500I0J-237500D01*
G01*
X98275000Y-96287500D01*
G75*
G02*
X98037500Y-96525000I-237500J0D01*
G01*
G37*
G04 #@! TD.AperFunction*
G04 #@! TA.AperFunction,SMDPad,CuDef*
G36*
G01*
X98037500Y-98250000D02*
X97562500Y-98250000D01*
G75*
G02*
X97325000Y-98012500I0J237500D01*
G01*
X97325000Y-97412500D01*
G75*
G02*
X97562500Y-97175000I237500J0D01*
G01*
X98037500Y-97175000D01*
G75*
G02*
X98275000Y-97412500I0J-237500D01*
G01*
X98275000Y-98012500D01*
G75*
G02*
X98037500Y-98250000I-237500J0D01*
G01*
G37*
G04 #@! TD.AperFunction*
D17*
X83600000Y-43700000D03*
X83600000Y-48700000D03*
D18*
X137000000Y-83950000D03*
X137000000Y-87250000D03*
X133800000Y-83950000D03*
X133800000Y-87250000D03*
D19*
X125050000Y-71000000D03*
X121750000Y-71000000D03*
X125050000Y-68000000D03*
X121750000Y-68000000D03*
D20*
X93900000Y-61200000D03*
X99300000Y-61200000D03*
G04 #@! TA.AperFunction,SMDPad,CuDef*
G36*
G01*
X104962500Y-132000000D02*
X105437500Y-132000000D01*
G75*
G02*
X105675000Y-132237500I0J-237500D01*
G01*
X105675000Y-132812500D01*
G75*
G02*
X105437500Y-133050000I-237500J0D01*
G01*
X104962500Y-133050000D01*
G75*
G02*
X104725000Y-132812500I0J237500D01*
G01*
X104725000Y-132237500D01*
G75*
G02*
X104962500Y-132000000I237500J0D01*
G01*
G37*
G04 #@! TD.AperFunction*
G04 #@! TA.AperFunction,SMDPad,CuDef*
G36*
G01*
X104962500Y-133750000D02*
X105437500Y-133750000D01*
G75*
G02*
X105675000Y-133987500I0J-237500D01*
G01*
X105675000Y-134562500D01*
G75*
G02*
X105437500Y-134800000I-237500J0D01*
G01*
X104962500Y-134800000D01*
G75*
G02*
X104725000Y-134562500I0J237500D01*
G01*
X104725000Y-133987500D01*
G75*
G02*
X104962500Y-133750000I237500J0D01*
G01*
G37*
G04 #@! TD.AperFunction*
G04 #@! TA.AperFunction,SMDPad,CuDef*
G36*
G01*
X133312500Y-60025000D02*
X133312500Y-58775000D01*
G75*
G02*
X133562500Y-58525000I250000J0D01*
G01*
X134487500Y-58525000D01*
G75*
G02*
X134737500Y-58775000I0J-250000D01*
G01*
X134737500Y-60025000D01*
G75*
G02*
X134487500Y-60275000I-250000J0D01*
G01*
X133562500Y-60275000D01*
G75*
G02*
X133312500Y-60025000I0J250000D01*
G01*
G37*
G04 #@! TD.AperFunction*
G04 #@! TA.AperFunction,SMDPad,CuDef*
G36*
G01*
X136287500Y-60025000D02*
X136287500Y-58775000D01*
G75*
G02*
X136537500Y-58525000I250000J0D01*
G01*
X137462500Y-58525000D01*
G75*
G02*
X137712500Y-58775000I0J-250000D01*
G01*
X137712500Y-60025000D01*
G75*
G02*
X137462500Y-60275000I-250000J0D01*
G01*
X136537500Y-60275000D01*
G75*
G02*
X136287500Y-60025000I0J250000D01*
G01*
G37*
G04 #@! TD.AperFunction*
G04 #@! TA.AperFunction,ComponentPad*
G36*
G01*
X83500000Y-86750000D02*
X82500000Y-86750000D01*
G75*
G02*
X82250000Y-86500000I0J250000D01*
G01*
X82250000Y-85500000D01*
G75*
G02*
X82500000Y-85250000I250000J0D01*
G01*
X83500000Y-85250000D01*
G75*
G02*
X83750000Y-85500000I0J-250000D01*
G01*
X83750000Y-86500000D01*
G75*
G02*
X83500000Y-86750000I-250000J0D01*
G01*
G37*
G04 #@! TD.AperFunction*
D13*
X83000000Y-83000000D03*
X83000000Y-80000000D03*
X83000000Y-77000000D03*
X83000000Y-74000000D03*
X83000000Y-71000000D03*
X83000000Y-68000000D03*
X83000000Y-65000000D03*
X86000000Y-86000000D03*
X86000000Y-83000000D03*
X86000000Y-80000000D03*
X86000000Y-77000000D03*
X86000000Y-74000000D03*
X86000000Y-71000000D03*
X86000000Y-68000000D03*
X86000000Y-65000000D03*
G04 #@! TA.AperFunction,ComponentPad*
G36*
G01*
X136500000Y-64750000D02*
X137500000Y-64750000D01*
G75*
G02*
X137750000Y-65000000I0J-250000D01*
G01*
X137750000Y-66000000D01*
G75*
G02*
X137500000Y-66250000I-250000J0D01*
G01*
X136500000Y-66250000D01*
G75*
G02*
X136250000Y-66000000I0J250000D01*
G01*
X136250000Y-65000000D01*
G75*
G02*
X136500000Y-64750000I250000J0D01*
G01*
G37*
G04 #@! TD.AperFunction*
X137000000Y-68500000D03*
X137000000Y-71500000D03*
X137000000Y-74500000D03*
X134000000Y-65500000D03*
X134000000Y-68500000D03*
X134000000Y-71500000D03*
X134000000Y-74500000D03*
G04 #@! TA.AperFunction,ComponentPad*
G36*
G01*
X90100000Y-130950000D02*
X89100000Y-130950000D01*
G75*
G02*
X88850000Y-130700000I0J250000D01*
G01*
X88850000Y-129700000D01*
G75*
G02*
X89100000Y-129450000I250000J0D01*
G01*
X90100000Y-129450000D01*
G75*
G02*
X90350000Y-129700000I0J-250000D01*
G01*
X90350000Y-130700000D01*
G75*
G02*
X90100000Y-130950000I-250000J0D01*
G01*
G37*
G04 #@! TD.AperFunction*
X89600000Y-127200000D03*
X92600000Y-130200000D03*
X92600000Y-127200000D03*
D21*
X84000000Y-112800000D03*
G04 #@! TA.AperFunction,ComponentPad*
G36*
G01*
X90300000Y-56750000D02*
X89300000Y-56750000D01*
G75*
G02*
X89050000Y-56500000I0J250000D01*
G01*
X89050000Y-55500000D01*
G75*
G02*
X89300000Y-55250000I250000J0D01*
G01*
X90300000Y-55250000D01*
G75*
G02*
X90550000Y-55500000I0J-250000D01*
G01*
X90550000Y-56500000D01*
G75*
G02*
X90300000Y-56750000I-250000J0D01*
G01*
G37*
G04 #@! TD.AperFunction*
D13*
X92800000Y-56000000D03*
X92500000Y-138750000D03*
X92500000Y-141750000D03*
X89500000Y-138750000D03*
G04 #@! TA.AperFunction,ComponentPad*
G36*
G01*
X90000000Y-142500000D02*
X89000000Y-142500000D01*
G75*
G02*
X88750000Y-142250000I0J250000D01*
G01*
X88750000Y-141250000D01*
G75*
G02*
X89000000Y-141000000I250000J0D01*
G01*
X90000000Y-141000000D01*
G75*
G02*
X90250000Y-141250000I0J-250000D01*
G01*
X90250000Y-142250000D01*
G75*
G02*
X90000000Y-142500000I-250000J0D01*
G01*
G37*
G04 #@! TD.AperFunction*
G04 #@! TA.AperFunction,SMDPad,CuDef*
D22*
G36*
X97650000Y-85050000D02*
G01*
X97650000Y-84550000D01*
X97650602Y-84550000D01*
X97650602Y-84525466D01*
X97655412Y-84476635D01*
X97664984Y-84428510D01*
X97679228Y-84381555D01*
X97698005Y-84336222D01*
X97721136Y-84292949D01*
X97748396Y-84252150D01*
X97779524Y-84214221D01*
X97814221Y-84179524D01*
X97852150Y-84148396D01*
X97892949Y-84121136D01*
X97936222Y-84098005D01*
X97981555Y-84079228D01*
X98028510Y-84064984D01*
X98076635Y-84055412D01*
X98125466Y-84050602D01*
X98150000Y-84050602D01*
X98150000Y-84050000D01*
X98650000Y-84050000D01*
X98650000Y-84050602D01*
X98674534Y-84050602D01*
X98723365Y-84055412D01*
X98771490Y-84064984D01*
X98818445Y-84079228D01*
X98863778Y-84098005D01*
X98907051Y-84121136D01*
X98947850Y-84148396D01*
X98985779Y-84179524D01*
X99020476Y-84214221D01*
X99051604Y-84252150D01*
X99078864Y-84292949D01*
X99101995Y-84336222D01*
X99120772Y-84381555D01*
X99135016Y-84428510D01*
X99144588Y-84476635D01*
X99149398Y-84525466D01*
X99149398Y-84550000D01*
X99150000Y-84550000D01*
X99150000Y-85050000D01*
X97650000Y-85050000D01*
G37*
G04 #@! TD.AperFunction*
G04 #@! TA.AperFunction,SMDPad,CuDef*
G36*
X99149398Y-85850000D02*
G01*
X99149398Y-85874534D01*
X99144588Y-85923365D01*
X99135016Y-85971490D01*
X99120772Y-86018445D01*
X99101995Y-86063778D01*
X99078864Y-86107051D01*
X99051604Y-86147850D01*
X99020476Y-86185779D01*
X98985779Y-86220476D01*
X98947850Y-86251604D01*
X98907051Y-86278864D01*
X98863778Y-86301995D01*
X98818445Y-86320772D01*
X98771490Y-86335016D01*
X98723365Y-86344588D01*
X98674534Y-86349398D01*
X98650000Y-86349398D01*
X98650000Y-86350000D01*
X98150000Y-86350000D01*
X98150000Y-86349398D01*
X98125466Y-86349398D01*
X98076635Y-86344588D01*
X98028510Y-86335016D01*
X97981555Y-86320772D01*
X97936222Y-86301995D01*
X97892949Y-86278864D01*
X97852150Y-86251604D01*
X97814221Y-86220476D01*
X97779524Y-86185779D01*
X97748396Y-86147850D01*
X97721136Y-86107051D01*
X97698005Y-86063778D01*
X97679228Y-86018445D01*
X97664984Y-85971490D01*
X97655412Y-85923365D01*
X97650602Y-85874534D01*
X97650602Y-85850000D01*
X97650000Y-85850000D01*
X97650000Y-85350000D01*
X99150000Y-85350000D01*
X99150000Y-85850000D01*
X99149398Y-85850000D01*
G37*
G04 #@! TD.AperFunction*
G04 #@! TA.AperFunction,SMDPad,CuDef*
G36*
X97650602Y-88150000D02*
G01*
X97650602Y-88125466D01*
X97655412Y-88076635D01*
X97664984Y-88028510D01*
X97679228Y-87981555D01*
X97698005Y-87936222D01*
X97721136Y-87892949D01*
X97748396Y-87852150D01*
X97779524Y-87814221D01*
X97814221Y-87779524D01*
X97852150Y-87748396D01*
X97892949Y-87721136D01*
X97936222Y-87698005D01*
X97981555Y-87679228D01*
X98028510Y-87664984D01*
X98076635Y-87655412D01*
X98125466Y-87650602D01*
X98150000Y-87650602D01*
X98150000Y-87650000D01*
X98650000Y-87650000D01*
X98650000Y-87650602D01*
X98674534Y-87650602D01*
X98723365Y-87655412D01*
X98771490Y-87664984D01*
X98818445Y-87679228D01*
X98863778Y-87698005D01*
X98907051Y-87721136D01*
X98947850Y-87748396D01*
X98985779Y-87779524D01*
X99020476Y-87814221D01*
X99051604Y-87852150D01*
X99078864Y-87892949D01*
X99101995Y-87936222D01*
X99120772Y-87981555D01*
X99135016Y-88028510D01*
X99144588Y-88076635D01*
X99149398Y-88125466D01*
X99149398Y-88150000D01*
X99150000Y-88150000D01*
X99150000Y-88650000D01*
X97650000Y-88650000D01*
X97650000Y-88150000D01*
X97650602Y-88150000D01*
G37*
G04 #@! TD.AperFunction*
G04 #@! TA.AperFunction,SMDPad,CuDef*
G36*
X99150000Y-88950000D02*
G01*
X99150000Y-89450000D01*
X99149398Y-89450000D01*
X99149398Y-89474534D01*
X99144588Y-89523365D01*
X99135016Y-89571490D01*
X99120772Y-89618445D01*
X99101995Y-89663778D01*
X99078864Y-89707051D01*
X99051604Y-89747850D01*
X99020476Y-89785779D01*
X98985779Y-89820476D01*
X98947850Y-89851604D01*
X98907051Y-89878864D01*
X98863778Y-89901995D01*
X98818445Y-89920772D01*
X98771490Y-89935016D01*
X98723365Y-89944588D01*
X98674534Y-89949398D01*
X98650000Y-89949398D01*
X98650000Y-89950000D01*
X98150000Y-89950000D01*
X98150000Y-89949398D01*
X98125466Y-89949398D01*
X98076635Y-89944588D01*
X98028510Y-89935016D01*
X97981555Y-89920772D01*
X97936222Y-89901995D01*
X97892949Y-89878864D01*
X97852150Y-89851604D01*
X97814221Y-89820476D01*
X97779524Y-89785779D01*
X97748396Y-89747850D01*
X97721136Y-89707051D01*
X97698005Y-89663778D01*
X97679228Y-89618445D01*
X97664984Y-89571490D01*
X97655412Y-89523365D01*
X97650602Y-89474534D01*
X97650602Y-89450000D01*
X97650000Y-89450000D01*
X97650000Y-88950000D01*
X99150000Y-88950000D01*
G37*
G04 #@! TD.AperFunction*
D21*
X92500000Y-79400000D03*
D23*
X95040000Y-79400000D03*
X95040000Y-75400000D03*
D21*
X92500000Y-75400000D03*
G04 #@! TA.AperFunction,SMDPad,CuDef*
G36*
G01*
X108265000Y-43800000D02*
X105335000Y-43800000D01*
G75*
G02*
X105100000Y-43565000I0J235000D01*
G01*
X105100000Y-41685000D01*
G75*
G02*
X105335000Y-41450000I235000J0D01*
G01*
X108265000Y-41450000D01*
G75*
G02*
X108500000Y-41685000I0J-235000D01*
G01*
X108500000Y-43565000D01*
G75*
G02*
X108265000Y-43800000I-235000J0D01*
G01*
G37*
G04 #@! TD.AperFunction*
G04 #@! TA.AperFunction,SMDPad,CuDef*
G36*
G01*
X108265000Y-37750000D02*
X105335000Y-37750000D01*
G75*
G02*
X105100000Y-37515000I0J235000D01*
G01*
X105100000Y-35635000D01*
G75*
G02*
X105335000Y-35400000I235000J0D01*
G01*
X108265000Y-35400000D01*
G75*
G02*
X108500000Y-35635000I0J-235000D01*
G01*
X108500000Y-37515000D01*
G75*
G02*
X108265000Y-37750000I-235000J0D01*
G01*
G37*
G04 #@! TD.AperFunction*
D24*
X106000000Y-90500000D03*
X108000000Y-89550000D03*
X108000000Y-91450000D03*
X108000000Y-95575000D03*
X108000000Y-93675000D03*
X106000000Y-94625000D03*
X105300000Y-98800000D03*
X107300000Y-97850000D03*
X107300000Y-99750000D03*
X107900000Y-105900000D03*
X107900000Y-104000000D03*
X105900000Y-104950000D03*
X132000000Y-111050000D03*
X132000000Y-112950000D03*
X134000000Y-112000000D03*
D25*
X135500000Y-125500000D03*
X134550000Y-123500000D03*
X136450000Y-123500000D03*
D26*
X129200000Y-117280000D03*
X129200000Y-112720000D03*
D27*
X122900000Y-115000000D03*
D26*
X129200000Y-125280000D03*
X129200000Y-120720000D03*
D27*
X122900000Y-123000000D03*
D24*
X98400000Y-66000000D03*
X96400000Y-66950000D03*
X96400000Y-65050000D03*
D25*
X111400000Y-119200000D03*
X112350000Y-121200000D03*
X110450000Y-121200000D03*
X107550000Y-121400000D03*
X105650000Y-121400000D03*
X106600000Y-123400000D03*
D27*
X110700000Y-135000000D03*
D26*
X117000000Y-132720000D03*
X117000000Y-137280000D03*
D24*
X91300000Y-98400000D03*
X91300000Y-100300000D03*
X93300000Y-99350000D03*
G04 #@! TA.AperFunction,SMDPad,CuDef*
G36*
G01*
X134025000Y-79837500D02*
X134025000Y-79362500D01*
G75*
G02*
X134262500Y-79125000I237500J0D01*
G01*
X134762500Y-79125000D01*
G75*
G02*
X135000000Y-79362500I0J-237500D01*
G01*
X135000000Y-79837500D01*
G75*
G02*
X134762500Y-80075000I-237500J0D01*
G01*
X134262500Y-80075000D01*
G75*
G02*
X134025000Y-79837500I0J237500D01*
G01*
G37*
G04 #@! TD.AperFunction*
G04 #@! TA.AperFunction,SMDPad,CuDef*
G36*
G01*
X132200000Y-79837500D02*
X132200000Y-79362500D01*
G75*
G02*
X132437500Y-79125000I237500J0D01*
G01*
X132937500Y-79125000D01*
G75*
G02*
X133175000Y-79362500I0J-237500D01*
G01*
X133175000Y-79837500D01*
G75*
G02*
X132937500Y-80075000I-237500J0D01*
G01*
X132437500Y-80075000D01*
G75*
G02*
X132200000Y-79837500I0J237500D01*
G01*
G37*
G04 #@! TD.AperFunction*
G04 #@! TA.AperFunction,SMDPad,CuDef*
G36*
G01*
X137437500Y-82000000D02*
X136962500Y-82000000D01*
G75*
G02*
X136725000Y-81762500I0J237500D01*
G01*
X136725000Y-81262500D01*
G75*
G02*
X136962500Y-81025000I237500J0D01*
G01*
X137437500Y-81025000D01*
G75*
G02*
X137675000Y-81262500I0J-237500D01*
G01*
X137675000Y-81762500D01*
G75*
G02*
X137437500Y-82000000I-237500J0D01*
G01*
G37*
G04 #@! TD.AperFunction*
G04 #@! TA.AperFunction,SMDPad,CuDef*
G36*
G01*
X137437500Y-80175000D02*
X136962500Y-80175000D01*
G75*
G02*
X136725000Y-79937500I0J237500D01*
G01*
X136725000Y-79437500D01*
G75*
G02*
X136962500Y-79200000I237500J0D01*
G01*
X137437500Y-79200000D01*
G75*
G02*
X137675000Y-79437500I0J-237500D01*
G01*
X137675000Y-79937500D01*
G75*
G02*
X137437500Y-80175000I-237500J0D01*
G01*
G37*
G04 #@! TD.AperFunction*
G04 #@! TA.AperFunction,SMDPad,CuDef*
G36*
G01*
X126962500Y-68200000D02*
X127437500Y-68200000D01*
G75*
G02*
X127675000Y-68437500I0J-237500D01*
G01*
X127675000Y-68937500D01*
G75*
G02*
X127437500Y-69175000I-237500J0D01*
G01*
X126962500Y-69175000D01*
G75*
G02*
X126725000Y-68937500I0J237500D01*
G01*
X126725000Y-68437500D01*
G75*
G02*
X126962500Y-68200000I237500J0D01*
G01*
G37*
G04 #@! TD.AperFunction*
G04 #@! TA.AperFunction,SMDPad,CuDef*
G36*
G01*
X126962500Y-70025000D02*
X127437500Y-70025000D01*
G75*
G02*
X127675000Y-70262500I0J-237500D01*
G01*
X127675000Y-70762500D01*
G75*
G02*
X127437500Y-71000000I-237500J0D01*
G01*
X126962500Y-71000000D01*
G75*
G02*
X126725000Y-70762500I0J237500D01*
G01*
X126725000Y-70262500D01*
G75*
G02*
X126962500Y-70025000I237500J0D01*
G01*
G37*
G04 #@! TD.AperFunction*
G04 #@! TA.AperFunction,SMDPad,CuDef*
G36*
G01*
X101562500Y-34400000D02*
X102037500Y-34400000D01*
G75*
G02*
X102275000Y-34637500I0J-237500D01*
G01*
X102275000Y-35137500D01*
G75*
G02*
X102037500Y-35375000I-237500J0D01*
G01*
X101562500Y-35375000D01*
G75*
G02*
X101325000Y-35137500I0J237500D01*
G01*
X101325000Y-34637500D01*
G75*
G02*
X101562500Y-34400000I237500J0D01*
G01*
G37*
G04 #@! TD.AperFunction*
G04 #@! TA.AperFunction,SMDPad,CuDef*
G36*
G01*
X101562500Y-36225000D02*
X102037500Y-36225000D01*
G75*
G02*
X102275000Y-36462500I0J-237500D01*
G01*
X102275000Y-36962500D01*
G75*
G02*
X102037500Y-37200000I-237500J0D01*
G01*
X101562500Y-37200000D01*
G75*
G02*
X101325000Y-36962500I0J237500D01*
G01*
X101325000Y-36462500D01*
G75*
G02*
X101562500Y-36225000I237500J0D01*
G01*
G37*
G04 #@! TD.AperFunction*
G04 #@! TA.AperFunction,SMDPad,CuDef*
G36*
G01*
X100037500Y-37200000D02*
X99562500Y-37200000D01*
G75*
G02*
X99325000Y-36962500I0J237500D01*
G01*
X99325000Y-36462500D01*
G75*
G02*
X99562500Y-36225000I237500J0D01*
G01*
X100037500Y-36225000D01*
G75*
G02*
X100275000Y-36462500I0J-237500D01*
G01*
X100275000Y-36962500D01*
G75*
G02*
X100037500Y-37200000I-237500J0D01*
G01*
G37*
G04 #@! TD.AperFunction*
G04 #@! TA.AperFunction,SMDPad,CuDef*
G36*
G01*
X100037500Y-35375000D02*
X99562500Y-35375000D01*
G75*
G02*
X99325000Y-35137500I0J237500D01*
G01*
X99325000Y-34637500D01*
G75*
G02*
X99562500Y-34400000I237500J0D01*
G01*
X100037500Y-34400000D01*
G75*
G02*
X100275000Y-34637500I0J-237500D01*
G01*
X100275000Y-35137500D01*
G75*
G02*
X100037500Y-35375000I-237500J0D01*
G01*
G37*
G04 #@! TD.AperFunction*
G04 #@! TA.AperFunction,SMDPad,CuDef*
G36*
G01*
X113787500Y-100200000D02*
X113312500Y-100200000D01*
G75*
G02*
X113075000Y-99962500I0J237500D01*
G01*
X113075000Y-99462500D01*
G75*
G02*
X113312500Y-99225000I237500J0D01*
G01*
X113787500Y-99225000D01*
G75*
G02*
X114025000Y-99462500I0J-237500D01*
G01*
X114025000Y-99962500D01*
G75*
G02*
X113787500Y-100200000I-237500J0D01*
G01*
G37*
G04 #@! TD.AperFunction*
G04 #@! TA.AperFunction,SMDPad,CuDef*
G36*
G01*
X113787500Y-98375000D02*
X113312500Y-98375000D01*
G75*
G02*
X113075000Y-98137500I0J237500D01*
G01*
X113075000Y-97637500D01*
G75*
G02*
X113312500Y-97400000I237500J0D01*
G01*
X113787500Y-97400000D01*
G75*
G02*
X114025000Y-97637500I0J-237500D01*
G01*
X114025000Y-98137500D01*
G75*
G02*
X113787500Y-98375000I-237500J0D01*
G01*
G37*
G04 #@! TD.AperFunction*
G04 #@! TA.AperFunction,SMDPad,CuDef*
G36*
G01*
X112262500Y-90825000D02*
X112737500Y-90825000D01*
G75*
G02*
X112975000Y-91062500I0J-237500D01*
G01*
X112975000Y-91562500D01*
G75*
G02*
X112737500Y-91800000I-237500J0D01*
G01*
X112262500Y-91800000D01*
G75*
G02*
X112025000Y-91562500I0J237500D01*
G01*
X112025000Y-91062500D01*
G75*
G02*
X112262500Y-90825000I237500J0D01*
G01*
G37*
G04 #@! TD.AperFunction*
G04 #@! TA.AperFunction,SMDPad,CuDef*
G36*
G01*
X112262500Y-89000000D02*
X112737500Y-89000000D01*
G75*
G02*
X112975000Y-89237500I0J-237500D01*
G01*
X112975000Y-89737500D01*
G75*
G02*
X112737500Y-89975000I-237500J0D01*
G01*
X112262500Y-89975000D01*
G75*
G02*
X112025000Y-89737500I0J237500D01*
G01*
X112025000Y-89237500D01*
G75*
G02*
X112262500Y-89000000I237500J0D01*
G01*
G37*
G04 #@! TD.AperFunction*
G04 #@! TA.AperFunction,SMDPad,CuDef*
G36*
G01*
X110100000Y-95987500D02*
X110100000Y-95512500D01*
G75*
G02*
X110337500Y-95275000I237500J0D01*
G01*
X110837500Y-95275000D01*
G75*
G02*
X111075000Y-95512500I0J-237500D01*
G01*
X111075000Y-95987500D01*
G75*
G02*
X110837500Y-96225000I-237500J0D01*
G01*
X110337500Y-96225000D01*
G75*
G02*
X110100000Y-95987500I0J237500D01*
G01*
G37*
G04 #@! TD.AperFunction*
G04 #@! TA.AperFunction,SMDPad,CuDef*
G36*
G01*
X111925000Y-95987500D02*
X111925000Y-95512500D01*
G75*
G02*
X112162500Y-95275000I237500J0D01*
G01*
X112662500Y-95275000D01*
G75*
G02*
X112900000Y-95512500I0J-237500D01*
G01*
X112900000Y-95987500D01*
G75*
G02*
X112662500Y-96225000I-237500J0D01*
G01*
X112162500Y-96225000D01*
G75*
G02*
X111925000Y-95987500I0J237500D01*
G01*
G37*
G04 #@! TD.AperFunction*
G04 #@! TA.AperFunction,SMDPad,CuDef*
G36*
G01*
X111687500Y-98325000D02*
X111212500Y-98325000D01*
G75*
G02*
X110975000Y-98087500I0J237500D01*
G01*
X110975000Y-97587500D01*
G75*
G02*
X111212500Y-97350000I237500J0D01*
G01*
X111687500Y-97350000D01*
G75*
G02*
X111925000Y-97587500I0J-237500D01*
G01*
X111925000Y-98087500D01*
G75*
G02*
X111687500Y-98325000I-237500J0D01*
G01*
G37*
G04 #@! TD.AperFunction*
G04 #@! TA.AperFunction,SMDPad,CuDef*
G36*
G01*
X111687500Y-100150000D02*
X111212500Y-100150000D01*
G75*
G02*
X110975000Y-99912500I0J237500D01*
G01*
X110975000Y-99412500D01*
G75*
G02*
X111212500Y-99175000I237500J0D01*
G01*
X111687500Y-99175000D01*
G75*
G02*
X111925000Y-99412500I0J-237500D01*
G01*
X111925000Y-99912500D01*
G75*
G02*
X111687500Y-100150000I-237500J0D01*
G01*
G37*
G04 #@! TD.AperFunction*
G04 #@! TA.AperFunction,SMDPad,CuDef*
G36*
G01*
X110737500Y-89975000D02*
X110262500Y-89975000D01*
G75*
G02*
X110025000Y-89737500I0J237500D01*
G01*
X110025000Y-89237500D01*
G75*
G02*
X110262500Y-89000000I237500J0D01*
G01*
X110737500Y-89000000D01*
G75*
G02*
X110975000Y-89237500I0J-237500D01*
G01*
X110975000Y-89737500D01*
G75*
G02*
X110737500Y-89975000I-237500J0D01*
G01*
G37*
G04 #@! TD.AperFunction*
G04 #@! TA.AperFunction,SMDPad,CuDef*
G36*
G01*
X110737500Y-91800000D02*
X110262500Y-91800000D01*
G75*
G02*
X110025000Y-91562500I0J237500D01*
G01*
X110025000Y-91062500D01*
G75*
G02*
X110262500Y-90825000I237500J0D01*
G01*
X110737500Y-90825000D01*
G75*
G02*
X110975000Y-91062500I0J-237500D01*
G01*
X110975000Y-91562500D01*
G75*
G02*
X110737500Y-91800000I-237500J0D01*
G01*
G37*
G04 #@! TD.AperFunction*
G04 #@! TA.AperFunction,SMDPad,CuDef*
G36*
G01*
X112900000Y-93262500D02*
X112900000Y-93737500D01*
G75*
G02*
X112662500Y-93975000I-237500J0D01*
G01*
X112162500Y-93975000D01*
G75*
G02*
X111925000Y-93737500I0J237500D01*
G01*
X111925000Y-93262500D01*
G75*
G02*
X112162500Y-93025000I237500J0D01*
G01*
X112662500Y-93025000D01*
G75*
G02*
X112900000Y-93262500I0J-237500D01*
G01*
G37*
G04 #@! TD.AperFunction*
G04 #@! TA.AperFunction,SMDPad,CuDef*
G36*
G01*
X111075000Y-93262500D02*
X111075000Y-93737500D01*
G75*
G02*
X110837500Y-93975000I-237500J0D01*
G01*
X110337500Y-93975000D01*
G75*
G02*
X110100000Y-93737500I0J237500D01*
G01*
X110100000Y-93262500D01*
G75*
G02*
X110337500Y-93025000I237500J0D01*
G01*
X110837500Y-93025000D01*
G75*
G02*
X111075000Y-93262500I0J-237500D01*
G01*
G37*
G04 #@! TD.AperFunction*
G04 #@! TA.AperFunction,SMDPad,CuDef*
G36*
G01*
X109637500Y-100150000D02*
X109162500Y-100150000D01*
G75*
G02*
X108925000Y-99912500I0J237500D01*
G01*
X108925000Y-99412500D01*
G75*
G02*
X109162500Y-99175000I237500J0D01*
G01*
X109637500Y-99175000D01*
G75*
G02*
X109875000Y-99412500I0J-237500D01*
G01*
X109875000Y-99912500D01*
G75*
G02*
X109637500Y-100150000I-237500J0D01*
G01*
G37*
G04 #@! TD.AperFunction*
G04 #@! TA.AperFunction,SMDPad,CuDef*
G36*
G01*
X109637500Y-98325000D02*
X109162500Y-98325000D01*
G75*
G02*
X108925000Y-98087500I0J237500D01*
G01*
X108925000Y-97587500D01*
G75*
G02*
X109162500Y-97350000I237500J0D01*
G01*
X109637500Y-97350000D01*
G75*
G02*
X109875000Y-97587500I0J-237500D01*
G01*
X109875000Y-98087500D01*
G75*
G02*
X109637500Y-98325000I-237500J0D01*
G01*
G37*
G04 #@! TD.AperFunction*
G04 #@! TA.AperFunction,SMDPad,CuDef*
G36*
G01*
X111475000Y-104087500D02*
X111475000Y-103612500D01*
G75*
G02*
X111712500Y-103375000I237500J0D01*
G01*
X112212500Y-103375000D01*
G75*
G02*
X112450000Y-103612500I0J-237500D01*
G01*
X112450000Y-104087500D01*
G75*
G02*
X112212500Y-104325000I-237500J0D01*
G01*
X111712500Y-104325000D01*
G75*
G02*
X111475000Y-104087500I0J237500D01*
G01*
G37*
G04 #@! TD.AperFunction*
G04 #@! TA.AperFunction,SMDPad,CuDef*
G36*
G01*
X109650000Y-104087500D02*
X109650000Y-103612500D01*
G75*
G02*
X109887500Y-103375000I237500J0D01*
G01*
X110387500Y-103375000D01*
G75*
G02*
X110625000Y-103612500I0J-237500D01*
G01*
X110625000Y-104087500D01*
G75*
G02*
X110387500Y-104325000I-237500J0D01*
G01*
X109887500Y-104325000D01*
G75*
G02*
X109650000Y-104087500I0J237500D01*
G01*
G37*
G04 #@! TD.AperFunction*
G04 #@! TA.AperFunction,SMDPad,CuDef*
G36*
G01*
X122512500Y-94600000D02*
X122987500Y-94600000D01*
G75*
G02*
X123225000Y-94837500I0J-237500D01*
G01*
X123225000Y-95337500D01*
G75*
G02*
X122987500Y-95575000I-237500J0D01*
G01*
X122512500Y-95575000D01*
G75*
G02*
X122275000Y-95337500I0J237500D01*
G01*
X122275000Y-94837500D01*
G75*
G02*
X122512500Y-94600000I237500J0D01*
G01*
G37*
G04 #@! TD.AperFunction*
G04 #@! TA.AperFunction,SMDPad,CuDef*
G36*
G01*
X122512500Y-96425000D02*
X122987500Y-96425000D01*
G75*
G02*
X123225000Y-96662500I0J-237500D01*
G01*
X123225000Y-97162500D01*
G75*
G02*
X122987500Y-97400000I-237500J0D01*
G01*
X122512500Y-97400000D01*
G75*
G02*
X122275000Y-97162500I0J237500D01*
G01*
X122275000Y-96662500D01*
G75*
G02*
X122512500Y-96425000I237500J0D01*
G01*
G37*
G04 #@! TD.AperFunction*
G04 #@! TA.AperFunction,SMDPad,CuDef*
G36*
G01*
X125012500Y-96425000D02*
X125487500Y-96425000D01*
G75*
G02*
X125725000Y-96662500I0J-237500D01*
G01*
X125725000Y-97162500D01*
G75*
G02*
X125487500Y-97400000I-237500J0D01*
G01*
X125012500Y-97400000D01*
G75*
G02*
X124775000Y-97162500I0J237500D01*
G01*
X124775000Y-96662500D01*
G75*
G02*
X125012500Y-96425000I237500J0D01*
G01*
G37*
G04 #@! TD.AperFunction*
G04 #@! TA.AperFunction,SMDPad,CuDef*
G36*
G01*
X125012500Y-94600000D02*
X125487500Y-94600000D01*
G75*
G02*
X125725000Y-94837500I0J-237500D01*
G01*
X125725000Y-95337500D01*
G75*
G02*
X125487500Y-95575000I-237500J0D01*
G01*
X125012500Y-95575000D01*
G75*
G02*
X124775000Y-95337500I0J237500D01*
G01*
X124775000Y-94837500D01*
G75*
G02*
X125012500Y-94600000I237500J0D01*
G01*
G37*
G04 #@! TD.AperFunction*
G04 #@! TA.AperFunction,SMDPad,CuDef*
G36*
G01*
X122762500Y-107350000D02*
X123237500Y-107350000D01*
G75*
G02*
X123475000Y-107587500I0J-237500D01*
G01*
X123475000Y-108087500D01*
G75*
G02*
X123237500Y-108325000I-237500J0D01*
G01*
X122762500Y-108325000D01*
G75*
G02*
X122525000Y-108087500I0J237500D01*
G01*
X122525000Y-107587500D01*
G75*
G02*
X122762500Y-107350000I237500J0D01*
G01*
G37*
G04 #@! TD.AperFunction*
G04 #@! TA.AperFunction,SMDPad,CuDef*
G36*
G01*
X122762500Y-109175000D02*
X123237500Y-109175000D01*
G75*
G02*
X123475000Y-109412500I0J-237500D01*
G01*
X123475000Y-109912500D01*
G75*
G02*
X123237500Y-110150000I-237500J0D01*
G01*
X122762500Y-110150000D01*
G75*
G02*
X122525000Y-109912500I0J237500D01*
G01*
X122525000Y-109412500D01*
G75*
G02*
X122762500Y-109175000I237500J0D01*
G01*
G37*
G04 #@! TD.AperFunction*
G04 #@! TA.AperFunction,SMDPad,CuDef*
G36*
G01*
X120487500Y-95575000D02*
X120012500Y-95575000D01*
G75*
G02*
X119775000Y-95337500I0J237500D01*
G01*
X119775000Y-94837500D01*
G75*
G02*
X120012500Y-94600000I237500J0D01*
G01*
X120487500Y-94600000D01*
G75*
G02*
X120725000Y-94837500I0J-237500D01*
G01*
X120725000Y-95337500D01*
G75*
G02*
X120487500Y-95575000I-237500J0D01*
G01*
G37*
G04 #@! TD.AperFunction*
G04 #@! TA.AperFunction,SMDPad,CuDef*
G36*
G01*
X120487500Y-97400000D02*
X120012500Y-97400000D01*
G75*
G02*
X119775000Y-97162500I0J237500D01*
G01*
X119775000Y-96662500D01*
G75*
G02*
X120012500Y-96425000I237500J0D01*
G01*
X120487500Y-96425000D01*
G75*
G02*
X120725000Y-96662500I0J-237500D01*
G01*
X120725000Y-97162500D01*
G75*
G02*
X120487500Y-97400000I-237500J0D01*
G01*
G37*
G04 #@! TD.AperFunction*
G04 #@! TA.AperFunction,SMDPad,CuDef*
G36*
G01*
X132862500Y-101525000D02*
X133337500Y-101525000D01*
G75*
G02*
X133575000Y-101762500I0J-237500D01*
G01*
X133575000Y-102262500D01*
G75*
G02*
X133337500Y-102500000I-237500J0D01*
G01*
X132862500Y-102500000D01*
G75*
G02*
X132625000Y-102262500I0J237500D01*
G01*
X132625000Y-101762500D01*
G75*
G02*
X132862500Y-101525000I237500J0D01*
G01*
G37*
G04 #@! TD.AperFunction*
G04 #@! TA.AperFunction,SMDPad,CuDef*
G36*
G01*
X132862500Y-99700000D02*
X133337500Y-99700000D01*
G75*
G02*
X133575000Y-99937500I0J-237500D01*
G01*
X133575000Y-100437500D01*
G75*
G02*
X133337500Y-100675000I-237500J0D01*
G01*
X132862500Y-100675000D01*
G75*
G02*
X132625000Y-100437500I0J237500D01*
G01*
X132625000Y-99937500D01*
G75*
G02*
X132862500Y-99700000I237500J0D01*
G01*
G37*
G04 #@! TD.AperFunction*
G04 #@! TA.AperFunction,SMDPad,CuDef*
G36*
G01*
X120512500Y-107350000D02*
X120987500Y-107350000D01*
G75*
G02*
X121225000Y-107587500I0J-237500D01*
G01*
X121225000Y-108087500D01*
G75*
G02*
X120987500Y-108325000I-237500J0D01*
G01*
X120512500Y-108325000D01*
G75*
G02*
X120275000Y-108087500I0J237500D01*
G01*
X120275000Y-107587500D01*
G75*
G02*
X120512500Y-107350000I237500J0D01*
G01*
G37*
G04 #@! TD.AperFunction*
G04 #@! TA.AperFunction,SMDPad,CuDef*
G36*
G01*
X120512500Y-109175000D02*
X120987500Y-109175000D01*
G75*
G02*
X121225000Y-109412500I0J-237500D01*
G01*
X121225000Y-109912500D01*
G75*
G02*
X120987500Y-110150000I-237500J0D01*
G01*
X120512500Y-110150000D01*
G75*
G02*
X120275000Y-109912500I0J237500D01*
G01*
X120275000Y-109412500D01*
G75*
G02*
X120512500Y-109175000I237500J0D01*
G01*
G37*
G04 #@! TD.AperFunction*
G04 #@! TA.AperFunction,SMDPad,CuDef*
G36*
G01*
X135075000Y-120762500D02*
X135075000Y-121237500D01*
G75*
G02*
X134837500Y-121475000I-237500J0D01*
G01*
X134337500Y-121475000D01*
G75*
G02*
X134100000Y-121237500I0J237500D01*
G01*
X134100000Y-120762500D01*
G75*
G02*
X134337500Y-120525000I237500J0D01*
G01*
X134837500Y-120525000D01*
G75*
G02*
X135075000Y-120762500I0J-237500D01*
G01*
G37*
G04 #@! TD.AperFunction*
G04 #@! TA.AperFunction,SMDPad,CuDef*
G36*
G01*
X136900000Y-120762500D02*
X136900000Y-121237500D01*
G75*
G02*
X136662500Y-121475000I-237500J0D01*
G01*
X136162500Y-121475000D01*
G75*
G02*
X135925000Y-121237500I0J237500D01*
G01*
X135925000Y-120762500D01*
G75*
G02*
X136162500Y-120525000I237500J0D01*
G01*
X136662500Y-120525000D01*
G75*
G02*
X136900000Y-120762500I0J-237500D01*
G01*
G37*
G04 #@! TD.AperFunction*
G04 #@! TA.AperFunction,SMDPad,CuDef*
G36*
G01*
X131500000Y-116337500D02*
X131500000Y-115862500D01*
G75*
G02*
X131737500Y-115625000I237500J0D01*
G01*
X132237500Y-115625000D01*
G75*
G02*
X132475000Y-115862500I0J-237500D01*
G01*
X132475000Y-116337500D01*
G75*
G02*
X132237500Y-116575000I-237500J0D01*
G01*
X131737500Y-116575000D01*
G75*
G02*
X131500000Y-116337500I0J237500D01*
G01*
G37*
G04 #@! TD.AperFunction*
G04 #@! TA.AperFunction,SMDPad,CuDef*
G36*
G01*
X133325000Y-116337500D02*
X133325000Y-115862500D01*
G75*
G02*
X133562500Y-115625000I237500J0D01*
G01*
X134062500Y-115625000D01*
G75*
G02*
X134300000Y-115862500I0J-237500D01*
G01*
X134300000Y-116337500D01*
G75*
G02*
X134062500Y-116575000I-237500J0D01*
G01*
X133562500Y-116575000D01*
G75*
G02*
X133325000Y-116337500I0J237500D01*
G01*
G37*
G04 #@! TD.AperFunction*
G04 #@! TA.AperFunction,SMDPad,CuDef*
G36*
G01*
X131762500Y-123100000D02*
X132237500Y-123100000D01*
G75*
G02*
X132475000Y-123337500I0J-237500D01*
G01*
X132475000Y-123837500D01*
G75*
G02*
X132237500Y-124075000I-237500J0D01*
G01*
X131762500Y-124075000D01*
G75*
G02*
X131525000Y-123837500I0J237500D01*
G01*
X131525000Y-123337500D01*
G75*
G02*
X131762500Y-123100000I237500J0D01*
G01*
G37*
G04 #@! TD.AperFunction*
G04 #@! TA.AperFunction,SMDPad,CuDef*
G36*
G01*
X131762500Y-124925000D02*
X132237500Y-124925000D01*
G75*
G02*
X132475000Y-125162500I0J-237500D01*
G01*
X132475000Y-125662500D01*
G75*
G02*
X132237500Y-125900000I-237500J0D01*
G01*
X131762500Y-125900000D01*
G75*
G02*
X131525000Y-125662500I0J237500D01*
G01*
X131525000Y-125162500D01*
G75*
G02*
X131762500Y-124925000I237500J0D01*
G01*
G37*
G04 #@! TD.AperFunction*
G04 #@! TA.AperFunction,SMDPad,CuDef*
G36*
G01*
X97825000Y-113437500D02*
X97825000Y-112962500D01*
G75*
G02*
X98062500Y-112725000I237500J0D01*
G01*
X98562500Y-112725000D01*
G75*
G02*
X98800000Y-112962500I0J-237500D01*
G01*
X98800000Y-113437500D01*
G75*
G02*
X98562500Y-113675000I-237500J0D01*
G01*
X98062500Y-113675000D01*
G75*
G02*
X97825000Y-113437500I0J237500D01*
G01*
G37*
G04 #@! TD.AperFunction*
G04 #@! TA.AperFunction,SMDPad,CuDef*
G36*
G01*
X96000000Y-113437500D02*
X96000000Y-112962500D01*
G75*
G02*
X96237500Y-112725000I237500J0D01*
G01*
X96737500Y-112725000D01*
G75*
G02*
X96975000Y-112962500I0J-237500D01*
G01*
X96975000Y-113437500D01*
G75*
G02*
X96737500Y-113675000I-237500J0D01*
G01*
X96237500Y-113675000D01*
G75*
G02*
X96000000Y-113437500I0J237500D01*
G01*
G37*
G04 #@! TD.AperFunction*
G04 #@! TA.AperFunction,SMDPad,CuDef*
G36*
G01*
X94437500Y-111775000D02*
X93962500Y-111775000D01*
G75*
G02*
X93725000Y-111537500I0J237500D01*
G01*
X93725000Y-111037500D01*
G75*
G02*
X93962500Y-110800000I237500J0D01*
G01*
X94437500Y-110800000D01*
G75*
G02*
X94675000Y-111037500I0J-237500D01*
G01*
X94675000Y-111537500D01*
G75*
G02*
X94437500Y-111775000I-237500J0D01*
G01*
G37*
G04 #@! TD.AperFunction*
G04 #@! TA.AperFunction,SMDPad,CuDef*
G36*
G01*
X94437500Y-113600000D02*
X93962500Y-113600000D01*
G75*
G02*
X93725000Y-113362500I0J237500D01*
G01*
X93725000Y-112862500D01*
G75*
G02*
X93962500Y-112625000I237500J0D01*
G01*
X94437500Y-112625000D01*
G75*
G02*
X94675000Y-112862500I0J-237500D01*
G01*
X94675000Y-113362500D01*
G75*
G02*
X94437500Y-113600000I-237500J0D01*
G01*
G37*
G04 #@! TD.AperFunction*
G04 #@! TA.AperFunction,SMDPad,CuDef*
G36*
G01*
X136262500Y-103600000D02*
X136737500Y-103600000D01*
G75*
G02*
X136975000Y-103837500I0J-237500D01*
G01*
X136975000Y-104337500D01*
G75*
G02*
X136737500Y-104575000I-237500J0D01*
G01*
X136262500Y-104575000D01*
G75*
G02*
X136025000Y-104337500I0J237500D01*
G01*
X136025000Y-103837500D01*
G75*
G02*
X136262500Y-103600000I237500J0D01*
G01*
G37*
G04 #@! TD.AperFunction*
G04 #@! TA.AperFunction,SMDPad,CuDef*
G36*
G01*
X136262500Y-105425000D02*
X136737500Y-105425000D01*
G75*
G02*
X136975000Y-105662500I0J-237500D01*
G01*
X136975000Y-106162500D01*
G75*
G02*
X136737500Y-106400000I-237500J0D01*
G01*
X136262500Y-106400000D01*
G75*
G02*
X136025000Y-106162500I0J237500D01*
G01*
X136025000Y-105662500D01*
G75*
G02*
X136262500Y-105425000I237500J0D01*
G01*
G37*
G04 #@! TD.AperFunction*
G04 #@! TA.AperFunction,SMDPad,CuDef*
G36*
G01*
X136262500Y-107600000D02*
X136737500Y-107600000D01*
G75*
G02*
X136975000Y-107837500I0J-237500D01*
G01*
X136975000Y-108337500D01*
G75*
G02*
X136737500Y-108575000I-237500J0D01*
G01*
X136262500Y-108575000D01*
G75*
G02*
X136025000Y-108337500I0J237500D01*
G01*
X136025000Y-107837500D01*
G75*
G02*
X136262500Y-107600000I237500J0D01*
G01*
G37*
G04 #@! TD.AperFunction*
G04 #@! TA.AperFunction,SMDPad,CuDef*
G36*
G01*
X136262500Y-109425000D02*
X136737500Y-109425000D01*
G75*
G02*
X136975000Y-109662500I0J-237500D01*
G01*
X136975000Y-110162500D01*
G75*
G02*
X136737500Y-110400000I-237500J0D01*
G01*
X136262500Y-110400000D01*
G75*
G02*
X136025000Y-110162500I0J237500D01*
G01*
X136025000Y-109662500D01*
G75*
G02*
X136262500Y-109425000I237500J0D01*
G01*
G37*
G04 #@! TD.AperFunction*
G04 #@! TA.AperFunction,SMDPad,CuDef*
G36*
G01*
X90575000Y-102762500D02*
X90575000Y-103237500D01*
G75*
G02*
X90337500Y-103475000I-237500J0D01*
G01*
X89837500Y-103475000D01*
G75*
G02*
X89600000Y-103237500I0J237500D01*
G01*
X89600000Y-102762500D01*
G75*
G02*
X89837500Y-102525000I237500J0D01*
G01*
X90337500Y-102525000D01*
G75*
G02*
X90575000Y-102762500I0J-237500D01*
G01*
G37*
G04 #@! TD.AperFunction*
G04 #@! TA.AperFunction,SMDPad,CuDef*
G36*
G01*
X92400000Y-102762500D02*
X92400000Y-103237500D01*
G75*
G02*
X92162500Y-103475000I-237500J0D01*
G01*
X91662500Y-103475000D01*
G75*
G02*
X91425000Y-103237500I0J237500D01*
G01*
X91425000Y-102762500D01*
G75*
G02*
X91662500Y-102525000I237500J0D01*
G01*
X92162500Y-102525000D01*
G75*
G02*
X92400000Y-102762500I0J-237500D01*
G01*
G37*
G04 #@! TD.AperFunction*
G04 #@! TA.AperFunction,SMDPad,CuDef*
G36*
G01*
X105362500Y-69400000D02*
X105837500Y-69400000D01*
G75*
G02*
X106075000Y-69637500I0J-237500D01*
G01*
X106075000Y-70137500D01*
G75*
G02*
X105837500Y-70375000I-237500J0D01*
G01*
X105362500Y-70375000D01*
G75*
G02*
X105125000Y-70137500I0J237500D01*
G01*
X105125000Y-69637500D01*
G75*
G02*
X105362500Y-69400000I237500J0D01*
G01*
G37*
G04 #@! TD.AperFunction*
G04 #@! TA.AperFunction,SMDPad,CuDef*
G36*
G01*
X105362500Y-71225000D02*
X105837500Y-71225000D01*
G75*
G02*
X106075000Y-71462500I0J-237500D01*
G01*
X106075000Y-71962500D01*
G75*
G02*
X105837500Y-72200000I-237500J0D01*
G01*
X105362500Y-72200000D01*
G75*
G02*
X105125000Y-71962500I0J237500D01*
G01*
X105125000Y-71462500D01*
G75*
G02*
X105362500Y-71225000I237500J0D01*
G01*
G37*
G04 #@! TD.AperFunction*
G04 #@! TA.AperFunction,SMDPad,CuDef*
G36*
G01*
X98887500Y-82900000D02*
X98412500Y-82900000D01*
G75*
G02*
X98175000Y-82662500I0J237500D01*
G01*
X98175000Y-82162500D01*
G75*
G02*
X98412500Y-81925000I237500J0D01*
G01*
X98887500Y-81925000D01*
G75*
G02*
X99125000Y-82162500I0J-237500D01*
G01*
X99125000Y-82662500D01*
G75*
G02*
X98887500Y-82900000I-237500J0D01*
G01*
G37*
G04 #@! TD.AperFunction*
G04 #@! TA.AperFunction,SMDPad,CuDef*
G36*
G01*
X98887500Y-81075000D02*
X98412500Y-81075000D01*
G75*
G02*
X98175000Y-80837500I0J237500D01*
G01*
X98175000Y-80337500D01*
G75*
G02*
X98412500Y-80100000I237500J0D01*
G01*
X98887500Y-80100000D01*
G75*
G02*
X99125000Y-80337500I0J-237500D01*
G01*
X99125000Y-80837500D01*
G75*
G02*
X98887500Y-81075000I-237500J0D01*
G01*
G37*
G04 #@! TD.AperFunction*
G04 #@! TA.AperFunction,SMDPad,CuDef*
G36*
G01*
X101237500Y-81075000D02*
X100762500Y-81075000D01*
G75*
G02*
X100525000Y-80837500I0J237500D01*
G01*
X100525000Y-80337500D01*
G75*
G02*
X100762500Y-80100000I237500J0D01*
G01*
X101237500Y-80100000D01*
G75*
G02*
X101475000Y-80337500I0J-237500D01*
G01*
X101475000Y-80837500D01*
G75*
G02*
X101237500Y-81075000I-237500J0D01*
G01*
G37*
G04 #@! TD.AperFunction*
G04 #@! TA.AperFunction,SMDPad,CuDef*
G36*
G01*
X101237500Y-82900000D02*
X100762500Y-82900000D01*
G75*
G02*
X100525000Y-82662500I0J237500D01*
G01*
X100525000Y-82162500D01*
G75*
G02*
X100762500Y-81925000I237500J0D01*
G01*
X101237500Y-81925000D01*
G75*
G02*
X101475000Y-82162500I0J-237500D01*
G01*
X101475000Y-82662500D01*
G75*
G02*
X101237500Y-82900000I-237500J0D01*
G01*
G37*
G04 #@! TD.AperFunction*
G04 #@! TA.AperFunction,SMDPad,CuDef*
G36*
G01*
X98412500Y-75925000D02*
X98887500Y-75925000D01*
G75*
G02*
X99125000Y-76162500I0J-237500D01*
G01*
X99125000Y-76662500D01*
G75*
G02*
X98887500Y-76900000I-237500J0D01*
G01*
X98412500Y-76900000D01*
G75*
G02*
X98175000Y-76662500I0J237500D01*
G01*
X98175000Y-76162500D01*
G75*
G02*
X98412500Y-75925000I237500J0D01*
G01*
G37*
G04 #@! TD.AperFunction*
G04 #@! TA.AperFunction,SMDPad,CuDef*
G36*
G01*
X98412500Y-74100000D02*
X98887500Y-74100000D01*
G75*
G02*
X99125000Y-74337500I0J-237500D01*
G01*
X99125000Y-74837500D01*
G75*
G02*
X98887500Y-75075000I-237500J0D01*
G01*
X98412500Y-75075000D01*
G75*
G02*
X98175000Y-74837500I0J237500D01*
G01*
X98175000Y-74337500D01*
G75*
G02*
X98412500Y-74100000I237500J0D01*
G01*
G37*
G04 #@! TD.AperFunction*
G04 #@! TA.AperFunction,SMDPad,CuDef*
G36*
G01*
X100762500Y-74100000D02*
X101237500Y-74100000D01*
G75*
G02*
X101475000Y-74337500I0J-237500D01*
G01*
X101475000Y-74837500D01*
G75*
G02*
X101237500Y-75075000I-237500J0D01*
G01*
X100762500Y-75075000D01*
G75*
G02*
X100525000Y-74837500I0J237500D01*
G01*
X100525000Y-74337500D01*
G75*
G02*
X100762500Y-74100000I237500J0D01*
G01*
G37*
G04 #@! TD.AperFunction*
G04 #@! TA.AperFunction,SMDPad,CuDef*
G36*
G01*
X100762500Y-75925000D02*
X101237500Y-75925000D01*
G75*
G02*
X101475000Y-76162500I0J-237500D01*
G01*
X101475000Y-76662500D01*
G75*
G02*
X101237500Y-76900000I-237500J0D01*
G01*
X100762500Y-76900000D01*
G75*
G02*
X100525000Y-76662500I0J237500D01*
G01*
X100525000Y-76162500D01*
G75*
G02*
X100762500Y-75925000I237500J0D01*
G01*
G37*
G04 #@! TD.AperFunction*
G04 #@! TA.AperFunction,SMDPad,CuDef*
G36*
G01*
X135425001Y-41400000D02*
X134174999Y-41400000D01*
G75*
G02*
X133925000Y-41150001I0J249999D01*
G01*
X133925000Y-40349999D01*
G75*
G02*
X134174999Y-40100000I249999J0D01*
G01*
X135425001Y-40100000D01*
G75*
G02*
X135675000Y-40349999I0J-249999D01*
G01*
X135675000Y-41150001D01*
G75*
G02*
X135425001Y-41400000I-249999J0D01*
G01*
G37*
G04 #@! TD.AperFunction*
G04 #@! TA.AperFunction,SMDPad,CuDef*
G36*
G01*
X135425001Y-38300000D02*
X134174999Y-38300000D01*
G75*
G02*
X133925000Y-38050001I0J249999D01*
G01*
X133925000Y-37249999D01*
G75*
G02*
X134174999Y-37000000I249999J0D01*
G01*
X135425001Y-37000000D01*
G75*
G02*
X135675000Y-37249999I0J-249999D01*
G01*
X135675000Y-38050001D01*
G75*
G02*
X135425001Y-38300000I-249999J0D01*
G01*
G37*
G04 #@! TD.AperFunction*
G04 #@! TA.AperFunction,SMDPad,CuDef*
G36*
G01*
X130100000Y-34774999D02*
X130100000Y-36025001D01*
G75*
G02*
X129850001Y-36275000I-249999J0D01*
G01*
X129049999Y-36275000D01*
G75*
G02*
X128800000Y-36025001I0J249999D01*
G01*
X128800000Y-34774999D01*
G75*
G02*
X129049999Y-34525000I249999J0D01*
G01*
X129850001Y-34525000D01*
G75*
G02*
X130100000Y-34774999I0J-249999D01*
G01*
G37*
G04 #@! TD.AperFunction*
G04 #@! TA.AperFunction,SMDPad,CuDef*
G36*
G01*
X133200000Y-34774999D02*
X133200000Y-36025001D01*
G75*
G02*
X132950001Y-36275000I-249999J0D01*
G01*
X132149999Y-36275000D01*
G75*
G02*
X131900000Y-36025001I0J249999D01*
G01*
X131900000Y-34774999D01*
G75*
G02*
X132149999Y-34525000I249999J0D01*
G01*
X132950001Y-34525000D01*
G75*
G02*
X133200000Y-34774999I0J-249999D01*
G01*
G37*
G04 #@! TD.AperFunction*
G04 #@! TA.AperFunction,SMDPad,CuDef*
G36*
G01*
X126437500Y-38175000D02*
X125962500Y-38175000D01*
G75*
G02*
X125725000Y-37937500I0J237500D01*
G01*
X125725000Y-37437500D01*
G75*
G02*
X125962500Y-37200000I237500J0D01*
G01*
X126437500Y-37200000D01*
G75*
G02*
X126675000Y-37437500I0J-237500D01*
G01*
X126675000Y-37937500D01*
G75*
G02*
X126437500Y-38175000I-237500J0D01*
G01*
G37*
G04 #@! TD.AperFunction*
G04 #@! TA.AperFunction,SMDPad,CuDef*
G36*
G01*
X126437500Y-40000000D02*
X125962500Y-40000000D01*
G75*
G02*
X125725000Y-39762500I0J237500D01*
G01*
X125725000Y-39262500D01*
G75*
G02*
X125962500Y-39025000I237500J0D01*
G01*
X126437500Y-39025000D01*
G75*
G02*
X126675000Y-39262500I0J-237500D01*
G01*
X126675000Y-39762500D01*
G75*
G02*
X126437500Y-40000000I-237500J0D01*
G01*
G37*
G04 #@! TD.AperFunction*
G04 #@! TA.AperFunction,SMDPad,CuDef*
G36*
G01*
X111637500Y-58575000D02*
X111162500Y-58575000D01*
G75*
G02*
X110925000Y-58337500I0J237500D01*
G01*
X110925000Y-57837500D01*
G75*
G02*
X111162500Y-57600000I237500J0D01*
G01*
X111637500Y-57600000D01*
G75*
G02*
X111875000Y-57837500I0J-237500D01*
G01*
X111875000Y-58337500D01*
G75*
G02*
X111637500Y-58575000I-237500J0D01*
G01*
G37*
G04 #@! TD.AperFunction*
G04 #@! TA.AperFunction,SMDPad,CuDef*
G36*
G01*
X111637500Y-60400000D02*
X111162500Y-60400000D01*
G75*
G02*
X110925000Y-60162500I0J237500D01*
G01*
X110925000Y-59662500D01*
G75*
G02*
X111162500Y-59425000I237500J0D01*
G01*
X111637500Y-59425000D01*
G75*
G02*
X111875000Y-59662500I0J-237500D01*
G01*
X111875000Y-60162500D01*
G75*
G02*
X111637500Y-60400000I-237500J0D01*
G01*
G37*
G04 #@! TD.AperFunction*
G04 #@! TA.AperFunction,SMDPad,CuDef*
G36*
G01*
X93762500Y-66425000D02*
X94237500Y-66425000D01*
G75*
G02*
X94475000Y-66662500I0J-237500D01*
G01*
X94475000Y-67162500D01*
G75*
G02*
X94237500Y-67400000I-237500J0D01*
G01*
X93762500Y-67400000D01*
G75*
G02*
X93525000Y-67162500I0J237500D01*
G01*
X93525000Y-66662500D01*
G75*
G02*
X93762500Y-66425000I237500J0D01*
G01*
G37*
G04 #@! TD.AperFunction*
G04 #@! TA.AperFunction,SMDPad,CuDef*
G36*
G01*
X93762500Y-64600000D02*
X94237500Y-64600000D01*
G75*
G02*
X94475000Y-64837500I0J-237500D01*
G01*
X94475000Y-65337500D01*
G75*
G02*
X94237500Y-65575000I-237500J0D01*
G01*
X93762500Y-65575000D01*
G75*
G02*
X93525000Y-65337500I0J237500D01*
G01*
X93525000Y-64837500D01*
G75*
G02*
X93762500Y-64600000I237500J0D01*
G01*
G37*
G04 #@! TD.AperFunction*
G04 #@! TA.AperFunction,SMDPad,CuDef*
G36*
G01*
X112800000Y-122962500D02*
X112800000Y-123437500D01*
G75*
G02*
X112562500Y-123675000I-237500J0D01*
G01*
X112062500Y-123675000D01*
G75*
G02*
X111825000Y-123437500I0J237500D01*
G01*
X111825000Y-122962500D01*
G75*
G02*
X112062500Y-122725000I237500J0D01*
G01*
X112562500Y-122725000D01*
G75*
G02*
X112800000Y-122962500I0J-237500D01*
G01*
G37*
G04 #@! TD.AperFunction*
G04 #@! TA.AperFunction,SMDPad,CuDef*
G36*
G01*
X110975000Y-122962500D02*
X110975000Y-123437500D01*
G75*
G02*
X110737500Y-123675000I-237500J0D01*
G01*
X110237500Y-123675000D01*
G75*
G02*
X110000000Y-123437500I0J237500D01*
G01*
X110000000Y-122962500D01*
G75*
G02*
X110237500Y-122725000I237500J0D01*
G01*
X110737500Y-122725000D01*
G75*
G02*
X110975000Y-122962500I0J-237500D01*
G01*
G37*
G04 #@! TD.AperFunction*
G04 #@! TA.AperFunction,SMDPad,CuDef*
G36*
G01*
X112800000Y-115162500D02*
X112800000Y-115637500D01*
G75*
G02*
X112562500Y-115875000I-237500J0D01*
G01*
X112062500Y-115875000D01*
G75*
G02*
X111825000Y-115637500I0J237500D01*
G01*
X111825000Y-115162500D01*
G75*
G02*
X112062500Y-114925000I237500J0D01*
G01*
X112562500Y-114925000D01*
G75*
G02*
X112800000Y-115162500I0J-237500D01*
G01*
G37*
G04 #@! TD.AperFunction*
G04 #@! TA.AperFunction,SMDPad,CuDef*
G36*
G01*
X110975000Y-115162500D02*
X110975000Y-115637500D01*
G75*
G02*
X110737500Y-115875000I-237500J0D01*
G01*
X110237500Y-115875000D01*
G75*
G02*
X110000000Y-115637500I0J237500D01*
G01*
X110000000Y-115162500D01*
G75*
G02*
X110237500Y-114925000I237500J0D01*
G01*
X110737500Y-114925000D01*
G75*
G02*
X110975000Y-115162500I0J-237500D01*
G01*
G37*
G04 #@! TD.AperFunction*
G04 #@! TA.AperFunction,SMDPad,CuDef*
G36*
G01*
X111825000Y-113637500D02*
X111825000Y-113162500D01*
G75*
G02*
X112062500Y-112925000I237500J0D01*
G01*
X112562500Y-112925000D01*
G75*
G02*
X112800000Y-113162500I0J-237500D01*
G01*
X112800000Y-113637500D01*
G75*
G02*
X112562500Y-113875000I-237500J0D01*
G01*
X112062500Y-113875000D01*
G75*
G02*
X111825000Y-113637500I0J237500D01*
G01*
G37*
G04 #@! TD.AperFunction*
G04 #@! TA.AperFunction,SMDPad,CuDef*
G36*
G01*
X110000000Y-113637500D02*
X110000000Y-113162500D01*
G75*
G02*
X110237500Y-112925000I237500J0D01*
G01*
X110737500Y-112925000D01*
G75*
G02*
X110975000Y-113162500I0J-237500D01*
G01*
X110975000Y-113637500D01*
G75*
G02*
X110737500Y-113875000I-237500J0D01*
G01*
X110237500Y-113875000D01*
G75*
G02*
X110000000Y-113637500I0J237500D01*
G01*
G37*
G04 #@! TD.AperFunction*
G04 #@! TA.AperFunction,SMDPad,CuDef*
G36*
G01*
X105437500Y-136975000D02*
X104962500Y-136975000D01*
G75*
G02*
X104725000Y-136737500I0J237500D01*
G01*
X104725000Y-136237500D01*
G75*
G02*
X104962500Y-136000000I237500J0D01*
G01*
X105437500Y-136000000D01*
G75*
G02*
X105675000Y-136237500I0J-237500D01*
G01*
X105675000Y-136737500D01*
G75*
G02*
X105437500Y-136975000I-237500J0D01*
G01*
G37*
G04 #@! TD.AperFunction*
G04 #@! TA.AperFunction,SMDPad,CuDef*
G36*
G01*
X105437500Y-138800000D02*
X104962500Y-138800000D01*
G75*
G02*
X104725000Y-138562500I0J237500D01*
G01*
X104725000Y-138062500D01*
G75*
G02*
X104962500Y-137825000I237500J0D01*
G01*
X105437500Y-137825000D01*
G75*
G02*
X105675000Y-138062500I0J-237500D01*
G01*
X105675000Y-138562500D01*
G75*
G02*
X105437500Y-138800000I-237500J0D01*
G01*
G37*
G04 #@! TD.AperFunction*
G04 #@! TA.AperFunction,SMDPad,CuDef*
G36*
G01*
X106825000Y-127237500D02*
X106825000Y-126762500D01*
G75*
G02*
X107062500Y-126525000I237500J0D01*
G01*
X107562500Y-126525000D01*
G75*
G02*
X107800000Y-126762500I0J-237500D01*
G01*
X107800000Y-127237500D01*
G75*
G02*
X107562500Y-127475000I-237500J0D01*
G01*
X107062500Y-127475000D01*
G75*
G02*
X106825000Y-127237500I0J237500D01*
G01*
G37*
G04 #@! TD.AperFunction*
G04 #@! TA.AperFunction,SMDPad,CuDef*
G36*
G01*
X105000000Y-127237500D02*
X105000000Y-126762500D01*
G75*
G02*
X105237500Y-126525000I237500J0D01*
G01*
X105737500Y-126525000D01*
G75*
G02*
X105975000Y-126762500I0J-237500D01*
G01*
X105975000Y-127237500D01*
G75*
G02*
X105737500Y-127475000I-237500J0D01*
G01*
X105237500Y-127475000D01*
G75*
G02*
X105000000Y-127237500I0J237500D01*
G01*
G37*
G04 #@! TD.AperFunction*
G04 #@! TA.AperFunction,SMDPad,CuDef*
G36*
G01*
X113000000Y-126762500D02*
X113000000Y-127237500D01*
G75*
G02*
X112762500Y-127475000I-237500J0D01*
G01*
X112262500Y-127475000D01*
G75*
G02*
X112025000Y-127237500I0J237500D01*
G01*
X112025000Y-126762500D01*
G75*
G02*
X112262500Y-126525000I237500J0D01*
G01*
X112762500Y-126525000D01*
G75*
G02*
X113000000Y-126762500I0J-237500D01*
G01*
G37*
G04 #@! TD.AperFunction*
G04 #@! TA.AperFunction,SMDPad,CuDef*
G36*
G01*
X111175000Y-126762500D02*
X111175000Y-127237500D01*
G75*
G02*
X110937500Y-127475000I-237500J0D01*
G01*
X110437500Y-127475000D01*
G75*
G02*
X110200000Y-127237500I0J237500D01*
G01*
X110200000Y-126762500D01*
G75*
G02*
X110437500Y-126525000I237500J0D01*
G01*
X110937500Y-126525000D01*
G75*
G02*
X111175000Y-126762500I0J-237500D01*
G01*
G37*
G04 #@! TD.AperFunction*
G04 #@! TA.AperFunction,SMDPad,CuDef*
G36*
G01*
X104800000Y-140637500D02*
X104800000Y-140162500D01*
G75*
G02*
X105037500Y-139925000I237500J0D01*
G01*
X105537500Y-139925000D01*
G75*
G02*
X105775000Y-140162500I0J-237500D01*
G01*
X105775000Y-140637500D01*
G75*
G02*
X105537500Y-140875000I-237500J0D01*
G01*
X105037500Y-140875000D01*
G75*
G02*
X104800000Y-140637500I0J237500D01*
G01*
G37*
G04 #@! TD.AperFunction*
G04 #@! TA.AperFunction,SMDPad,CuDef*
G36*
G01*
X106625000Y-140637500D02*
X106625000Y-140162500D01*
G75*
G02*
X106862500Y-139925000I237500J0D01*
G01*
X107362500Y-139925000D01*
G75*
G02*
X107600000Y-140162500I0J-237500D01*
G01*
X107600000Y-140637500D01*
G75*
G02*
X107362500Y-140875000I-237500J0D01*
G01*
X106862500Y-140875000D01*
G75*
G02*
X106625000Y-140637500I0J237500D01*
G01*
G37*
G04 #@! TD.AperFunction*
G04 #@! TA.AperFunction,SMDPad,CuDef*
G36*
G01*
X93700000Y-95612500D02*
X93700000Y-96087500D01*
G75*
G02*
X93462500Y-96325000I-237500J0D01*
G01*
X92962500Y-96325000D01*
G75*
G02*
X92725000Y-96087500I0J237500D01*
G01*
X92725000Y-95612500D01*
G75*
G02*
X92962500Y-95375000I237500J0D01*
G01*
X93462500Y-95375000D01*
G75*
G02*
X93700000Y-95612500I0J-237500D01*
G01*
G37*
G04 #@! TD.AperFunction*
G04 #@! TA.AperFunction,SMDPad,CuDef*
G36*
G01*
X91875000Y-95612500D02*
X91875000Y-96087500D01*
G75*
G02*
X91637500Y-96325000I-237500J0D01*
G01*
X91137500Y-96325000D01*
G75*
G02*
X90900000Y-96087500I0J237500D01*
G01*
X90900000Y-95612500D01*
G75*
G02*
X91137500Y-95375000I237500J0D01*
G01*
X91637500Y-95375000D01*
G75*
G02*
X91875000Y-95612500I0J-237500D01*
G01*
G37*
G04 #@! TD.AperFunction*
G04 #@! TA.AperFunction,SMDPad,CuDef*
G36*
G01*
X95312500Y-97275000D02*
X95787500Y-97275000D01*
G75*
G02*
X96025000Y-97512500I0J-237500D01*
G01*
X96025000Y-98012500D01*
G75*
G02*
X95787500Y-98250000I-237500J0D01*
G01*
X95312500Y-98250000D01*
G75*
G02*
X95075000Y-98012500I0J237500D01*
G01*
X95075000Y-97512500D01*
G75*
G02*
X95312500Y-97275000I237500J0D01*
G01*
G37*
G04 #@! TD.AperFunction*
G04 #@! TA.AperFunction,SMDPad,CuDef*
G36*
G01*
X95312500Y-95450000D02*
X95787500Y-95450000D01*
G75*
G02*
X96025000Y-95687500I0J-237500D01*
G01*
X96025000Y-96187500D01*
G75*
G02*
X95787500Y-96425000I-237500J0D01*
G01*
X95312500Y-96425000D01*
G75*
G02*
X95075000Y-96187500I0J237500D01*
G01*
X95075000Y-95687500D01*
G75*
G02*
X95312500Y-95450000I237500J0D01*
G01*
G37*
G04 #@! TD.AperFunction*
G04 #@! TA.AperFunction,SMDPad,CuDef*
G36*
G01*
X96125000Y-99862500D02*
X96125000Y-100337500D01*
G75*
G02*
X95887500Y-100575000I-237500J0D01*
G01*
X95387500Y-100575000D01*
G75*
G02*
X95150000Y-100337500I0J237500D01*
G01*
X95150000Y-99862500D01*
G75*
G02*
X95387500Y-99625000I237500J0D01*
G01*
X95887500Y-99625000D01*
G75*
G02*
X96125000Y-99862500I0J-237500D01*
G01*
G37*
G04 #@! TD.AperFunction*
G04 #@! TA.AperFunction,SMDPad,CuDef*
G36*
G01*
X97950000Y-99862500D02*
X97950000Y-100337500D01*
G75*
G02*
X97712500Y-100575000I-237500J0D01*
G01*
X97212500Y-100575000D01*
G75*
G02*
X96975000Y-100337500I0J237500D01*
G01*
X96975000Y-99862500D01*
G75*
G02*
X97212500Y-99625000I237500J0D01*
G01*
X97712500Y-99625000D01*
G75*
G02*
X97950000Y-99862500I0J-237500D01*
G01*
G37*
G04 #@! TD.AperFunction*
D28*
X85000000Y-102000000D03*
X85000000Y-104540000D03*
X85000000Y-107080000D03*
D14*
X126500000Y-84250000D03*
X123750000Y-84250000D03*
X119700000Y-104500000D03*
X136500000Y-118000000D03*
X136500000Y-115200000D03*
X96500000Y-111250000D03*
X85000000Y-116250000D03*
X109600000Y-71500000D03*
X113700000Y-71500000D03*
X108600000Y-68800000D03*
X112600000Y-68800000D03*
X89800000Y-91800000D03*
X96500000Y-92300000D03*
X91600000Y-65000000D03*
X127000000Y-138000000D03*
X127000000Y-140500000D03*
X98500000Y-135250000D03*
X136500000Y-112250000D03*
D29*
X97800000Y-40800000D03*
D30*
X97800000Y-40800000D03*
D31*
X100500000Y-42705000D03*
X100500000Y-41435000D03*
X100500000Y-40165000D03*
X100500000Y-38895000D03*
X95100000Y-38895000D03*
X95100000Y-40165000D03*
X95100000Y-41435000D03*
X95100000Y-42705000D03*
D32*
X98400000Y-42600000D03*
X98400000Y-41400000D03*
X97200000Y-41400000D03*
X97200000Y-42600000D03*
X98400000Y-39000000D03*
X98400000Y-40100000D03*
X97200000Y-40100000D03*
X97200000Y-39000000D03*
G04 #@! TA.AperFunction,SMDPad,CuDef*
G36*
G01*
X128910000Y-91000000D02*
X129210000Y-91000000D01*
G75*
G02*
X129360000Y-91150000I0J-150000D01*
G01*
X129360000Y-92800000D01*
G75*
G02*
X129210000Y-92950000I-150000J0D01*
G01*
X128910000Y-92950000D01*
G75*
G02*
X128760000Y-92800000I0J150000D01*
G01*
X128760000Y-91150000D01*
G75*
G02*
X128910000Y-91000000I150000J0D01*
G01*
G37*
G04 #@! TD.AperFunction*
G04 #@! TA.AperFunction,SMDPad,CuDef*
G36*
G01*
X127640000Y-91000000D02*
X127940000Y-91000000D01*
G75*
G02*
X128090000Y-91150000I0J-150000D01*
G01*
X128090000Y-92800000D01*
G75*
G02*
X127940000Y-92950000I-150000J0D01*
G01*
X127640000Y-92950000D01*
G75*
G02*
X127490000Y-92800000I0J150000D01*
G01*
X127490000Y-91150000D01*
G75*
G02*
X127640000Y-91000000I150000J0D01*
G01*
G37*
G04 #@! TD.AperFunction*
G04 #@! TA.AperFunction,SMDPad,CuDef*
G36*
G01*
X126370000Y-91000000D02*
X126670000Y-91000000D01*
G75*
G02*
X126820000Y-91150000I0J-150000D01*
G01*
X126820000Y-92800000D01*
G75*
G02*
X126670000Y-92950000I-150000J0D01*
G01*
X126370000Y-92950000D01*
G75*
G02*
X126220000Y-92800000I0J150000D01*
G01*
X126220000Y-91150000D01*
G75*
G02*
X126370000Y-91000000I150000J0D01*
G01*
G37*
G04 #@! TD.AperFunction*
G04 #@! TA.AperFunction,SMDPad,CuDef*
G36*
G01*
X125100000Y-91000000D02*
X125400000Y-91000000D01*
G75*
G02*
X125550000Y-91150000I0J-150000D01*
G01*
X125550000Y-92800000D01*
G75*
G02*
X125400000Y-92950000I-150000J0D01*
G01*
X125100000Y-92950000D01*
G75*
G02*
X124950000Y-92800000I0J150000D01*
G01*
X124950000Y-91150000D01*
G75*
G02*
X125100000Y-91000000I150000J0D01*
G01*
G37*
G04 #@! TD.AperFunction*
G04 #@! TA.AperFunction,SMDPad,CuDef*
G36*
G01*
X123830000Y-91000000D02*
X124130000Y-91000000D01*
G75*
G02*
X124280000Y-91150000I0J-150000D01*
G01*
X124280000Y-92800000D01*
G75*
G02*
X124130000Y-92950000I-150000J0D01*
G01*
X123830000Y-92950000D01*
G75*
G02*
X123680000Y-92800000I0J150000D01*
G01*
X123680000Y-91150000D01*
G75*
G02*
X123830000Y-91000000I150000J0D01*
G01*
G37*
G04 #@! TD.AperFunction*
G04 #@! TA.AperFunction,SMDPad,CuDef*
G36*
G01*
X122560000Y-91000000D02*
X122860000Y-91000000D01*
G75*
G02*
X123010000Y-91150000I0J-150000D01*
G01*
X123010000Y-92800000D01*
G75*
G02*
X122860000Y-92950000I-150000J0D01*
G01*
X122560000Y-92950000D01*
G75*
G02*
X122410000Y-92800000I0J150000D01*
G01*
X122410000Y-91150000D01*
G75*
G02*
X122560000Y-91000000I150000J0D01*
G01*
G37*
G04 #@! TD.AperFunction*
G04 #@! TA.AperFunction,SMDPad,CuDef*
G36*
G01*
X121290000Y-91000000D02*
X121590000Y-91000000D01*
G75*
G02*
X121740000Y-91150000I0J-150000D01*
G01*
X121740000Y-92800000D01*
G75*
G02*
X121590000Y-92950000I-150000J0D01*
G01*
X121290000Y-92950000D01*
G75*
G02*
X121140000Y-92800000I0J150000D01*
G01*
X121140000Y-91150000D01*
G75*
G02*
X121290000Y-91000000I150000J0D01*
G01*
G37*
G04 #@! TD.AperFunction*
G04 #@! TA.AperFunction,SMDPad,CuDef*
G36*
G01*
X121290000Y-86050000D02*
X121590000Y-86050000D01*
G75*
G02*
X121740000Y-86200000I0J-150000D01*
G01*
X121740000Y-87850000D01*
G75*
G02*
X121590000Y-88000000I-150000J0D01*
G01*
X121290000Y-88000000D01*
G75*
G02*
X121140000Y-87850000I0J150000D01*
G01*
X121140000Y-86200000D01*
G75*
G02*
X121290000Y-86050000I150000J0D01*
G01*
G37*
G04 #@! TD.AperFunction*
G04 #@! TA.AperFunction,SMDPad,CuDef*
G36*
G01*
X122560000Y-86050000D02*
X122860000Y-86050000D01*
G75*
G02*
X123010000Y-86200000I0J-150000D01*
G01*
X123010000Y-87850000D01*
G75*
G02*
X122860000Y-88000000I-150000J0D01*
G01*
X122560000Y-88000000D01*
G75*
G02*
X122410000Y-87850000I0J150000D01*
G01*
X122410000Y-86200000D01*
G75*
G02*
X122560000Y-86050000I150000J0D01*
G01*
G37*
G04 #@! TD.AperFunction*
G04 #@! TA.AperFunction,SMDPad,CuDef*
G36*
G01*
X123830000Y-86050000D02*
X124130000Y-86050000D01*
G75*
G02*
X124280000Y-86200000I0J-150000D01*
G01*
X124280000Y-87850000D01*
G75*
G02*
X124130000Y-88000000I-150000J0D01*
G01*
X123830000Y-88000000D01*
G75*
G02*
X123680000Y-87850000I0J150000D01*
G01*
X123680000Y-86200000D01*
G75*
G02*
X123830000Y-86050000I150000J0D01*
G01*
G37*
G04 #@! TD.AperFunction*
G04 #@! TA.AperFunction,SMDPad,CuDef*
G36*
G01*
X125100000Y-86050000D02*
X125400000Y-86050000D01*
G75*
G02*
X125550000Y-86200000I0J-150000D01*
G01*
X125550000Y-87850000D01*
G75*
G02*
X125400000Y-88000000I-150000J0D01*
G01*
X125100000Y-88000000D01*
G75*
G02*
X124950000Y-87850000I0J150000D01*
G01*
X124950000Y-86200000D01*
G75*
G02*
X125100000Y-86050000I150000J0D01*
G01*
G37*
G04 #@! TD.AperFunction*
G04 #@! TA.AperFunction,SMDPad,CuDef*
G36*
G01*
X126370000Y-86050000D02*
X126670000Y-86050000D01*
G75*
G02*
X126820000Y-86200000I0J-150000D01*
G01*
X126820000Y-87850000D01*
G75*
G02*
X126670000Y-88000000I-150000J0D01*
G01*
X126370000Y-88000000D01*
G75*
G02*
X126220000Y-87850000I0J150000D01*
G01*
X126220000Y-86200000D01*
G75*
G02*
X126370000Y-86050000I150000J0D01*
G01*
G37*
G04 #@! TD.AperFunction*
G04 #@! TA.AperFunction,SMDPad,CuDef*
G36*
G01*
X127640000Y-86050000D02*
X127940000Y-86050000D01*
G75*
G02*
X128090000Y-86200000I0J-150000D01*
G01*
X128090000Y-87850000D01*
G75*
G02*
X127940000Y-88000000I-150000J0D01*
G01*
X127640000Y-88000000D01*
G75*
G02*
X127490000Y-87850000I0J150000D01*
G01*
X127490000Y-86200000D01*
G75*
G02*
X127640000Y-86050000I150000J0D01*
G01*
G37*
G04 #@! TD.AperFunction*
G04 #@! TA.AperFunction,SMDPad,CuDef*
G36*
G01*
X128910000Y-86050000D02*
X129210000Y-86050000D01*
G75*
G02*
X129360000Y-86200000I0J-150000D01*
G01*
X129360000Y-87850000D01*
G75*
G02*
X129210000Y-88000000I-150000J0D01*
G01*
X128910000Y-88000000D01*
G75*
G02*
X128760000Y-87850000I0J150000D01*
G01*
X128760000Y-86200000D01*
G75*
G02*
X128910000Y-86050000I150000J0D01*
G01*
G37*
G04 #@! TD.AperFunction*
D25*
X133950000Y-104000000D03*
X132050000Y-104000000D03*
X133000000Y-106000000D03*
G04 #@! TA.AperFunction,SMDPad,CuDef*
G36*
G01*
X94500000Y-105445000D02*
X94500000Y-105145000D01*
G75*
G02*
X94650000Y-104995000I150000J0D01*
G01*
X96300000Y-104995000D01*
G75*
G02*
X96450000Y-105145000I0J-150000D01*
G01*
X96450000Y-105445000D01*
G75*
G02*
X96300000Y-105595000I-150000J0D01*
G01*
X94650000Y-105595000D01*
G75*
G02*
X94500000Y-105445000I0J150000D01*
G01*
G37*
G04 #@! TD.AperFunction*
G04 #@! TA.AperFunction,SMDPad,CuDef*
G36*
G01*
X94500000Y-106715000D02*
X94500000Y-106415000D01*
G75*
G02*
X94650000Y-106265000I150000J0D01*
G01*
X96300000Y-106265000D01*
G75*
G02*
X96450000Y-106415000I0J-150000D01*
G01*
X96450000Y-106715000D01*
G75*
G02*
X96300000Y-106865000I-150000J0D01*
G01*
X94650000Y-106865000D01*
G75*
G02*
X94500000Y-106715000I0J150000D01*
G01*
G37*
G04 #@! TD.AperFunction*
G04 #@! TA.AperFunction,SMDPad,CuDef*
G36*
G01*
X94500000Y-107985000D02*
X94500000Y-107685000D01*
G75*
G02*
X94650000Y-107535000I150000J0D01*
G01*
X96300000Y-107535000D01*
G75*
G02*
X96450000Y-107685000I0J-150000D01*
G01*
X96450000Y-107985000D01*
G75*
G02*
X96300000Y-108135000I-150000J0D01*
G01*
X94650000Y-108135000D01*
G75*
G02*
X94500000Y-107985000I0J150000D01*
G01*
G37*
G04 #@! TD.AperFunction*
G04 #@! TA.AperFunction,SMDPad,CuDef*
G36*
G01*
X94500000Y-109255000D02*
X94500000Y-108955000D01*
G75*
G02*
X94650000Y-108805000I150000J0D01*
G01*
X96300000Y-108805000D01*
G75*
G02*
X96450000Y-108955000I0J-150000D01*
G01*
X96450000Y-109255000D01*
G75*
G02*
X96300000Y-109405000I-150000J0D01*
G01*
X94650000Y-109405000D01*
G75*
G02*
X94500000Y-109255000I0J150000D01*
G01*
G37*
G04 #@! TD.AperFunction*
G04 #@! TA.AperFunction,SMDPad,CuDef*
G36*
G01*
X89550000Y-109255000D02*
X89550000Y-108955000D01*
G75*
G02*
X89700000Y-108805000I150000J0D01*
G01*
X91350000Y-108805000D01*
G75*
G02*
X91500000Y-108955000I0J-150000D01*
G01*
X91500000Y-109255000D01*
G75*
G02*
X91350000Y-109405000I-150000J0D01*
G01*
X89700000Y-109405000D01*
G75*
G02*
X89550000Y-109255000I0J150000D01*
G01*
G37*
G04 #@! TD.AperFunction*
G04 #@! TA.AperFunction,SMDPad,CuDef*
G36*
G01*
X89550000Y-107985000D02*
X89550000Y-107685000D01*
G75*
G02*
X89700000Y-107535000I150000J0D01*
G01*
X91350000Y-107535000D01*
G75*
G02*
X91500000Y-107685000I0J-150000D01*
G01*
X91500000Y-107985000D01*
G75*
G02*
X91350000Y-108135000I-150000J0D01*
G01*
X89700000Y-108135000D01*
G75*
G02*
X89550000Y-107985000I0J150000D01*
G01*
G37*
G04 #@! TD.AperFunction*
G04 #@! TA.AperFunction,SMDPad,CuDef*
G36*
G01*
X89550000Y-106715000D02*
X89550000Y-106415000D01*
G75*
G02*
X89700000Y-106265000I150000J0D01*
G01*
X91350000Y-106265000D01*
G75*
G02*
X91500000Y-106415000I0J-150000D01*
G01*
X91500000Y-106715000D01*
G75*
G02*
X91350000Y-106865000I-150000J0D01*
G01*
X89700000Y-106865000D01*
G75*
G02*
X89550000Y-106715000I0J150000D01*
G01*
G37*
G04 #@! TD.AperFunction*
G04 #@! TA.AperFunction,SMDPad,CuDef*
G36*
G01*
X89550000Y-105445000D02*
X89550000Y-105145000D01*
G75*
G02*
X89700000Y-104995000I150000J0D01*
G01*
X91350000Y-104995000D01*
G75*
G02*
X91500000Y-105145000I0J-150000D01*
G01*
X91500000Y-105445000D01*
G75*
G02*
X91350000Y-105595000I-150000J0D01*
G01*
X89700000Y-105595000D01*
G75*
G02*
X89550000Y-105445000I0J150000D01*
G01*
G37*
G04 #@! TD.AperFunction*
G04 #@! TA.AperFunction,SMDPad,CuDef*
G36*
G01*
X97160000Y-114750000D02*
X97460000Y-114750000D01*
G75*
G02*
X97610000Y-114900000I0J-150000D01*
G01*
X97610000Y-116550000D01*
G75*
G02*
X97460000Y-116700000I-150000J0D01*
G01*
X97160000Y-116700000D01*
G75*
G02*
X97010000Y-116550000I0J150000D01*
G01*
X97010000Y-114900000D01*
G75*
G02*
X97160000Y-114750000I150000J0D01*
G01*
G37*
G04 #@! TD.AperFunction*
G04 #@! TA.AperFunction,SMDPad,CuDef*
G36*
G01*
X95890000Y-114750000D02*
X96190000Y-114750000D01*
G75*
G02*
X96340000Y-114900000I0J-150000D01*
G01*
X96340000Y-116550000D01*
G75*
G02*
X96190000Y-116700000I-150000J0D01*
G01*
X95890000Y-116700000D01*
G75*
G02*
X95740000Y-116550000I0J150000D01*
G01*
X95740000Y-114900000D01*
G75*
G02*
X95890000Y-114750000I150000J0D01*
G01*
G37*
G04 #@! TD.AperFunction*
G04 #@! TA.AperFunction,SMDPad,CuDef*
G36*
G01*
X94620000Y-114750000D02*
X94920000Y-114750000D01*
G75*
G02*
X95070000Y-114900000I0J-150000D01*
G01*
X95070000Y-116550000D01*
G75*
G02*
X94920000Y-116700000I-150000J0D01*
G01*
X94620000Y-116700000D01*
G75*
G02*
X94470000Y-116550000I0J150000D01*
G01*
X94470000Y-114900000D01*
G75*
G02*
X94620000Y-114750000I150000J0D01*
G01*
G37*
G04 #@! TD.AperFunction*
G04 #@! TA.AperFunction,SMDPad,CuDef*
G36*
G01*
X93350000Y-114750000D02*
X93650000Y-114750000D01*
G75*
G02*
X93800000Y-114900000I0J-150000D01*
G01*
X93800000Y-116550000D01*
G75*
G02*
X93650000Y-116700000I-150000J0D01*
G01*
X93350000Y-116700000D01*
G75*
G02*
X93200000Y-116550000I0J150000D01*
G01*
X93200000Y-114900000D01*
G75*
G02*
X93350000Y-114750000I150000J0D01*
G01*
G37*
G04 #@! TD.AperFunction*
G04 #@! TA.AperFunction,SMDPad,CuDef*
G36*
G01*
X92080000Y-114750000D02*
X92380000Y-114750000D01*
G75*
G02*
X92530000Y-114900000I0J-150000D01*
G01*
X92530000Y-116550000D01*
G75*
G02*
X92380000Y-116700000I-150000J0D01*
G01*
X92080000Y-116700000D01*
G75*
G02*
X91930000Y-116550000I0J150000D01*
G01*
X91930000Y-114900000D01*
G75*
G02*
X92080000Y-114750000I150000J0D01*
G01*
G37*
G04 #@! TD.AperFunction*
G04 #@! TA.AperFunction,SMDPad,CuDef*
G36*
G01*
X90810000Y-114750000D02*
X91110000Y-114750000D01*
G75*
G02*
X91260000Y-114900000I0J-150000D01*
G01*
X91260000Y-116550000D01*
G75*
G02*
X91110000Y-116700000I-150000J0D01*
G01*
X90810000Y-116700000D01*
G75*
G02*
X90660000Y-116550000I0J150000D01*
G01*
X90660000Y-114900000D01*
G75*
G02*
X90810000Y-114750000I150000J0D01*
G01*
G37*
G04 #@! TD.AperFunction*
G04 #@! TA.AperFunction,SMDPad,CuDef*
G36*
G01*
X89540000Y-114750000D02*
X89840000Y-114750000D01*
G75*
G02*
X89990000Y-114900000I0J-150000D01*
G01*
X89990000Y-116550000D01*
G75*
G02*
X89840000Y-116700000I-150000J0D01*
G01*
X89540000Y-116700000D01*
G75*
G02*
X89390000Y-116550000I0J150000D01*
G01*
X89390000Y-114900000D01*
G75*
G02*
X89540000Y-114750000I150000J0D01*
G01*
G37*
G04 #@! TD.AperFunction*
G04 #@! TA.AperFunction,SMDPad,CuDef*
G36*
G01*
X89540000Y-119700000D02*
X89840000Y-119700000D01*
G75*
G02*
X89990000Y-119850000I0J-150000D01*
G01*
X89990000Y-121500000D01*
G75*
G02*
X89840000Y-121650000I-150000J0D01*
G01*
X89540000Y-121650000D01*
G75*
G02*
X89390000Y-121500000I0J150000D01*
G01*
X89390000Y-119850000D01*
G75*
G02*
X89540000Y-119700000I150000J0D01*
G01*
G37*
G04 #@! TD.AperFunction*
G04 #@! TA.AperFunction,SMDPad,CuDef*
G36*
G01*
X90810000Y-119700000D02*
X91110000Y-119700000D01*
G75*
G02*
X91260000Y-119850000I0J-150000D01*
G01*
X91260000Y-121500000D01*
G75*
G02*
X91110000Y-121650000I-150000J0D01*
G01*
X90810000Y-121650000D01*
G75*
G02*
X90660000Y-121500000I0J150000D01*
G01*
X90660000Y-119850000D01*
G75*
G02*
X90810000Y-119700000I150000J0D01*
G01*
G37*
G04 #@! TD.AperFunction*
G04 #@! TA.AperFunction,SMDPad,CuDef*
G36*
G01*
X92080000Y-119700000D02*
X92380000Y-119700000D01*
G75*
G02*
X92530000Y-119850000I0J-150000D01*
G01*
X92530000Y-121500000D01*
G75*
G02*
X92380000Y-121650000I-150000J0D01*
G01*
X92080000Y-121650000D01*
G75*
G02*
X91930000Y-121500000I0J150000D01*
G01*
X91930000Y-119850000D01*
G75*
G02*
X92080000Y-119700000I150000J0D01*
G01*
G37*
G04 #@! TD.AperFunction*
G04 #@! TA.AperFunction,SMDPad,CuDef*
G36*
G01*
X93350000Y-119700000D02*
X93650000Y-119700000D01*
G75*
G02*
X93800000Y-119850000I0J-150000D01*
G01*
X93800000Y-121500000D01*
G75*
G02*
X93650000Y-121650000I-150000J0D01*
G01*
X93350000Y-121650000D01*
G75*
G02*
X93200000Y-121500000I0J150000D01*
G01*
X93200000Y-119850000D01*
G75*
G02*
X93350000Y-119700000I150000J0D01*
G01*
G37*
G04 #@! TD.AperFunction*
G04 #@! TA.AperFunction,SMDPad,CuDef*
G36*
G01*
X94620000Y-119700000D02*
X94920000Y-119700000D01*
G75*
G02*
X95070000Y-119850000I0J-150000D01*
G01*
X95070000Y-121500000D01*
G75*
G02*
X94920000Y-121650000I-150000J0D01*
G01*
X94620000Y-121650000D01*
G75*
G02*
X94470000Y-121500000I0J150000D01*
G01*
X94470000Y-119850000D01*
G75*
G02*
X94620000Y-119700000I150000J0D01*
G01*
G37*
G04 #@! TD.AperFunction*
G04 #@! TA.AperFunction,SMDPad,CuDef*
G36*
G01*
X95890000Y-119700000D02*
X96190000Y-119700000D01*
G75*
G02*
X96340000Y-119850000I0J-150000D01*
G01*
X96340000Y-121500000D01*
G75*
G02*
X96190000Y-121650000I-150000J0D01*
G01*
X95890000Y-121650000D01*
G75*
G02*
X95740000Y-121500000I0J150000D01*
G01*
X95740000Y-119850000D01*
G75*
G02*
X95890000Y-119700000I150000J0D01*
G01*
G37*
G04 #@! TD.AperFunction*
G04 #@! TA.AperFunction,SMDPad,CuDef*
G36*
G01*
X97160000Y-119700000D02*
X97460000Y-119700000D01*
G75*
G02*
X97610000Y-119850000I0J-150000D01*
G01*
X97610000Y-121500000D01*
G75*
G02*
X97460000Y-121650000I-150000J0D01*
G01*
X97160000Y-121650000D01*
G75*
G02*
X97010000Y-121500000I0J150000D01*
G01*
X97010000Y-119850000D01*
G75*
G02*
X97160000Y-119700000I150000J0D01*
G01*
G37*
G04 #@! TD.AperFunction*
G04 #@! TA.AperFunction,SMDPad,CuDef*
G36*
G01*
X104260000Y-84675000D02*
X103960000Y-84675000D01*
G75*
G02*
X103810000Y-84525000I0J150000D01*
G01*
X103810000Y-82775000D01*
G75*
G02*
X103960000Y-82625000I150000J0D01*
G01*
X104260000Y-82625000D01*
G75*
G02*
X104410000Y-82775000I0J-150000D01*
G01*
X104410000Y-84525000D01*
G75*
G02*
X104260000Y-84675000I-150000J0D01*
G01*
G37*
G04 #@! TD.AperFunction*
G04 #@! TA.AperFunction,SMDPad,CuDef*
G36*
G01*
X105530000Y-84675000D02*
X105230000Y-84675000D01*
G75*
G02*
X105080000Y-84525000I0J150000D01*
G01*
X105080000Y-82775000D01*
G75*
G02*
X105230000Y-82625000I150000J0D01*
G01*
X105530000Y-82625000D01*
G75*
G02*
X105680000Y-82775000I0J-150000D01*
G01*
X105680000Y-84525000D01*
G75*
G02*
X105530000Y-84675000I-150000J0D01*
G01*
G37*
G04 #@! TD.AperFunction*
G04 #@! TA.AperFunction,SMDPad,CuDef*
G36*
G01*
X106800000Y-84675000D02*
X106500000Y-84675000D01*
G75*
G02*
X106350000Y-84525000I0J150000D01*
G01*
X106350000Y-82775000D01*
G75*
G02*
X106500000Y-82625000I150000J0D01*
G01*
X106800000Y-82625000D01*
G75*
G02*
X106950000Y-82775000I0J-150000D01*
G01*
X106950000Y-84525000D01*
G75*
G02*
X106800000Y-84675000I-150000J0D01*
G01*
G37*
G04 #@! TD.AperFunction*
G04 #@! TA.AperFunction,SMDPad,CuDef*
G36*
G01*
X108070000Y-84675000D02*
X107770000Y-84675000D01*
G75*
G02*
X107620000Y-84525000I0J150000D01*
G01*
X107620000Y-82775000D01*
G75*
G02*
X107770000Y-82625000I150000J0D01*
G01*
X108070000Y-82625000D01*
G75*
G02*
X108220000Y-82775000I0J-150000D01*
G01*
X108220000Y-84525000D01*
G75*
G02*
X108070000Y-84675000I-150000J0D01*
G01*
G37*
G04 #@! TD.AperFunction*
G04 #@! TA.AperFunction,SMDPad,CuDef*
G36*
G01*
X109340000Y-84675000D02*
X109040000Y-84675000D01*
G75*
G02*
X108890000Y-84525000I0J150000D01*
G01*
X108890000Y-82775000D01*
G75*
G02*
X109040000Y-82625000I150000J0D01*
G01*
X109340000Y-82625000D01*
G75*
G02*
X109490000Y-82775000I0J-150000D01*
G01*
X109490000Y-84525000D01*
G75*
G02*
X109340000Y-84675000I-150000J0D01*
G01*
G37*
G04 #@! TD.AperFunction*
G04 #@! TA.AperFunction,SMDPad,CuDef*
G36*
G01*
X110610000Y-84675000D02*
X110310000Y-84675000D01*
G75*
G02*
X110160000Y-84525000I0J150000D01*
G01*
X110160000Y-82775000D01*
G75*
G02*
X110310000Y-82625000I150000J0D01*
G01*
X110610000Y-82625000D01*
G75*
G02*
X110760000Y-82775000I0J-150000D01*
G01*
X110760000Y-84525000D01*
G75*
G02*
X110610000Y-84675000I-150000J0D01*
G01*
G37*
G04 #@! TD.AperFunction*
G04 #@! TA.AperFunction,SMDPad,CuDef*
G36*
G01*
X111880000Y-84675000D02*
X111580000Y-84675000D01*
G75*
G02*
X111430000Y-84525000I0J150000D01*
G01*
X111430000Y-82775000D01*
G75*
G02*
X111580000Y-82625000I150000J0D01*
G01*
X111880000Y-82625000D01*
G75*
G02*
X112030000Y-82775000I0J-150000D01*
G01*
X112030000Y-84525000D01*
G75*
G02*
X111880000Y-84675000I-150000J0D01*
G01*
G37*
G04 #@! TD.AperFunction*
G04 #@! TA.AperFunction,SMDPad,CuDef*
G36*
G01*
X113150000Y-84675000D02*
X112850000Y-84675000D01*
G75*
G02*
X112700000Y-84525000I0J150000D01*
G01*
X112700000Y-82775000D01*
G75*
G02*
X112850000Y-82625000I150000J0D01*
G01*
X113150000Y-82625000D01*
G75*
G02*
X113300000Y-82775000I0J-150000D01*
G01*
X113300000Y-84525000D01*
G75*
G02*
X113150000Y-84675000I-150000J0D01*
G01*
G37*
G04 #@! TD.AperFunction*
G04 #@! TA.AperFunction,SMDPad,CuDef*
G36*
G01*
X114420000Y-84675000D02*
X114120000Y-84675000D01*
G75*
G02*
X113970000Y-84525000I0J150000D01*
G01*
X113970000Y-82775000D01*
G75*
G02*
X114120000Y-82625000I150000J0D01*
G01*
X114420000Y-82625000D01*
G75*
G02*
X114570000Y-82775000I0J-150000D01*
G01*
X114570000Y-84525000D01*
G75*
G02*
X114420000Y-84675000I-150000J0D01*
G01*
G37*
G04 #@! TD.AperFunction*
G04 #@! TA.AperFunction,SMDPad,CuDef*
G36*
G01*
X114420000Y-75375000D02*
X114120000Y-75375000D01*
G75*
G02*
X113970000Y-75225000I0J150000D01*
G01*
X113970000Y-73475000D01*
G75*
G02*
X114120000Y-73325000I150000J0D01*
G01*
X114420000Y-73325000D01*
G75*
G02*
X114570000Y-73475000I0J-150000D01*
G01*
X114570000Y-75225000D01*
G75*
G02*
X114420000Y-75375000I-150000J0D01*
G01*
G37*
G04 #@! TD.AperFunction*
G04 #@! TA.AperFunction,SMDPad,CuDef*
G36*
G01*
X113150000Y-75375000D02*
X112850000Y-75375000D01*
G75*
G02*
X112700000Y-75225000I0J150000D01*
G01*
X112700000Y-73475000D01*
G75*
G02*
X112850000Y-73325000I150000J0D01*
G01*
X113150000Y-73325000D01*
G75*
G02*
X113300000Y-73475000I0J-150000D01*
G01*
X113300000Y-75225000D01*
G75*
G02*
X113150000Y-75375000I-150000J0D01*
G01*
G37*
G04 #@! TD.AperFunction*
G04 #@! TA.AperFunction,SMDPad,CuDef*
G36*
G01*
X111880000Y-75375000D02*
X111580000Y-75375000D01*
G75*
G02*
X111430000Y-75225000I0J150000D01*
G01*
X111430000Y-73475000D01*
G75*
G02*
X111580000Y-73325000I150000J0D01*
G01*
X111880000Y-73325000D01*
G75*
G02*
X112030000Y-73475000I0J-150000D01*
G01*
X112030000Y-75225000D01*
G75*
G02*
X111880000Y-75375000I-150000J0D01*
G01*
G37*
G04 #@! TD.AperFunction*
G04 #@! TA.AperFunction,SMDPad,CuDef*
G36*
G01*
X110610000Y-75375000D02*
X110310000Y-75375000D01*
G75*
G02*
X110160000Y-75225000I0J150000D01*
G01*
X110160000Y-73475000D01*
G75*
G02*
X110310000Y-73325000I150000J0D01*
G01*
X110610000Y-73325000D01*
G75*
G02*
X110760000Y-73475000I0J-150000D01*
G01*
X110760000Y-75225000D01*
G75*
G02*
X110610000Y-75375000I-150000J0D01*
G01*
G37*
G04 #@! TD.AperFunction*
G04 #@! TA.AperFunction,SMDPad,CuDef*
G36*
G01*
X109340000Y-75375000D02*
X109040000Y-75375000D01*
G75*
G02*
X108890000Y-75225000I0J150000D01*
G01*
X108890000Y-73475000D01*
G75*
G02*
X109040000Y-73325000I150000J0D01*
G01*
X109340000Y-73325000D01*
G75*
G02*
X109490000Y-73475000I0J-150000D01*
G01*
X109490000Y-75225000D01*
G75*
G02*
X109340000Y-75375000I-150000J0D01*
G01*
G37*
G04 #@! TD.AperFunction*
G04 #@! TA.AperFunction,SMDPad,CuDef*
G36*
G01*
X108070000Y-75375000D02*
X107770000Y-75375000D01*
G75*
G02*
X107620000Y-75225000I0J150000D01*
G01*
X107620000Y-73475000D01*
G75*
G02*
X107770000Y-73325000I150000J0D01*
G01*
X108070000Y-73325000D01*
G75*
G02*
X108220000Y-73475000I0J-150000D01*
G01*
X108220000Y-75225000D01*
G75*
G02*
X108070000Y-75375000I-150000J0D01*
G01*
G37*
G04 #@! TD.AperFunction*
G04 #@! TA.AperFunction,SMDPad,CuDef*
G36*
G01*
X106800000Y-75375000D02*
X106500000Y-75375000D01*
G75*
G02*
X106350000Y-75225000I0J150000D01*
G01*
X106350000Y-73475000D01*
G75*
G02*
X106500000Y-73325000I150000J0D01*
G01*
X106800000Y-73325000D01*
G75*
G02*
X106950000Y-73475000I0J-150000D01*
G01*
X106950000Y-75225000D01*
G75*
G02*
X106800000Y-75375000I-150000J0D01*
G01*
G37*
G04 #@! TD.AperFunction*
G04 #@! TA.AperFunction,SMDPad,CuDef*
G36*
G01*
X105530000Y-75375000D02*
X105230000Y-75375000D01*
G75*
G02*
X105080000Y-75225000I0J150000D01*
G01*
X105080000Y-73475000D01*
G75*
G02*
X105230000Y-73325000I150000J0D01*
G01*
X105530000Y-73325000D01*
G75*
G02*
X105680000Y-73475000I0J-150000D01*
G01*
X105680000Y-75225000D01*
G75*
G02*
X105530000Y-75375000I-150000J0D01*
G01*
G37*
G04 #@! TD.AperFunction*
G04 #@! TA.AperFunction,SMDPad,CuDef*
G36*
G01*
X104260000Y-75375000D02*
X103960000Y-75375000D01*
G75*
G02*
X103810000Y-75225000I0J150000D01*
G01*
X103810000Y-73475000D01*
G75*
G02*
X103960000Y-73325000I150000J0D01*
G01*
X104260000Y-73325000D01*
G75*
G02*
X104410000Y-73475000I0J-150000D01*
G01*
X104410000Y-75225000D01*
G75*
G02*
X104260000Y-75375000I-150000J0D01*
G01*
G37*
G04 #@! TD.AperFunction*
G04 #@! TA.AperFunction,SMDPad,CuDef*
G36*
G01*
X92045000Y-89950000D02*
X91745000Y-89950000D01*
G75*
G02*
X91595000Y-89800000I0J150000D01*
G01*
X91595000Y-88150000D01*
G75*
G02*
X91745000Y-88000000I150000J0D01*
G01*
X92045000Y-88000000D01*
G75*
G02*
X92195000Y-88150000I0J-150000D01*
G01*
X92195000Y-89800000D01*
G75*
G02*
X92045000Y-89950000I-150000J0D01*
G01*
G37*
G04 #@! TD.AperFunction*
G04 #@! TA.AperFunction,SMDPad,CuDef*
G36*
G01*
X93315000Y-89950000D02*
X93015000Y-89950000D01*
G75*
G02*
X92865000Y-89800000I0J150000D01*
G01*
X92865000Y-88150000D01*
G75*
G02*
X93015000Y-88000000I150000J0D01*
G01*
X93315000Y-88000000D01*
G75*
G02*
X93465000Y-88150000I0J-150000D01*
G01*
X93465000Y-89800000D01*
G75*
G02*
X93315000Y-89950000I-150000J0D01*
G01*
G37*
G04 #@! TD.AperFunction*
G04 #@! TA.AperFunction,SMDPad,CuDef*
G36*
G01*
X94585000Y-89950000D02*
X94285000Y-89950000D01*
G75*
G02*
X94135000Y-89800000I0J150000D01*
G01*
X94135000Y-88150000D01*
G75*
G02*
X94285000Y-88000000I150000J0D01*
G01*
X94585000Y-88000000D01*
G75*
G02*
X94735000Y-88150000I0J-150000D01*
G01*
X94735000Y-89800000D01*
G75*
G02*
X94585000Y-89950000I-150000J0D01*
G01*
G37*
G04 #@! TD.AperFunction*
G04 #@! TA.AperFunction,SMDPad,CuDef*
G36*
G01*
X95855000Y-89950000D02*
X95555000Y-89950000D01*
G75*
G02*
X95405000Y-89800000I0J150000D01*
G01*
X95405000Y-88150000D01*
G75*
G02*
X95555000Y-88000000I150000J0D01*
G01*
X95855000Y-88000000D01*
G75*
G02*
X96005000Y-88150000I0J-150000D01*
G01*
X96005000Y-89800000D01*
G75*
G02*
X95855000Y-89950000I-150000J0D01*
G01*
G37*
G04 #@! TD.AperFunction*
G04 #@! TA.AperFunction,SMDPad,CuDef*
G36*
G01*
X95855000Y-85000000D02*
X95555000Y-85000000D01*
G75*
G02*
X95405000Y-84850000I0J150000D01*
G01*
X95405000Y-83200000D01*
G75*
G02*
X95555000Y-83050000I150000J0D01*
G01*
X95855000Y-83050000D01*
G75*
G02*
X96005000Y-83200000I0J-150000D01*
G01*
X96005000Y-84850000D01*
G75*
G02*
X95855000Y-85000000I-150000J0D01*
G01*
G37*
G04 #@! TD.AperFunction*
G04 #@! TA.AperFunction,SMDPad,CuDef*
G36*
G01*
X94585000Y-85000000D02*
X94285000Y-85000000D01*
G75*
G02*
X94135000Y-84850000I0J150000D01*
G01*
X94135000Y-83200000D01*
G75*
G02*
X94285000Y-83050000I150000J0D01*
G01*
X94585000Y-83050000D01*
G75*
G02*
X94735000Y-83200000I0J-150000D01*
G01*
X94735000Y-84850000D01*
G75*
G02*
X94585000Y-85000000I-150000J0D01*
G01*
G37*
G04 #@! TD.AperFunction*
G04 #@! TA.AperFunction,SMDPad,CuDef*
G36*
G01*
X93315000Y-85000000D02*
X93015000Y-85000000D01*
G75*
G02*
X92865000Y-84850000I0J150000D01*
G01*
X92865000Y-83200000D01*
G75*
G02*
X93015000Y-83050000I150000J0D01*
G01*
X93315000Y-83050000D01*
G75*
G02*
X93465000Y-83200000I0J-150000D01*
G01*
X93465000Y-84850000D01*
G75*
G02*
X93315000Y-85000000I-150000J0D01*
G01*
G37*
G04 #@! TD.AperFunction*
G04 #@! TA.AperFunction,SMDPad,CuDef*
G36*
G01*
X92045000Y-85000000D02*
X91745000Y-85000000D01*
G75*
G02*
X91595000Y-84850000I0J150000D01*
G01*
X91595000Y-83200000D01*
G75*
G02*
X91745000Y-83050000I150000J0D01*
G01*
X92045000Y-83050000D01*
G75*
G02*
X92195000Y-83200000I0J-150000D01*
G01*
X92195000Y-84850000D01*
G75*
G02*
X92045000Y-85000000I-150000J0D01*
G01*
G37*
G04 #@! TD.AperFunction*
D33*
X112000000Y-28200000D03*
X114540000Y-28200000D03*
X122160000Y-28200000D03*
X127240000Y-28200000D03*
G04 #@! TA.AperFunction,SMDPad,CuDef*
G36*
G01*
X124100000Y-42447500D02*
X124100000Y-42772500D01*
G75*
G02*
X123937500Y-42935000I-162500J0D01*
G01*
X121912500Y-42935000D01*
G75*
G02*
X121750000Y-42772500I0J162500D01*
G01*
X121750000Y-42447500D01*
G75*
G02*
X121912500Y-42285000I162500J0D01*
G01*
X123937500Y-42285000D01*
G75*
G02*
X124100000Y-42447500I0J-162500D01*
G01*
G37*
G04 #@! TD.AperFunction*
G04 #@! TA.AperFunction,SMDPad,CuDef*
G36*
G01*
X124100000Y-39907500D02*
X124100000Y-40232500D01*
G75*
G02*
X123937500Y-40395000I-162500J0D01*
G01*
X121912500Y-40395000D01*
G75*
G02*
X121750000Y-40232500I0J162500D01*
G01*
X121750000Y-39907500D01*
G75*
G02*
X121912500Y-39745000I162500J0D01*
G01*
X123937500Y-39745000D01*
G75*
G02*
X124100000Y-39907500I0J-162500D01*
G01*
G37*
G04 #@! TD.AperFunction*
G04 #@! TA.AperFunction,SMDPad,CuDef*
G36*
G01*
X124100000Y-37367500D02*
X124100000Y-37692500D01*
G75*
G02*
X123937500Y-37855000I-162500J0D01*
G01*
X121912500Y-37855000D01*
G75*
G02*
X121750000Y-37692500I0J162500D01*
G01*
X121750000Y-37367500D01*
G75*
G02*
X121912500Y-37205000I162500J0D01*
G01*
X123937500Y-37205000D01*
G75*
G02*
X124100000Y-37367500I0J-162500D01*
G01*
G37*
G04 #@! TD.AperFunction*
G04 #@! TA.AperFunction,SMDPad,CuDef*
G36*
G01*
X124100000Y-34827500D02*
X124100000Y-35152500D01*
G75*
G02*
X123937500Y-35315000I-162500J0D01*
G01*
X121912500Y-35315000D01*
G75*
G02*
X121750000Y-35152500I0J162500D01*
G01*
X121750000Y-34827500D01*
G75*
G02*
X121912500Y-34665000I162500J0D01*
G01*
X123937500Y-34665000D01*
G75*
G02*
X124100000Y-34827500I0J-162500D01*
G01*
G37*
G04 #@! TD.AperFunction*
G04 #@! TA.AperFunction,SMDPad,CuDef*
G36*
G01*
X115050000Y-34827500D02*
X115050000Y-35152500D01*
G75*
G02*
X114887500Y-35315000I-162500J0D01*
G01*
X112862500Y-35315000D01*
G75*
G02*
X112700000Y-35152500I0J162500D01*
G01*
X112700000Y-34827500D01*
G75*
G02*
X112862500Y-34665000I162500J0D01*
G01*
X114887500Y-34665000D01*
G75*
G02*
X115050000Y-34827500I0J-162500D01*
G01*
G37*
G04 #@! TD.AperFunction*
G04 #@! TA.AperFunction,SMDPad,CuDef*
G36*
G01*
X115050000Y-37367500D02*
X115050000Y-37692500D01*
G75*
G02*
X114887500Y-37855000I-162500J0D01*
G01*
X112862500Y-37855000D01*
G75*
G02*
X112700000Y-37692500I0J162500D01*
G01*
X112700000Y-37367500D01*
G75*
G02*
X112862500Y-37205000I162500J0D01*
G01*
X114887500Y-37205000D01*
G75*
G02*
X115050000Y-37367500I0J-162500D01*
G01*
G37*
G04 #@! TD.AperFunction*
G04 #@! TA.AperFunction,SMDPad,CuDef*
G36*
G01*
X115050000Y-39907500D02*
X115050000Y-40232500D01*
G75*
G02*
X114887500Y-40395000I-162500J0D01*
G01*
X112862500Y-40395000D01*
G75*
G02*
X112700000Y-40232500I0J162500D01*
G01*
X112700000Y-39907500D01*
G75*
G02*
X112862500Y-39745000I162500J0D01*
G01*
X114887500Y-39745000D01*
G75*
G02*
X115050000Y-39907500I0J-162500D01*
G01*
G37*
G04 #@! TD.AperFunction*
G04 #@! TA.AperFunction,SMDPad,CuDef*
G36*
G01*
X115050000Y-42447500D02*
X115050000Y-42772500D01*
G75*
G02*
X114887500Y-42935000I-162500J0D01*
G01*
X112862500Y-42935000D01*
G75*
G02*
X112700000Y-42772500I0J162500D01*
G01*
X112700000Y-42447500D01*
G75*
G02*
X112862500Y-42285000I162500J0D01*
G01*
X114887500Y-42285000D01*
G75*
G02*
X115050000Y-42447500I0J-162500D01*
G01*
G37*
G04 #@! TD.AperFunction*
G04 #@! TA.AperFunction,SMDPad,CuDef*
D22*
G36*
X122843324Y-81229468D02*
G01*
X121570532Y-79956676D01*
X123055456Y-78471752D01*
X124328248Y-79744544D01*
X122843324Y-81229468D01*
G37*
G04 #@! TD.AperFunction*
G04 #@! TA.AperFunction,SMDPad,CuDef*
G36*
X124893934Y-79178858D02*
G01*
X123621142Y-77906066D01*
X125106066Y-76421142D01*
X126378858Y-77693934D01*
X124893934Y-79178858D01*
G37*
G04 #@! TD.AperFunction*
G04 #@! TA.AperFunction,SMDPad,CuDef*
G36*
X123267588Y-77552512D02*
G01*
X121994796Y-76279720D01*
X123479720Y-74794796D01*
X124752512Y-76067588D01*
X123267588Y-77552512D01*
G37*
G04 #@! TD.AperFunction*
G04 #@! TA.AperFunction,SMDPad,CuDef*
G36*
X121216978Y-79603122D02*
G01*
X119944186Y-78330330D01*
X121429110Y-76845406D01*
X122701902Y-78118198D01*
X121216978Y-79603122D01*
G37*
G04 #@! TD.AperFunction*
D34*
X92000000Y-35000000D03*
X92000000Y-36000000D03*
X93000000Y-35000000D03*
X93000000Y-36000000D03*
X94000000Y-35000000D03*
X94000000Y-36000000D03*
X95000000Y-35000000D03*
X95000000Y-36000000D03*
X96000000Y-35000000D03*
X96000000Y-36000000D03*
X97000000Y-35000000D03*
X97000000Y-36000000D03*
X91000000Y-35000000D03*
X91000000Y-36000000D03*
X115750000Y-36250000D03*
X115500000Y-47500000D03*
X133750000Y-89000000D03*
X118250000Y-68000000D03*
X131000000Y-98000000D03*
X103500000Y-68250000D03*
X103750000Y-78500000D03*
X90500000Y-83750000D03*
X119500000Y-87000000D03*
X127500000Y-110250000D03*
X134750000Y-102500000D03*
X130500000Y-110250000D03*
X137750000Y-111000000D03*
X120750000Y-98750000D03*
X133000000Y-121500000D03*
X87000000Y-107250000D03*
X88250000Y-110250000D03*
X98500000Y-111000000D03*
X105500000Y-118500000D03*
X106000000Y-97250000D03*
X106000000Y-89000000D03*
X106000000Y-93000000D03*
X89750000Y-118000000D03*
X93000000Y-123250000D03*
X132500000Y-114500000D03*
X88750000Y-99500000D03*
X106000000Y-103500000D03*
X127750000Y-74500000D03*
X128500000Y-75250000D03*
X115750000Y-84750000D03*
X130950000Y-81800000D03*
X118100000Y-80800000D03*
X118700000Y-81400000D03*
X91950001Y-93981366D03*
X99300000Y-100000000D03*
X113200000Y-119800000D03*
X113475000Y-104400000D03*
X111400000Y-61550000D03*
X131500000Y-84750000D03*
X131400000Y-102200000D03*
X119500000Y-92250000D03*
X124500000Y-102000000D03*
X110500000Y-108000000D03*
X109250000Y-87250000D03*
X119250000Y-110750000D03*
X114250000Y-92250000D03*
X115000000Y-101250000D03*
X119000000Y-103000000D03*
X120652245Y-106652245D03*
X127750000Y-89250000D03*
X108750000Y-119750000D03*
X112200000Y-117300000D03*
X103250000Y-117750000D03*
X104000000Y-129750000D03*
X113750000Y-94500000D03*
X114250000Y-106750000D03*
X95250000Y-118000000D03*
X113525000Y-102800000D03*
X106750000Y-112000000D03*
X111500000Y-76750000D03*
X113000000Y-63750000D03*
X102500000Y-76750000D03*
X105500000Y-111000000D03*
X105000000Y-33000000D03*
X106000000Y-33000000D03*
X107000000Y-33000000D03*
X107000000Y-32000000D03*
X106000000Y-32000000D03*
X105000000Y-32000000D03*
X105000000Y-31000000D03*
X106000000Y-31000000D03*
X107000000Y-31000000D03*
X107000000Y-30000000D03*
X106000000Y-30000000D03*
X105000000Y-30000000D03*
X105000000Y-29000000D03*
X106000000Y-29000000D03*
X107000000Y-29000000D03*
X107000000Y-28000000D03*
X106000000Y-28000000D03*
X105000000Y-28000000D03*
X105000000Y-27000000D03*
X106000000Y-27000000D03*
X107000000Y-27000000D03*
X113750000Y-47500000D03*
X137000000Y-89000000D03*
X118250000Y-71000000D03*
X130500000Y-93750000D03*
X105500000Y-68250000D03*
X102000000Y-71750000D03*
X136500000Y-102500000D03*
X134750000Y-100250000D03*
X129250000Y-110250000D03*
X94750000Y-102500000D03*
X98250000Y-102500000D03*
X87000000Y-102000000D03*
X98750000Y-123250000D03*
X108750000Y-113500000D03*
X107250000Y-125500000D03*
X110750000Y-125500000D03*
X102200000Y-136300000D03*
X95200000Y-93500000D03*
X105250000Y-76750000D03*
X106500000Y-76750000D03*
X109000000Y-76750000D03*
X109000000Y-78250000D03*
X107250000Y-72500000D03*
X109400000Y-55900000D03*
X131200000Y-59400000D03*
X124750000Y-46750000D03*
X125250000Y-42000000D03*
X83000000Y-60000000D03*
X114250000Y-123250000D03*
X113500000Y-111750000D03*
X112375000Y-101125000D03*
X103750000Y-125250000D03*
X94250000Y-133750000D03*
X120097182Y-127347182D03*
X103200000Y-99950000D03*
X130000000Y-115000000D03*
X131000000Y-76600000D03*
X131000000Y-66900000D03*
X114800000Y-66900000D03*
X95700000Y-68900000D03*
X123750000Y-127500000D03*
X104250000Y-105000000D03*
X104250000Y-94500000D03*
X104250000Y-90500000D03*
X103250000Y-98250000D03*
X89750000Y-81250000D03*
X111750000Y-65750000D03*
X90500000Y-63250000D03*
X129000000Y-71750000D03*
X89750000Y-96000000D03*
X95700000Y-70300000D03*
X115000000Y-134000000D03*
X115000000Y-136500000D03*
X133500000Y-110500000D03*
X119750000Y-100000000D03*
X118250000Y-107500000D03*
X132000000Y-120000000D03*
X128000000Y-115000000D03*
X125250000Y-90000000D03*
X93250000Y-108000000D03*
X92700010Y-113950010D03*
X99000000Y-119000000D03*
X102500000Y-140400000D03*
X126500000Y-90000000D03*
D35*
X127200000Y-68687500D02*
X127187500Y-68687500D01*
X126500000Y-68000000D02*
X125050000Y-68000000D01*
X127187500Y-68687500D02*
X126500000Y-68000000D01*
X125050000Y-68000000D02*
X125050000Y-71000000D01*
X103524999Y-89901999D02*
X107676998Y-85750000D01*
X103524999Y-96705001D02*
X103524999Y-89901999D01*
X101570000Y-98660000D02*
X103524999Y-96705001D01*
X107676998Y-85750000D02*
X119500000Y-85750000D01*
X119975020Y-85274980D02*
X128825020Y-85274980D01*
X119500000Y-85750000D02*
X119975020Y-85274980D01*
X128825020Y-85274980D02*
X129300000Y-84800000D01*
X129300000Y-84800000D02*
X129300000Y-78200000D01*
X129300000Y-78200000D02*
X130200000Y-77300000D01*
X130200000Y-77300000D02*
X130200000Y-74900000D01*
X130200000Y-74900000D02*
X127100000Y-71800000D01*
X125850000Y-71800000D02*
X125050000Y-71000000D01*
X127100000Y-71800000D02*
X125850000Y-71800000D01*
X114490000Y-34990000D02*
X115750000Y-36250000D01*
X113875000Y-34990000D02*
X114490000Y-34990000D01*
X115462500Y-47462500D02*
X115500000Y-47500000D01*
X115462500Y-44800000D02*
X115462500Y-47462500D01*
X108062500Y-89487500D02*
X108000000Y-89550000D01*
X110500000Y-89487500D02*
X108062500Y-89487500D01*
X108175000Y-93500000D02*
X108000000Y-93675000D01*
X110587500Y-93500000D02*
X108175000Y-93500000D01*
X107312500Y-97837500D02*
X107300000Y-97850000D01*
X109400000Y-97837500D02*
X107312500Y-97837500D01*
X111962500Y-106050000D02*
X111912500Y-106100000D01*
X111962500Y-103850000D02*
X111962500Y-106050000D01*
X132687500Y-81750000D02*
X132737500Y-81800000D01*
X132687500Y-79600000D02*
X132687500Y-81750000D01*
X133800000Y-88950000D02*
X133750000Y-89000000D01*
X133800000Y-87250000D02*
X133800000Y-88950000D01*
X121750000Y-68000000D02*
X118250000Y-68000000D01*
X127637500Y-95525000D02*
X129362500Y-97250000D01*
X127637500Y-95000000D02*
X127637500Y-95525000D01*
X130250000Y-97250000D02*
X131000000Y-98000000D01*
X129362500Y-97250000D02*
X130250000Y-97250000D01*
X103500000Y-69975000D02*
X103500000Y-68250000D01*
X100862500Y-78500000D02*
X103750000Y-78500000D01*
X93165000Y-91072500D02*
X92637500Y-91600000D01*
X93165000Y-88975000D02*
X93165000Y-91072500D01*
X90775000Y-84025000D02*
X90500000Y-83750000D01*
X91895000Y-84025000D02*
X90775000Y-84025000D01*
X132737500Y-81800000D02*
X130950000Y-81800000D01*
X119525000Y-87025000D02*
X119500000Y-87000000D01*
X121440000Y-87025000D02*
X119525000Y-87025000D01*
X127637500Y-110112500D02*
X127500000Y-110250000D01*
X127637500Y-107750000D02*
X127637500Y-110112500D01*
X126862500Y-109612500D02*
X127500000Y-110250000D01*
X125250000Y-109612500D02*
X126862500Y-109612500D01*
X123862500Y-111000000D02*
X125250000Y-109612500D01*
X122000000Y-111000000D02*
X123862500Y-111000000D01*
X120750000Y-109750000D02*
X122000000Y-111000000D01*
X120750000Y-109662500D02*
X120750000Y-109750000D01*
X127020000Y-104975000D02*
X125750000Y-104975000D01*
X127020000Y-107132500D02*
X127637500Y-107750000D01*
X127020000Y-104975000D02*
X127020000Y-107132500D01*
X133950000Y-104000000D02*
X134000000Y-104000000D01*
X134000000Y-103250000D02*
X134750000Y-102500000D01*
X134000000Y-104000000D02*
X134000000Y-103250000D01*
X132137500Y-108612500D02*
X130500000Y-110250000D01*
X132137500Y-108000000D02*
X132137500Y-108612500D01*
X136662500Y-109912500D02*
X137750000Y-111000000D01*
X136500000Y-109912500D02*
X136662500Y-109912500D01*
X121940000Y-97722500D02*
X121940000Y-100025000D01*
X122750000Y-96912500D02*
X121940000Y-97722500D01*
X121940000Y-99940000D02*
X120750000Y-98750000D01*
X121940000Y-100025000D02*
X121940000Y-99940000D01*
X134587500Y-123462500D02*
X134550000Y-123500000D01*
X134587500Y-121000000D02*
X134587500Y-123462500D01*
X133500000Y-121000000D02*
X133000000Y-121500000D01*
X134587500Y-121000000D02*
X133500000Y-121000000D01*
X127020000Y-100025000D02*
X128290000Y-100025000D01*
X128290000Y-98322500D02*
X129362500Y-97250000D01*
X128290000Y-100025000D02*
X128290000Y-98322500D01*
X99250000Y-97437500D02*
X99250000Y-99500000D01*
X97800000Y-95987500D02*
X99250000Y-97437500D01*
X86830000Y-107080000D02*
X87000000Y-107250000D01*
X85000000Y-107080000D02*
X86830000Y-107080000D01*
X87437500Y-112192500D02*
X87437500Y-112200000D01*
X89395000Y-109105000D02*
X88250000Y-110250000D01*
X90525000Y-109105000D02*
X89395000Y-109105000D01*
X87437500Y-111062500D02*
X88250000Y-110250000D01*
X87437500Y-112200000D02*
X87437500Y-111062500D01*
X95475000Y-109105000D02*
X95475000Y-107835000D01*
X97927500Y-107835000D02*
X98200000Y-107562500D01*
X95475000Y-107835000D02*
X97927500Y-107835000D01*
X98312500Y-113200000D02*
X98312500Y-113062500D01*
X98200000Y-110700000D02*
X98500000Y-111000000D01*
X98200000Y-107562500D02*
X98200000Y-110700000D01*
X98312500Y-111187500D02*
X98500000Y-111000000D01*
X98312500Y-113200000D02*
X98312500Y-111187500D01*
X105650000Y-118650000D02*
X105500000Y-118500000D01*
X105650000Y-121400000D02*
X105650000Y-118650000D01*
X111962500Y-103850000D02*
X112100000Y-103850000D01*
X107900000Y-104000000D02*
X107900000Y-104275001D01*
X89690000Y-117940000D02*
X89750000Y-118000000D01*
X89690000Y-115725000D02*
X89690000Y-117940000D01*
X96040000Y-120675000D02*
X94770000Y-120675000D01*
X96040000Y-122697500D02*
X95537500Y-123200000D01*
X96040000Y-120675000D02*
X96040000Y-122697500D01*
X93050000Y-123200000D02*
X93000000Y-123250000D01*
X95537500Y-123200000D02*
X93050000Y-123200000D01*
X92230000Y-120675000D02*
X90960000Y-120675000D01*
X92230000Y-122480000D02*
X93000000Y-123250000D01*
X92230000Y-120675000D02*
X92230000Y-122480000D01*
X132000000Y-114000000D02*
X132500000Y-114500000D01*
X132000000Y-112950000D02*
X132000000Y-114000000D01*
X89550000Y-100300000D02*
X88750000Y-99500000D01*
X91300000Y-100300000D02*
X89550000Y-100300000D01*
X106550000Y-89550000D02*
X106000000Y-89000000D01*
X108000000Y-89550000D02*
X106550000Y-89550000D01*
X106675000Y-93675000D02*
X106000000Y-93000000D01*
X108000000Y-93675000D02*
X106675000Y-93675000D01*
X106600000Y-97850000D02*
X106000000Y-97250000D01*
X107300000Y-97850000D02*
X106600000Y-97850000D01*
X106500000Y-104000000D02*
X106000000Y-103500000D01*
X107900000Y-104000000D02*
X106500000Y-104000000D01*
X114650000Y-83650000D02*
X115750000Y-84750000D01*
X114270000Y-83650000D02*
X114650000Y-83650000D01*
X130950000Y-81800000D02*
X130950000Y-81800000D01*
X92637500Y-93293867D02*
X91950001Y-93981366D01*
X92637500Y-91600000D02*
X92637500Y-93293867D01*
X99250000Y-99950000D02*
X99300000Y-100000000D01*
X99250000Y-99500000D02*
X99250000Y-99950000D01*
X112350000Y-120650000D02*
X113200000Y-119800000D01*
X112350000Y-121200000D02*
X112350000Y-120650000D01*
X112925000Y-103850000D02*
X113475000Y-104400000D01*
X111962500Y-103850000D02*
X112925000Y-103850000D01*
X111400000Y-59912500D02*
X111400000Y-61550000D01*
X137000000Y-81712500D02*
X137200000Y-81512500D01*
X137000000Y-83950000D02*
X137000000Y-81712500D01*
X134750000Y-81512500D02*
X134462500Y-81800000D01*
X137200000Y-81512500D02*
X134750000Y-81512500D01*
X134462500Y-83287500D02*
X133800000Y-83950000D01*
X134462500Y-81800000D02*
X134462500Y-83287500D01*
X132300000Y-83950000D02*
X131500000Y-84750000D01*
X133800000Y-83950000D02*
X132300000Y-83950000D01*
X124480000Y-104000000D02*
X124480000Y-104975000D01*
X126230000Y-102250000D02*
X124480000Y-104000000D01*
X129000000Y-102250000D02*
X126230000Y-102250000D01*
X124480000Y-107117500D02*
X124480000Y-104975000D01*
X125250000Y-107887500D02*
X124480000Y-107117500D01*
X103524999Y-105348001D02*
X103524999Y-102475001D01*
X105077008Y-106900010D02*
X103524999Y-105348001D01*
X112445500Y-106900010D02*
X105077008Y-106900010D01*
X119045001Y-105154999D02*
X114190511Y-105154999D01*
X114190511Y-105154999D02*
X112445500Y-106900010D01*
X119700000Y-104500000D02*
X119045001Y-105154999D01*
X102249998Y-101200000D02*
X101570000Y-101200000D01*
X103524999Y-102475001D02*
X102249998Y-101200000D01*
X120250000Y-103000000D02*
X119700000Y-103550000D01*
X123000000Y-102250000D02*
X122250000Y-103000000D01*
X119700000Y-103550000D02*
X119700000Y-104500000D01*
X123250000Y-102250000D02*
X123000000Y-102250000D01*
X122250000Y-103000000D02*
X120250000Y-103000000D01*
X124480000Y-103480000D02*
X123250000Y-102250000D01*
X124480000Y-104975000D02*
X124480000Y-103480000D01*
X131350000Y-102250000D02*
X131400000Y-102200000D01*
X129000000Y-102250000D02*
X131350000Y-102250000D01*
X124500000Y-100045000D02*
X124480000Y-100025000D01*
X124500000Y-102000000D02*
X124500000Y-100045000D01*
X112737500Y-89487500D02*
X112500000Y-89487500D01*
X115500000Y-92250000D02*
X112737500Y-89487500D01*
X119500000Y-92250000D02*
X115500000Y-92250000D01*
X122710000Y-87025000D02*
X123980000Y-87025000D01*
X97800000Y-99762500D02*
X97462500Y-100100000D01*
X97800000Y-97712500D02*
X97800000Y-99762500D01*
X97930000Y-100100000D02*
X101570000Y-103740000D01*
X97462500Y-100100000D02*
X97930000Y-100100000D01*
X101570000Y-103740000D02*
X102750000Y-104920000D01*
X102750000Y-104920000D02*
X102750000Y-105000000D01*
X102750000Y-105000000D02*
X102750000Y-105750000D01*
X105000000Y-108000000D02*
X110500000Y-108000000D01*
X102750000Y-105750000D02*
X105000000Y-108000000D01*
X109250000Y-87250000D02*
X117500000Y-87250000D01*
X117500000Y-87250000D02*
X119250000Y-89000000D01*
X119250000Y-89000000D02*
X121750000Y-89000000D01*
X122710000Y-88040000D02*
X122710000Y-87025000D01*
X121750000Y-89000000D02*
X122710000Y-88040000D01*
X119250000Y-108054490D02*
X119250000Y-110750000D01*
X121314990Y-103953242D02*
X121314990Y-105989500D01*
X121593242Y-103674990D02*
X121314990Y-103953242D01*
X122884990Y-103674990D02*
X121593242Y-103674990D01*
X123210000Y-104000000D02*
X122884990Y-103674990D01*
X123210000Y-104975000D02*
X123210000Y-104000000D01*
X114250000Y-92945510D02*
X114250000Y-92250000D01*
X112412500Y-94783010D02*
X114250000Y-92945510D01*
X112412500Y-95750000D02*
X112412500Y-94783010D01*
X116075001Y-102325001D02*
X118075001Y-102325001D01*
X115000000Y-101250000D02*
X116075001Y-102325001D01*
X118325001Y-102325001D02*
X119000000Y-103000000D01*
X118075001Y-102325001D02*
X118325001Y-102325001D01*
X120652245Y-106652245D02*
X119250000Y-108054490D01*
X121314990Y-105989500D02*
X120652245Y-106652245D01*
X129060000Y-87025000D02*
X127790000Y-87025000D01*
X127790000Y-89210000D02*
X127750000Y-89250000D01*
X127790000Y-87025000D02*
X127790000Y-89210000D01*
X112462500Y-127050000D02*
X112512500Y-127000000D01*
X112512500Y-124762500D02*
X112512500Y-127000000D01*
X112250000Y-124500000D02*
X112512500Y-124762500D01*
X110504490Y-124500000D02*
X112250000Y-124500000D01*
X109475001Y-123470511D02*
X110504490Y-124500000D01*
X109475001Y-116725001D02*
X109475001Y-123470511D01*
X109475001Y-116725001D02*
X107750000Y-115000000D01*
X107750000Y-115000000D02*
X107750000Y-111000000D01*
X105570000Y-108820000D02*
X101570000Y-108820000D01*
X107750000Y-111000000D02*
X105570000Y-108820000D01*
X129250000Y-133570000D02*
X130680000Y-135000000D01*
X129250000Y-131250000D02*
X129250000Y-133570000D01*
X126750000Y-128750000D02*
X129250000Y-131250000D01*
X112512500Y-128750000D02*
X126750000Y-128750000D01*
X130680000Y-136820000D02*
X127000000Y-140500000D01*
X130680000Y-135000000D02*
X130680000Y-136820000D01*
X112512500Y-128750000D02*
X112462500Y-128800000D01*
X112512500Y-127000000D02*
X112512500Y-128750000D01*
X116810000Y-108820000D02*
X116680000Y-108820000D01*
X116680000Y-108820000D02*
X116610000Y-108750000D01*
X116610000Y-108750000D02*
X114750000Y-108750000D01*
X114750000Y-108750000D02*
X112312500Y-111187500D01*
X112312500Y-113400000D02*
X112312500Y-115400000D01*
X108750000Y-120200000D02*
X107550000Y-121400000D01*
X108750000Y-119750000D02*
X108750000Y-120200000D01*
X112312500Y-111187500D02*
X112312500Y-113400000D01*
X112312500Y-117187500D02*
X112200000Y-117300000D01*
X112312500Y-115400000D02*
X112312500Y-117187500D01*
X105487500Y-128750000D02*
X105537500Y-128800000D01*
X105487500Y-127000000D02*
X105487500Y-128750000D01*
X105537500Y-128800000D02*
X104950000Y-128800000D01*
X97090000Y-117750000D02*
X103250000Y-117750000D01*
X96040000Y-116700000D02*
X97090000Y-117750000D01*
X96040000Y-115725000D02*
X96040000Y-116700000D01*
X104000000Y-129750000D02*
X100000000Y-133750000D01*
X104950000Y-128800000D02*
X104000000Y-129750000D01*
X98350000Y-135400000D02*
X98500000Y-135250000D01*
X89800000Y-136200000D02*
X90600000Y-135400000D01*
X90600000Y-135400000D02*
X98350000Y-135400000D01*
X89800000Y-138450000D02*
X89800000Y-136200000D01*
X89500000Y-138750000D02*
X89800000Y-138450000D01*
X98500000Y-135250000D02*
X100000000Y-133750000D01*
X113750000Y-96012500D02*
X113750000Y-94500000D01*
X111925000Y-97837500D02*
X113750000Y-96012500D01*
X111450000Y-97837500D02*
X111925000Y-97837500D01*
X116340000Y-106750000D02*
X116810000Y-106280000D01*
X114250000Y-106750000D02*
X116340000Y-106750000D01*
X93530000Y-118000000D02*
X95250000Y-118000000D01*
X92230000Y-116700000D02*
X93530000Y-118000000D01*
X92230000Y-115725000D02*
X92230000Y-116700000D01*
X113525000Y-102800000D02*
X114240000Y-103515000D01*
X116585000Y-103515000D02*
X116810000Y-103740000D01*
X114240000Y-103515000D02*
X116585000Y-103515000D01*
X106010000Y-112000000D02*
X106750000Y-112000000D01*
X101570000Y-116440000D02*
X106010000Y-112000000D01*
X112000000Y-56150000D02*
X113000000Y-57150000D01*
X112000000Y-40500000D02*
X112000000Y-56150000D01*
X113000000Y-57150000D02*
X113000000Y-63750000D01*
X112430000Y-40070000D02*
X112000000Y-40500000D01*
X113875000Y-40070000D02*
X112430000Y-40070000D01*
X103725001Y-112774999D02*
X105500000Y-111000000D01*
X100260001Y-112774999D02*
X103725001Y-112774999D01*
X97310000Y-115725000D02*
X100260001Y-112774999D01*
X94000000Y-68000000D02*
X94000000Y-66912500D01*
X94000000Y-72200000D02*
X94000000Y-68000000D01*
X94800000Y-73000000D02*
X94000000Y-72200000D01*
X101500000Y-73000000D02*
X94800000Y-73000000D01*
X102500000Y-74000000D02*
X101500000Y-73000000D01*
X102500000Y-76750000D02*
X102500000Y-74000000D01*
X113875000Y-42610000D02*
X114390000Y-42610000D01*
X113875000Y-44662500D02*
X113737500Y-44800000D01*
X113875000Y-42610000D02*
X113875000Y-44662500D01*
X113737500Y-47487500D02*
X113750000Y-47500000D01*
X113737500Y-44800000D02*
X113737500Y-47487500D01*
X137000000Y-87250000D02*
X137000000Y-89000000D01*
X121750000Y-71000000D02*
X118250000Y-71000000D01*
X129060000Y-94697500D02*
X129362500Y-95000000D01*
X129060000Y-91975000D02*
X129060000Y-94697500D01*
X129362500Y-94887500D02*
X130500000Y-93750000D01*
X129362500Y-95000000D02*
X129362500Y-94887500D01*
X105600000Y-68350000D02*
X105500000Y-68250000D01*
X105600000Y-69887500D02*
X105600000Y-68350000D01*
X102050000Y-71700000D02*
X102000000Y-71750000D01*
X103500000Y-71700000D02*
X102050000Y-71700000D01*
X103500000Y-73740000D02*
X104110000Y-74350000D01*
X103500000Y-71700000D02*
X103500000Y-73740000D01*
X94435000Y-91527500D02*
X94362500Y-91600000D01*
X94435000Y-88975000D02*
X94435000Y-91527500D01*
X136500000Y-104087500D02*
X136500000Y-102500000D01*
X134687500Y-100187500D02*
X134750000Y-100250000D01*
X133100000Y-100187500D02*
X134687500Y-100187500D01*
X129560000Y-107552500D02*
X129362500Y-107750000D01*
X129560000Y-104975000D02*
X129560000Y-107552500D01*
X129362500Y-110137500D02*
X129250000Y-110250000D01*
X129362500Y-107750000D02*
X129362500Y-110137500D01*
X95462500Y-95850000D02*
X95550000Y-95937500D01*
X93212500Y-95850000D02*
X95462500Y-95850000D01*
X94250000Y-103000000D02*
X94750000Y-102500000D01*
X91912500Y-103000000D02*
X94250000Y-103000000D01*
X97657500Y-105295000D02*
X98200000Y-105837500D01*
X95475000Y-105295000D02*
X97657500Y-105295000D01*
X98200000Y-102550000D02*
X98250000Y-102500000D01*
X98200000Y-105837500D02*
X98200000Y-102550000D01*
X85000000Y-102000000D02*
X87000000Y-102000000D01*
X97310000Y-123152500D02*
X97262500Y-123200000D01*
X97310000Y-120675000D02*
X97310000Y-123152500D01*
X98700000Y-123200000D02*
X98750000Y-123250000D01*
X97262500Y-123200000D02*
X98700000Y-123200000D01*
X108850000Y-113400000D02*
X108750000Y-113500000D01*
X110487500Y-113400000D02*
X108850000Y-113400000D01*
X107262500Y-127050000D02*
X107312500Y-127000000D01*
X107262500Y-128800000D02*
X107262500Y-127050000D01*
X107312500Y-125562500D02*
X107250000Y-125500000D01*
X107312500Y-127000000D02*
X107312500Y-125562500D01*
X110737500Y-127050000D02*
X110687500Y-127000000D01*
X110737500Y-128800000D02*
X110737500Y-127050000D01*
X110687500Y-125562500D02*
X110750000Y-125500000D01*
X110687500Y-127000000D02*
X110687500Y-125562500D01*
X104212500Y-138312500D02*
X102200000Y-136300000D01*
X105200000Y-138312500D02*
X104212500Y-138312500D01*
X94362500Y-92662500D02*
X95200000Y-93500000D01*
X94362500Y-91600000D02*
X94362500Y-92662500D01*
X95550000Y-93850000D02*
X95200000Y-93500000D01*
X95550000Y-95937500D02*
X95550000Y-93850000D01*
X105380000Y-76620000D02*
X105250000Y-76750000D01*
X105380000Y-74350000D02*
X105380000Y-76620000D01*
X106650000Y-76600000D02*
X106500000Y-76750000D01*
X106650000Y-74350000D02*
X106650000Y-76600000D01*
X105600000Y-71712500D02*
X105600000Y-72350000D01*
X106650000Y-73400000D02*
X106650000Y-74350000D01*
X105600000Y-72350000D02*
X106650000Y-73400000D01*
X109387500Y-71712500D02*
X109600000Y-71500000D01*
X105600000Y-71712500D02*
X109387500Y-71712500D01*
X109190000Y-76560000D02*
X109000000Y-76750000D01*
X109190000Y-74350000D02*
X109190000Y-76560000D01*
X109190000Y-74350000D02*
X109190000Y-73810000D01*
X111750000Y-71250000D02*
X111750000Y-69650000D01*
X111750000Y-69650000D02*
X112600000Y-68800000D01*
X109190000Y-73810000D02*
X111750000Y-71250000D01*
X107920000Y-77170000D02*
X109000000Y-78250000D01*
X107920000Y-74350000D02*
X107920000Y-77170000D01*
X107920000Y-73170000D02*
X107250000Y-72500000D01*
X107920000Y-74350000D02*
X107920000Y-73170000D01*
X112285000Y-71500000D02*
X113700000Y-71500000D01*
X110460000Y-73325000D02*
X112285000Y-71500000D01*
X110460000Y-74350000D02*
X110460000Y-73325000D01*
X107275010Y-85334990D02*
X101570000Y-91040000D01*
X107275010Y-82598222D02*
X107275010Y-85334990D01*
X110460000Y-79413232D02*
X107275010Y-82598222D01*
X110460000Y-74350000D02*
X110460000Y-79413232D01*
D36*
X86000000Y-45700000D02*
X86000000Y-52500000D01*
X134025000Y-59400000D02*
X131200000Y-59400000D01*
X93700000Y-53900000D02*
X95700000Y-55900000D01*
X95700000Y-55900000D02*
X109400000Y-55900000D01*
X87400000Y-53900000D02*
X93700000Y-53900000D01*
X86000000Y-52500000D02*
X87400000Y-53900000D01*
X103395000Y-45600000D02*
X100500000Y-42705000D01*
D35*
X103537500Y-45600000D02*
X103395000Y-45600000D01*
X113550000Y-99712500D02*
X113287500Y-99712500D01*
X110137500Y-106050000D02*
X110187500Y-106100000D01*
X110137500Y-103850000D02*
X110137500Y-106050000D01*
X108100000Y-106100000D02*
X107900000Y-105900000D01*
X110187500Y-106100000D02*
X108100000Y-106100000D01*
X113550000Y-99712500D02*
X113550000Y-101200000D01*
X113550000Y-101200000D02*
X112000000Y-102750000D01*
X111237500Y-102750000D02*
X110137500Y-103850000D01*
X112000000Y-102750000D02*
X111237500Y-102750000D01*
X127637500Y-97250000D02*
X126750000Y-97250000D01*
X126412500Y-96912500D02*
X125250000Y-96912500D01*
X126750000Y-97250000D02*
X126412500Y-96912500D01*
X125250000Y-96912500D02*
X125250000Y-97750000D01*
X125750000Y-98250000D02*
X125750000Y-100025000D01*
X125250000Y-97750000D02*
X125750000Y-98250000D01*
X133862500Y-106862500D02*
X133862500Y-108000000D01*
X133000000Y-106000000D02*
X133862500Y-106862500D01*
X136412500Y-108000000D02*
X136500000Y-108087500D01*
X133862500Y-108000000D02*
X136412500Y-108000000D01*
X136500000Y-105912500D02*
X136500000Y-108087500D01*
X136500000Y-108087500D02*
X135250000Y-109337500D01*
X135250000Y-109337500D02*
X135250000Y-111000000D01*
X135250000Y-111000000D02*
X136500000Y-112250000D01*
X94200000Y-110535000D02*
X94200000Y-111287500D01*
X91500000Y-107835000D02*
X94200000Y-110535000D01*
X90525000Y-107835000D02*
X91500000Y-107835000D01*
X91475000Y-111287500D02*
X90562500Y-112200000D01*
X94200000Y-111287500D02*
X91475000Y-111287500D01*
X89262500Y-113500000D02*
X90562500Y-112200000D01*
X87750000Y-113500000D02*
X89262500Y-113500000D01*
X85000000Y-116250000D02*
X87750000Y-113500000D01*
X101000000Y-76412500D02*
X98650000Y-76412500D01*
X98650000Y-76412500D02*
X98650000Y-77150000D01*
X99137500Y-77637500D02*
X99137500Y-78500000D01*
X98650000Y-77150000D02*
X99137500Y-77637500D01*
X98650000Y-80587500D02*
X98650000Y-79850000D01*
X99137500Y-79362500D02*
X99137500Y-78500000D01*
X98650000Y-79850000D02*
X99137500Y-79362500D01*
X98650000Y-80587500D02*
X101000000Y-80587500D01*
X124900000Y-46600000D02*
X124750000Y-46750000D01*
X127400000Y-46600000D02*
X124900000Y-46600000D01*
X124662500Y-46662500D02*
X124750000Y-46750000D01*
X124662500Y-44800000D02*
X124662500Y-46662500D01*
X126250000Y-37737500D02*
X126200000Y-37687500D01*
X128400000Y-37737500D02*
X126250000Y-37737500D01*
X123082500Y-37687500D02*
X122925000Y-37530000D01*
X126200000Y-37687500D02*
X123082500Y-37687500D01*
X122925000Y-37530000D02*
X122925000Y-34990000D01*
X122925000Y-28965000D02*
X122160000Y-28200000D01*
X122925000Y-34990000D02*
X122925000Y-28965000D01*
X122925000Y-40070000D02*
X124180000Y-40070000D01*
X124737500Y-39512500D02*
X126200000Y-39512500D01*
X124180000Y-40070000D02*
X124737500Y-39512500D01*
X128350000Y-39512500D02*
X128400000Y-39462500D01*
X126200000Y-39512500D02*
X128350000Y-39512500D01*
X128400000Y-39462500D02*
X129537500Y-39462500D01*
X129537500Y-39462500D02*
X130250000Y-38750000D01*
X130250000Y-36200000D02*
X129450000Y-35400000D01*
X130250000Y-38750000D02*
X130250000Y-36200000D01*
X122937500Y-42622500D02*
X122925000Y-42610000D01*
X122937500Y-44800000D02*
X122937500Y-42622500D01*
X124640000Y-42610000D02*
X125250000Y-42000000D01*
X122925000Y-42610000D02*
X124640000Y-42610000D01*
D36*
X81250000Y-51050000D02*
X83600000Y-48700000D01*
X81250000Y-81250000D02*
X81250000Y-51050000D01*
X83000000Y-83000000D02*
X81250000Y-81250000D01*
D37*
X86400000Y-60000000D02*
X83000000Y-60000000D01*
X95600000Y-132400000D02*
X99000000Y-129000000D01*
X99000000Y-129000000D02*
X102750000Y-129000000D01*
X102750000Y-129000000D02*
X103750000Y-128000000D01*
X103750000Y-128000000D02*
X103750000Y-125250000D01*
X112362500Y-123250000D02*
X112312500Y-123200000D01*
X112250000Y-101250000D02*
X104500000Y-101250000D01*
X112500000Y-98937500D02*
X112500000Y-101000000D01*
X113550000Y-97887500D02*
X112500000Y-98937500D01*
X114250000Y-123250000D02*
X112362500Y-123250000D01*
X114725001Y-122774999D02*
X114725001Y-112774999D01*
X114250000Y-123250000D02*
X114725001Y-122774999D01*
X113700002Y-111750000D02*
X113500000Y-111750000D01*
X114725001Y-112774999D02*
X113700002Y-111750000D01*
X112375000Y-101125000D02*
X112250000Y-101250000D01*
X112500000Y-101000000D02*
X112375000Y-101125000D01*
X114250000Y-126750000D02*
X115500000Y-128000000D01*
X114250000Y-125137500D02*
X114250000Y-126750000D01*
X112312500Y-123200000D02*
X114250000Y-125137500D01*
X103750000Y-125250000D02*
X103750000Y-125250000D01*
X95600000Y-132400000D02*
X94250000Y-133750000D01*
X119444364Y-128000000D02*
X120097182Y-127347182D01*
X115500000Y-128000000D02*
X119444364Y-128000000D01*
X89800000Y-56000000D02*
X89800000Y-56200000D01*
X86400000Y-60000000D02*
X87400000Y-60000000D01*
X89800000Y-57600000D02*
X89800000Y-56000000D01*
X87400000Y-60000000D02*
X89800000Y-57600000D01*
X90900000Y-56000000D02*
X89800000Y-56000000D01*
X91300000Y-56400000D02*
X90900000Y-56000000D01*
X91300000Y-58600000D02*
X91300000Y-56400000D01*
X93900000Y-61200000D02*
X91300000Y-58600000D01*
X103200000Y-99950000D02*
X104500000Y-101250000D01*
D36*
X99300000Y-60050000D02*
X99300000Y-61200000D01*
X97450000Y-58200000D02*
X99300000Y-60050000D01*
D35*
X98400000Y-62100000D02*
X99300000Y-61200000D01*
D36*
X98400000Y-66000000D02*
X98400000Y-62100000D01*
X95000000Y-58200000D02*
X92800000Y-56000000D01*
X97450000Y-58200000D02*
X95000000Y-58200000D01*
D35*
X105200000Y-131050000D02*
X105200000Y-132525000D01*
X105750000Y-130500000D02*
X105200000Y-131050000D01*
X109000000Y-129500000D02*
X108000000Y-130500000D01*
X109000000Y-125800000D02*
X109000000Y-129500000D01*
X108000000Y-130500000D02*
X105750000Y-130500000D01*
X106600000Y-123400000D02*
X109000000Y-125800000D01*
X105200000Y-136487500D02*
X105200000Y-134275000D01*
X137000000Y-59400000D02*
X137150000Y-59400000D01*
D36*
X137150000Y-59400000D02*
X138750000Y-61000000D01*
X138750000Y-66750000D02*
X137000000Y-68500000D01*
X138750000Y-61000000D02*
X138750000Y-66750000D01*
X129200000Y-114200000D02*
X129200000Y-112720000D01*
X130000000Y-115000000D02*
X129200000Y-114200000D01*
X130887500Y-115000000D02*
X131987500Y-116100000D01*
X130000000Y-115000000D02*
X130887500Y-115000000D01*
X114800000Y-66900000D02*
X101400000Y-66900000D01*
X99400000Y-68900000D02*
X101400000Y-66900000D01*
X95700000Y-68900000D02*
X99400000Y-68900000D01*
X123750000Y-123850000D02*
X122900000Y-123000000D01*
X123750000Y-127500000D02*
X123750000Y-123850000D01*
D35*
X104300000Y-104950000D02*
X104250000Y-105000000D01*
X105900000Y-104950000D02*
X104300000Y-104950000D01*
X104375000Y-94625000D02*
X104250000Y-94500000D01*
X106000000Y-94625000D02*
X104375000Y-94625000D01*
X106000000Y-90500000D02*
X104250000Y-90500000D01*
X104750000Y-98250000D02*
X105300000Y-98800000D01*
X103250000Y-98250000D02*
X104750000Y-98250000D01*
X92500000Y-79400000D02*
X90600000Y-79400000D01*
X90000000Y-80000000D02*
X86000000Y-80000000D01*
X90600000Y-79400000D02*
X90000000Y-80000000D01*
X93165000Y-80065000D02*
X93165000Y-84025000D01*
X92500000Y-79400000D02*
X93165000Y-80065000D01*
X84500000Y-78500000D02*
X86000000Y-80000000D01*
X84500000Y-75500000D02*
X84500000Y-78500000D01*
X86000000Y-74000000D02*
X84500000Y-75500000D01*
X92500000Y-75400000D02*
X91600000Y-75400000D01*
X90000000Y-77000000D02*
X86000000Y-77000000D01*
X91600000Y-75400000D02*
X90000000Y-77000000D01*
X94435000Y-83050000D02*
X94435000Y-84025000D01*
X93675001Y-82290001D02*
X94435000Y-83050000D01*
X93675001Y-76575001D02*
X93675001Y-82290001D01*
X92500000Y-75400000D02*
X93675001Y-76575001D01*
X91300000Y-95937500D02*
X91387500Y-95850000D01*
X91300000Y-98400000D02*
X91300000Y-95937500D01*
X91387500Y-95850000D02*
X91387500Y-95137500D01*
X91387500Y-95137500D02*
X88750000Y-92500000D01*
X88750000Y-82250000D02*
X89750000Y-81250000D01*
X88750000Y-92500000D02*
X88750000Y-82250000D01*
X137000000Y-79487500D02*
X137200000Y-79687500D01*
X137000000Y-74500000D02*
X137000000Y-79487500D01*
X134600000Y-79687500D02*
X134512500Y-79600000D01*
X137200000Y-79687500D02*
X134600000Y-79687500D01*
X137000000Y-74500000D02*
X135500000Y-76000000D01*
X135500000Y-76000000D02*
X132500000Y-76000000D01*
X132500000Y-76000000D02*
X130000000Y-73500000D01*
X130000000Y-73500000D02*
X130000000Y-68500000D01*
X111774999Y-65725001D02*
X111750000Y-65750000D01*
X127225001Y-65725001D02*
X111774999Y-65725001D01*
X130000000Y-68500000D02*
X127225001Y-65725001D01*
X87750000Y-63250000D02*
X86000000Y-65000000D01*
X90500000Y-63250000D02*
X87750000Y-63250000D01*
X128437500Y-71750000D02*
X127200000Y-70512500D01*
X129000000Y-71750000D02*
X128437500Y-71750000D01*
D36*
X134000000Y-65500000D02*
X132000000Y-67500000D01*
X132000000Y-67500000D02*
X132000000Y-72500000D01*
X132000000Y-72500000D02*
X134000000Y-74500000D01*
X134000000Y-71500000D02*
X134000000Y-68500000D01*
D35*
X134800000Y-42200000D02*
X130400000Y-46600000D01*
X134800000Y-40750000D02*
X134800000Y-42200000D01*
X95700000Y-70300000D02*
X95000000Y-70300000D01*
X95000000Y-70300000D02*
X94700000Y-70000000D01*
X94700000Y-68650000D02*
X96400000Y-66950000D01*
X94700000Y-70000000D02*
X94700000Y-68650000D01*
D37*
X116280000Y-132720000D02*
X115000000Y-134000000D01*
X117000000Y-132720000D02*
X116280000Y-132720000D01*
D35*
X115000000Y-138150000D02*
X112750000Y-140400000D01*
X115000000Y-136500000D02*
X115000000Y-138150000D01*
D37*
X92600000Y-130200000D02*
X87750000Y-135050000D01*
X87750000Y-135050000D02*
X87750000Y-142750000D01*
X87750000Y-142750000D02*
X88750000Y-143750000D01*
X88750000Y-143750000D02*
X91500000Y-143750000D01*
X91500000Y-143750000D02*
X92500000Y-142750000D01*
X92500000Y-142750000D02*
X92500000Y-141750000D01*
X124680000Y-135000000D02*
X127680000Y-132000000D01*
X110700000Y-135000000D02*
X124680000Y-135000000D01*
D35*
X98400000Y-84550000D02*
X101700000Y-84550000D01*
X102600000Y-83650000D02*
X104110000Y-83650000D01*
X101700000Y-84550000D02*
X102600000Y-83650000D01*
X91895000Y-88975000D02*
X91895000Y-87105000D01*
X93150000Y-85850000D02*
X98400000Y-85850000D01*
X91895000Y-87105000D02*
X93150000Y-85850000D01*
X89800000Y-91070000D02*
X91895000Y-88975000D01*
X89800000Y-91800000D02*
X89800000Y-91070000D01*
X105380000Y-84675000D02*
X105380000Y-83650000D01*
X101905000Y-88150000D02*
X105380000Y-84675000D01*
X98400000Y-88150000D02*
X101905000Y-88150000D01*
X95705000Y-88975000D02*
X96225000Y-88975000D01*
X96700000Y-89450000D02*
X98400000Y-89450000D01*
X96225000Y-88975000D02*
X96700000Y-89450000D01*
X96500000Y-91350000D02*
X98400000Y-89450000D01*
X96500000Y-92300000D02*
X96500000Y-91350000D01*
X101000000Y-82412500D02*
X98650000Y-82412500D01*
X98052500Y-82412500D02*
X95040000Y-79400000D01*
X98650000Y-82412500D02*
X98052500Y-82412500D01*
X101000000Y-74587500D02*
X98650000Y-74587500D01*
X95852500Y-74587500D02*
X95040000Y-75400000D01*
X98650000Y-74587500D02*
X95852500Y-74587500D01*
X112500000Y-91312500D02*
X110500000Y-91312500D01*
X108137500Y-91312500D02*
X108000000Y-91450000D01*
X110500000Y-91312500D02*
X108137500Y-91312500D01*
X112412500Y-93925000D02*
X110587500Y-95750000D01*
X112412500Y-93500000D02*
X112412500Y-93925000D01*
X108175000Y-95750000D02*
X108000000Y-95575000D01*
X110587500Y-95750000D02*
X108175000Y-95750000D01*
X109312500Y-99750000D02*
X109400000Y-99662500D01*
X107300000Y-99750000D02*
X109312500Y-99750000D01*
X111450000Y-99662500D02*
X109400000Y-99662500D01*
X120750000Y-107837500D02*
X123000000Y-107837500D01*
X132950000Y-111050000D02*
X133500000Y-110500000D01*
X132000000Y-111050000D02*
X132950000Y-111050000D01*
X119949990Y-108637510D02*
X120750000Y-107837500D01*
X119949990Y-110145500D02*
X119949990Y-108637510D01*
X131599990Y-111450010D02*
X121254500Y-111450010D01*
X121254500Y-111450010D02*
X119949990Y-110145500D01*
X132000000Y-111050000D02*
X131599990Y-111450010D01*
X134000000Y-115912500D02*
X133812500Y-116100000D01*
X134000000Y-112000000D02*
X134000000Y-115912500D01*
X133812500Y-116100000D02*
X133812500Y-116687500D01*
X133220000Y-117280000D02*
X129200000Y-117280000D01*
X133812500Y-116687500D02*
X133220000Y-117280000D01*
X131867500Y-125280000D02*
X132000000Y-125412500D01*
X129200000Y-125280000D02*
X131867500Y-125280000D01*
X135412500Y-125412500D02*
X135500000Y-125500000D01*
X132000000Y-125412500D02*
X135412500Y-125412500D01*
X119750000Y-97412500D02*
X119750000Y-100000000D01*
X120250000Y-96912500D02*
X119750000Y-97412500D01*
X135500000Y-119000000D02*
X136500000Y-118000000D01*
X119000000Y-119000000D02*
X135500000Y-119000000D01*
X118250000Y-118250000D02*
X119000000Y-119000000D01*
X118250000Y-107500000D02*
X118250000Y-118250000D01*
X136500000Y-120912500D02*
X136412500Y-121000000D01*
X136500000Y-118000000D02*
X136500000Y-120912500D01*
X136412500Y-123462500D02*
X136450000Y-123500000D01*
X136412500Y-121000000D02*
X136412500Y-123462500D01*
X132000000Y-123520000D02*
X129200000Y-120720000D01*
X132000000Y-123587500D02*
X132000000Y-123520000D01*
X132000000Y-123587500D02*
X132000000Y-120000000D01*
X128000000Y-115000000D02*
X122900000Y-115000000D01*
X94037500Y-65050000D02*
X94000000Y-65087500D01*
X96400000Y-65050000D02*
X94037500Y-65050000D01*
X91687500Y-65087500D02*
X91600000Y-65000000D01*
X94000000Y-65087500D02*
X91687500Y-65087500D01*
X110487500Y-118287500D02*
X111400000Y-119200000D01*
X110487500Y-115400000D02*
X110487500Y-118287500D01*
X110450000Y-123162500D02*
X110487500Y-123200000D01*
X110450000Y-121200000D02*
X110450000Y-123162500D01*
X94887500Y-99350000D02*
X95637500Y-100100000D01*
X93300000Y-99350000D02*
X94887500Y-99350000D01*
X95637500Y-97850000D02*
X95550000Y-97762500D01*
X95637500Y-100100000D02*
X95637500Y-97850000D01*
D36*
X99800000Y-36712500D02*
X101800000Y-36712500D01*
X99800000Y-36712500D02*
X99800000Y-37500000D01*
X100500000Y-38200000D02*
X100500000Y-38895000D01*
X99800000Y-37500000D02*
X100500000Y-38200000D01*
D35*
X122750000Y-95087500D02*
X125250000Y-95087500D01*
X125250000Y-95087500D02*
X125250000Y-91975000D01*
X125250000Y-91975000D02*
X125250000Y-90000000D01*
X123000000Y-109662500D02*
X124000000Y-108662500D01*
X121940000Y-105494490D02*
X121940000Y-104975000D01*
X124000000Y-107554490D02*
X121940000Y-105494490D01*
X124000000Y-108662500D02*
X124000000Y-107554490D01*
X123210000Y-100025000D02*
X123210000Y-101290000D01*
X123210000Y-101290000D02*
X122000000Y-102500000D01*
X122000000Y-102500000D02*
X119750000Y-102500000D01*
X119750000Y-102500000D02*
X118750000Y-101500000D01*
X118750000Y-96587500D02*
X120250000Y-95087500D01*
X118750000Y-101500000D02*
X118750000Y-96587500D01*
X128290000Y-104000000D02*
X129040000Y-103250000D01*
X128290000Y-104975000D02*
X128290000Y-104000000D01*
X131300000Y-103250000D02*
X132050000Y-104000000D01*
X129040000Y-103250000D02*
X131300000Y-103250000D01*
X133100000Y-102950000D02*
X132050000Y-104000000D01*
X133100000Y-102012500D02*
X133100000Y-102950000D01*
X131112500Y-100025000D02*
X133100000Y-102012500D01*
X129560000Y-100025000D02*
X131112500Y-100025000D01*
X94287500Y-113200000D02*
X94200000Y-113112500D01*
X96487500Y-113200000D02*
X94287500Y-113200000D01*
X96500000Y-113187500D02*
X96487500Y-113200000D01*
X96500000Y-111250000D02*
X96500000Y-113187500D01*
X94200000Y-113112500D02*
X94200000Y-113700000D01*
X94770000Y-114270000D02*
X94770000Y-115725000D01*
X94200000Y-113700000D02*
X94770000Y-114270000D01*
X93500000Y-116573002D02*
X93500000Y-115725000D01*
X87500000Y-116250000D02*
X87500000Y-114500000D01*
X88049990Y-113950010D02*
X92700010Y-113950010D01*
X87500000Y-114500000D02*
X88049990Y-113950010D01*
X93500000Y-114750000D02*
X93500000Y-115725000D01*
X92700010Y-113950010D02*
X93500000Y-114750000D01*
X90087500Y-104857500D02*
X90525000Y-105295000D01*
X90087500Y-103000000D02*
X90087500Y-104857500D01*
X93250000Y-107045000D02*
X93250000Y-108000000D01*
X91500000Y-105295000D02*
X93250000Y-107045000D01*
X90525000Y-105295000D02*
X91500000Y-105295000D01*
X132550000Y-35400000D02*
X133900000Y-35400000D01*
X134800000Y-36300000D02*
X134800000Y-37650000D01*
X133900000Y-35400000D02*
X134800000Y-36300000D01*
X111400000Y-40005000D02*
X111400000Y-55687500D01*
X113875000Y-37530000D02*
X111400000Y-40005000D01*
X111400000Y-55687500D02*
X111400000Y-58087500D01*
X109650000Y-140400000D02*
X107112500Y-140400000D01*
X91000000Y-115765000D02*
X90960000Y-115725000D01*
X90960000Y-117960000D02*
X90960000Y-115725000D01*
X92000000Y-119000000D02*
X90960000Y-117960000D01*
X99000000Y-119000000D02*
X92000000Y-119000000D01*
X117000000Y-137280000D02*
X117000000Y-139200000D01*
X117000000Y-139200000D02*
X114000000Y-142200000D01*
X107087500Y-142200000D02*
X105287500Y-140400000D01*
X114000000Y-142200000D02*
X107087500Y-142200000D01*
X105287500Y-140400000D02*
X102500000Y-140400000D01*
X85000000Y-104540000D02*
X86040000Y-104540000D01*
X88065000Y-106565000D02*
X90525000Y-106565000D01*
X86040000Y-104540000D02*
X88065000Y-106565000D01*
X127790000Y-91975000D02*
X126520000Y-91975000D01*
X125774999Y-89274999D02*
X126500000Y-90000000D01*
X123980000Y-90196998D02*
X124901999Y-89274999D01*
X124901999Y-89274999D02*
X125774999Y-89274999D01*
X123980000Y-91975000D02*
X123980000Y-90196998D01*
X126520000Y-90020000D02*
X126500000Y-90000000D01*
X126520000Y-91975000D02*
X126520000Y-90020000D01*
X122710000Y-90830588D02*
X122710000Y-91975000D01*
X125250000Y-88290588D02*
X122710000Y-90830588D01*
X125250000Y-87025000D02*
X125250000Y-88290588D01*
X121440000Y-91211768D02*
X121440000Y-91975000D01*
X124624990Y-88026778D02*
X121440000Y-91211768D01*
X124624990Y-86003242D02*
X124624990Y-88026778D01*
X124903242Y-85724990D02*
X124624990Y-86003242D01*
X126194990Y-85724990D02*
X124903242Y-85724990D01*
X126520000Y-86050000D02*
X126194990Y-85724990D01*
X126520000Y-87025000D02*
X126520000Y-86050000D01*
D38*
X109575750Y-54573000D02*
X96101390Y-54573000D01*
X93038319Y-51608738D01*
X93018817Y-51593261D01*
X92996671Y-51581886D01*
X92972731Y-51575051D01*
X92950000Y-51573000D01*
X87135000Y-51573000D01*
X87135000Y-45644248D01*
X87127000Y-45563022D01*
X87127000Y-44227000D01*
X91700000Y-44227000D01*
X91724776Y-44224560D01*
X91748601Y-44217333D01*
X91770557Y-44205597D01*
X91781069Y-44197759D01*
X93795808Y-42527000D01*
X95573000Y-42527000D01*
X95573000Y-46050000D01*
X95575440Y-46074776D01*
X95582667Y-46098601D01*
X95597291Y-46124698D01*
X95973000Y-46641298D01*
X95973000Y-50600000D01*
X95975440Y-50624776D01*
X95982667Y-50648601D01*
X95994403Y-50670557D01*
X96010197Y-50689803D01*
X96029443Y-50705597D01*
X96051399Y-50717333D01*
X96075224Y-50724560D01*
X96100000Y-50727000D01*
X102800000Y-50727000D01*
X102824776Y-50724560D01*
X102848601Y-50717333D01*
X102870557Y-50705597D01*
X102889803Y-50689803D01*
X102905597Y-50670557D01*
X102917333Y-50648601D01*
X102924560Y-50624776D01*
X102927000Y-50600000D01*
X102927000Y-46827000D01*
X104400000Y-46827000D01*
X104424776Y-46824560D01*
X104448601Y-46817333D01*
X104470557Y-46805597D01*
X104489803Y-46789803D01*
X104505597Y-46770557D01*
X104517333Y-46748601D01*
X104524560Y-46724776D01*
X104527000Y-46700000D01*
X104527000Y-46370869D01*
X104565512Y-46323942D01*
X104646423Y-46172567D01*
X104696248Y-46008316D01*
X104713072Y-45837500D01*
X104713072Y-45362500D01*
X104696248Y-45191684D01*
X104646423Y-45027433D01*
X104565512Y-44876058D01*
X104527000Y-44829131D01*
X104527000Y-41127000D01*
X109870188Y-41127000D01*
X109575750Y-54573000D01*
G04 #@! TA.AperFunction,Conductor*
D39*
G36*
X109575750Y-54573000D02*
G01*
X96101390Y-54573000D01*
X93038319Y-51608738D01*
X93018817Y-51593261D01*
X92996671Y-51581886D01*
X92972731Y-51575051D01*
X92950000Y-51573000D01*
X87135000Y-51573000D01*
X87135000Y-45644248D01*
X87127000Y-45563022D01*
X87127000Y-44227000D01*
X91700000Y-44227000D01*
X91724776Y-44224560D01*
X91748601Y-44217333D01*
X91770557Y-44205597D01*
X91781069Y-44197759D01*
X93795808Y-42527000D01*
X95573000Y-42527000D01*
X95573000Y-46050000D01*
X95575440Y-46074776D01*
X95582667Y-46098601D01*
X95597291Y-46124698D01*
X95973000Y-46641298D01*
X95973000Y-50600000D01*
X95975440Y-50624776D01*
X95982667Y-50648601D01*
X95994403Y-50670557D01*
X96010197Y-50689803D01*
X96029443Y-50705597D01*
X96051399Y-50717333D01*
X96075224Y-50724560D01*
X96100000Y-50727000D01*
X102800000Y-50727000D01*
X102824776Y-50724560D01*
X102848601Y-50717333D01*
X102870557Y-50705597D01*
X102889803Y-50689803D01*
X102905597Y-50670557D01*
X102917333Y-50648601D01*
X102924560Y-50624776D01*
X102927000Y-50600000D01*
X102927000Y-46827000D01*
X104400000Y-46827000D01*
X104424776Y-46824560D01*
X104448601Y-46817333D01*
X104470557Y-46805597D01*
X104489803Y-46789803D01*
X104505597Y-46770557D01*
X104517333Y-46748601D01*
X104524560Y-46724776D01*
X104527000Y-46700000D01*
X104527000Y-46370869D01*
X104565512Y-46323942D01*
X104646423Y-46172567D01*
X104696248Y-46008316D01*
X104713072Y-45837500D01*
X104713072Y-45362500D01*
X104696248Y-45191684D01*
X104646423Y-45027433D01*
X104565512Y-44876058D01*
X104527000Y-44829131D01*
X104527000Y-41127000D01*
X109870188Y-41127000D01*
X109575750Y-54573000D01*
G37*
G04 #@! TD.AperFunction*
D38*
X92907349Y-41186861D02*
X92926075Y-41203267D01*
X92947642Y-41215705D01*
X92971220Y-41223696D01*
X93000000Y-41227000D01*
X95571645Y-41227000D01*
X95574348Y-41573000D01*
X93003907Y-41573000D01*
X92979131Y-41575440D01*
X92955306Y-41582667D01*
X92933350Y-41594403D01*
X92917859Y-41606594D01*
X91000418Y-43373000D01*
X86400000Y-43373000D01*
X86375224Y-43375440D01*
X86351399Y-43382667D01*
X86329443Y-43394403D01*
X86310197Y-43410197D01*
X86294403Y-43429443D01*
X86282667Y-43451399D01*
X86275440Y-43475224D01*
X86273000Y-43500000D01*
X86273000Y-46073000D01*
X81127000Y-46073000D01*
X81127000Y-39627000D01*
X91444979Y-39627000D01*
X92907349Y-41186861D01*
G04 #@! TA.AperFunction,Conductor*
D39*
G36*
X92907349Y-41186861D02*
G01*
X92926075Y-41203267D01*
X92947642Y-41215705D01*
X92971220Y-41223696D01*
X93000000Y-41227000D01*
X95571645Y-41227000D01*
X95574348Y-41573000D01*
X93003907Y-41573000D01*
X92979131Y-41575440D01*
X92955306Y-41582667D01*
X92933350Y-41594403D01*
X92917859Y-41606594D01*
X91000418Y-43373000D01*
X86400000Y-43373000D01*
X86375224Y-43375440D01*
X86351399Y-43382667D01*
X86329443Y-43394403D01*
X86310197Y-43410197D01*
X86294403Y-43429443D01*
X86282667Y-43451399D01*
X86275440Y-43475224D01*
X86273000Y-43500000D01*
X86273000Y-46073000D01*
X81127000Y-46073000D01*
X81127000Y-39627000D01*
X91444979Y-39627000D01*
X92907349Y-41186861D01*
G37*
G04 #@! TD.AperFunction*
D38*
X102273000Y-33173000D02*
X100300000Y-33173000D01*
X100275224Y-33175440D01*
X100251399Y-33182667D01*
X100229443Y-33194403D01*
X100210197Y-33210197D01*
X100194403Y-33229443D01*
X100182667Y-33251399D01*
X100175440Y-33275224D01*
X100173000Y-33300000D01*
X100173000Y-35373000D01*
X98800000Y-35373000D01*
X98775224Y-35375440D01*
X98751399Y-35382667D01*
X98729443Y-35394403D01*
X98710197Y-35410197D01*
X98694403Y-35429443D01*
X98682667Y-35451399D01*
X98675440Y-35475224D01*
X98673000Y-35500000D01*
X98673000Y-36575522D01*
X98659509Y-36712500D01*
X98665000Y-36768252D01*
X98665000Y-37444249D01*
X98659509Y-37500000D01*
X98665000Y-37555751D01*
X98665000Y-37555752D01*
X98681423Y-37722499D01*
X98746324Y-37936447D01*
X98851717Y-38133623D01*
X98993552Y-38306449D01*
X99036860Y-38341991D01*
X99114595Y-38419726D01*
X99099188Y-38470518D01*
X99086928Y-38595000D01*
X99086928Y-39195000D01*
X99099188Y-39319482D01*
X99135498Y-39439180D01*
X99173000Y-39509340D01*
X99173000Y-39550660D01*
X99135498Y-39620820D01*
X99099188Y-39740518D01*
X99086928Y-39865000D01*
X99086928Y-40465000D01*
X99099188Y-40589482D01*
X99135498Y-40709180D01*
X99173000Y-40779340D01*
X99173000Y-40820660D01*
X99135498Y-40890820D01*
X99099188Y-41010518D01*
X99086928Y-41135000D01*
X99086928Y-41735000D01*
X99099188Y-41859482D01*
X99135498Y-41979180D01*
X99173000Y-42049340D01*
X99173000Y-42090660D01*
X99135498Y-42160820D01*
X99099188Y-42280518D01*
X99086928Y-42405000D01*
X99086928Y-43005000D01*
X99099188Y-43129482D01*
X99135498Y-43249180D01*
X99175335Y-43323708D01*
X99175440Y-43324776D01*
X99182667Y-43348601D01*
X99194403Y-43370557D01*
X99208636Y-43388214D01*
X99271276Y-43453091D01*
X99273815Y-43456185D01*
X99275974Y-43457957D01*
X101973000Y-46251305D01*
X101973000Y-49773000D01*
X96927000Y-49773000D01*
X96927000Y-46500000D01*
X96924560Y-46475224D01*
X96917333Y-46451399D01*
X96905597Y-46429443D01*
X96889803Y-46410197D01*
X96427000Y-45947394D01*
X96427000Y-43319340D01*
X96464502Y-43249180D01*
X96500812Y-43129482D01*
X96513072Y-43005000D01*
X96513072Y-42405000D01*
X96500812Y-42280518D01*
X96464502Y-42160820D01*
X96427000Y-42090660D01*
X96427000Y-42049340D01*
X96464502Y-41979180D01*
X96500812Y-41859482D01*
X96513072Y-41735000D01*
X96513072Y-41135000D01*
X96500812Y-41010518D01*
X96464502Y-40890820D01*
X96427000Y-40820660D01*
X96427000Y-40500000D01*
X96424560Y-40475224D01*
X96417333Y-40451399D01*
X96405597Y-40429443D01*
X96389803Y-40410197D01*
X96370557Y-40394403D01*
X96348601Y-40382667D01*
X96324776Y-40375440D01*
X96300000Y-40373000D01*
X94151642Y-40373000D01*
X92326853Y-38595000D01*
X93686928Y-38595000D01*
X93686928Y-39195000D01*
X93699188Y-39319482D01*
X93735498Y-39439180D01*
X93794463Y-39549494D01*
X93873815Y-39646185D01*
X93970506Y-39725537D01*
X94080820Y-39784502D01*
X94200518Y-39820812D01*
X94325000Y-39833072D01*
X95875000Y-39833072D01*
X95999482Y-39820812D01*
X96119180Y-39784502D01*
X96229494Y-39725537D01*
X96326185Y-39646185D01*
X96405537Y-39549494D01*
X96464502Y-39439180D01*
X96500812Y-39319482D01*
X96513072Y-39195000D01*
X96513072Y-38595000D01*
X96500812Y-38470518D01*
X96464502Y-38350820D01*
X96405537Y-38240506D01*
X96326185Y-38143815D01*
X96229494Y-38064463D01*
X96119180Y-38005498D01*
X95999482Y-37969188D01*
X95875000Y-37956928D01*
X94325000Y-37956928D01*
X94200518Y-37969188D01*
X94080820Y-38005498D01*
X93970506Y-38064463D01*
X93873815Y-38143815D01*
X93794463Y-38240506D01*
X93735498Y-38350820D01*
X93699188Y-38470518D01*
X93686928Y-38595000D01*
X92326853Y-38595000D01*
X92238629Y-38509039D01*
X92219180Y-38493496D01*
X92197073Y-38482046D01*
X92173157Y-38475129D01*
X92150000Y-38473000D01*
X81127000Y-38473000D01*
X81127000Y-34327000D01*
X86700000Y-34327000D01*
X86724776Y-34324560D01*
X86748601Y-34317333D01*
X86780421Y-34298293D01*
X90045335Y-31627000D01*
X102273000Y-31627000D01*
X102273000Y-33173000D01*
G04 #@! TA.AperFunction,Conductor*
D39*
G36*
X102273000Y-33173000D02*
G01*
X100300000Y-33173000D01*
X100275224Y-33175440D01*
X100251399Y-33182667D01*
X100229443Y-33194403D01*
X100210197Y-33210197D01*
X100194403Y-33229443D01*
X100182667Y-33251399D01*
X100175440Y-33275224D01*
X100173000Y-33300000D01*
X100173000Y-35373000D01*
X98800000Y-35373000D01*
X98775224Y-35375440D01*
X98751399Y-35382667D01*
X98729443Y-35394403D01*
X98710197Y-35410197D01*
X98694403Y-35429443D01*
X98682667Y-35451399D01*
X98675440Y-35475224D01*
X98673000Y-35500000D01*
X98673000Y-36575522D01*
X98659509Y-36712500D01*
X98665000Y-36768252D01*
X98665000Y-37444249D01*
X98659509Y-37500000D01*
X98665000Y-37555751D01*
X98665000Y-37555752D01*
X98681423Y-37722499D01*
X98746324Y-37936447D01*
X98851717Y-38133623D01*
X98993552Y-38306449D01*
X99036860Y-38341991D01*
X99114595Y-38419726D01*
X99099188Y-38470518D01*
X99086928Y-38595000D01*
X99086928Y-39195000D01*
X99099188Y-39319482D01*
X99135498Y-39439180D01*
X99173000Y-39509340D01*
X99173000Y-39550660D01*
X99135498Y-39620820D01*
X99099188Y-39740518D01*
X99086928Y-39865000D01*
X99086928Y-40465000D01*
X99099188Y-40589482D01*
X99135498Y-40709180D01*
X99173000Y-40779340D01*
X99173000Y-40820660D01*
X99135498Y-40890820D01*
X99099188Y-41010518D01*
X99086928Y-41135000D01*
X99086928Y-41735000D01*
X99099188Y-41859482D01*
X99135498Y-41979180D01*
X99173000Y-42049340D01*
X99173000Y-42090660D01*
X99135498Y-42160820D01*
X99099188Y-42280518D01*
X99086928Y-42405000D01*
X99086928Y-43005000D01*
X99099188Y-43129482D01*
X99135498Y-43249180D01*
X99175335Y-43323708D01*
X99175440Y-43324776D01*
X99182667Y-43348601D01*
X99194403Y-43370557D01*
X99208636Y-43388214D01*
X99271276Y-43453091D01*
X99273815Y-43456185D01*
X99275974Y-43457957D01*
X101973000Y-46251305D01*
X101973000Y-49773000D01*
X96927000Y-49773000D01*
X96927000Y-46500000D01*
X96924560Y-46475224D01*
X96917333Y-46451399D01*
X96905597Y-46429443D01*
X96889803Y-46410197D01*
X96427000Y-45947394D01*
X96427000Y-43319340D01*
X96464502Y-43249180D01*
X96500812Y-43129482D01*
X96513072Y-43005000D01*
X96513072Y-42405000D01*
X96500812Y-42280518D01*
X96464502Y-42160820D01*
X96427000Y-42090660D01*
X96427000Y-42049340D01*
X96464502Y-41979180D01*
X96500812Y-41859482D01*
X96513072Y-41735000D01*
X96513072Y-41135000D01*
X96500812Y-41010518D01*
X96464502Y-40890820D01*
X96427000Y-40820660D01*
X96427000Y-40500000D01*
X96424560Y-40475224D01*
X96417333Y-40451399D01*
X96405597Y-40429443D01*
X96389803Y-40410197D01*
X96370557Y-40394403D01*
X96348601Y-40382667D01*
X96324776Y-40375440D01*
X96300000Y-40373000D01*
X94151642Y-40373000D01*
X92326853Y-38595000D01*
X93686928Y-38595000D01*
X93686928Y-39195000D01*
X93699188Y-39319482D01*
X93735498Y-39439180D01*
X93794463Y-39549494D01*
X93873815Y-39646185D01*
X93970506Y-39725537D01*
X94080820Y-39784502D01*
X94200518Y-39820812D01*
X94325000Y-39833072D01*
X95875000Y-39833072D01*
X95999482Y-39820812D01*
X96119180Y-39784502D01*
X96229494Y-39725537D01*
X96326185Y-39646185D01*
X96405537Y-39549494D01*
X96464502Y-39439180D01*
X96500812Y-39319482D01*
X96513072Y-39195000D01*
X96513072Y-38595000D01*
X96500812Y-38470518D01*
X96464502Y-38350820D01*
X96405537Y-38240506D01*
X96326185Y-38143815D01*
X96229494Y-38064463D01*
X96119180Y-38005498D01*
X95999482Y-37969188D01*
X95875000Y-37956928D01*
X94325000Y-37956928D01*
X94200518Y-37969188D01*
X94080820Y-38005498D01*
X93970506Y-38064463D01*
X93873815Y-38143815D01*
X93794463Y-38240506D01*
X93735498Y-38350820D01*
X93699188Y-38470518D01*
X93686928Y-38595000D01*
X92326853Y-38595000D01*
X92238629Y-38509039D01*
X92219180Y-38493496D01*
X92197073Y-38482046D01*
X92173157Y-38475129D01*
X92150000Y-38473000D01*
X81127000Y-38473000D01*
X81127000Y-34327000D01*
X86700000Y-34327000D01*
X86724776Y-34324560D01*
X86748601Y-34317333D01*
X86780421Y-34298293D01*
X90045335Y-31627000D01*
X102273000Y-31627000D01*
X102273000Y-33173000D01*
G37*
G04 #@! TD.AperFunction*
D38*
X113073000Y-27730503D02*
X113063989Y-27752257D01*
X113005000Y-28048816D01*
X113005000Y-28351184D01*
X113063989Y-28647743D01*
X113073000Y-28669497D01*
X113073000Y-29038961D01*
X110120664Y-31400830D01*
X110102841Y-31418213D01*
X110088752Y-31438739D01*
X110078938Y-31461620D01*
X110073777Y-31485975D01*
X110073000Y-31500000D01*
X110073000Y-37973000D01*
X104659180Y-37973000D01*
X102597245Y-35518315D01*
X102579440Y-35500913D01*
X102558583Y-35487319D01*
X102535474Y-35478055D01*
X102500000Y-35473000D01*
X101327000Y-35473000D01*
X101327000Y-34127000D01*
X103000000Y-34127000D01*
X103024776Y-34124560D01*
X103048601Y-34117333D01*
X103070557Y-34105597D01*
X103089803Y-34089803D01*
X103105597Y-34070557D01*
X103117333Y-34048601D01*
X103124560Y-34024776D01*
X103127000Y-34000000D01*
X103127000Y-30400000D01*
X103124560Y-30375224D01*
X103117333Y-30351399D01*
X103105597Y-30329443D01*
X103089803Y-30310197D01*
X103070557Y-30294403D01*
X103048601Y-30282667D01*
X103024776Y-30275440D01*
X103000000Y-30273000D01*
X90127000Y-30273000D01*
X90127000Y-26127000D01*
X113073000Y-26127000D01*
X113073000Y-27730503D01*
G04 #@! TA.AperFunction,Conductor*
D39*
G36*
X113073000Y-27730503D02*
G01*
X113063989Y-27752257D01*
X113005000Y-28048816D01*
X113005000Y-28351184D01*
X113063989Y-28647743D01*
X113073000Y-28669497D01*
X113073000Y-29038961D01*
X110120664Y-31400830D01*
X110102841Y-31418213D01*
X110088752Y-31438739D01*
X110078938Y-31461620D01*
X110073777Y-31485975D01*
X110073000Y-31500000D01*
X110073000Y-37973000D01*
X104659180Y-37973000D01*
X102597245Y-35518315D01*
X102579440Y-35500913D01*
X102558583Y-35487319D01*
X102535474Y-35478055D01*
X102500000Y-35473000D01*
X101327000Y-35473000D01*
X101327000Y-34127000D01*
X103000000Y-34127000D01*
X103024776Y-34124560D01*
X103048601Y-34117333D01*
X103070557Y-34105597D01*
X103089803Y-34089803D01*
X103105597Y-34070557D01*
X103117333Y-34048601D01*
X103124560Y-34024776D01*
X103127000Y-34000000D01*
X103127000Y-30400000D01*
X103124560Y-30375224D01*
X103117333Y-30351399D01*
X103105597Y-30329443D01*
X103089803Y-30310197D01*
X103070557Y-30294403D01*
X103048601Y-30282667D01*
X103024776Y-30275440D01*
X103000000Y-30273000D01*
X90127000Y-30273000D01*
X90127000Y-26127000D01*
X113073000Y-26127000D01*
X113073000Y-27730503D01*
G37*
G04 #@! TD.AperFunction*
D38*
X122524170Y-78096756D02*
X121890405Y-78734433D01*
X121119347Y-79505491D01*
X121096932Y-79532804D01*
X118651434Y-81993397D01*
X117529259Y-80828062D01*
X121494975Y-76981795D01*
X122524170Y-78096756D01*
G04 #@! TA.AperFunction,Conductor*
D39*
G36*
X122524170Y-78096756D02*
G01*
X121890405Y-78734433D01*
X121119347Y-79505491D01*
X121096932Y-79532804D01*
X118651434Y-81993397D01*
X117529259Y-80828062D01*
X121494975Y-76981795D01*
X122524170Y-78096756D01*
G37*
G04 #@! TD.AperFunction*
D38*
X129070394Y-75250000D02*
X125000000Y-79320394D01*
X123699291Y-78019685D01*
X123718773Y-78003697D01*
X125203697Y-76518773D01*
X125283049Y-76422082D01*
X125312360Y-76367246D01*
X127750000Y-73929606D01*
X129070394Y-75250000D01*
G04 #@! TA.AperFunction,Conductor*
D39*
G36*
X129070394Y-75250000D02*
G01*
X125000000Y-79320394D01*
X123699291Y-78019685D01*
X123718773Y-78003697D01*
X125203697Y-76518773D01*
X125283049Y-76422082D01*
X125312360Y-76367246D01*
X127750000Y-73929606D01*
X129070394Y-75250000D01*
G37*
G04 #@! TD.AperFunction*
D38*
X126202119Y-72938224D02*
X126284359Y-72968646D01*
X126363483Y-73021683D01*
X126559526Y-73189721D01*
X126630749Y-73274242D01*
X126667529Y-73367323D01*
X126672771Y-73467276D01*
X126645929Y-73563698D01*
X126583938Y-73655207D01*
X123358348Y-77066889D01*
X123276259Y-77133569D01*
X123187376Y-77173232D01*
X123091246Y-77188474D01*
X122994449Y-77178252D01*
X122903624Y-77143264D01*
X122818178Y-77080943D01*
X121931548Y-76235873D01*
X121916620Y-76223667D01*
X121792480Y-76137010D01*
X121770767Y-76124829D01*
X121757980Y-76120026D01*
X121613595Y-76074496D01*
X121589232Y-76069372D01*
X121575593Y-76068617D01*
X121424200Y-76068388D01*
X121399420Y-76070791D01*
X121386181Y-76074152D01*
X121241658Y-76119245D01*
X121218733Y-76128954D01*
X121207106Y-76136124D01*
X121082705Y-76222405D01*
X121067740Y-76234566D01*
X116813126Y-80265253D01*
X116730920Y-80325441D01*
X116643798Y-80360156D01*
X116542726Y-80373000D01*
X112500000Y-80373000D01*
X112483423Y-80374086D01*
X112354013Y-80391123D01*
X112321989Y-80399704D01*
X112201399Y-80449654D01*
X112172687Y-80466232D01*
X112069134Y-80545692D01*
X112045692Y-80569134D01*
X111966232Y-80672687D01*
X111949654Y-80701399D01*
X111899704Y-80821989D01*
X111891123Y-80854013D01*
X111874086Y-80983423D01*
X111873000Y-81000000D01*
X111873000Y-84615008D01*
X111859357Y-84701144D01*
X111824356Y-84769838D01*
X111769838Y-84824356D01*
X111701144Y-84859357D01*
X111625000Y-84871417D01*
X111548856Y-84859357D01*
X111480162Y-84824356D01*
X111425644Y-84769838D01*
X111390643Y-84701144D01*
X111384526Y-84662527D01*
X111398072Y-84525000D01*
X111398072Y-82775000D01*
X111382929Y-82621255D01*
X111377000Y-82601709D01*
X111377000Y-80008328D01*
X111390769Y-79903743D01*
X111427923Y-79814045D01*
X111487024Y-79737024D01*
X111564045Y-79677923D01*
X111653743Y-79640769D01*
X111758328Y-79627000D01*
X116197187Y-79627000D01*
X116213456Y-79625954D01*
X116340497Y-79609545D01*
X116371964Y-79601278D01*
X116490666Y-79553130D01*
X116519002Y-79537139D01*
X116621576Y-79460410D01*
X116633976Y-79449827D01*
X123237105Y-73038092D01*
X123320008Y-72976078D01*
X123408306Y-72940262D01*
X123510984Y-72927000D01*
X126107531Y-72927000D01*
X126202119Y-72938224D01*
G04 #@! TA.AperFunction,Conductor*
D39*
G36*
X126202119Y-72938224D02*
G01*
X126284359Y-72968646D01*
X126363483Y-73021683D01*
X126559526Y-73189721D01*
X126630749Y-73274242D01*
X126667529Y-73367323D01*
X126672771Y-73467276D01*
X126645929Y-73563698D01*
X126583938Y-73655207D01*
X123358348Y-77066889D01*
X123276259Y-77133569D01*
X123187376Y-77173232D01*
X123091246Y-77188474D01*
X122994449Y-77178252D01*
X122903624Y-77143264D01*
X122818178Y-77080943D01*
X121931548Y-76235873D01*
X121916620Y-76223667D01*
X121792480Y-76137010D01*
X121770767Y-76124829D01*
X121757980Y-76120026D01*
X121613595Y-76074496D01*
X121589232Y-76069372D01*
X121575593Y-76068617D01*
X121424200Y-76068388D01*
X121399420Y-76070791D01*
X121386181Y-76074152D01*
X121241658Y-76119245D01*
X121218733Y-76128954D01*
X121207106Y-76136124D01*
X121082705Y-76222405D01*
X121067740Y-76234566D01*
X116813126Y-80265253D01*
X116730920Y-80325441D01*
X116643798Y-80360156D01*
X116542726Y-80373000D01*
X112500000Y-80373000D01*
X112483423Y-80374086D01*
X112354013Y-80391123D01*
X112321989Y-80399704D01*
X112201399Y-80449654D01*
X112172687Y-80466232D01*
X112069134Y-80545692D01*
X112045692Y-80569134D01*
X111966232Y-80672687D01*
X111949654Y-80701399D01*
X111899704Y-80821989D01*
X111891123Y-80854013D01*
X111874086Y-80983423D01*
X111873000Y-81000000D01*
X111873000Y-84615008D01*
X111859357Y-84701144D01*
X111824356Y-84769838D01*
X111769838Y-84824356D01*
X111701144Y-84859357D01*
X111625000Y-84871417D01*
X111548856Y-84859357D01*
X111480162Y-84824356D01*
X111425644Y-84769838D01*
X111390643Y-84701144D01*
X111384526Y-84662527D01*
X111398072Y-84525000D01*
X111398072Y-82775000D01*
X111382929Y-82621255D01*
X111377000Y-82601709D01*
X111377000Y-80008328D01*
X111390769Y-79903743D01*
X111427923Y-79814045D01*
X111487024Y-79737024D01*
X111564045Y-79677923D01*
X111653743Y-79640769D01*
X111758328Y-79627000D01*
X116197187Y-79627000D01*
X116213456Y-79625954D01*
X116340497Y-79609545D01*
X116371964Y-79601278D01*
X116490666Y-79553130D01*
X116519002Y-79537139D01*
X116621576Y-79460410D01*
X116633976Y-79449827D01*
X123237105Y-73038092D01*
X123320008Y-72976078D01*
X123408306Y-72940262D01*
X123510984Y-72927000D01*
X126107531Y-72927000D01*
X126202119Y-72938224D01*
G37*
G04 #@! TD.AperFunction*
D38*
X123301454Y-78950958D02*
X123392173Y-78987487D01*
X123476986Y-79051500D01*
X124755919Y-80312671D01*
X124821192Y-80396717D01*
X124858987Y-80487069D01*
X124873000Y-80592556D01*
X124873000Y-83491672D01*
X124859231Y-83596257D01*
X124822077Y-83685955D01*
X124771943Y-83751290D01*
X124755824Y-83712376D01*
X124631612Y-83526480D01*
X124473520Y-83368388D01*
X124287624Y-83244176D01*
X124081067Y-83158617D01*
X123861788Y-83115000D01*
X123638212Y-83115000D01*
X123418933Y-83158617D01*
X123212376Y-83244176D01*
X123026480Y-83368388D01*
X122868388Y-83526480D01*
X122744176Y-83712376D01*
X122677643Y-83873000D01*
X117254190Y-83873000D01*
X117133594Y-83854573D01*
X117032775Y-83805264D01*
X116944189Y-83721382D01*
X115500382Y-81865060D01*
X115487455Y-81850812D01*
X115377778Y-81746959D01*
X115358109Y-81731696D01*
X115346254Y-81725091D01*
X115210567Y-81658729D01*
X115187238Y-81650035D01*
X115173953Y-81647272D01*
X115024641Y-81624457D01*
X115005458Y-81623000D01*
X114000000Y-81623000D01*
X113983423Y-81624086D01*
X113854013Y-81641123D01*
X113821989Y-81649704D01*
X113701399Y-81699654D01*
X113672687Y-81716232D01*
X113569134Y-81795692D01*
X113545692Y-81819134D01*
X113466232Y-81922687D01*
X113449654Y-81951399D01*
X113399704Y-82071989D01*
X113391123Y-82104013D01*
X113374086Y-82233423D01*
X113373000Y-82250000D01*
X113373000Y-82535777D01*
X113347071Y-82621255D01*
X113331928Y-82775000D01*
X113331928Y-84525000D01*
X113346038Y-84668259D01*
X113310033Y-84738922D01*
X113238922Y-84810033D01*
X113149324Y-84855686D01*
X113050000Y-84871417D01*
X112950676Y-84855686D01*
X112861078Y-84810033D01*
X112789967Y-84738922D01*
X112744314Y-84649324D01*
X112727000Y-84540007D01*
X112727000Y-81708328D01*
X112740769Y-81603743D01*
X112777923Y-81514045D01*
X112837024Y-81437024D01*
X112914045Y-81377923D01*
X113003743Y-81340769D01*
X113108328Y-81327000D01*
X116390549Y-81327000D01*
X116503125Y-81343003D01*
X116598508Y-81386015D01*
X116685033Y-81459794D01*
X117705549Y-82615095D01*
X117718330Y-82627655D01*
X117825425Y-82718974D01*
X117855620Y-82738109D01*
X117983920Y-82795965D01*
X118018253Y-82805928D01*
X118157595Y-82825736D01*
X118175469Y-82827000D01*
X119037415Y-82827000D01*
X119054383Y-82825861D01*
X119186789Y-82808011D01*
X119219513Y-82799025D01*
X119342466Y-82746749D01*
X119371642Y-82729417D01*
X119476362Y-82646448D01*
X119488954Y-82635019D01*
X122934675Y-79058448D01*
X123017819Y-78992284D01*
X123107573Y-78953442D01*
X123204348Y-78939342D01*
X123301454Y-78950958D01*
G04 #@! TA.AperFunction,Conductor*
D39*
G36*
X123301454Y-78950958D02*
G01*
X123392173Y-78987487D01*
X123476986Y-79051500D01*
X124755919Y-80312671D01*
X124821192Y-80396717D01*
X124858987Y-80487069D01*
X124873000Y-80592556D01*
X124873000Y-83491672D01*
X124859231Y-83596257D01*
X124822077Y-83685955D01*
X124771943Y-83751290D01*
X124755824Y-83712376D01*
X124631612Y-83526480D01*
X124473520Y-83368388D01*
X124287624Y-83244176D01*
X124081067Y-83158617D01*
X123861788Y-83115000D01*
X123638212Y-83115000D01*
X123418933Y-83158617D01*
X123212376Y-83244176D01*
X123026480Y-83368388D01*
X122868388Y-83526480D01*
X122744176Y-83712376D01*
X122677643Y-83873000D01*
X117254190Y-83873000D01*
X117133594Y-83854573D01*
X117032775Y-83805264D01*
X116944189Y-83721382D01*
X115500382Y-81865060D01*
X115487455Y-81850812D01*
X115377778Y-81746959D01*
X115358109Y-81731696D01*
X115346254Y-81725091D01*
X115210567Y-81658729D01*
X115187238Y-81650035D01*
X115173953Y-81647272D01*
X115024641Y-81624457D01*
X115005458Y-81623000D01*
X114000000Y-81623000D01*
X113983423Y-81624086D01*
X113854013Y-81641123D01*
X113821989Y-81649704D01*
X113701399Y-81699654D01*
X113672687Y-81716232D01*
X113569134Y-81795692D01*
X113545692Y-81819134D01*
X113466232Y-81922687D01*
X113449654Y-81951399D01*
X113399704Y-82071989D01*
X113391123Y-82104013D01*
X113374086Y-82233423D01*
X113373000Y-82250000D01*
X113373000Y-82535777D01*
X113347071Y-82621255D01*
X113331928Y-82775000D01*
X113331928Y-84525000D01*
X113346038Y-84668259D01*
X113310033Y-84738922D01*
X113238922Y-84810033D01*
X113149324Y-84855686D01*
X113050000Y-84871417D01*
X112950676Y-84855686D01*
X112861078Y-84810033D01*
X112789967Y-84738922D01*
X112744314Y-84649324D01*
X112727000Y-84540007D01*
X112727000Y-81708328D01*
X112740769Y-81603743D01*
X112777923Y-81514045D01*
X112837024Y-81437024D01*
X112914045Y-81377923D01*
X113003743Y-81340769D01*
X113108328Y-81327000D01*
X116390549Y-81327000D01*
X116503125Y-81343003D01*
X116598508Y-81386015D01*
X116685033Y-81459794D01*
X117705549Y-82615095D01*
X117718330Y-82627655D01*
X117825425Y-82718974D01*
X117855620Y-82738109D01*
X117983920Y-82795965D01*
X118018253Y-82805928D01*
X118157595Y-82825736D01*
X118175469Y-82827000D01*
X119037415Y-82827000D01*
X119054383Y-82825861D01*
X119186789Y-82808011D01*
X119219513Y-82799025D01*
X119342466Y-82746749D01*
X119371642Y-82729417D01*
X119476362Y-82646448D01*
X119488954Y-82635019D01*
X122934675Y-79058448D01*
X123017819Y-78992284D01*
X123107573Y-78953442D01*
X123204348Y-78939342D01*
X123301454Y-78950958D01*
G37*
G04 #@! TD.AperFunction*
M02*
