%FSLAX45Y45*%
G04 Gerber Fmt 4.5, Leading zero omitted, Abs format (unit mm)*
G04 Created by KiCad (PCBNEW (5.1.10)-1) date 2022-01-30 14:23:47*
%MOMM*%
%LPD*%
G01*
G04 APERTURE LIST*
%TA.AperFunction,Profile*%
%ADD10C,0.100000*%
%TD*%
%ADD11C,0.200000*%
%ADD12C,0.300000*%
G04 APERTURE END LIST*
D10*
X8500000Y-16500000D02*
X13500000Y-16500000D01*
X14000000Y-16000000D02*
G75*
G02*
X13500000Y-16500000I-500000J0D01*
G01*
X14000000Y-3000000D02*
X14000000Y-16000000D01*
X13500000Y-2500000D02*
G75*
G02*
X14000000Y-3000000I0J-500000D01*
G01*
X8500000Y-2500000D02*
X13500000Y-2500000D01*
X8000000Y-3000000D02*
G75*
G02*
X8500000Y-2500000I500000J0D01*
G01*
X8500000Y-16500000D02*
G75*
G02*
X8000000Y-16000000I0J500000D01*
G01*
X8000000Y-3000000D02*
X8000000Y-16000000D01*
D11*
X8644000Y-6150000D02*
X8744000Y-6250000D01*
X8744000Y-6150000D02*
X8644000Y-6250000D01*
X8644000Y-8850000D02*
X8744000Y-8950000D01*
X8744000Y-8850000D02*
X8644000Y-8950000D01*
X13256000Y-6200000D02*
X13356000Y-6300000D01*
X13356000Y-6200000D02*
X13256000Y-6300000D01*
X13256000Y-7700000D02*
X13356000Y-7800000D01*
X13356000Y-7700000D02*
X13256000Y-7800000D01*
X8668000Y-14025000D02*
G75*
G03*
X8668000Y-14025000I-150000J0D01*
G01*
X8678000Y-12870000D02*
G75*
G03*
X8678000Y-12870000I-150000J0D01*
G01*
X8698000Y-5600000D02*
G75*
G03*
X8698000Y-5600000I-150000J0D01*
G01*
X13622000Y-4660000D02*
G75*
G03*
X13622000Y-4660000I-150000J0D01*
G01*
X13650000Y-13350000D02*
G75*
G03*
X13650000Y-13350000I-150000J0D01*
G01*
X8500000Y-2815000D02*
X8500000Y-3185000D01*
X8315000Y-3000000D02*
X8685000Y-3000000D01*
X8500000Y-9315000D02*
X8500000Y-9685000D01*
X8315000Y-9500000D02*
X8685000Y-9500000D01*
X8500000Y-15815000D02*
X8500000Y-16185000D01*
X8315000Y-16000000D02*
X8685000Y-16000000D01*
X13500000Y-2815000D02*
X13500000Y-3185000D01*
X13315000Y-3000000D02*
X13685000Y-3000000D01*
X13500000Y-9315000D02*
X13500000Y-9685000D01*
X13315000Y-9500000D02*
X13685000Y-9500000D01*
X13500000Y-15815000D02*
X13500000Y-16185000D01*
X13315000Y-16000000D02*
X13685000Y-16000000D01*
D12*
X8281428Y-16970714D02*
X8281428Y-16670714D01*
X8352857Y-16670714D01*
X8395714Y-16685000D01*
X8424286Y-16713571D01*
X8438571Y-16742143D01*
X8452857Y-16799286D01*
X8452857Y-16842143D01*
X8438571Y-16899286D01*
X8424286Y-16927857D01*
X8395714Y-16956429D01*
X8352857Y-16970714D01*
X8281428Y-16970714D01*
X8581428Y-16970714D02*
X8581428Y-16770714D01*
X8581428Y-16827857D02*
X8595714Y-16799286D01*
X8610000Y-16785000D01*
X8638571Y-16770714D01*
X8667143Y-16770714D01*
X8767143Y-16970714D02*
X8767143Y-16770714D01*
X8767143Y-16670714D02*
X8752857Y-16685000D01*
X8767143Y-16699286D01*
X8781428Y-16685000D01*
X8767143Y-16670714D01*
X8767143Y-16699286D01*
X8952857Y-16970714D02*
X8924286Y-16956429D01*
X8910000Y-16927857D01*
X8910000Y-16670714D01*
X9110000Y-16970714D02*
X9081428Y-16956429D01*
X9067143Y-16927857D01*
X9067143Y-16670714D01*
X9452857Y-16970714D02*
X9452857Y-16670714D01*
X9552857Y-16885000D01*
X9652857Y-16670714D01*
X9652857Y-16970714D01*
X9924286Y-16970714D02*
X9924286Y-16813572D01*
X9910000Y-16785000D01*
X9881428Y-16770714D01*
X9824286Y-16770714D01*
X9795714Y-16785000D01*
X9924286Y-16956429D02*
X9895714Y-16970714D01*
X9824286Y-16970714D01*
X9795714Y-16956429D01*
X9781428Y-16927857D01*
X9781428Y-16899286D01*
X9795714Y-16870714D01*
X9824286Y-16856429D01*
X9895714Y-16856429D01*
X9924286Y-16842143D01*
X10067143Y-16770714D02*
X10067143Y-17070714D01*
X10067143Y-16785000D02*
X10095714Y-16770714D01*
X10152857Y-16770714D01*
X10181428Y-16785000D01*
X10195714Y-16799286D01*
X10210000Y-16827857D01*
X10210000Y-16913572D01*
X10195714Y-16942143D01*
X10181428Y-16956429D01*
X10152857Y-16970714D01*
X10095714Y-16970714D01*
X10067143Y-16956429D01*
X10338571Y-16942143D02*
X10352857Y-16956429D01*
X10338571Y-16970714D01*
X10324286Y-16956429D01*
X10338571Y-16942143D01*
X10338571Y-16970714D01*
X10338571Y-16785000D02*
X10352857Y-16799286D01*
X10338571Y-16813572D01*
X10324286Y-16799286D01*
X10338571Y-16785000D01*
X10338571Y-16813572D01*
X7895000Y-17415000D02*
X7995000Y-17515000D01*
X7995000Y-17415000D02*
X7895000Y-17515000D01*
X8438571Y-17600714D02*
X8267143Y-17600714D01*
X8352857Y-17600714D02*
X8352857Y-17300714D01*
X8324286Y-17343572D01*
X8295714Y-17372143D01*
X8267143Y-17386429D01*
X8567143Y-17572143D02*
X8581428Y-17586429D01*
X8567143Y-17600714D01*
X8552857Y-17586429D01*
X8567143Y-17572143D01*
X8567143Y-17600714D01*
X8767143Y-17300714D02*
X8795714Y-17300714D01*
X8824286Y-17315000D01*
X8838571Y-17329286D01*
X8852857Y-17357857D01*
X8867143Y-17415000D01*
X8867143Y-17486429D01*
X8852857Y-17543572D01*
X8838571Y-17572143D01*
X8824286Y-17586429D01*
X8795714Y-17600714D01*
X8767143Y-17600714D01*
X8738571Y-17586429D01*
X8724286Y-17572143D01*
X8710000Y-17543572D01*
X8695714Y-17486429D01*
X8695714Y-17415000D01*
X8710000Y-17357857D01*
X8724286Y-17329286D01*
X8738571Y-17315000D01*
X8767143Y-17300714D01*
X9052857Y-17300714D02*
X9081428Y-17300714D01*
X9110000Y-17315000D01*
X9124286Y-17329286D01*
X9138571Y-17357857D01*
X9152857Y-17415000D01*
X9152857Y-17486429D01*
X9138571Y-17543572D01*
X9124286Y-17572143D01*
X9110000Y-17586429D01*
X9081428Y-17600714D01*
X9052857Y-17600714D01*
X9024286Y-17586429D01*
X9010000Y-17572143D01*
X8995714Y-17543572D01*
X8981428Y-17486429D01*
X8981428Y-17415000D01*
X8995714Y-17357857D01*
X9010000Y-17329286D01*
X9024286Y-17315000D01*
X9052857Y-17300714D01*
X9338571Y-17300714D02*
X9367143Y-17300714D01*
X9395714Y-17315000D01*
X9410000Y-17329286D01*
X9424286Y-17357857D01*
X9438571Y-17415000D01*
X9438571Y-17486429D01*
X9424286Y-17543572D01*
X9410000Y-17572143D01*
X9395714Y-17586429D01*
X9367143Y-17600714D01*
X9338571Y-17600714D01*
X9310000Y-17586429D01*
X9295714Y-17572143D01*
X9281428Y-17543572D01*
X9267143Y-17486429D01*
X9267143Y-17415000D01*
X9281428Y-17357857D01*
X9295714Y-17329286D01*
X9310000Y-17315000D01*
X9338571Y-17300714D01*
X9567143Y-17600714D02*
X9567143Y-17400714D01*
X9567143Y-17429286D02*
X9581428Y-17415000D01*
X9610000Y-17400714D01*
X9652857Y-17400714D01*
X9681428Y-17415000D01*
X9695714Y-17443572D01*
X9695714Y-17600714D01*
X9695714Y-17443572D02*
X9710000Y-17415000D01*
X9738571Y-17400714D01*
X9781428Y-17400714D01*
X9810000Y-17415000D01*
X9824286Y-17443572D01*
X9824286Y-17600714D01*
X9967143Y-17600714D02*
X9967143Y-17400714D01*
X9967143Y-17429286D02*
X9981428Y-17415000D01*
X10010000Y-17400714D01*
X10052857Y-17400714D01*
X10081428Y-17415000D01*
X10095714Y-17443572D01*
X10095714Y-17600714D01*
X10095714Y-17443572D02*
X10110000Y-17415000D01*
X10138571Y-17400714D01*
X10181428Y-17400714D01*
X10210000Y-17415000D01*
X10224286Y-17443572D01*
X10224286Y-17600714D01*
X10810000Y-17286429D02*
X10552857Y-17672143D01*
X11195714Y-17300714D02*
X11224286Y-17300714D01*
X11252857Y-17315000D01*
X11267143Y-17329286D01*
X11281428Y-17357857D01*
X11295714Y-17415000D01*
X11295714Y-17486429D01*
X11281428Y-17543572D01*
X11267143Y-17572143D01*
X11252857Y-17586429D01*
X11224286Y-17600714D01*
X11195714Y-17600714D01*
X11167143Y-17586429D01*
X11152857Y-17572143D01*
X11138571Y-17543572D01*
X11124286Y-17486429D01*
X11124286Y-17415000D01*
X11138571Y-17357857D01*
X11152857Y-17329286D01*
X11167143Y-17315000D01*
X11195714Y-17300714D01*
X11424286Y-17572143D02*
X11438571Y-17586429D01*
X11424286Y-17600714D01*
X11410000Y-17586429D01*
X11424286Y-17572143D01*
X11424286Y-17600714D01*
X11624286Y-17300714D02*
X11652857Y-17300714D01*
X11681428Y-17315000D01*
X11695714Y-17329286D01*
X11710000Y-17357857D01*
X11724286Y-17415000D01*
X11724286Y-17486429D01*
X11710000Y-17543572D01*
X11695714Y-17572143D01*
X11681428Y-17586429D01*
X11652857Y-17600714D01*
X11624286Y-17600714D01*
X11595714Y-17586429D01*
X11581428Y-17572143D01*
X11567143Y-17543572D01*
X11552857Y-17486429D01*
X11552857Y-17415000D01*
X11567143Y-17357857D01*
X11581428Y-17329286D01*
X11595714Y-17315000D01*
X11624286Y-17300714D01*
X11824286Y-17300714D02*
X12010000Y-17300714D01*
X11910000Y-17415000D01*
X11952857Y-17415000D01*
X11981428Y-17429286D01*
X11995714Y-17443572D01*
X12010000Y-17472143D01*
X12010000Y-17543572D01*
X11995714Y-17572143D01*
X11981428Y-17586429D01*
X11952857Y-17600714D01*
X11867143Y-17600714D01*
X11838571Y-17586429D01*
X11824286Y-17572143D01*
X12152857Y-17600714D02*
X12210000Y-17600714D01*
X12238571Y-17586429D01*
X12252857Y-17572143D01*
X12281428Y-17529286D01*
X12295714Y-17472143D01*
X12295714Y-17357857D01*
X12281428Y-17329286D01*
X12267143Y-17315000D01*
X12238571Y-17300714D01*
X12181428Y-17300714D01*
X12152857Y-17315000D01*
X12138571Y-17329286D01*
X12124286Y-17357857D01*
X12124286Y-17429286D01*
X12138571Y-17457857D01*
X12152857Y-17472143D01*
X12181428Y-17486429D01*
X12238571Y-17486429D01*
X12267143Y-17472143D01*
X12281428Y-17457857D01*
X12295714Y-17429286D01*
X12552857Y-17400714D02*
X12552857Y-17600714D01*
X12481428Y-17286429D02*
X12410000Y-17500714D01*
X12595714Y-17500714D01*
X12695714Y-17300714D02*
X12695714Y-17357857D01*
X12810000Y-17300714D02*
X12810000Y-17357857D01*
X13252857Y-17715000D02*
X13238571Y-17700714D01*
X13210000Y-17657857D01*
X13195714Y-17629286D01*
X13181428Y-17586429D01*
X13167143Y-17515000D01*
X13167143Y-17457857D01*
X13181428Y-17386429D01*
X13195714Y-17343572D01*
X13210000Y-17315000D01*
X13238571Y-17272143D01*
X13252857Y-17257857D01*
X13495714Y-17400714D02*
X13495714Y-17600714D01*
X13424286Y-17286429D02*
X13352857Y-17500714D01*
X13538571Y-17500714D01*
X13881428Y-17600714D02*
X13881428Y-17300714D01*
X14010000Y-17600714D02*
X14010000Y-17443572D01*
X13995714Y-17415000D01*
X13967143Y-17400714D01*
X13924286Y-17400714D01*
X13895714Y-17415000D01*
X13881428Y-17429286D01*
X14195714Y-17600714D02*
X14167143Y-17586429D01*
X14152857Y-17572143D01*
X14138571Y-17543572D01*
X14138571Y-17457857D01*
X14152857Y-17429286D01*
X14167143Y-17415000D01*
X14195714Y-17400714D01*
X14238571Y-17400714D01*
X14267143Y-17415000D01*
X14281428Y-17429286D01*
X14295714Y-17457857D01*
X14295714Y-17543572D01*
X14281428Y-17572143D01*
X14267143Y-17586429D01*
X14238571Y-17600714D01*
X14195714Y-17600714D01*
X14467143Y-17600714D02*
X14438571Y-17586429D01*
X14424286Y-17557857D01*
X14424286Y-17300714D01*
X14695714Y-17586429D02*
X14667143Y-17600714D01*
X14610000Y-17600714D01*
X14581428Y-17586429D01*
X14567143Y-17557857D01*
X14567143Y-17443572D01*
X14581428Y-17415000D01*
X14610000Y-17400714D01*
X14667143Y-17400714D01*
X14695714Y-17415000D01*
X14710000Y-17443572D01*
X14710000Y-17472143D01*
X14567143Y-17500714D01*
X14824286Y-17586429D02*
X14852857Y-17600714D01*
X14910000Y-17600714D01*
X14938571Y-17586429D01*
X14952857Y-17557857D01*
X14952857Y-17543572D01*
X14938571Y-17515000D01*
X14910000Y-17500714D01*
X14867143Y-17500714D01*
X14838571Y-17486429D01*
X14824286Y-17457857D01*
X14824286Y-17443572D01*
X14838571Y-17415000D01*
X14867143Y-17400714D01*
X14910000Y-17400714D01*
X14938571Y-17415000D01*
X15052857Y-17715000D02*
X15067143Y-17700714D01*
X15095714Y-17657857D01*
X15110000Y-17629286D01*
X15124286Y-17586429D01*
X15138571Y-17515000D01*
X15138571Y-17457857D01*
X15124286Y-17386429D01*
X15110000Y-17343572D01*
X15095714Y-17315000D01*
X15067143Y-17272143D01*
X15052857Y-17257857D01*
X15595714Y-17715000D02*
X15581428Y-17700714D01*
X15552857Y-17657857D01*
X15538571Y-17629286D01*
X15524286Y-17586429D01*
X15510000Y-17515000D01*
X15510000Y-17457857D01*
X15524286Y-17386429D01*
X15538571Y-17343572D01*
X15552857Y-17315000D01*
X15581428Y-17272143D01*
X15595714Y-17257857D01*
X15710000Y-17400714D02*
X15710000Y-17600714D01*
X15710000Y-17429286D02*
X15724286Y-17415000D01*
X15752857Y-17400714D01*
X15795714Y-17400714D01*
X15824286Y-17415000D01*
X15838571Y-17443572D01*
X15838571Y-17600714D01*
X16024286Y-17600714D02*
X15995714Y-17586429D01*
X15981428Y-17572143D01*
X15967143Y-17543572D01*
X15967143Y-17457857D01*
X15981428Y-17429286D01*
X15995714Y-17415000D01*
X16024286Y-17400714D01*
X16067143Y-17400714D01*
X16095714Y-17415000D01*
X16110000Y-17429286D01*
X16124286Y-17457857D01*
X16124286Y-17543572D01*
X16110000Y-17572143D01*
X16095714Y-17586429D01*
X16067143Y-17600714D01*
X16024286Y-17600714D01*
X16210000Y-17400714D02*
X16324286Y-17400714D01*
X16252857Y-17300714D02*
X16252857Y-17557857D01*
X16267143Y-17586429D01*
X16295714Y-17600714D01*
X16324286Y-17600714D01*
X16652857Y-17400714D02*
X16652857Y-17700714D01*
X16652857Y-17415000D02*
X16681428Y-17400714D01*
X16738571Y-17400714D01*
X16767143Y-17415000D01*
X16781428Y-17429286D01*
X16795714Y-17457857D01*
X16795714Y-17543572D01*
X16781428Y-17572143D01*
X16767143Y-17586429D01*
X16738571Y-17600714D01*
X16681428Y-17600714D01*
X16652857Y-17586429D01*
X16967143Y-17600714D02*
X16938571Y-17586429D01*
X16924286Y-17557857D01*
X16924286Y-17300714D01*
X17210000Y-17600714D02*
X17210000Y-17443572D01*
X17195714Y-17415000D01*
X17167143Y-17400714D01*
X17110000Y-17400714D01*
X17081428Y-17415000D01*
X17210000Y-17586429D02*
X17181428Y-17600714D01*
X17110000Y-17600714D01*
X17081428Y-17586429D01*
X17067143Y-17557857D01*
X17067143Y-17529286D01*
X17081428Y-17500714D01*
X17110000Y-17486429D01*
X17181428Y-17486429D01*
X17210000Y-17472143D01*
X17310000Y-17400714D02*
X17424286Y-17400714D01*
X17352857Y-17300714D02*
X17352857Y-17557857D01*
X17367143Y-17586429D01*
X17395714Y-17600714D01*
X17424286Y-17600714D01*
X17638571Y-17586429D02*
X17610000Y-17600714D01*
X17552857Y-17600714D01*
X17524286Y-17586429D01*
X17510000Y-17557857D01*
X17510000Y-17443572D01*
X17524286Y-17415000D01*
X17552857Y-17400714D01*
X17610000Y-17400714D01*
X17638571Y-17415000D01*
X17652857Y-17443572D01*
X17652857Y-17472143D01*
X17510000Y-17500714D01*
X17910000Y-17600714D02*
X17910000Y-17300714D01*
X17910000Y-17586429D02*
X17881428Y-17600714D01*
X17824286Y-17600714D01*
X17795714Y-17586429D01*
X17781428Y-17572143D01*
X17767143Y-17543572D01*
X17767143Y-17457857D01*
X17781428Y-17429286D01*
X17795714Y-17415000D01*
X17824286Y-17400714D01*
X17881428Y-17400714D01*
X17910000Y-17415000D01*
X18024286Y-17715000D02*
X18038571Y-17700714D01*
X18067143Y-17657857D01*
X18081428Y-17629286D01*
X18095714Y-17586429D01*
X18110000Y-17515000D01*
X18110000Y-17457857D01*
X18095714Y-17386429D01*
X18081428Y-17343572D01*
X18067143Y-17315000D01*
X18038571Y-17272143D01*
X18024286Y-17257857D01*
X7995000Y-17861000D02*
G75*
G03*
X7995000Y-17861000I-150000J0D01*
G01*
X8252857Y-17696714D02*
X8438571Y-17696714D01*
X8338571Y-17811000D01*
X8381428Y-17811000D01*
X8410000Y-17825286D01*
X8424286Y-17839572D01*
X8438571Y-17868143D01*
X8438571Y-17939572D01*
X8424286Y-17968143D01*
X8410000Y-17982429D01*
X8381428Y-17996714D01*
X8295714Y-17996714D01*
X8267143Y-17982429D01*
X8252857Y-17968143D01*
X8567143Y-17968143D02*
X8581428Y-17982429D01*
X8567143Y-17996714D01*
X8552857Y-17982429D01*
X8567143Y-17968143D01*
X8567143Y-17996714D01*
X8767143Y-17696714D02*
X8795714Y-17696714D01*
X8824286Y-17711000D01*
X8838571Y-17725286D01*
X8852857Y-17753857D01*
X8867143Y-17811000D01*
X8867143Y-17882429D01*
X8852857Y-17939572D01*
X8838571Y-17968143D01*
X8824286Y-17982429D01*
X8795714Y-17996714D01*
X8767143Y-17996714D01*
X8738571Y-17982429D01*
X8724286Y-17968143D01*
X8710000Y-17939572D01*
X8695714Y-17882429D01*
X8695714Y-17811000D01*
X8710000Y-17753857D01*
X8724286Y-17725286D01*
X8738571Y-17711000D01*
X8767143Y-17696714D01*
X9052857Y-17696714D02*
X9081428Y-17696714D01*
X9110000Y-17711000D01*
X9124286Y-17725286D01*
X9138571Y-17753857D01*
X9152857Y-17811000D01*
X9152857Y-17882429D01*
X9138571Y-17939572D01*
X9124286Y-17968143D01*
X9110000Y-17982429D01*
X9081428Y-17996714D01*
X9052857Y-17996714D01*
X9024286Y-17982429D01*
X9010000Y-17968143D01*
X8995714Y-17939572D01*
X8981428Y-17882429D01*
X8981428Y-17811000D01*
X8995714Y-17753857D01*
X9010000Y-17725286D01*
X9024286Y-17711000D01*
X9052857Y-17696714D01*
X9338571Y-17696714D02*
X9367143Y-17696714D01*
X9395714Y-17711000D01*
X9410000Y-17725286D01*
X9424286Y-17753857D01*
X9438571Y-17811000D01*
X9438571Y-17882429D01*
X9424286Y-17939572D01*
X9410000Y-17968143D01*
X9395714Y-17982429D01*
X9367143Y-17996714D01*
X9338571Y-17996714D01*
X9310000Y-17982429D01*
X9295714Y-17968143D01*
X9281428Y-17939572D01*
X9267143Y-17882429D01*
X9267143Y-17811000D01*
X9281428Y-17753857D01*
X9295714Y-17725286D01*
X9310000Y-17711000D01*
X9338571Y-17696714D01*
X9567143Y-17996714D02*
X9567143Y-17796714D01*
X9567143Y-17825286D02*
X9581428Y-17811000D01*
X9610000Y-17796714D01*
X9652857Y-17796714D01*
X9681428Y-17811000D01*
X9695714Y-17839572D01*
X9695714Y-17996714D01*
X9695714Y-17839572D02*
X9710000Y-17811000D01*
X9738571Y-17796714D01*
X9781428Y-17796714D01*
X9810000Y-17811000D01*
X9824286Y-17839572D01*
X9824286Y-17996714D01*
X9967143Y-17996714D02*
X9967143Y-17796714D01*
X9967143Y-17825286D02*
X9981428Y-17811000D01*
X10010000Y-17796714D01*
X10052857Y-17796714D01*
X10081428Y-17811000D01*
X10095714Y-17839572D01*
X10095714Y-17996714D01*
X10095714Y-17839572D02*
X10110000Y-17811000D01*
X10138571Y-17796714D01*
X10181428Y-17796714D01*
X10210000Y-17811000D01*
X10224286Y-17839572D01*
X10224286Y-17996714D01*
X10810000Y-17682429D02*
X10552857Y-18068143D01*
X11195714Y-17696714D02*
X11224286Y-17696714D01*
X11252857Y-17711000D01*
X11267143Y-17725286D01*
X11281428Y-17753857D01*
X11295714Y-17811000D01*
X11295714Y-17882429D01*
X11281428Y-17939572D01*
X11267143Y-17968143D01*
X11252857Y-17982429D01*
X11224286Y-17996714D01*
X11195714Y-17996714D01*
X11167143Y-17982429D01*
X11152857Y-17968143D01*
X11138571Y-17939572D01*
X11124286Y-17882429D01*
X11124286Y-17811000D01*
X11138571Y-17753857D01*
X11152857Y-17725286D01*
X11167143Y-17711000D01*
X11195714Y-17696714D01*
X11424286Y-17968143D02*
X11438571Y-17982429D01*
X11424286Y-17996714D01*
X11410000Y-17982429D01*
X11424286Y-17968143D01*
X11424286Y-17996714D01*
X11724286Y-17996714D02*
X11552857Y-17996714D01*
X11638571Y-17996714D02*
X11638571Y-17696714D01*
X11610000Y-17739572D01*
X11581428Y-17768143D01*
X11552857Y-17782429D01*
X12010000Y-17996714D02*
X11838571Y-17996714D01*
X11924286Y-17996714D02*
X11924286Y-17696714D01*
X11895714Y-17739572D01*
X11867143Y-17768143D01*
X11838571Y-17782429D01*
X12181428Y-17825286D02*
X12152857Y-17811000D01*
X12138571Y-17796714D01*
X12124286Y-17768143D01*
X12124286Y-17753857D01*
X12138571Y-17725286D01*
X12152857Y-17711000D01*
X12181428Y-17696714D01*
X12238571Y-17696714D01*
X12267143Y-17711000D01*
X12281428Y-17725286D01*
X12295714Y-17753857D01*
X12295714Y-17768143D01*
X12281428Y-17796714D01*
X12267143Y-17811000D01*
X12238571Y-17825286D01*
X12181428Y-17825286D01*
X12152857Y-17839572D01*
X12138571Y-17853857D01*
X12124286Y-17882429D01*
X12124286Y-17939572D01*
X12138571Y-17968143D01*
X12152857Y-17982429D01*
X12181428Y-17996714D01*
X12238571Y-17996714D01*
X12267143Y-17982429D01*
X12281428Y-17968143D01*
X12295714Y-17939572D01*
X12295714Y-17882429D01*
X12281428Y-17853857D01*
X12267143Y-17839572D01*
X12238571Y-17825286D01*
X12581428Y-17996714D02*
X12410000Y-17996714D01*
X12495714Y-17996714D02*
X12495714Y-17696714D01*
X12467143Y-17739572D01*
X12438571Y-17768143D01*
X12410000Y-17782429D01*
X12695714Y-17696714D02*
X12695714Y-17753857D01*
X12810000Y-17696714D02*
X12810000Y-17753857D01*
X13252857Y-18111000D02*
X13238571Y-18096714D01*
X13210000Y-18053857D01*
X13195714Y-18025286D01*
X13181428Y-17982429D01*
X13167143Y-17911000D01*
X13167143Y-17853857D01*
X13181428Y-17782429D01*
X13195714Y-17739572D01*
X13210000Y-17711000D01*
X13238571Y-17668143D01*
X13252857Y-17653857D01*
X13510000Y-17696714D02*
X13367143Y-17696714D01*
X13352857Y-17839572D01*
X13367143Y-17825286D01*
X13395714Y-17811000D01*
X13467143Y-17811000D01*
X13495714Y-17825286D01*
X13510000Y-17839572D01*
X13524286Y-17868143D01*
X13524286Y-17939572D01*
X13510000Y-17968143D01*
X13495714Y-17982429D01*
X13467143Y-17996714D01*
X13395714Y-17996714D01*
X13367143Y-17982429D01*
X13352857Y-17968143D01*
X13881428Y-17996714D02*
X13881428Y-17696714D01*
X14010000Y-17996714D02*
X14010000Y-17839572D01*
X13995714Y-17811000D01*
X13967143Y-17796714D01*
X13924286Y-17796714D01*
X13895714Y-17811000D01*
X13881428Y-17825286D01*
X14195714Y-17996714D02*
X14167143Y-17982429D01*
X14152857Y-17968143D01*
X14138571Y-17939572D01*
X14138571Y-17853857D01*
X14152857Y-17825286D01*
X14167143Y-17811000D01*
X14195714Y-17796714D01*
X14238571Y-17796714D01*
X14267143Y-17811000D01*
X14281428Y-17825286D01*
X14295714Y-17853857D01*
X14295714Y-17939572D01*
X14281428Y-17968143D01*
X14267143Y-17982429D01*
X14238571Y-17996714D01*
X14195714Y-17996714D01*
X14467143Y-17996714D02*
X14438571Y-17982429D01*
X14424286Y-17953857D01*
X14424286Y-17696714D01*
X14695714Y-17982429D02*
X14667143Y-17996714D01*
X14610000Y-17996714D01*
X14581428Y-17982429D01*
X14567143Y-17953857D01*
X14567143Y-17839572D01*
X14581428Y-17811000D01*
X14610000Y-17796714D01*
X14667143Y-17796714D01*
X14695714Y-17811000D01*
X14710000Y-17839572D01*
X14710000Y-17868143D01*
X14567143Y-17896714D01*
X14824286Y-17982429D02*
X14852857Y-17996714D01*
X14910000Y-17996714D01*
X14938571Y-17982429D01*
X14952857Y-17953857D01*
X14952857Y-17939572D01*
X14938571Y-17911000D01*
X14910000Y-17896714D01*
X14867143Y-17896714D01*
X14838571Y-17882429D01*
X14824286Y-17853857D01*
X14824286Y-17839572D01*
X14838571Y-17811000D01*
X14867143Y-17796714D01*
X14910000Y-17796714D01*
X14938571Y-17811000D01*
X15052857Y-18111000D02*
X15067143Y-18096714D01*
X15095714Y-18053857D01*
X15110000Y-18025286D01*
X15124286Y-17982429D01*
X15138571Y-17911000D01*
X15138571Y-17853857D01*
X15124286Y-17782429D01*
X15110000Y-17739572D01*
X15095714Y-17711000D01*
X15067143Y-17668143D01*
X15052857Y-17653857D01*
X15595714Y-18111000D02*
X15581428Y-18096714D01*
X15552857Y-18053857D01*
X15538571Y-18025286D01*
X15524286Y-17982429D01*
X15510000Y-17911000D01*
X15510000Y-17853857D01*
X15524286Y-17782429D01*
X15538571Y-17739572D01*
X15552857Y-17711000D01*
X15581428Y-17668143D01*
X15595714Y-17653857D01*
X15710000Y-17796714D02*
X15710000Y-17996714D01*
X15710000Y-17825286D02*
X15724286Y-17811000D01*
X15752857Y-17796714D01*
X15795714Y-17796714D01*
X15824286Y-17811000D01*
X15838571Y-17839572D01*
X15838571Y-17996714D01*
X16024286Y-17996714D02*
X15995714Y-17982429D01*
X15981428Y-17968143D01*
X15967143Y-17939572D01*
X15967143Y-17853857D01*
X15981428Y-17825286D01*
X15995714Y-17811000D01*
X16024286Y-17796714D01*
X16067143Y-17796714D01*
X16095714Y-17811000D01*
X16110000Y-17825286D01*
X16124286Y-17853857D01*
X16124286Y-17939572D01*
X16110000Y-17968143D01*
X16095714Y-17982429D01*
X16067143Y-17996714D01*
X16024286Y-17996714D01*
X16210000Y-17796714D02*
X16324286Y-17796714D01*
X16252857Y-17696714D02*
X16252857Y-17953857D01*
X16267143Y-17982429D01*
X16295714Y-17996714D01*
X16324286Y-17996714D01*
X16652857Y-17796714D02*
X16652857Y-18096714D01*
X16652857Y-17811000D02*
X16681428Y-17796714D01*
X16738571Y-17796714D01*
X16767143Y-17811000D01*
X16781428Y-17825286D01*
X16795714Y-17853857D01*
X16795714Y-17939572D01*
X16781428Y-17968143D01*
X16767143Y-17982429D01*
X16738571Y-17996714D01*
X16681428Y-17996714D01*
X16652857Y-17982429D01*
X16967143Y-17996714D02*
X16938571Y-17982429D01*
X16924286Y-17953857D01*
X16924286Y-17696714D01*
X17210000Y-17996714D02*
X17210000Y-17839572D01*
X17195714Y-17811000D01*
X17167143Y-17796714D01*
X17110000Y-17796714D01*
X17081428Y-17811000D01*
X17210000Y-17982429D02*
X17181428Y-17996714D01*
X17110000Y-17996714D01*
X17081428Y-17982429D01*
X17067143Y-17953857D01*
X17067143Y-17925286D01*
X17081428Y-17896714D01*
X17110000Y-17882429D01*
X17181428Y-17882429D01*
X17210000Y-17868143D01*
X17310000Y-17796714D02*
X17424286Y-17796714D01*
X17352857Y-17696714D02*
X17352857Y-17953857D01*
X17367143Y-17982429D01*
X17395714Y-17996714D01*
X17424286Y-17996714D01*
X17638571Y-17982429D02*
X17610000Y-17996714D01*
X17552857Y-17996714D01*
X17524286Y-17982429D01*
X17510000Y-17953857D01*
X17510000Y-17839572D01*
X17524286Y-17811000D01*
X17552857Y-17796714D01*
X17610000Y-17796714D01*
X17638571Y-17811000D01*
X17652857Y-17839572D01*
X17652857Y-17868143D01*
X17510000Y-17896714D01*
X17910000Y-17996714D02*
X17910000Y-17696714D01*
X17910000Y-17982429D02*
X17881428Y-17996714D01*
X17824286Y-17996714D01*
X17795714Y-17982429D01*
X17781428Y-17968143D01*
X17767143Y-17939572D01*
X17767143Y-17853857D01*
X17781428Y-17825286D01*
X17795714Y-17811000D01*
X17824286Y-17796714D01*
X17881428Y-17796714D01*
X17910000Y-17811000D01*
X18024286Y-18111000D02*
X18038571Y-18096714D01*
X18067143Y-18053857D01*
X18081428Y-18025286D01*
X18095714Y-17982429D01*
X18110000Y-17911000D01*
X18110000Y-17853857D01*
X18095714Y-17782429D01*
X18081428Y-17739572D01*
X18067143Y-17711000D01*
X18038571Y-17668143D01*
X18024286Y-17653857D01*
X7810000Y-18106000D02*
X7810000Y-18476000D01*
X7625000Y-18291000D02*
X7995000Y-18291000D01*
X8252857Y-18126714D02*
X8438571Y-18126714D01*
X8338571Y-18241000D01*
X8381428Y-18241000D01*
X8410000Y-18255286D01*
X8424286Y-18269572D01*
X8438571Y-18298143D01*
X8438571Y-18369572D01*
X8424286Y-18398143D01*
X8410000Y-18412429D01*
X8381428Y-18426714D01*
X8295714Y-18426714D01*
X8267143Y-18412429D01*
X8252857Y-18398143D01*
X8567143Y-18398143D02*
X8581428Y-18412429D01*
X8567143Y-18426714D01*
X8552857Y-18412429D01*
X8567143Y-18398143D01*
X8567143Y-18426714D01*
X8681428Y-18126714D02*
X8881428Y-18126714D01*
X8752857Y-18426714D01*
X9052857Y-18126714D02*
X9081428Y-18126714D01*
X9110000Y-18141000D01*
X9124286Y-18155286D01*
X9138571Y-18183857D01*
X9152857Y-18241000D01*
X9152857Y-18312429D01*
X9138571Y-18369572D01*
X9124286Y-18398143D01*
X9110000Y-18412429D01*
X9081428Y-18426714D01*
X9052857Y-18426714D01*
X9024286Y-18412429D01*
X9010000Y-18398143D01*
X8995714Y-18369572D01*
X8981428Y-18312429D01*
X8981428Y-18241000D01*
X8995714Y-18183857D01*
X9010000Y-18155286D01*
X9024286Y-18141000D01*
X9052857Y-18126714D01*
X9338571Y-18126714D02*
X9367143Y-18126714D01*
X9395714Y-18141000D01*
X9410000Y-18155286D01*
X9424286Y-18183857D01*
X9438571Y-18241000D01*
X9438571Y-18312429D01*
X9424286Y-18369572D01*
X9410000Y-18398143D01*
X9395714Y-18412429D01*
X9367143Y-18426714D01*
X9338571Y-18426714D01*
X9310000Y-18412429D01*
X9295714Y-18398143D01*
X9281428Y-18369572D01*
X9267143Y-18312429D01*
X9267143Y-18241000D01*
X9281428Y-18183857D01*
X9295714Y-18155286D01*
X9310000Y-18141000D01*
X9338571Y-18126714D01*
X9567143Y-18426714D02*
X9567143Y-18226714D01*
X9567143Y-18255286D02*
X9581428Y-18241000D01*
X9610000Y-18226714D01*
X9652857Y-18226714D01*
X9681428Y-18241000D01*
X9695714Y-18269572D01*
X9695714Y-18426714D01*
X9695714Y-18269572D02*
X9710000Y-18241000D01*
X9738571Y-18226714D01*
X9781428Y-18226714D01*
X9810000Y-18241000D01*
X9824286Y-18269572D01*
X9824286Y-18426714D01*
X9967143Y-18426714D02*
X9967143Y-18226714D01*
X9967143Y-18255286D02*
X9981428Y-18241000D01*
X10010000Y-18226714D01*
X10052857Y-18226714D01*
X10081428Y-18241000D01*
X10095714Y-18269572D01*
X10095714Y-18426714D01*
X10095714Y-18269572D02*
X10110000Y-18241000D01*
X10138571Y-18226714D01*
X10181428Y-18226714D01*
X10210000Y-18241000D01*
X10224286Y-18269572D01*
X10224286Y-18426714D01*
X10810000Y-18112429D02*
X10552857Y-18498143D01*
X11195714Y-18126714D02*
X11224286Y-18126714D01*
X11252857Y-18141000D01*
X11267143Y-18155286D01*
X11281428Y-18183857D01*
X11295714Y-18241000D01*
X11295714Y-18312429D01*
X11281428Y-18369572D01*
X11267143Y-18398143D01*
X11252857Y-18412429D01*
X11224286Y-18426714D01*
X11195714Y-18426714D01*
X11167143Y-18412429D01*
X11152857Y-18398143D01*
X11138571Y-18369572D01*
X11124286Y-18312429D01*
X11124286Y-18241000D01*
X11138571Y-18183857D01*
X11152857Y-18155286D01*
X11167143Y-18141000D01*
X11195714Y-18126714D01*
X11424286Y-18398143D02*
X11438571Y-18412429D01*
X11424286Y-18426714D01*
X11410000Y-18412429D01*
X11424286Y-18398143D01*
X11424286Y-18426714D01*
X11724286Y-18426714D02*
X11552857Y-18426714D01*
X11638571Y-18426714D02*
X11638571Y-18126714D01*
X11610000Y-18169572D01*
X11581428Y-18198143D01*
X11552857Y-18212429D01*
X11981428Y-18226714D02*
X11981428Y-18426714D01*
X11910000Y-18112429D02*
X11838571Y-18326714D01*
X12024286Y-18326714D01*
X12281428Y-18126714D02*
X12138571Y-18126714D01*
X12124286Y-18269572D01*
X12138571Y-18255286D01*
X12167143Y-18241000D01*
X12238571Y-18241000D01*
X12267143Y-18255286D01*
X12281428Y-18269572D01*
X12295714Y-18298143D01*
X12295714Y-18369572D01*
X12281428Y-18398143D01*
X12267143Y-18412429D01*
X12238571Y-18426714D01*
X12167143Y-18426714D01*
X12138571Y-18412429D01*
X12124286Y-18398143D01*
X12395714Y-18126714D02*
X12595714Y-18126714D01*
X12467143Y-18426714D01*
X12695714Y-18126714D02*
X12695714Y-18183857D01*
X12810000Y-18126714D02*
X12810000Y-18183857D01*
X13252857Y-18541000D02*
X13238571Y-18526714D01*
X13210000Y-18483857D01*
X13195714Y-18455286D01*
X13181428Y-18412429D01*
X13167143Y-18341000D01*
X13167143Y-18283857D01*
X13181428Y-18212429D01*
X13195714Y-18169572D01*
X13210000Y-18141000D01*
X13238571Y-18098143D01*
X13252857Y-18083857D01*
X13495714Y-18126714D02*
X13438571Y-18126714D01*
X13410000Y-18141000D01*
X13395714Y-18155286D01*
X13367143Y-18198143D01*
X13352857Y-18255286D01*
X13352857Y-18369572D01*
X13367143Y-18398143D01*
X13381428Y-18412429D01*
X13410000Y-18426714D01*
X13467143Y-18426714D01*
X13495714Y-18412429D01*
X13510000Y-18398143D01*
X13524286Y-18369572D01*
X13524286Y-18298143D01*
X13510000Y-18269572D01*
X13495714Y-18255286D01*
X13467143Y-18241000D01*
X13410000Y-18241000D01*
X13381428Y-18255286D01*
X13367143Y-18269572D01*
X13352857Y-18298143D01*
X13881428Y-18426714D02*
X13881428Y-18126714D01*
X14010000Y-18426714D02*
X14010000Y-18269572D01*
X13995714Y-18241000D01*
X13967143Y-18226714D01*
X13924286Y-18226714D01*
X13895714Y-18241000D01*
X13881428Y-18255286D01*
X14195714Y-18426714D02*
X14167143Y-18412429D01*
X14152857Y-18398143D01*
X14138571Y-18369572D01*
X14138571Y-18283857D01*
X14152857Y-18255286D01*
X14167143Y-18241000D01*
X14195714Y-18226714D01*
X14238571Y-18226714D01*
X14267143Y-18241000D01*
X14281428Y-18255286D01*
X14295714Y-18283857D01*
X14295714Y-18369572D01*
X14281428Y-18398143D01*
X14267143Y-18412429D01*
X14238571Y-18426714D01*
X14195714Y-18426714D01*
X14467143Y-18426714D02*
X14438571Y-18412429D01*
X14424286Y-18383857D01*
X14424286Y-18126714D01*
X14695714Y-18412429D02*
X14667143Y-18426714D01*
X14610000Y-18426714D01*
X14581428Y-18412429D01*
X14567143Y-18383857D01*
X14567143Y-18269572D01*
X14581428Y-18241000D01*
X14610000Y-18226714D01*
X14667143Y-18226714D01*
X14695714Y-18241000D01*
X14710000Y-18269572D01*
X14710000Y-18298143D01*
X14567143Y-18326714D01*
X14824286Y-18412429D02*
X14852857Y-18426714D01*
X14910000Y-18426714D01*
X14938571Y-18412429D01*
X14952857Y-18383857D01*
X14952857Y-18369572D01*
X14938571Y-18341000D01*
X14910000Y-18326714D01*
X14867143Y-18326714D01*
X14838571Y-18312429D01*
X14824286Y-18283857D01*
X14824286Y-18269572D01*
X14838571Y-18241000D01*
X14867143Y-18226714D01*
X14910000Y-18226714D01*
X14938571Y-18241000D01*
X15052857Y-18541000D02*
X15067143Y-18526714D01*
X15095714Y-18483857D01*
X15110000Y-18455286D01*
X15124286Y-18412429D01*
X15138571Y-18341000D01*
X15138571Y-18283857D01*
X15124286Y-18212429D01*
X15110000Y-18169572D01*
X15095714Y-18141000D01*
X15067143Y-18098143D01*
X15052857Y-18083857D01*
X15595714Y-18541000D02*
X15581428Y-18526714D01*
X15552857Y-18483857D01*
X15538571Y-18455286D01*
X15524286Y-18412429D01*
X15510000Y-18341000D01*
X15510000Y-18283857D01*
X15524286Y-18212429D01*
X15538571Y-18169572D01*
X15552857Y-18141000D01*
X15581428Y-18098143D01*
X15595714Y-18083857D01*
X15710000Y-18226714D02*
X15710000Y-18426714D01*
X15710000Y-18255286D02*
X15724286Y-18241000D01*
X15752857Y-18226714D01*
X15795714Y-18226714D01*
X15824286Y-18241000D01*
X15838571Y-18269572D01*
X15838571Y-18426714D01*
X16024286Y-18426714D02*
X15995714Y-18412429D01*
X15981428Y-18398143D01*
X15967143Y-18369572D01*
X15967143Y-18283857D01*
X15981428Y-18255286D01*
X15995714Y-18241000D01*
X16024286Y-18226714D01*
X16067143Y-18226714D01*
X16095714Y-18241000D01*
X16110000Y-18255286D01*
X16124286Y-18283857D01*
X16124286Y-18369572D01*
X16110000Y-18398143D01*
X16095714Y-18412429D01*
X16067143Y-18426714D01*
X16024286Y-18426714D01*
X16210000Y-18226714D02*
X16324286Y-18226714D01*
X16252857Y-18126714D02*
X16252857Y-18383857D01*
X16267143Y-18412429D01*
X16295714Y-18426714D01*
X16324286Y-18426714D01*
X16652857Y-18226714D02*
X16652857Y-18526714D01*
X16652857Y-18241000D02*
X16681428Y-18226714D01*
X16738571Y-18226714D01*
X16767143Y-18241000D01*
X16781428Y-18255286D01*
X16795714Y-18283857D01*
X16795714Y-18369572D01*
X16781428Y-18398143D01*
X16767143Y-18412429D01*
X16738571Y-18426714D01*
X16681428Y-18426714D01*
X16652857Y-18412429D01*
X16967143Y-18426714D02*
X16938571Y-18412429D01*
X16924286Y-18383857D01*
X16924286Y-18126714D01*
X17210000Y-18426714D02*
X17210000Y-18269572D01*
X17195714Y-18241000D01*
X17167143Y-18226714D01*
X17110000Y-18226714D01*
X17081428Y-18241000D01*
X17210000Y-18412429D02*
X17181428Y-18426714D01*
X17110000Y-18426714D01*
X17081428Y-18412429D01*
X17067143Y-18383857D01*
X17067143Y-18355286D01*
X17081428Y-18326714D01*
X17110000Y-18312429D01*
X17181428Y-18312429D01*
X17210000Y-18298143D01*
X17310000Y-18226714D02*
X17424286Y-18226714D01*
X17352857Y-18126714D02*
X17352857Y-18383857D01*
X17367143Y-18412429D01*
X17395714Y-18426714D01*
X17424286Y-18426714D01*
X17638571Y-18412429D02*
X17610000Y-18426714D01*
X17552857Y-18426714D01*
X17524286Y-18412429D01*
X17510000Y-18383857D01*
X17510000Y-18269572D01*
X17524286Y-18241000D01*
X17552857Y-18226714D01*
X17610000Y-18226714D01*
X17638571Y-18241000D01*
X17652857Y-18269572D01*
X17652857Y-18298143D01*
X17510000Y-18326714D01*
X17910000Y-18426714D02*
X17910000Y-18126714D01*
X17910000Y-18412429D02*
X17881428Y-18426714D01*
X17824286Y-18426714D01*
X17795714Y-18412429D01*
X17781428Y-18398143D01*
X17767143Y-18369572D01*
X17767143Y-18283857D01*
X17781428Y-18255286D01*
X17795714Y-18241000D01*
X17824286Y-18226714D01*
X17881428Y-18226714D01*
X17910000Y-18241000D01*
X18024286Y-18541000D02*
X18038571Y-18526714D01*
X18067143Y-18483857D01*
X18081428Y-18455286D01*
X18095714Y-18412429D01*
X18110000Y-18341000D01*
X18110000Y-18283857D01*
X18095714Y-18212429D01*
X18081428Y-18169572D01*
X18067143Y-18141000D01*
X18038571Y-18098143D01*
X18024286Y-18083857D01*
M02*
