%FSLAX45Y45*%
G04 Gerber Fmt 4.5, Leading zero omitted, Abs format (unit mm)*
G04 Created by KiCad (PCBNEW (5.1.10)-1) date 2022-01-30 14:23:47*
%MOMM*%
%LPD*%
G01*
G04 APERTURE LIST*
%TA.AperFunction,Profile*%
%ADD10C,0.100000*%
%TD*%
%ADD11C,0.200000*%
%ADD12C,0.300000*%
G04 APERTURE END LIST*
D10*
X8500000Y-16500000D02*
X13500000Y-16500000D01*
X14000000Y-16000000D02*
G75*
G02*
X13500000Y-16500000I-500000J0D01*
G01*
X14000000Y-3000000D02*
X14000000Y-16000000D01*
X13500000Y-2500000D02*
G75*
G02*
X14000000Y-3000000I0J-500000D01*
G01*
X8500000Y-2500000D02*
X13500000Y-2500000D01*
X8000000Y-3000000D02*
G75*
G02*
X8500000Y-2500000I500000J0D01*
G01*
X8500000Y-16500000D02*
G75*
G02*
X8000000Y-16000000I0J500000D01*
G01*
X8000000Y-3000000D02*
X8000000Y-16000000D01*
D11*
X9705000Y-3885000D02*
X9735000Y-3915000D01*
X9735000Y-3885000D02*
X9705000Y-3915000D01*
X9705000Y-3995000D02*
X9735000Y-4025000D01*
X9735000Y-3995000D02*
X9705000Y-4025000D01*
X9705000Y-4125000D02*
X9735000Y-4155000D01*
X9735000Y-4125000D02*
X9705000Y-4155000D01*
X9705000Y-4245000D02*
X9735000Y-4275000D01*
X9735000Y-4245000D02*
X9705000Y-4275000D01*
X9825000Y-3885000D02*
X9855000Y-3915000D01*
X9855000Y-3885000D02*
X9825000Y-3915000D01*
X9825000Y-3995000D02*
X9855000Y-4025000D01*
X9855000Y-3995000D02*
X9825000Y-4025000D01*
X9825000Y-4125000D02*
X9855000Y-4155000D01*
X9855000Y-4125000D02*
X9825000Y-4155000D01*
X9825000Y-4245000D02*
X9855000Y-4275000D01*
X9855000Y-4245000D02*
X9825000Y-4275000D01*
X8320000Y-6000000D02*
G75*
G03*
X8320000Y-6000000I-20000J0D01*
G01*
X8720000Y-10200000D02*
G75*
G03*
X8720000Y-10200000I-20000J0D01*
G01*
X8720000Y-10725000D02*
G75*
G03*
X8720000Y-10725000I-20000J0D01*
G01*
X8845000Y-11025000D02*
G75*
G03*
X8845000Y-11025000I-20000J0D01*
G01*
X8895000Y-9950000D02*
G75*
G03*
X8895000Y-9950000I-20000J0D01*
G01*
X8995000Y-8125000D02*
G75*
G03*
X8995000Y-8125000I-20000J0D01*
G01*
X8995000Y-9600000D02*
G75*
G03*
X8995000Y-9600000I-20000J0D01*
G01*
X8995000Y-11800000D02*
G75*
G03*
X8995000Y-11800000I-20000J0D01*
G01*
X9070000Y-6325000D02*
G75*
G03*
X9070000Y-6325000I-20000J0D01*
G01*
X9070000Y-8375000D02*
G75*
G03*
X9070000Y-8375000I-20000J0D01*
G01*
X9120000Y-3500000D02*
G75*
G03*
X9120000Y-3500000I-20000J0D01*
G01*
X9120000Y-3600000D02*
G75*
G03*
X9120000Y-3600000I-20000J0D01*
G01*
X9215000Y-9398137D02*
G75*
G03*
X9215000Y-9398137I-20000J0D01*
G01*
X9220000Y-3500000D02*
G75*
G03*
X9220000Y-3500000I-20000J0D01*
G01*
X9220000Y-3600000D02*
G75*
G03*
X9220000Y-3600000I-20000J0D01*
G01*
X9290001Y-11395001D02*
G75*
G03*
X9290001Y-11395001I-20000J0D01*
G01*
X9320000Y-3500000D02*
G75*
G03*
X9320000Y-3500000I-20000J0D01*
G01*
X9320000Y-3600000D02*
G75*
G03*
X9320000Y-3600000I-20000J0D01*
G01*
X9320000Y-12325000D02*
G75*
G03*
X9320000Y-12325000I-20000J0D01*
G01*
X9345000Y-10800000D02*
G75*
G03*
X9345000Y-10800000I-20000J0D01*
G01*
X9420000Y-3500000D02*
G75*
G03*
X9420000Y-3500000I-20000J0D01*
G01*
X9420000Y-3600000D02*
G75*
G03*
X9420000Y-3600000I-20000J0D01*
G01*
X9445000Y-13375000D02*
G75*
G03*
X9445000Y-13375000I-20000J0D01*
G01*
X9495000Y-10250000D02*
G75*
G03*
X9495000Y-10250000I-20000J0D01*
G01*
X9520000Y-3500000D02*
G75*
G03*
X9520000Y-3500000I-20000J0D01*
G01*
X9520000Y-3600000D02*
G75*
G03*
X9520000Y-3600000I-20000J0D01*
G01*
X9540000Y-9350000D02*
G75*
G03*
X9540000Y-9350000I-20000J0D01*
G01*
X9545000Y-11800000D02*
G75*
G03*
X9545000Y-11800000I-20000J0D01*
G01*
X9590000Y-6890000D02*
G75*
G03*
X9590000Y-6890000I-20000J0D01*
G01*
X9590000Y-7030000D02*
G75*
G03*
X9590000Y-7030000I-20000J0D01*
G01*
X9620000Y-3500000D02*
G75*
G03*
X9620000Y-3500000I-20000J0D01*
G01*
X9620000Y-3600000D02*
G75*
G03*
X9620000Y-3600000I-20000J0D01*
G01*
X9720000Y-3500000D02*
G75*
G03*
X9720000Y-3500000I-20000J0D01*
G01*
X9720000Y-3600000D02*
G75*
G03*
X9720000Y-3600000I-20000J0D01*
G01*
X9845000Y-10250000D02*
G75*
G03*
X9845000Y-10250000I-20000J0D01*
G01*
X9870000Y-11100000D02*
G75*
G03*
X9870000Y-11100000I-20000J0D01*
G01*
X9895000Y-12325000D02*
G75*
G03*
X9895000Y-12325000I-20000J0D01*
G01*
X9920000Y-11900000D02*
G75*
G03*
X9920000Y-11900000I-20000J0D01*
G01*
X9950000Y-10000000D02*
G75*
G03*
X9950000Y-10000000I-20000J0D01*
G01*
X10220000Y-7175000D02*
G75*
G03*
X10220000Y-7175000I-20000J0D01*
G01*
X10240000Y-13630000D02*
G75*
G03*
X10240000Y-13630000I-20000J0D01*
G01*
X10270000Y-7675000D02*
G75*
G03*
X10270000Y-7675000I-20000J0D01*
G01*
X10270000Y-14040000D02*
G75*
G03*
X10270000Y-14040000I-20000J0D01*
G01*
X10340000Y-9995000D02*
G75*
G03*
X10340000Y-9995000I-20000J0D01*
G01*
X10345000Y-9825000D02*
G75*
G03*
X10345000Y-9825000I-20000J0D01*
G01*
X10345000Y-11775000D02*
G75*
G03*
X10345000Y-11775000I-20000J0D01*
G01*
X10370000Y-6825000D02*
G75*
G03*
X10370000Y-6825000I-20000J0D01*
G01*
X10395000Y-7850000D02*
G75*
G03*
X10395000Y-7850000I-20000J0D01*
G01*
X10395000Y-12525000D02*
G75*
G03*
X10395000Y-12525000I-20000J0D01*
G01*
X10420000Y-12975000D02*
G75*
G03*
X10420000Y-12975000I-20000J0D01*
G01*
X10445000Y-9050000D02*
G75*
G03*
X10445000Y-9050000I-20000J0D01*
G01*
X10445000Y-9450000D02*
G75*
G03*
X10445000Y-9450000I-20000J0D01*
G01*
X10445000Y-10500000D02*
G75*
G03*
X10445000Y-10500000I-20000J0D01*
G01*
X10520000Y-2700000D02*
G75*
G03*
X10520000Y-2700000I-20000J0D01*
G01*
X10520000Y-2800000D02*
G75*
G03*
X10520000Y-2800000I-20000J0D01*
G01*
X10520000Y-2900000D02*
G75*
G03*
X10520000Y-2900000I-20000J0D01*
G01*
X10520000Y-3000000D02*
G75*
G03*
X10520000Y-3000000I-20000J0D01*
G01*
X10520000Y-3100000D02*
G75*
G03*
X10520000Y-3100000I-20000J0D01*
G01*
X10520000Y-3200000D02*
G75*
G03*
X10520000Y-3200000I-20000J0D01*
G01*
X10520000Y-3300000D02*
G75*
G03*
X10520000Y-3300000I-20000J0D01*
G01*
X10545000Y-7675000D02*
G75*
G03*
X10545000Y-7675000I-20000J0D01*
G01*
X10570000Y-6825000D02*
G75*
G03*
X10570000Y-6825000I-20000J0D01*
G01*
X10570000Y-11100000D02*
G75*
G03*
X10570000Y-11100000I-20000J0D01*
G01*
X10570000Y-11850000D02*
G75*
G03*
X10570000Y-11850000I-20000J0D01*
G01*
X10620000Y-2700000D02*
G75*
G03*
X10620000Y-2700000I-20000J0D01*
G01*
X10620000Y-2800000D02*
G75*
G03*
X10620000Y-2800000I-20000J0D01*
G01*
X10620000Y-2900000D02*
G75*
G03*
X10620000Y-2900000I-20000J0D01*
G01*
X10620000Y-3000000D02*
G75*
G03*
X10620000Y-3000000I-20000J0D01*
G01*
X10620000Y-3100000D02*
G75*
G03*
X10620000Y-3100000I-20000J0D01*
G01*
X10620000Y-3200000D02*
G75*
G03*
X10620000Y-3200000I-20000J0D01*
G01*
X10620000Y-3300000D02*
G75*
G03*
X10620000Y-3300000I-20000J0D01*
G01*
X10620000Y-8900000D02*
G75*
G03*
X10620000Y-8900000I-20000J0D01*
G01*
X10620000Y-9300000D02*
G75*
G03*
X10620000Y-9300000I-20000J0D01*
G01*
X10620000Y-9725000D02*
G75*
G03*
X10620000Y-9725000I-20000J0D01*
G01*
X10620000Y-10350000D02*
G75*
G03*
X10620000Y-10350000I-20000J0D01*
G01*
X10670000Y-7675000D02*
G75*
G03*
X10670000Y-7675000I-20000J0D01*
G01*
X10695000Y-11200000D02*
G75*
G03*
X10695000Y-11200000I-20000J0D01*
G01*
X10720000Y-2700000D02*
G75*
G03*
X10720000Y-2700000I-20000J0D01*
G01*
X10720000Y-2800000D02*
G75*
G03*
X10720000Y-2800000I-20000J0D01*
G01*
X10720000Y-2900000D02*
G75*
G03*
X10720000Y-2900000I-20000J0D01*
G01*
X10720000Y-3000000D02*
G75*
G03*
X10720000Y-3000000I-20000J0D01*
G01*
X10720000Y-3100000D02*
G75*
G03*
X10720000Y-3100000I-20000J0D01*
G01*
X10720000Y-3200000D02*
G75*
G03*
X10720000Y-3200000I-20000J0D01*
G01*
X10720000Y-3300000D02*
G75*
G03*
X10720000Y-3300000I-20000J0D01*
G01*
X10745000Y-7250000D02*
G75*
G03*
X10745000Y-7250000I-20000J0D01*
G01*
X10745000Y-12550000D02*
G75*
G03*
X10745000Y-12550000I-20000J0D01*
G01*
X10895000Y-11350000D02*
G75*
G03*
X10895000Y-11350000I-20000J0D01*
G01*
X10895000Y-11975000D02*
G75*
G03*
X10895000Y-11975000I-20000J0D01*
G01*
X10920000Y-7675000D02*
G75*
G03*
X10920000Y-7675000I-20000J0D01*
G01*
X10920000Y-7825000D02*
G75*
G03*
X10920000Y-7825000I-20000J0D01*
G01*
X10945000Y-8725000D02*
G75*
G03*
X10945000Y-8725000I-20000J0D01*
G01*
X10960000Y-5590000D02*
G75*
G03*
X10960000Y-5590000I-20000J0D01*
G01*
X11070000Y-10800000D02*
G75*
G03*
X11070000Y-10800000I-20000J0D01*
G01*
X11095000Y-12550000D02*
G75*
G03*
X11095000Y-12550000I-20000J0D01*
G01*
X11160000Y-6155000D02*
G75*
G03*
X11160000Y-6155000I-20000J0D01*
G01*
X11170000Y-7675000D02*
G75*
G03*
X11170000Y-7675000I-20000J0D01*
G01*
X11195000Y-6575000D02*
G75*
G03*
X11195000Y-6575000I-20000J0D01*
G01*
X11240000Y-11730000D02*
G75*
G03*
X11240000Y-11730000I-20000J0D01*
G01*
X11257500Y-10112500D02*
G75*
G03*
X11257500Y-10112500I-20000J0D01*
G01*
X11320000Y-6375000D02*
G75*
G03*
X11320000Y-6375000I-20000J0D01*
G01*
X11340000Y-11980000D02*
G75*
G03*
X11340000Y-11980000I-20000J0D01*
G01*
X11367500Y-10440000D02*
G75*
G03*
X11367500Y-10440000I-20000J0D01*
G01*
X11370000Y-11175000D02*
G75*
G03*
X11370000Y-11175000I-20000J0D01*
G01*
X11372500Y-10280000D02*
G75*
G03*
X11372500Y-10280000I-20000J0D01*
G01*
X11395000Y-4750000D02*
G75*
G03*
X11395000Y-4750000I-20000J0D01*
G01*
X11395000Y-9450000D02*
G75*
G03*
X11395000Y-9450000I-20000J0D01*
G01*
X11445000Y-9225000D02*
G75*
G03*
X11445000Y-9225000I-20000J0D01*
G01*
X11445000Y-10675000D02*
G75*
G03*
X11445000Y-10675000I-20000J0D01*
G01*
X11445000Y-12325000D02*
G75*
G03*
X11445000Y-12325000I-20000J0D01*
G01*
X11500000Y-6690000D02*
G75*
G03*
X11500000Y-6690000I-20000J0D01*
G01*
X11520000Y-10125000D02*
G75*
G03*
X11520000Y-10125000I-20000J0D01*
G01*
X11520000Y-13400000D02*
G75*
G03*
X11520000Y-13400000I-20000J0D01*
G01*
X11520000Y-13650000D02*
G75*
G03*
X11520000Y-13650000I-20000J0D01*
G01*
X11570000Y-4750000D02*
G75*
G03*
X11570000Y-4750000I-20000J0D01*
G01*
X11595000Y-3625000D02*
G75*
G03*
X11595000Y-3625000I-20000J0D01*
G01*
X11595000Y-8475000D02*
G75*
G03*
X11595000Y-8475000I-20000J0D01*
G01*
X11830000Y-8080000D02*
G75*
G03*
X11830000Y-8080000I-20000J0D01*
G01*
X11845000Y-6800000D02*
G75*
G03*
X11845000Y-6800000I-20000J0D01*
G01*
X11845000Y-7100000D02*
G75*
G03*
X11845000Y-7100000I-20000J0D01*
G01*
X11845000Y-10750000D02*
G75*
G03*
X11845000Y-10750000I-20000J0D01*
G01*
X11890000Y-8140000D02*
G75*
G03*
X11890000Y-8140000I-20000J0D01*
G01*
X11920000Y-10300000D02*
G75*
G03*
X11920000Y-10300000I-20000J0D01*
G01*
X11945000Y-11075000D02*
G75*
G03*
X11945000Y-11075000I-20000J0D01*
G01*
X11970000Y-8700000D02*
G75*
G03*
X11970000Y-8700000I-20000J0D01*
G01*
X11970000Y-9225000D02*
G75*
G03*
X11970000Y-9225000I-20000J0D01*
G01*
X11995000Y-10000000D02*
G75*
G03*
X11995000Y-10000000I-20000J0D01*
G01*
X12029718Y-12734718D02*
G75*
G03*
X12029718Y-12734718I-20000J0D01*
G01*
X12085224Y-10665225D02*
G75*
G03*
X12085224Y-10665225I-20000J0D01*
G01*
X12095000Y-9875000D02*
G75*
G03*
X12095000Y-9875000I-20000J0D01*
G01*
X12395000Y-12750000D02*
G75*
G03*
X12395000Y-12750000I-20000J0D01*
G01*
X12470000Y-10200000D02*
G75*
G03*
X12470000Y-10200000I-20000J0D01*
G01*
X12495000Y-4675000D02*
G75*
G03*
X12495000Y-4675000I-20000J0D01*
G01*
X12545000Y-4200000D02*
G75*
G03*
X12545000Y-4200000I-20000J0D01*
G01*
X12545000Y-9000000D02*
G75*
G03*
X12545000Y-9000000I-20000J0D01*
G01*
X12670000Y-9000000D02*
G75*
G03*
X12670000Y-9000000I-20000J0D01*
G01*
X12770000Y-11025000D02*
G75*
G03*
X12770000Y-11025000I-20000J0D01*
G01*
X12795000Y-7450000D02*
G75*
G03*
X12795000Y-7450000I-20000J0D01*
G01*
X12795000Y-8925000D02*
G75*
G03*
X12795000Y-8925000I-20000J0D01*
G01*
X12820000Y-11500000D02*
G75*
G03*
X12820000Y-11500000I-20000J0D01*
G01*
X12870000Y-7525000D02*
G75*
G03*
X12870000Y-7525000I-20000J0D01*
G01*
X12920000Y-7175000D02*
G75*
G03*
X12920000Y-7175000I-20000J0D01*
G01*
X12945000Y-11025000D02*
G75*
G03*
X12945000Y-11025000I-20000J0D01*
G01*
X13020000Y-11500000D02*
G75*
G03*
X13020000Y-11500000I-20000J0D01*
G01*
X13070000Y-9375000D02*
G75*
G03*
X13070000Y-9375000I-20000J0D01*
G01*
X13070000Y-11025000D02*
G75*
G03*
X13070000Y-11025000I-20000J0D01*
G01*
X13115000Y-8180000D02*
G75*
G03*
X13115000Y-8180000I-20000J0D01*
G01*
X13120000Y-6690000D02*
G75*
G03*
X13120000Y-6690000I-20000J0D01*
G01*
X13120000Y-7660000D02*
G75*
G03*
X13120000Y-7660000I-20000J0D01*
G01*
X13120000Y-9800000D02*
G75*
G03*
X13120000Y-9800000I-20000J0D01*
G01*
X13140000Y-5940000D02*
G75*
G03*
X13140000Y-5940000I-20000J0D01*
G01*
X13160000Y-10220000D02*
G75*
G03*
X13160000Y-10220000I-20000J0D01*
G01*
X13170000Y-8475000D02*
G75*
G03*
X13170000Y-8475000I-20000J0D01*
G01*
X13220000Y-12000000D02*
G75*
G03*
X13220000Y-12000000I-20000J0D01*
G01*
X13270000Y-11450000D02*
G75*
G03*
X13270000Y-11450000I-20000J0D01*
G01*
X13320000Y-12150000D02*
G75*
G03*
X13320000Y-12150000I-20000J0D01*
G01*
X13370000Y-11050000D02*
G75*
G03*
X13370000Y-11050000I-20000J0D01*
G01*
X13395000Y-8900000D02*
G75*
G03*
X13395000Y-8900000I-20000J0D01*
G01*
X13495000Y-10025000D02*
G75*
G03*
X13495000Y-10025000I-20000J0D01*
G01*
X13495000Y-10250000D02*
G75*
G03*
X13495000Y-10250000I-20000J0D01*
G01*
X13670000Y-10250000D02*
G75*
G03*
X13670000Y-10250000I-20000J0D01*
G01*
X13720000Y-8900000D02*
G75*
G03*
X13720000Y-8900000I-20000J0D01*
G01*
X13795000Y-11100000D02*
G75*
G03*
X13795000Y-11100000I-20000J0D01*
G01*
X8500000Y-11600000D02*
X8500000Y-11650000D01*
X8475000Y-11625000D02*
X8525000Y-11625000D01*
X8750000Y-11600000D02*
X8750000Y-11650000D01*
X8725000Y-11625000D02*
X8775000Y-11625000D01*
X8980000Y-9155000D02*
X8980000Y-9205000D01*
X8955000Y-9180000D02*
X9005000Y-9180000D01*
X9160000Y-6475000D02*
X9160000Y-6525000D01*
X9135000Y-6500000D02*
X9185000Y-6500000D01*
X9650000Y-9205000D02*
X9650000Y-9255000D01*
X9625000Y-9230000D02*
X9675000Y-9230000D01*
X9650000Y-11100000D02*
X9650000Y-11150000D01*
X9625000Y-11125000D02*
X9675000Y-11125000D01*
X9850000Y-13500000D02*
X9850000Y-13550000D01*
X9825000Y-13525000D02*
X9875000Y-13525000D01*
X10860000Y-6855000D02*
X10860000Y-6905000D01*
X10835000Y-6880000D02*
X10885000Y-6880000D01*
X10960000Y-7125000D02*
X10960000Y-7175000D01*
X10935000Y-7150000D02*
X10985000Y-7150000D01*
X11260000Y-6855000D02*
X11260000Y-6905000D01*
X11235000Y-6880000D02*
X11285000Y-6880000D01*
X11370000Y-7125000D02*
X11370000Y-7175000D01*
X11345000Y-7150000D02*
X11395000Y-7150000D01*
X11970000Y-10425000D02*
X11970000Y-10475000D01*
X11945000Y-10450000D02*
X11995000Y-10450000D01*
X12375000Y-8400000D02*
X12375000Y-8450000D01*
X12350000Y-8425000D02*
X12400000Y-8425000D01*
X12650000Y-8400000D02*
X12650000Y-8450000D01*
X12625000Y-8425000D02*
X12675000Y-8425000D01*
X12700000Y-13775000D02*
X12700000Y-13825000D01*
X12675000Y-13800000D02*
X12725000Y-13800000D01*
X12700000Y-14025000D02*
X12700000Y-14075000D01*
X12675000Y-14050000D02*
X12725000Y-14050000D01*
X13650000Y-11200000D02*
X13650000Y-11250000D01*
X13625000Y-11225000D02*
X13675000Y-11225000D01*
X13650000Y-11495000D02*
X13650000Y-11545000D01*
X13625000Y-11520000D02*
X13675000Y-11520000D01*
X13650000Y-11775000D02*
X13650000Y-11825000D01*
X13625000Y-11800000D02*
X13675000Y-11800000D01*
X8528285Y-10228285D02*
X8528285Y-10171716D01*
X8471716Y-10171716D01*
X8471716Y-10228285D01*
X8528285Y-10228285D01*
X8528285Y-10482285D02*
X8528285Y-10425716D01*
X8471716Y-10425716D01*
X8471716Y-10482285D01*
X8528285Y-10482285D01*
X8528285Y-10736285D02*
X8528285Y-10679716D01*
X8471716Y-10679716D01*
X8471716Y-10736285D01*
X8528285Y-10736285D01*
X10185285Y-9132285D02*
X10185285Y-9075716D01*
X10128716Y-9075716D01*
X10128716Y-9132285D01*
X10185285Y-9132285D01*
X10185285Y-9386285D02*
X10185285Y-9329716D01*
X10128716Y-9329716D01*
X10128716Y-9386285D01*
X10185285Y-9386285D01*
X10185285Y-9640285D02*
X10185285Y-9583716D01*
X10128716Y-9583716D01*
X10128716Y-9640285D01*
X10185285Y-9640285D01*
X10185285Y-9894285D02*
X10185285Y-9837716D01*
X10128716Y-9837716D01*
X10128716Y-9894285D01*
X10185285Y-9894285D01*
X10185285Y-10148285D02*
X10185285Y-10091716D01*
X10128716Y-10091716D01*
X10128716Y-10148285D01*
X10185285Y-10148285D01*
X10185285Y-10402285D02*
X10185285Y-10345716D01*
X10128716Y-10345716D01*
X10128716Y-10402285D01*
X10185285Y-10402285D01*
X10185285Y-10656285D02*
X10185285Y-10599716D01*
X10128716Y-10599716D01*
X10128716Y-10656285D01*
X10185285Y-10656285D01*
X10185285Y-10910285D02*
X10185285Y-10853716D01*
X10128716Y-10853716D01*
X10128716Y-10910285D01*
X10185285Y-10910285D01*
X10185285Y-11164285D02*
X10185285Y-11107716D01*
X10128716Y-11107716D01*
X10128716Y-11164285D01*
X10185285Y-11164285D01*
X10185285Y-11418284D02*
X10185285Y-11361715D01*
X10128716Y-11361715D01*
X10128716Y-11418284D01*
X10185285Y-11418284D01*
X10185285Y-11672284D02*
X10185285Y-11615715D01*
X10128716Y-11615715D01*
X10128716Y-11672284D01*
X10185285Y-11672284D01*
X10185285Y-11926284D02*
X10185285Y-11869715D01*
X10128716Y-11869715D01*
X10128716Y-11926284D01*
X10185285Y-11926284D01*
X10185285Y-12180284D02*
X10185285Y-12123715D01*
X10128716Y-12123715D01*
X10128716Y-12180284D01*
X10185285Y-12180284D01*
X10185285Y-12434284D02*
X10185285Y-12377715D01*
X10128716Y-12377715D01*
X10128716Y-12434284D01*
X10185285Y-12434284D01*
X10185285Y-12688284D02*
X10185285Y-12631715D01*
X10128716Y-12631715D01*
X10128716Y-12688284D01*
X10185285Y-12688284D01*
X11709284Y-9132285D02*
X11709284Y-9075716D01*
X11652715Y-9075716D01*
X11652715Y-9132285D01*
X11709284Y-9132285D01*
X11709284Y-9386285D02*
X11709284Y-9329716D01*
X11652715Y-9329716D01*
X11652715Y-9386285D01*
X11709284Y-9386285D01*
X11709284Y-9640285D02*
X11709284Y-9583716D01*
X11652715Y-9583716D01*
X11652715Y-9640285D01*
X11709284Y-9640285D01*
X11709284Y-9894285D02*
X11709284Y-9837716D01*
X11652715Y-9837716D01*
X11652715Y-9894285D01*
X11709284Y-9894285D01*
X11709284Y-10148285D02*
X11709284Y-10091716D01*
X11652715Y-10091716D01*
X11652715Y-10148285D01*
X11709284Y-10148285D01*
X11709284Y-10402285D02*
X11709284Y-10345716D01*
X11652715Y-10345716D01*
X11652715Y-10402285D01*
X11709284Y-10402285D01*
X11709284Y-10656285D02*
X11709284Y-10599716D01*
X11652715Y-10599716D01*
X11652715Y-10656285D01*
X11709284Y-10656285D01*
X11709284Y-10910285D02*
X11709284Y-10853716D01*
X11652715Y-10853716D01*
X11652715Y-10910285D01*
X11709284Y-10910285D01*
X11709284Y-11164285D02*
X11709284Y-11107716D01*
X11652715Y-11107716D01*
X11652715Y-11164285D01*
X11709284Y-11164285D01*
X11709284Y-11418284D02*
X11709284Y-11361715D01*
X11652715Y-11361715D01*
X11652715Y-11418284D01*
X11709284Y-11418284D01*
X11709284Y-11672284D02*
X11709284Y-11615715D01*
X11652715Y-11615715D01*
X11652715Y-11672284D01*
X11709284Y-11672284D01*
X11709284Y-11926284D02*
X11709284Y-11869715D01*
X11652715Y-11869715D01*
X11652715Y-11926284D01*
X11709284Y-11926284D01*
X11709284Y-12180284D02*
X11709284Y-12123715D01*
X11652715Y-12123715D01*
X11652715Y-12180284D01*
X11709284Y-12180284D01*
X11709284Y-12434284D02*
X11709284Y-12377715D01*
X11652715Y-12377715D01*
X11652715Y-12434284D01*
X11709284Y-12434284D01*
X11709284Y-12688284D02*
X11709284Y-12631715D01*
X11652715Y-12631715D01*
X11652715Y-12688284D01*
X11709284Y-12688284D01*
X8300000Y-6550000D02*
X8350000Y-6500000D01*
X8300000Y-6450000D01*
X8250000Y-6500000D01*
X8300000Y-6550000D01*
X8300000Y-6850000D02*
X8350000Y-6800000D01*
X8300000Y-6750000D01*
X8250000Y-6800000D01*
X8300000Y-6850000D01*
X8300000Y-7150000D02*
X8350000Y-7100000D01*
X8300000Y-7050000D01*
X8250000Y-7100000D01*
X8300000Y-7150000D01*
X8300000Y-7450000D02*
X8350000Y-7400000D01*
X8300000Y-7350000D01*
X8250000Y-7400000D01*
X8300000Y-7450000D01*
X8300000Y-7750000D02*
X8350000Y-7700000D01*
X8300000Y-7650000D01*
X8250000Y-7700000D01*
X8300000Y-7750000D01*
X8300000Y-8050000D02*
X8350000Y-8000000D01*
X8300000Y-7950000D01*
X8250000Y-8000000D01*
X8300000Y-8050000D01*
X8300000Y-8350000D02*
X8350000Y-8300000D01*
X8300000Y-8250000D01*
X8250000Y-8300000D01*
X8300000Y-8350000D01*
X8300000Y-8650000D02*
X8350000Y-8600000D01*
X8300000Y-8550000D01*
X8250000Y-8600000D01*
X8300000Y-8650000D01*
X8400000Y-11330000D02*
X8450000Y-11280000D01*
X8400000Y-11230000D01*
X8350000Y-11280000D01*
X8400000Y-11330000D01*
X8600000Y-6550000D02*
X8650000Y-6500000D01*
X8600000Y-6450000D01*
X8550000Y-6500000D01*
X8600000Y-6550000D01*
X8600000Y-6850000D02*
X8650000Y-6800000D01*
X8600000Y-6750000D01*
X8550000Y-6800000D01*
X8600000Y-6850000D01*
X8600000Y-7150000D02*
X8650000Y-7100000D01*
X8600000Y-7050000D01*
X8550000Y-7100000D01*
X8600000Y-7150000D01*
X8600000Y-7450000D02*
X8650000Y-7400000D01*
X8600000Y-7350000D01*
X8550000Y-7400000D01*
X8600000Y-7450000D01*
X8600000Y-7750000D02*
X8650000Y-7700000D01*
X8600000Y-7650000D01*
X8550000Y-7700000D01*
X8600000Y-7750000D01*
X8600000Y-8050000D02*
X8650000Y-8000000D01*
X8600000Y-7950000D01*
X8550000Y-8000000D01*
X8600000Y-8050000D01*
X8600000Y-8350000D02*
X8650000Y-8300000D01*
X8600000Y-8250000D01*
X8550000Y-8300000D01*
X8600000Y-8350000D01*
X8600000Y-8650000D02*
X8650000Y-8600000D01*
X8600000Y-8550000D01*
X8550000Y-8600000D01*
X8600000Y-8650000D01*
X9250000Y-7590000D02*
X9300000Y-7540000D01*
X9250000Y-7490000D01*
X9200000Y-7540000D01*
X9250000Y-7590000D01*
X9250000Y-7990000D02*
X9300000Y-7940000D01*
X9250000Y-7890000D01*
X9200000Y-7940000D01*
X9250000Y-7990000D01*
X9504000Y-7590000D02*
X9554000Y-7540000D01*
X9504000Y-7490000D01*
X9454000Y-7540000D01*
X9504000Y-7590000D01*
X9504000Y-7990000D02*
X9554000Y-7940000D01*
X9504000Y-7890000D01*
X9454000Y-7940000D01*
X9504000Y-7990000D01*
X13400000Y-6600000D02*
X13450000Y-6550000D01*
X13400000Y-6500000D01*
X13350000Y-6550000D01*
X13400000Y-6600000D01*
X13400000Y-6900000D02*
X13450000Y-6850000D01*
X13400000Y-6800000D01*
X13350000Y-6850000D01*
X13400000Y-6900000D01*
X13400000Y-7200000D02*
X13450000Y-7150000D01*
X13400000Y-7100000D01*
X13350000Y-7150000D01*
X13400000Y-7200000D01*
X13400000Y-7500000D02*
X13450000Y-7450000D01*
X13400000Y-7400000D01*
X13350000Y-7450000D01*
X13400000Y-7500000D01*
X13700000Y-6600000D02*
X13750000Y-6550000D01*
X13700000Y-6500000D01*
X13650000Y-6550000D01*
X13700000Y-6600000D01*
X13700000Y-6900000D02*
X13750000Y-6850000D01*
X13700000Y-6800000D01*
X13650000Y-6850000D01*
X13700000Y-6900000D01*
X13700000Y-7200000D02*
X13750000Y-7150000D01*
X13700000Y-7100000D01*
X13650000Y-7150000D01*
X13700000Y-7200000D01*
X13700000Y-7500000D02*
X13750000Y-7450000D01*
X13700000Y-7400000D01*
X13650000Y-7450000D01*
X13700000Y-7500000D01*
X8899000Y-13824000D02*
X9001000Y-13926000D01*
X9001000Y-13824000D02*
X8899000Y-13926000D01*
X9001000Y-13875000D02*
G75*
G03*
X9001000Y-13875000I-51000J0D01*
G01*
X8899000Y-14124000D02*
X9001000Y-14226000D01*
X9001000Y-14124000D02*
X8899000Y-14226000D01*
X9001000Y-14175000D02*
G75*
G03*
X9001000Y-14175000I-51000J0D01*
G01*
X8909000Y-12669000D02*
X9011000Y-12771000D01*
X9011000Y-12669000D02*
X8909000Y-12771000D01*
X9011000Y-12720000D02*
G75*
G03*
X9011000Y-12720000I-51000J0D01*
G01*
X8909000Y-12969000D02*
X9011000Y-13071000D01*
X9011000Y-12969000D02*
X8909000Y-13071000D01*
X9011000Y-13020000D02*
G75*
G03*
X9011000Y-13020000I-51000J0D01*
G01*
X8929000Y-5549000D02*
X9031000Y-5651000D01*
X9031000Y-5549000D02*
X8929000Y-5651000D01*
X9031000Y-5600000D02*
G75*
G03*
X9031000Y-5600000I-51000J0D01*
G01*
X9199000Y-13824000D02*
X9301000Y-13926000D01*
X9301000Y-13824000D02*
X9199000Y-13926000D01*
X9301000Y-13875000D02*
G75*
G03*
X9301000Y-13875000I-51000J0D01*
G01*
X9199000Y-14124000D02*
X9301000Y-14226000D01*
X9301000Y-14124000D02*
X9199000Y-14226000D01*
X9301000Y-14175000D02*
G75*
G03*
X9301000Y-14175000I-51000J0D01*
G01*
X9209000Y-12669000D02*
X9311000Y-12771000D01*
X9311000Y-12669000D02*
X9209000Y-12771000D01*
X9311000Y-12720000D02*
G75*
G03*
X9311000Y-12720000I-51000J0D01*
G01*
X9209000Y-12969000D02*
X9311000Y-13071000D01*
X9311000Y-12969000D02*
X9209000Y-13071000D01*
X9311000Y-13020000D02*
G75*
G03*
X9311000Y-13020000I-51000J0D01*
G01*
X9229000Y-5549000D02*
X9331000Y-5651000D01*
X9331000Y-5549000D02*
X9229000Y-5651000D01*
X9331000Y-5600000D02*
G75*
G03*
X9331000Y-5600000I-51000J0D01*
G01*
X12689000Y-4609000D02*
X12791000Y-4711000D01*
X12791000Y-4609000D02*
X12689000Y-4711000D01*
X12791000Y-4660000D02*
G75*
G03*
X12791000Y-4660000I-51000J0D01*
G01*
X12717000Y-13149000D02*
X12819000Y-13251000D01*
X12819000Y-13149000D02*
X12717000Y-13251000D01*
X12819000Y-13200000D02*
G75*
G03*
X12819000Y-13200000I-51000J0D01*
G01*
X12717000Y-13449000D02*
X12819000Y-13551000D01*
X12819000Y-13449000D02*
X12717000Y-13551000D01*
X12819000Y-13500000D02*
G75*
G03*
X12819000Y-13500000I-51000J0D01*
G01*
X12989000Y-4609000D02*
X13091000Y-4711000D01*
X13091000Y-4609000D02*
X12989000Y-4711000D01*
X13091000Y-4660000D02*
G75*
G03*
X13091000Y-4660000I-51000J0D01*
G01*
X13017000Y-13149000D02*
X13119000Y-13251000D01*
X13119000Y-13149000D02*
X13017000Y-13251000D01*
X13119000Y-13200000D02*
G75*
G03*
X13119000Y-13200000I-51000J0D01*
G01*
X13017000Y-13449000D02*
X13119000Y-13551000D01*
X13119000Y-13449000D02*
X13017000Y-13551000D01*
X13119000Y-13500000D02*
G75*
G03*
X13119000Y-13500000I-51000J0D01*
G01*
X11145000Y-2765000D02*
X11255000Y-2875000D01*
X11255000Y-2765000D02*
X11145000Y-2875000D01*
X11200000Y-2765000D02*
X11200000Y-2875000D01*
X11145000Y-2820000D02*
X11255000Y-2820000D01*
X11399000Y-2765000D02*
X11509000Y-2875000D01*
X11509000Y-2765000D02*
X11399000Y-2875000D01*
X11454000Y-2765000D02*
X11454000Y-2875000D01*
X11399000Y-2820000D02*
X11509000Y-2820000D01*
X12161000Y-2765000D02*
X12271000Y-2875000D01*
X12271000Y-2765000D02*
X12161000Y-2875000D01*
X12216000Y-2765000D02*
X12216000Y-2875000D01*
X12161000Y-2820000D02*
X12271000Y-2820000D01*
X12669000Y-2765000D02*
X12779000Y-2875000D01*
X12779000Y-2765000D02*
X12669000Y-2875000D01*
X12724000Y-2765000D02*
X12724000Y-2875000D01*
X12669000Y-2820000D02*
X12779000Y-2820000D01*
D12*
X8281428Y-16970714D02*
X8281428Y-16670714D01*
X8352857Y-16670714D01*
X8395714Y-16685000D01*
X8424286Y-16713571D01*
X8438571Y-16742143D01*
X8452857Y-16799286D01*
X8452857Y-16842143D01*
X8438571Y-16899286D01*
X8424286Y-16927857D01*
X8395714Y-16956429D01*
X8352857Y-16970714D01*
X8281428Y-16970714D01*
X8581428Y-16970714D02*
X8581428Y-16770714D01*
X8581428Y-16827857D02*
X8595714Y-16799286D01*
X8610000Y-16785000D01*
X8638571Y-16770714D01*
X8667143Y-16770714D01*
X8767143Y-16970714D02*
X8767143Y-16770714D01*
X8767143Y-16670714D02*
X8752857Y-16685000D01*
X8767143Y-16699286D01*
X8781428Y-16685000D01*
X8767143Y-16670714D01*
X8767143Y-16699286D01*
X8952857Y-16970714D02*
X8924286Y-16956429D01*
X8910000Y-16927857D01*
X8910000Y-16670714D01*
X9110000Y-16970714D02*
X9081428Y-16956429D01*
X9067143Y-16927857D01*
X9067143Y-16670714D01*
X9452857Y-16970714D02*
X9452857Y-16670714D01*
X9552857Y-16885000D01*
X9652857Y-16670714D01*
X9652857Y-16970714D01*
X9924286Y-16970714D02*
X9924286Y-16813572D01*
X9910000Y-16785000D01*
X9881428Y-16770714D01*
X9824286Y-16770714D01*
X9795714Y-16785000D01*
X9924286Y-16956429D02*
X9895714Y-16970714D01*
X9824286Y-16970714D01*
X9795714Y-16956429D01*
X9781428Y-16927857D01*
X9781428Y-16899286D01*
X9795714Y-16870714D01*
X9824286Y-16856429D01*
X9895714Y-16856429D01*
X9924286Y-16842143D01*
X10067143Y-16770714D02*
X10067143Y-17070714D01*
X10067143Y-16785000D02*
X10095714Y-16770714D01*
X10152857Y-16770714D01*
X10181428Y-16785000D01*
X10195714Y-16799286D01*
X10210000Y-16827857D01*
X10210000Y-16913572D01*
X10195714Y-16942143D01*
X10181428Y-16956429D01*
X10152857Y-16970714D01*
X10095714Y-16970714D01*
X10067143Y-16956429D01*
X10338571Y-16942143D02*
X10352857Y-16956429D01*
X10338571Y-16970714D01*
X10324286Y-16956429D01*
X10338571Y-16942143D01*
X10338571Y-16970714D01*
X10338571Y-16785000D02*
X10352857Y-16799286D01*
X10338571Y-16813572D01*
X10324286Y-16799286D01*
X10338571Y-16785000D01*
X10338571Y-16813572D01*
X7965000Y-17450000D02*
X7995000Y-17480000D01*
X7995000Y-17450000D02*
X7965000Y-17480000D01*
X8338571Y-17300714D02*
X8367143Y-17300714D01*
X8395714Y-17315000D01*
X8410000Y-17329286D01*
X8424286Y-17357857D01*
X8438571Y-17415000D01*
X8438571Y-17486429D01*
X8424286Y-17543572D01*
X8410000Y-17572143D01*
X8395714Y-17586429D01*
X8367143Y-17600714D01*
X8338571Y-17600714D01*
X8310000Y-17586429D01*
X8295714Y-17572143D01*
X8281428Y-17543572D01*
X8267143Y-17486429D01*
X8267143Y-17415000D01*
X8281428Y-17357857D01*
X8295714Y-17329286D01*
X8310000Y-17315000D01*
X8338571Y-17300714D01*
X8567143Y-17572143D02*
X8581428Y-17586429D01*
X8567143Y-17600714D01*
X8552857Y-17586429D01*
X8567143Y-17572143D01*
X8567143Y-17600714D01*
X8681428Y-17300714D02*
X8867143Y-17300714D01*
X8767143Y-17415000D01*
X8810000Y-17415000D01*
X8838571Y-17429286D01*
X8852857Y-17443572D01*
X8867143Y-17472143D01*
X8867143Y-17543572D01*
X8852857Y-17572143D01*
X8838571Y-17586429D01*
X8810000Y-17600714D01*
X8724286Y-17600714D01*
X8695714Y-17586429D01*
X8681428Y-17572143D01*
X9052857Y-17300714D02*
X9081428Y-17300714D01*
X9110000Y-17315000D01*
X9124286Y-17329286D01*
X9138571Y-17357857D01*
X9152857Y-17415000D01*
X9152857Y-17486429D01*
X9138571Y-17543572D01*
X9124286Y-17572143D01*
X9110000Y-17586429D01*
X9081428Y-17600714D01*
X9052857Y-17600714D01*
X9024286Y-17586429D01*
X9010000Y-17572143D01*
X8995714Y-17543572D01*
X8981428Y-17486429D01*
X8981428Y-17415000D01*
X8995714Y-17357857D01*
X9010000Y-17329286D01*
X9024286Y-17315000D01*
X9052857Y-17300714D01*
X9338571Y-17300714D02*
X9367143Y-17300714D01*
X9395714Y-17315000D01*
X9410000Y-17329286D01*
X9424286Y-17357857D01*
X9438571Y-17415000D01*
X9438571Y-17486429D01*
X9424286Y-17543572D01*
X9410000Y-17572143D01*
X9395714Y-17586429D01*
X9367143Y-17600714D01*
X9338571Y-17600714D01*
X9310000Y-17586429D01*
X9295714Y-17572143D01*
X9281428Y-17543572D01*
X9267143Y-17486429D01*
X9267143Y-17415000D01*
X9281428Y-17357857D01*
X9295714Y-17329286D01*
X9310000Y-17315000D01*
X9338571Y-17300714D01*
X9567143Y-17600714D02*
X9567143Y-17400714D01*
X9567143Y-17429286D02*
X9581428Y-17415000D01*
X9610000Y-17400714D01*
X9652857Y-17400714D01*
X9681428Y-17415000D01*
X9695714Y-17443572D01*
X9695714Y-17600714D01*
X9695714Y-17443572D02*
X9710000Y-17415000D01*
X9738571Y-17400714D01*
X9781428Y-17400714D01*
X9810000Y-17415000D01*
X9824286Y-17443572D01*
X9824286Y-17600714D01*
X9967143Y-17600714D02*
X9967143Y-17400714D01*
X9967143Y-17429286D02*
X9981428Y-17415000D01*
X10010000Y-17400714D01*
X10052857Y-17400714D01*
X10081428Y-17415000D01*
X10095714Y-17443572D01*
X10095714Y-17600714D01*
X10095714Y-17443572D02*
X10110000Y-17415000D01*
X10138571Y-17400714D01*
X10181428Y-17400714D01*
X10210000Y-17415000D01*
X10224286Y-17443572D01*
X10224286Y-17600714D01*
X10810000Y-17286429D02*
X10552857Y-17672143D01*
X11195714Y-17300714D02*
X11224286Y-17300714D01*
X11252857Y-17315000D01*
X11267143Y-17329286D01*
X11281428Y-17357857D01*
X11295714Y-17415000D01*
X11295714Y-17486429D01*
X11281428Y-17543572D01*
X11267143Y-17572143D01*
X11252857Y-17586429D01*
X11224286Y-17600714D01*
X11195714Y-17600714D01*
X11167143Y-17586429D01*
X11152857Y-17572143D01*
X11138571Y-17543572D01*
X11124286Y-17486429D01*
X11124286Y-17415000D01*
X11138571Y-17357857D01*
X11152857Y-17329286D01*
X11167143Y-17315000D01*
X11195714Y-17300714D01*
X11424286Y-17572143D02*
X11438571Y-17586429D01*
X11424286Y-17600714D01*
X11410000Y-17586429D01*
X11424286Y-17572143D01*
X11424286Y-17600714D01*
X11624286Y-17300714D02*
X11652857Y-17300714D01*
X11681428Y-17315000D01*
X11695714Y-17329286D01*
X11710000Y-17357857D01*
X11724286Y-17415000D01*
X11724286Y-17486429D01*
X11710000Y-17543572D01*
X11695714Y-17572143D01*
X11681428Y-17586429D01*
X11652857Y-17600714D01*
X11624286Y-17600714D01*
X11595714Y-17586429D01*
X11581428Y-17572143D01*
X11567143Y-17543572D01*
X11552857Y-17486429D01*
X11552857Y-17415000D01*
X11567143Y-17357857D01*
X11581428Y-17329286D01*
X11595714Y-17315000D01*
X11624286Y-17300714D01*
X12010000Y-17600714D02*
X11838571Y-17600714D01*
X11924286Y-17600714D02*
X11924286Y-17300714D01*
X11895714Y-17343572D01*
X11867143Y-17372143D01*
X11838571Y-17386429D01*
X12295714Y-17600714D02*
X12124286Y-17600714D01*
X12210000Y-17600714D02*
X12210000Y-17300714D01*
X12181428Y-17343572D01*
X12152857Y-17372143D01*
X12124286Y-17386429D01*
X12467143Y-17429286D02*
X12438571Y-17415000D01*
X12424286Y-17400714D01*
X12410000Y-17372143D01*
X12410000Y-17357857D01*
X12424286Y-17329286D01*
X12438571Y-17315000D01*
X12467143Y-17300714D01*
X12524286Y-17300714D01*
X12552857Y-17315000D01*
X12567143Y-17329286D01*
X12581428Y-17357857D01*
X12581428Y-17372143D01*
X12567143Y-17400714D01*
X12552857Y-17415000D01*
X12524286Y-17429286D01*
X12467143Y-17429286D01*
X12438571Y-17443572D01*
X12424286Y-17457857D01*
X12410000Y-17486429D01*
X12410000Y-17543572D01*
X12424286Y-17572143D01*
X12438571Y-17586429D01*
X12467143Y-17600714D01*
X12524286Y-17600714D01*
X12552857Y-17586429D01*
X12567143Y-17572143D01*
X12581428Y-17543572D01*
X12581428Y-17486429D01*
X12567143Y-17457857D01*
X12552857Y-17443572D01*
X12524286Y-17429286D01*
X12695714Y-17300714D02*
X12695714Y-17357857D01*
X12810000Y-17300714D02*
X12810000Y-17357857D01*
X13252857Y-17715000D02*
X13238571Y-17700714D01*
X13210000Y-17657857D01*
X13195714Y-17629286D01*
X13181428Y-17586429D01*
X13167143Y-17515000D01*
X13167143Y-17457857D01*
X13181428Y-17386429D01*
X13195714Y-17343572D01*
X13210000Y-17315000D01*
X13238571Y-17272143D01*
X13252857Y-17257857D01*
X13410000Y-17429286D02*
X13381428Y-17415000D01*
X13367143Y-17400714D01*
X13352857Y-17372143D01*
X13352857Y-17357857D01*
X13367143Y-17329286D01*
X13381428Y-17315000D01*
X13410000Y-17300714D01*
X13467143Y-17300714D01*
X13495714Y-17315000D01*
X13510000Y-17329286D01*
X13524286Y-17357857D01*
X13524286Y-17372143D01*
X13510000Y-17400714D01*
X13495714Y-17415000D01*
X13467143Y-17429286D01*
X13410000Y-17429286D01*
X13381428Y-17443572D01*
X13367143Y-17457857D01*
X13352857Y-17486429D01*
X13352857Y-17543572D01*
X13367143Y-17572143D01*
X13381428Y-17586429D01*
X13410000Y-17600714D01*
X13467143Y-17600714D01*
X13495714Y-17586429D01*
X13510000Y-17572143D01*
X13524286Y-17543572D01*
X13524286Y-17486429D01*
X13510000Y-17457857D01*
X13495714Y-17443572D01*
X13467143Y-17429286D01*
X13881428Y-17600714D02*
X13881428Y-17300714D01*
X14010000Y-17600714D02*
X14010000Y-17443572D01*
X13995714Y-17415000D01*
X13967143Y-17400714D01*
X13924286Y-17400714D01*
X13895714Y-17415000D01*
X13881428Y-17429286D01*
X14195714Y-17600714D02*
X14167143Y-17586429D01*
X14152857Y-17572143D01*
X14138571Y-17543572D01*
X14138571Y-17457857D01*
X14152857Y-17429286D01*
X14167143Y-17415000D01*
X14195714Y-17400714D01*
X14238571Y-17400714D01*
X14267143Y-17415000D01*
X14281428Y-17429286D01*
X14295714Y-17457857D01*
X14295714Y-17543572D01*
X14281428Y-17572143D01*
X14267143Y-17586429D01*
X14238571Y-17600714D01*
X14195714Y-17600714D01*
X14467143Y-17600714D02*
X14438571Y-17586429D01*
X14424286Y-17557857D01*
X14424286Y-17300714D01*
X14695714Y-17586429D02*
X14667143Y-17600714D01*
X14610000Y-17600714D01*
X14581428Y-17586429D01*
X14567143Y-17557857D01*
X14567143Y-17443572D01*
X14581428Y-17415000D01*
X14610000Y-17400714D01*
X14667143Y-17400714D01*
X14695714Y-17415000D01*
X14710000Y-17443572D01*
X14710000Y-17472143D01*
X14567143Y-17500714D01*
X14824286Y-17586429D02*
X14852857Y-17600714D01*
X14910000Y-17600714D01*
X14938571Y-17586429D01*
X14952857Y-17557857D01*
X14952857Y-17543572D01*
X14938571Y-17515000D01*
X14910000Y-17500714D01*
X14867143Y-17500714D01*
X14838571Y-17486429D01*
X14824286Y-17457857D01*
X14824286Y-17443572D01*
X14838571Y-17415000D01*
X14867143Y-17400714D01*
X14910000Y-17400714D01*
X14938571Y-17415000D01*
X15052857Y-17715000D02*
X15067143Y-17700714D01*
X15095714Y-17657857D01*
X15110000Y-17629286D01*
X15124286Y-17586429D01*
X15138571Y-17515000D01*
X15138571Y-17457857D01*
X15124286Y-17386429D01*
X15110000Y-17343572D01*
X15095714Y-17315000D01*
X15067143Y-17272143D01*
X15052857Y-17257857D01*
X7995000Y-17861000D02*
G75*
G03*
X7995000Y-17861000I-20000J0D01*
G01*
X8338571Y-17696714D02*
X8367143Y-17696714D01*
X8395714Y-17711000D01*
X8410000Y-17725286D01*
X8424286Y-17753857D01*
X8438571Y-17811000D01*
X8438571Y-17882429D01*
X8424286Y-17939572D01*
X8410000Y-17968143D01*
X8395714Y-17982429D01*
X8367143Y-17996714D01*
X8338571Y-17996714D01*
X8310000Y-17982429D01*
X8295714Y-17968143D01*
X8281428Y-17939572D01*
X8267143Y-17882429D01*
X8267143Y-17811000D01*
X8281428Y-17753857D01*
X8295714Y-17725286D01*
X8310000Y-17711000D01*
X8338571Y-17696714D01*
X8567143Y-17968143D02*
X8581428Y-17982429D01*
X8567143Y-17996714D01*
X8552857Y-17982429D01*
X8567143Y-17968143D01*
X8567143Y-17996714D01*
X8838571Y-17796714D02*
X8838571Y-17996714D01*
X8767143Y-17682429D02*
X8695714Y-17896714D01*
X8881428Y-17896714D01*
X9052857Y-17696714D02*
X9081428Y-17696714D01*
X9110000Y-17711000D01*
X9124286Y-17725286D01*
X9138571Y-17753857D01*
X9152857Y-17811000D01*
X9152857Y-17882429D01*
X9138571Y-17939572D01*
X9124286Y-17968143D01*
X9110000Y-17982429D01*
X9081428Y-17996714D01*
X9052857Y-17996714D01*
X9024286Y-17982429D01*
X9010000Y-17968143D01*
X8995714Y-17939572D01*
X8981428Y-17882429D01*
X8981428Y-17811000D01*
X8995714Y-17753857D01*
X9010000Y-17725286D01*
X9024286Y-17711000D01*
X9052857Y-17696714D01*
X9338571Y-17696714D02*
X9367143Y-17696714D01*
X9395714Y-17711000D01*
X9410000Y-17725286D01*
X9424286Y-17753857D01*
X9438571Y-17811000D01*
X9438571Y-17882429D01*
X9424286Y-17939572D01*
X9410000Y-17968143D01*
X9395714Y-17982429D01*
X9367143Y-17996714D01*
X9338571Y-17996714D01*
X9310000Y-17982429D01*
X9295714Y-17968143D01*
X9281428Y-17939572D01*
X9267143Y-17882429D01*
X9267143Y-17811000D01*
X9281428Y-17753857D01*
X9295714Y-17725286D01*
X9310000Y-17711000D01*
X9338571Y-17696714D01*
X9567143Y-17996714D02*
X9567143Y-17796714D01*
X9567143Y-17825286D02*
X9581428Y-17811000D01*
X9610000Y-17796714D01*
X9652857Y-17796714D01*
X9681428Y-17811000D01*
X9695714Y-17839572D01*
X9695714Y-17996714D01*
X9695714Y-17839572D02*
X9710000Y-17811000D01*
X9738571Y-17796714D01*
X9781428Y-17796714D01*
X9810000Y-17811000D01*
X9824286Y-17839572D01*
X9824286Y-17996714D01*
X9967143Y-17996714D02*
X9967143Y-17796714D01*
X9967143Y-17825286D02*
X9981428Y-17811000D01*
X10010000Y-17796714D01*
X10052857Y-17796714D01*
X10081428Y-17811000D01*
X10095714Y-17839572D01*
X10095714Y-17996714D01*
X10095714Y-17839572D02*
X10110000Y-17811000D01*
X10138571Y-17796714D01*
X10181428Y-17796714D01*
X10210000Y-17811000D01*
X10224286Y-17839572D01*
X10224286Y-17996714D01*
X10810000Y-17682429D02*
X10552857Y-18068143D01*
X11195714Y-17696714D02*
X11224286Y-17696714D01*
X11252857Y-17711000D01*
X11267143Y-17725286D01*
X11281428Y-17753857D01*
X11295714Y-17811000D01*
X11295714Y-17882429D01*
X11281428Y-17939572D01*
X11267143Y-17968143D01*
X11252857Y-17982429D01*
X11224286Y-17996714D01*
X11195714Y-17996714D01*
X11167143Y-17982429D01*
X11152857Y-17968143D01*
X11138571Y-17939572D01*
X11124286Y-17882429D01*
X11124286Y-17811000D01*
X11138571Y-17753857D01*
X11152857Y-17725286D01*
X11167143Y-17711000D01*
X11195714Y-17696714D01*
X11424286Y-17968143D02*
X11438571Y-17982429D01*
X11424286Y-17996714D01*
X11410000Y-17982429D01*
X11424286Y-17968143D01*
X11424286Y-17996714D01*
X11624286Y-17696714D02*
X11652857Y-17696714D01*
X11681428Y-17711000D01*
X11695714Y-17725286D01*
X11710000Y-17753857D01*
X11724286Y-17811000D01*
X11724286Y-17882429D01*
X11710000Y-17939572D01*
X11695714Y-17968143D01*
X11681428Y-17982429D01*
X11652857Y-17996714D01*
X11624286Y-17996714D01*
X11595714Y-17982429D01*
X11581428Y-17968143D01*
X11567143Y-17939572D01*
X11552857Y-17882429D01*
X11552857Y-17811000D01*
X11567143Y-17753857D01*
X11581428Y-17725286D01*
X11595714Y-17711000D01*
X11624286Y-17696714D01*
X12010000Y-17996714D02*
X11838571Y-17996714D01*
X11924286Y-17996714D02*
X11924286Y-17696714D01*
X11895714Y-17739572D01*
X11867143Y-17768143D01*
X11838571Y-17782429D01*
X12281428Y-17696714D02*
X12138571Y-17696714D01*
X12124286Y-17839572D01*
X12138571Y-17825286D01*
X12167143Y-17811000D01*
X12238571Y-17811000D01*
X12267143Y-17825286D01*
X12281428Y-17839572D01*
X12295714Y-17868143D01*
X12295714Y-17939572D01*
X12281428Y-17968143D01*
X12267143Y-17982429D01*
X12238571Y-17996714D01*
X12167143Y-17996714D01*
X12138571Y-17982429D01*
X12124286Y-17968143D01*
X12395714Y-17696714D02*
X12595714Y-17696714D01*
X12467143Y-17996714D01*
X12695714Y-17696714D02*
X12695714Y-17753857D01*
X12810000Y-17696714D02*
X12810000Y-17753857D01*
X13252857Y-18111000D02*
X13238571Y-18096714D01*
X13210000Y-18053857D01*
X13195714Y-18025286D01*
X13181428Y-17982429D01*
X13167143Y-17911000D01*
X13167143Y-17853857D01*
X13181428Y-17782429D01*
X13195714Y-17739572D01*
X13210000Y-17711000D01*
X13238571Y-17668143D01*
X13252857Y-17653857D01*
X13524286Y-17996714D02*
X13352857Y-17996714D01*
X13438571Y-17996714D02*
X13438571Y-17696714D01*
X13410000Y-17739572D01*
X13381428Y-17768143D01*
X13352857Y-17782429D01*
X13781428Y-17696714D02*
X13724286Y-17696714D01*
X13695714Y-17711000D01*
X13681428Y-17725286D01*
X13652857Y-17768143D01*
X13638571Y-17825286D01*
X13638571Y-17939572D01*
X13652857Y-17968143D01*
X13667143Y-17982429D01*
X13695714Y-17996714D01*
X13752857Y-17996714D01*
X13781428Y-17982429D01*
X13795714Y-17968143D01*
X13810000Y-17939572D01*
X13810000Y-17868143D01*
X13795714Y-17839572D01*
X13781428Y-17825286D01*
X13752857Y-17811000D01*
X13695714Y-17811000D01*
X13667143Y-17825286D01*
X13652857Y-17839572D01*
X13638571Y-17868143D01*
X13924286Y-17725286D02*
X13938571Y-17711000D01*
X13967143Y-17696714D01*
X14038571Y-17696714D01*
X14067143Y-17711000D01*
X14081428Y-17725286D01*
X14095714Y-17753857D01*
X14095714Y-17782429D01*
X14081428Y-17825286D01*
X13910000Y-17996714D01*
X14095714Y-17996714D01*
X14452857Y-17996714D02*
X14452857Y-17696714D01*
X14581428Y-17996714D02*
X14581428Y-17839572D01*
X14567143Y-17811000D01*
X14538571Y-17796714D01*
X14495714Y-17796714D01*
X14467143Y-17811000D01*
X14452857Y-17825286D01*
X14767143Y-17996714D02*
X14738571Y-17982429D01*
X14724286Y-17968143D01*
X14710000Y-17939572D01*
X14710000Y-17853857D01*
X14724286Y-17825286D01*
X14738571Y-17811000D01*
X14767143Y-17796714D01*
X14810000Y-17796714D01*
X14838571Y-17811000D01*
X14852857Y-17825286D01*
X14867143Y-17853857D01*
X14867143Y-17939572D01*
X14852857Y-17968143D01*
X14838571Y-17982429D01*
X14810000Y-17996714D01*
X14767143Y-17996714D01*
X15038571Y-17996714D02*
X15010000Y-17982429D01*
X14995714Y-17953857D01*
X14995714Y-17696714D01*
X15267143Y-17982429D02*
X15238571Y-17996714D01*
X15181428Y-17996714D01*
X15152857Y-17982429D01*
X15138571Y-17953857D01*
X15138571Y-17839572D01*
X15152857Y-17811000D01*
X15181428Y-17796714D01*
X15238571Y-17796714D01*
X15267143Y-17811000D01*
X15281428Y-17839572D01*
X15281428Y-17868143D01*
X15138571Y-17896714D01*
X15395714Y-17982429D02*
X15424286Y-17996714D01*
X15481428Y-17996714D01*
X15510000Y-17982429D01*
X15524286Y-17953857D01*
X15524286Y-17939572D01*
X15510000Y-17911000D01*
X15481428Y-17896714D01*
X15438571Y-17896714D01*
X15410000Y-17882429D01*
X15395714Y-17853857D01*
X15395714Y-17839572D01*
X15410000Y-17811000D01*
X15438571Y-17796714D01*
X15481428Y-17796714D01*
X15510000Y-17811000D01*
X15624286Y-18111000D02*
X15638571Y-18096714D01*
X15667143Y-18053857D01*
X15681428Y-18025286D01*
X15695714Y-17982429D01*
X15710000Y-17911000D01*
X15710000Y-17853857D01*
X15695714Y-17782429D01*
X15681428Y-17739572D01*
X15667143Y-17711000D01*
X15638571Y-17668143D01*
X15624286Y-17653857D01*
X7970000Y-18232000D02*
X7970000Y-18282000D01*
X7945000Y-18257000D02*
X7995000Y-18257000D01*
X8338571Y-18092714D02*
X8367143Y-18092714D01*
X8395714Y-18107000D01*
X8410000Y-18121286D01*
X8424286Y-18149857D01*
X8438571Y-18207000D01*
X8438571Y-18278429D01*
X8424286Y-18335572D01*
X8410000Y-18364143D01*
X8395714Y-18378429D01*
X8367143Y-18392714D01*
X8338571Y-18392714D01*
X8310000Y-18378429D01*
X8295714Y-18364143D01*
X8281428Y-18335572D01*
X8267143Y-18278429D01*
X8267143Y-18207000D01*
X8281428Y-18149857D01*
X8295714Y-18121286D01*
X8310000Y-18107000D01*
X8338571Y-18092714D01*
X8567143Y-18364143D02*
X8581428Y-18378429D01*
X8567143Y-18392714D01*
X8552857Y-18378429D01*
X8567143Y-18364143D01*
X8567143Y-18392714D01*
X8852857Y-18092714D02*
X8710000Y-18092714D01*
X8695714Y-18235572D01*
X8710000Y-18221286D01*
X8738571Y-18207000D01*
X8810000Y-18207000D01*
X8838571Y-18221286D01*
X8852857Y-18235572D01*
X8867143Y-18264143D01*
X8867143Y-18335572D01*
X8852857Y-18364143D01*
X8838571Y-18378429D01*
X8810000Y-18392714D01*
X8738571Y-18392714D01*
X8710000Y-18378429D01*
X8695714Y-18364143D01*
X9052857Y-18092714D02*
X9081428Y-18092714D01*
X9110000Y-18107000D01*
X9124286Y-18121286D01*
X9138571Y-18149857D01*
X9152857Y-18207000D01*
X9152857Y-18278429D01*
X9138571Y-18335572D01*
X9124286Y-18364143D01*
X9110000Y-18378429D01*
X9081428Y-18392714D01*
X9052857Y-18392714D01*
X9024286Y-18378429D01*
X9010000Y-18364143D01*
X8995714Y-18335572D01*
X8981428Y-18278429D01*
X8981428Y-18207000D01*
X8995714Y-18149857D01*
X9010000Y-18121286D01*
X9024286Y-18107000D01*
X9052857Y-18092714D01*
X9338571Y-18092714D02*
X9367143Y-18092714D01*
X9395714Y-18107000D01*
X9410000Y-18121286D01*
X9424286Y-18149857D01*
X9438571Y-18207000D01*
X9438571Y-18278429D01*
X9424286Y-18335572D01*
X9410000Y-18364143D01*
X9395714Y-18378429D01*
X9367143Y-18392714D01*
X9338571Y-18392714D01*
X9310000Y-18378429D01*
X9295714Y-18364143D01*
X9281428Y-18335572D01*
X9267143Y-18278429D01*
X9267143Y-18207000D01*
X9281428Y-18149857D01*
X9295714Y-18121286D01*
X9310000Y-18107000D01*
X9338571Y-18092714D01*
X9567143Y-18392714D02*
X9567143Y-18192714D01*
X9567143Y-18221286D02*
X9581428Y-18207000D01*
X9610000Y-18192714D01*
X9652857Y-18192714D01*
X9681428Y-18207000D01*
X9695714Y-18235572D01*
X9695714Y-18392714D01*
X9695714Y-18235572D02*
X9710000Y-18207000D01*
X9738571Y-18192714D01*
X9781428Y-18192714D01*
X9810000Y-18207000D01*
X9824286Y-18235572D01*
X9824286Y-18392714D01*
X9967143Y-18392714D02*
X9967143Y-18192714D01*
X9967143Y-18221286D02*
X9981428Y-18207000D01*
X10010000Y-18192714D01*
X10052857Y-18192714D01*
X10081428Y-18207000D01*
X10095714Y-18235572D01*
X10095714Y-18392714D01*
X10095714Y-18235572D02*
X10110000Y-18207000D01*
X10138571Y-18192714D01*
X10181428Y-18192714D01*
X10210000Y-18207000D01*
X10224286Y-18235572D01*
X10224286Y-18392714D01*
X10810000Y-18078429D02*
X10552857Y-18464143D01*
X11195714Y-18092714D02*
X11224286Y-18092714D01*
X11252857Y-18107000D01*
X11267143Y-18121286D01*
X11281428Y-18149857D01*
X11295714Y-18207000D01*
X11295714Y-18278429D01*
X11281428Y-18335572D01*
X11267143Y-18364143D01*
X11252857Y-18378429D01*
X11224286Y-18392714D01*
X11195714Y-18392714D01*
X11167143Y-18378429D01*
X11152857Y-18364143D01*
X11138571Y-18335572D01*
X11124286Y-18278429D01*
X11124286Y-18207000D01*
X11138571Y-18149857D01*
X11152857Y-18121286D01*
X11167143Y-18107000D01*
X11195714Y-18092714D01*
X11424286Y-18364143D02*
X11438571Y-18378429D01*
X11424286Y-18392714D01*
X11410000Y-18378429D01*
X11424286Y-18364143D01*
X11424286Y-18392714D01*
X11624286Y-18092714D02*
X11652857Y-18092714D01*
X11681428Y-18107000D01*
X11695714Y-18121286D01*
X11710000Y-18149857D01*
X11724286Y-18207000D01*
X11724286Y-18278429D01*
X11710000Y-18335572D01*
X11695714Y-18364143D01*
X11681428Y-18378429D01*
X11652857Y-18392714D01*
X11624286Y-18392714D01*
X11595714Y-18378429D01*
X11581428Y-18364143D01*
X11567143Y-18335572D01*
X11552857Y-18278429D01*
X11552857Y-18207000D01*
X11567143Y-18149857D01*
X11581428Y-18121286D01*
X11595714Y-18107000D01*
X11624286Y-18092714D01*
X12010000Y-18392714D02*
X11838571Y-18392714D01*
X11924286Y-18392714D02*
X11924286Y-18092714D01*
X11895714Y-18135572D01*
X11867143Y-18164143D01*
X11838571Y-18178429D01*
X12152857Y-18392714D02*
X12210000Y-18392714D01*
X12238571Y-18378429D01*
X12252857Y-18364143D01*
X12281428Y-18321286D01*
X12295714Y-18264143D01*
X12295714Y-18149857D01*
X12281428Y-18121286D01*
X12267143Y-18107000D01*
X12238571Y-18092714D01*
X12181428Y-18092714D01*
X12152857Y-18107000D01*
X12138571Y-18121286D01*
X12124286Y-18149857D01*
X12124286Y-18221286D01*
X12138571Y-18249857D01*
X12152857Y-18264143D01*
X12181428Y-18278429D01*
X12238571Y-18278429D01*
X12267143Y-18264143D01*
X12281428Y-18249857D01*
X12295714Y-18221286D01*
X12395714Y-18092714D02*
X12595714Y-18092714D01*
X12467143Y-18392714D01*
X12695714Y-18092714D02*
X12695714Y-18149857D01*
X12810000Y-18092714D02*
X12810000Y-18149857D01*
X13252857Y-18507000D02*
X13238571Y-18492714D01*
X13210000Y-18449857D01*
X13195714Y-18421286D01*
X13181428Y-18378429D01*
X13167143Y-18307000D01*
X13167143Y-18249857D01*
X13181428Y-18178429D01*
X13195714Y-18135572D01*
X13210000Y-18107000D01*
X13238571Y-18064143D01*
X13252857Y-18049857D01*
X13524286Y-18392714D02*
X13352857Y-18392714D01*
X13438571Y-18392714D02*
X13438571Y-18092714D01*
X13410000Y-18135572D01*
X13381428Y-18164143D01*
X13352857Y-18178429D01*
X13667143Y-18392714D02*
X13724286Y-18392714D01*
X13752857Y-18378429D01*
X13767143Y-18364143D01*
X13795714Y-18321286D01*
X13810000Y-18264143D01*
X13810000Y-18149857D01*
X13795714Y-18121286D01*
X13781428Y-18107000D01*
X13752857Y-18092714D01*
X13695714Y-18092714D01*
X13667143Y-18107000D01*
X13652857Y-18121286D01*
X13638571Y-18149857D01*
X13638571Y-18221286D01*
X13652857Y-18249857D01*
X13667143Y-18264143D01*
X13695714Y-18278429D01*
X13752857Y-18278429D01*
X13781428Y-18264143D01*
X13795714Y-18249857D01*
X13810000Y-18221286D01*
X14167143Y-18392714D02*
X14167143Y-18092714D01*
X14295714Y-18392714D02*
X14295714Y-18235572D01*
X14281428Y-18207000D01*
X14252857Y-18192714D01*
X14210000Y-18192714D01*
X14181428Y-18207000D01*
X14167143Y-18221286D01*
X14481428Y-18392714D02*
X14452857Y-18378429D01*
X14438571Y-18364143D01*
X14424286Y-18335572D01*
X14424286Y-18249857D01*
X14438571Y-18221286D01*
X14452857Y-18207000D01*
X14481428Y-18192714D01*
X14524286Y-18192714D01*
X14552857Y-18207000D01*
X14567143Y-18221286D01*
X14581428Y-18249857D01*
X14581428Y-18335572D01*
X14567143Y-18364143D01*
X14552857Y-18378429D01*
X14524286Y-18392714D01*
X14481428Y-18392714D01*
X14752857Y-18392714D02*
X14724286Y-18378429D01*
X14710000Y-18349857D01*
X14710000Y-18092714D01*
X14981428Y-18378429D02*
X14952857Y-18392714D01*
X14895714Y-18392714D01*
X14867143Y-18378429D01*
X14852857Y-18349857D01*
X14852857Y-18235572D01*
X14867143Y-18207000D01*
X14895714Y-18192714D01*
X14952857Y-18192714D01*
X14981428Y-18207000D01*
X14995714Y-18235572D01*
X14995714Y-18264143D01*
X14852857Y-18292714D01*
X15110000Y-18378429D02*
X15138571Y-18392714D01*
X15195714Y-18392714D01*
X15224286Y-18378429D01*
X15238571Y-18349857D01*
X15238571Y-18335572D01*
X15224286Y-18307000D01*
X15195714Y-18292714D01*
X15152857Y-18292714D01*
X15124286Y-18278429D01*
X15110000Y-18249857D01*
X15110000Y-18235572D01*
X15124286Y-18207000D01*
X15152857Y-18192714D01*
X15195714Y-18192714D01*
X15224286Y-18207000D01*
X15338571Y-18507000D02*
X15352857Y-18492714D01*
X15381428Y-18449857D01*
X15395714Y-18421286D01*
X15410000Y-18378429D01*
X15424286Y-18307000D01*
X15424286Y-18249857D01*
X15410000Y-18178429D01*
X15395714Y-18135572D01*
X15381428Y-18107000D01*
X15352857Y-18064143D01*
X15338571Y-18049857D01*
X7983284Y-18681285D02*
X7983284Y-18624716D01*
X7926715Y-18624716D01*
X7926715Y-18681285D01*
X7983284Y-18681285D01*
X8338571Y-18488714D02*
X8367143Y-18488714D01*
X8395714Y-18503000D01*
X8410000Y-18517286D01*
X8424286Y-18545857D01*
X8438571Y-18603000D01*
X8438571Y-18674429D01*
X8424286Y-18731572D01*
X8410000Y-18760143D01*
X8395714Y-18774429D01*
X8367143Y-18788714D01*
X8338571Y-18788714D01*
X8310000Y-18774429D01*
X8295714Y-18760143D01*
X8281428Y-18731572D01*
X8267143Y-18674429D01*
X8267143Y-18603000D01*
X8281428Y-18545857D01*
X8295714Y-18517286D01*
X8310000Y-18503000D01*
X8338571Y-18488714D01*
X8567143Y-18760143D02*
X8581428Y-18774429D01*
X8567143Y-18788714D01*
X8552857Y-18774429D01*
X8567143Y-18760143D01*
X8567143Y-18788714D01*
X8752857Y-18617286D02*
X8724286Y-18603000D01*
X8710000Y-18588714D01*
X8695714Y-18560143D01*
X8695714Y-18545857D01*
X8710000Y-18517286D01*
X8724286Y-18503000D01*
X8752857Y-18488714D01*
X8810000Y-18488714D01*
X8838571Y-18503000D01*
X8852857Y-18517286D01*
X8867143Y-18545857D01*
X8867143Y-18560143D01*
X8852857Y-18588714D01*
X8838571Y-18603000D01*
X8810000Y-18617286D01*
X8752857Y-18617286D01*
X8724286Y-18631572D01*
X8710000Y-18645857D01*
X8695714Y-18674429D01*
X8695714Y-18731572D01*
X8710000Y-18760143D01*
X8724286Y-18774429D01*
X8752857Y-18788714D01*
X8810000Y-18788714D01*
X8838571Y-18774429D01*
X8852857Y-18760143D01*
X8867143Y-18731572D01*
X8867143Y-18674429D01*
X8852857Y-18645857D01*
X8838571Y-18631572D01*
X8810000Y-18617286D01*
X9052857Y-18488714D02*
X9081428Y-18488714D01*
X9110000Y-18503000D01*
X9124286Y-18517286D01*
X9138571Y-18545857D01*
X9152857Y-18603000D01*
X9152857Y-18674429D01*
X9138571Y-18731572D01*
X9124286Y-18760143D01*
X9110000Y-18774429D01*
X9081428Y-18788714D01*
X9052857Y-18788714D01*
X9024286Y-18774429D01*
X9010000Y-18760143D01*
X8995714Y-18731572D01*
X8981428Y-18674429D01*
X8981428Y-18603000D01*
X8995714Y-18545857D01*
X9010000Y-18517286D01*
X9024286Y-18503000D01*
X9052857Y-18488714D01*
X9338571Y-18488714D02*
X9367143Y-18488714D01*
X9395714Y-18503000D01*
X9410000Y-18517286D01*
X9424286Y-18545857D01*
X9438571Y-18603000D01*
X9438571Y-18674429D01*
X9424286Y-18731572D01*
X9410000Y-18760143D01*
X9395714Y-18774429D01*
X9367143Y-18788714D01*
X9338571Y-18788714D01*
X9310000Y-18774429D01*
X9295714Y-18760143D01*
X9281428Y-18731572D01*
X9267143Y-18674429D01*
X9267143Y-18603000D01*
X9281428Y-18545857D01*
X9295714Y-18517286D01*
X9310000Y-18503000D01*
X9338571Y-18488714D01*
X9567143Y-18788714D02*
X9567143Y-18588714D01*
X9567143Y-18617286D02*
X9581428Y-18603000D01*
X9610000Y-18588714D01*
X9652857Y-18588714D01*
X9681428Y-18603000D01*
X9695714Y-18631572D01*
X9695714Y-18788714D01*
X9695714Y-18631572D02*
X9710000Y-18603000D01*
X9738571Y-18588714D01*
X9781428Y-18588714D01*
X9810000Y-18603000D01*
X9824286Y-18631572D01*
X9824286Y-18788714D01*
X9967143Y-18788714D02*
X9967143Y-18588714D01*
X9967143Y-18617286D02*
X9981428Y-18603000D01*
X10010000Y-18588714D01*
X10052857Y-18588714D01*
X10081428Y-18603000D01*
X10095714Y-18631572D01*
X10095714Y-18788714D01*
X10095714Y-18631572D02*
X10110000Y-18603000D01*
X10138571Y-18588714D01*
X10181428Y-18588714D01*
X10210000Y-18603000D01*
X10224286Y-18631572D01*
X10224286Y-18788714D01*
X10810000Y-18474429D02*
X10552857Y-18860143D01*
X11195714Y-18488714D02*
X11224286Y-18488714D01*
X11252857Y-18503000D01*
X11267143Y-18517286D01*
X11281428Y-18545857D01*
X11295714Y-18603000D01*
X11295714Y-18674429D01*
X11281428Y-18731572D01*
X11267143Y-18760143D01*
X11252857Y-18774429D01*
X11224286Y-18788714D01*
X11195714Y-18788714D01*
X11167143Y-18774429D01*
X11152857Y-18760143D01*
X11138571Y-18731572D01*
X11124286Y-18674429D01*
X11124286Y-18603000D01*
X11138571Y-18545857D01*
X11152857Y-18517286D01*
X11167143Y-18503000D01*
X11195714Y-18488714D01*
X11424286Y-18760143D02*
X11438571Y-18774429D01*
X11424286Y-18788714D01*
X11410000Y-18774429D01*
X11424286Y-18760143D01*
X11424286Y-18788714D01*
X11624286Y-18488714D02*
X11652857Y-18488714D01*
X11681428Y-18503000D01*
X11695714Y-18517286D01*
X11710000Y-18545857D01*
X11724286Y-18603000D01*
X11724286Y-18674429D01*
X11710000Y-18731572D01*
X11695714Y-18760143D01*
X11681428Y-18774429D01*
X11652857Y-18788714D01*
X11624286Y-18788714D01*
X11595714Y-18774429D01*
X11581428Y-18760143D01*
X11567143Y-18731572D01*
X11552857Y-18674429D01*
X11552857Y-18603000D01*
X11567143Y-18545857D01*
X11581428Y-18517286D01*
X11595714Y-18503000D01*
X11624286Y-18488714D01*
X11824286Y-18488714D02*
X12010000Y-18488714D01*
X11910000Y-18603000D01*
X11952857Y-18603000D01*
X11981428Y-18617286D01*
X11995714Y-18631572D01*
X12010000Y-18660143D01*
X12010000Y-18731572D01*
X11995714Y-18760143D01*
X11981428Y-18774429D01*
X11952857Y-18788714D01*
X11867143Y-18788714D01*
X11838571Y-18774429D01*
X11824286Y-18760143D01*
X12295714Y-18788714D02*
X12124286Y-18788714D01*
X12210000Y-18788714D02*
X12210000Y-18488714D01*
X12181428Y-18531572D01*
X12152857Y-18560143D01*
X12124286Y-18574429D01*
X12567143Y-18488714D02*
X12424286Y-18488714D01*
X12410000Y-18631572D01*
X12424286Y-18617286D01*
X12452857Y-18603000D01*
X12524286Y-18603000D01*
X12552857Y-18617286D01*
X12567143Y-18631572D01*
X12581428Y-18660143D01*
X12581428Y-18731572D01*
X12567143Y-18760143D01*
X12552857Y-18774429D01*
X12524286Y-18788714D01*
X12452857Y-18788714D01*
X12424286Y-18774429D01*
X12410000Y-18760143D01*
X12695714Y-18488714D02*
X12695714Y-18545857D01*
X12810000Y-18488714D02*
X12810000Y-18545857D01*
X13252857Y-18903000D02*
X13238571Y-18888714D01*
X13210000Y-18845857D01*
X13195714Y-18817286D01*
X13181428Y-18774429D01*
X13167143Y-18703000D01*
X13167143Y-18645857D01*
X13181428Y-18574429D01*
X13195714Y-18531572D01*
X13210000Y-18503000D01*
X13238571Y-18460143D01*
X13252857Y-18445857D01*
X13338571Y-18488714D02*
X13524286Y-18488714D01*
X13424286Y-18603000D01*
X13467143Y-18603000D01*
X13495714Y-18617286D01*
X13510000Y-18631572D01*
X13524286Y-18660143D01*
X13524286Y-18731572D01*
X13510000Y-18760143D01*
X13495714Y-18774429D01*
X13467143Y-18788714D01*
X13381428Y-18788714D01*
X13352857Y-18774429D01*
X13338571Y-18760143D01*
X13624286Y-18488714D02*
X13810000Y-18488714D01*
X13710000Y-18603000D01*
X13752857Y-18603000D01*
X13781428Y-18617286D01*
X13795714Y-18631572D01*
X13810000Y-18660143D01*
X13810000Y-18731572D01*
X13795714Y-18760143D01*
X13781428Y-18774429D01*
X13752857Y-18788714D01*
X13667143Y-18788714D01*
X13638571Y-18774429D01*
X13624286Y-18760143D01*
X14167143Y-18788714D02*
X14167143Y-18488714D01*
X14295714Y-18788714D02*
X14295714Y-18631572D01*
X14281428Y-18603000D01*
X14252857Y-18588714D01*
X14210000Y-18588714D01*
X14181428Y-18603000D01*
X14167143Y-18617286D01*
X14481428Y-18788714D02*
X14452857Y-18774429D01*
X14438571Y-18760143D01*
X14424286Y-18731572D01*
X14424286Y-18645857D01*
X14438571Y-18617286D01*
X14452857Y-18603000D01*
X14481428Y-18588714D01*
X14524286Y-18588714D01*
X14552857Y-18603000D01*
X14567143Y-18617286D01*
X14581428Y-18645857D01*
X14581428Y-18731572D01*
X14567143Y-18760143D01*
X14552857Y-18774429D01*
X14524286Y-18788714D01*
X14481428Y-18788714D01*
X14752857Y-18788714D02*
X14724286Y-18774429D01*
X14710000Y-18745857D01*
X14710000Y-18488714D01*
X14981428Y-18774429D02*
X14952857Y-18788714D01*
X14895714Y-18788714D01*
X14867143Y-18774429D01*
X14852857Y-18745857D01*
X14852857Y-18631572D01*
X14867143Y-18603000D01*
X14895714Y-18588714D01*
X14952857Y-18588714D01*
X14981428Y-18603000D01*
X14995714Y-18631572D01*
X14995714Y-18660143D01*
X14852857Y-18688714D01*
X15110000Y-18774429D02*
X15138571Y-18788714D01*
X15195714Y-18788714D01*
X15224286Y-18774429D01*
X15238571Y-18745857D01*
X15238571Y-18731572D01*
X15224286Y-18703000D01*
X15195714Y-18688714D01*
X15152857Y-18688714D01*
X15124286Y-18674429D01*
X15110000Y-18645857D01*
X15110000Y-18631572D01*
X15124286Y-18603000D01*
X15152857Y-18588714D01*
X15195714Y-18588714D01*
X15224286Y-18603000D01*
X15338571Y-18903000D02*
X15352857Y-18888714D01*
X15381428Y-18845857D01*
X15395714Y-18817286D01*
X15410000Y-18774429D01*
X15424286Y-18703000D01*
X15424286Y-18645857D01*
X15410000Y-18574429D01*
X15395714Y-18531572D01*
X15381428Y-18503000D01*
X15352857Y-18460143D01*
X15338571Y-18445857D01*
X7945000Y-19099000D02*
X7995000Y-19049000D01*
X7945000Y-18999000D01*
X7895000Y-19049000D01*
X7945000Y-19099000D01*
X8438571Y-19184714D02*
X8267143Y-19184714D01*
X8352857Y-19184714D02*
X8352857Y-18884714D01*
X8324286Y-18927572D01*
X8295714Y-18956143D01*
X8267143Y-18970429D01*
X8567143Y-19156143D02*
X8581428Y-19170429D01*
X8567143Y-19184714D01*
X8552857Y-19170429D01*
X8567143Y-19156143D01*
X8567143Y-19184714D01*
X8767143Y-18884714D02*
X8795714Y-18884714D01*
X8824286Y-18899000D01*
X8838571Y-18913286D01*
X8852857Y-18941857D01*
X8867143Y-18999000D01*
X8867143Y-19070429D01*
X8852857Y-19127572D01*
X8838571Y-19156143D01*
X8824286Y-19170429D01*
X8795714Y-19184714D01*
X8767143Y-19184714D01*
X8738571Y-19170429D01*
X8724286Y-19156143D01*
X8710000Y-19127572D01*
X8695714Y-19070429D01*
X8695714Y-18999000D01*
X8710000Y-18941857D01*
X8724286Y-18913286D01*
X8738571Y-18899000D01*
X8767143Y-18884714D01*
X9052857Y-18884714D02*
X9081428Y-18884714D01*
X9110000Y-18899000D01*
X9124286Y-18913286D01*
X9138571Y-18941857D01*
X9152857Y-18999000D01*
X9152857Y-19070429D01*
X9138571Y-19127572D01*
X9124286Y-19156143D01*
X9110000Y-19170429D01*
X9081428Y-19184714D01*
X9052857Y-19184714D01*
X9024286Y-19170429D01*
X9010000Y-19156143D01*
X8995714Y-19127572D01*
X8981428Y-19070429D01*
X8981428Y-18999000D01*
X8995714Y-18941857D01*
X9010000Y-18913286D01*
X9024286Y-18899000D01*
X9052857Y-18884714D01*
X9338571Y-18884714D02*
X9367143Y-18884714D01*
X9395714Y-18899000D01*
X9410000Y-18913286D01*
X9424286Y-18941857D01*
X9438571Y-18999000D01*
X9438571Y-19070429D01*
X9424286Y-19127572D01*
X9410000Y-19156143D01*
X9395714Y-19170429D01*
X9367143Y-19184714D01*
X9338571Y-19184714D01*
X9310000Y-19170429D01*
X9295714Y-19156143D01*
X9281428Y-19127572D01*
X9267143Y-19070429D01*
X9267143Y-18999000D01*
X9281428Y-18941857D01*
X9295714Y-18913286D01*
X9310000Y-18899000D01*
X9338571Y-18884714D01*
X9567143Y-19184714D02*
X9567143Y-18984714D01*
X9567143Y-19013286D02*
X9581428Y-18999000D01*
X9610000Y-18984714D01*
X9652857Y-18984714D01*
X9681428Y-18999000D01*
X9695714Y-19027572D01*
X9695714Y-19184714D01*
X9695714Y-19027572D02*
X9710000Y-18999000D01*
X9738571Y-18984714D01*
X9781428Y-18984714D01*
X9810000Y-18999000D01*
X9824286Y-19027572D01*
X9824286Y-19184714D01*
X9967143Y-19184714D02*
X9967143Y-18984714D01*
X9967143Y-19013286D02*
X9981428Y-18999000D01*
X10010000Y-18984714D01*
X10052857Y-18984714D01*
X10081428Y-18999000D01*
X10095714Y-19027572D01*
X10095714Y-19184714D01*
X10095714Y-19027572D02*
X10110000Y-18999000D01*
X10138571Y-18984714D01*
X10181428Y-18984714D01*
X10210000Y-18999000D01*
X10224286Y-19027572D01*
X10224286Y-19184714D01*
X10810000Y-18870429D02*
X10552857Y-19256143D01*
X11195714Y-18884714D02*
X11224286Y-18884714D01*
X11252857Y-18899000D01*
X11267143Y-18913286D01*
X11281428Y-18941857D01*
X11295714Y-18999000D01*
X11295714Y-19070429D01*
X11281428Y-19127572D01*
X11267143Y-19156143D01*
X11252857Y-19170429D01*
X11224286Y-19184714D01*
X11195714Y-19184714D01*
X11167143Y-19170429D01*
X11152857Y-19156143D01*
X11138571Y-19127572D01*
X11124286Y-19070429D01*
X11124286Y-18999000D01*
X11138571Y-18941857D01*
X11152857Y-18913286D01*
X11167143Y-18899000D01*
X11195714Y-18884714D01*
X11424286Y-19156143D02*
X11438571Y-19170429D01*
X11424286Y-19184714D01*
X11410000Y-19170429D01*
X11424286Y-19156143D01*
X11424286Y-19184714D01*
X11624286Y-18884714D02*
X11652857Y-18884714D01*
X11681428Y-18899000D01*
X11695714Y-18913286D01*
X11710000Y-18941857D01*
X11724286Y-18999000D01*
X11724286Y-19070429D01*
X11710000Y-19127572D01*
X11695714Y-19156143D01*
X11681428Y-19170429D01*
X11652857Y-19184714D01*
X11624286Y-19184714D01*
X11595714Y-19170429D01*
X11581428Y-19156143D01*
X11567143Y-19127572D01*
X11552857Y-19070429D01*
X11552857Y-18999000D01*
X11567143Y-18941857D01*
X11581428Y-18913286D01*
X11595714Y-18899000D01*
X11624286Y-18884714D01*
X11824286Y-18884714D02*
X12010000Y-18884714D01*
X11910000Y-18999000D01*
X11952857Y-18999000D01*
X11981428Y-19013286D01*
X11995714Y-19027572D01*
X12010000Y-19056143D01*
X12010000Y-19127572D01*
X11995714Y-19156143D01*
X11981428Y-19170429D01*
X11952857Y-19184714D01*
X11867143Y-19184714D01*
X11838571Y-19170429D01*
X11824286Y-19156143D01*
X12152857Y-19184714D02*
X12210000Y-19184714D01*
X12238571Y-19170429D01*
X12252857Y-19156143D01*
X12281428Y-19113286D01*
X12295714Y-19056143D01*
X12295714Y-18941857D01*
X12281428Y-18913286D01*
X12267143Y-18899000D01*
X12238571Y-18884714D01*
X12181428Y-18884714D01*
X12152857Y-18899000D01*
X12138571Y-18913286D01*
X12124286Y-18941857D01*
X12124286Y-19013286D01*
X12138571Y-19041857D01*
X12152857Y-19056143D01*
X12181428Y-19070429D01*
X12238571Y-19070429D01*
X12267143Y-19056143D01*
X12281428Y-19041857D01*
X12295714Y-19013286D01*
X12552857Y-18984714D02*
X12552857Y-19184714D01*
X12481428Y-18870429D02*
X12410000Y-19084714D01*
X12595714Y-19084714D01*
X12695714Y-18884714D02*
X12695714Y-18941857D01*
X12810000Y-18884714D02*
X12810000Y-18941857D01*
X13252857Y-19299000D02*
X13238571Y-19284714D01*
X13210000Y-19241857D01*
X13195714Y-19213286D01*
X13181428Y-19170429D01*
X13167143Y-19099000D01*
X13167143Y-19041857D01*
X13181428Y-18970429D01*
X13195714Y-18927572D01*
X13210000Y-18899000D01*
X13238571Y-18856143D01*
X13252857Y-18841857D01*
X13352857Y-18913286D02*
X13367143Y-18899000D01*
X13395714Y-18884714D01*
X13467143Y-18884714D01*
X13495714Y-18899000D01*
X13510000Y-18913286D01*
X13524286Y-18941857D01*
X13524286Y-18970429D01*
X13510000Y-19013286D01*
X13338571Y-19184714D01*
X13524286Y-19184714D01*
X13667143Y-19184714D02*
X13724286Y-19184714D01*
X13752857Y-19170429D01*
X13767143Y-19156143D01*
X13795714Y-19113286D01*
X13810000Y-19056143D01*
X13810000Y-18941857D01*
X13795714Y-18913286D01*
X13781428Y-18899000D01*
X13752857Y-18884714D01*
X13695714Y-18884714D01*
X13667143Y-18899000D01*
X13652857Y-18913286D01*
X13638571Y-18941857D01*
X13638571Y-19013286D01*
X13652857Y-19041857D01*
X13667143Y-19056143D01*
X13695714Y-19070429D01*
X13752857Y-19070429D01*
X13781428Y-19056143D01*
X13795714Y-19041857D01*
X13810000Y-19013286D01*
X14167143Y-19184714D02*
X14167143Y-18884714D01*
X14295714Y-19184714D02*
X14295714Y-19027572D01*
X14281428Y-18999000D01*
X14252857Y-18984714D01*
X14210000Y-18984714D01*
X14181428Y-18999000D01*
X14167143Y-19013286D01*
X14481428Y-19184714D02*
X14452857Y-19170429D01*
X14438571Y-19156143D01*
X14424286Y-19127572D01*
X14424286Y-19041857D01*
X14438571Y-19013286D01*
X14452857Y-18999000D01*
X14481428Y-18984714D01*
X14524286Y-18984714D01*
X14552857Y-18999000D01*
X14567143Y-19013286D01*
X14581428Y-19041857D01*
X14581428Y-19127572D01*
X14567143Y-19156143D01*
X14552857Y-19170429D01*
X14524286Y-19184714D01*
X14481428Y-19184714D01*
X14752857Y-19184714D02*
X14724286Y-19170429D01*
X14710000Y-19141857D01*
X14710000Y-18884714D01*
X14981428Y-19170429D02*
X14952857Y-19184714D01*
X14895714Y-19184714D01*
X14867143Y-19170429D01*
X14852857Y-19141857D01*
X14852857Y-19027572D01*
X14867143Y-18999000D01*
X14895714Y-18984714D01*
X14952857Y-18984714D01*
X14981428Y-18999000D01*
X14995714Y-19027572D01*
X14995714Y-19056143D01*
X14852857Y-19084714D01*
X15110000Y-19170429D02*
X15138571Y-19184714D01*
X15195714Y-19184714D01*
X15224286Y-19170429D01*
X15238571Y-19141857D01*
X15238571Y-19127572D01*
X15224286Y-19099000D01*
X15195714Y-19084714D01*
X15152857Y-19084714D01*
X15124286Y-19070429D01*
X15110000Y-19041857D01*
X15110000Y-19027572D01*
X15124286Y-18999000D01*
X15152857Y-18984714D01*
X15195714Y-18984714D01*
X15224286Y-18999000D01*
X15338571Y-19299000D02*
X15352857Y-19284714D01*
X15381428Y-19241857D01*
X15395714Y-19213286D01*
X15410000Y-19170429D01*
X15424286Y-19099000D01*
X15424286Y-19041857D01*
X15410000Y-18970429D01*
X15395714Y-18927572D01*
X15381428Y-18899000D01*
X15352857Y-18856143D01*
X15338571Y-18841857D01*
X7893000Y-19394000D02*
X7995000Y-19496000D01*
X7995000Y-19394000D02*
X7893000Y-19496000D01*
X7995000Y-19445000D02*
G75*
G03*
X7995000Y-19445000I-51000J0D01*
G01*
X8438571Y-19580714D02*
X8267143Y-19580714D01*
X8352857Y-19580714D02*
X8352857Y-19280714D01*
X8324286Y-19323572D01*
X8295714Y-19352143D01*
X8267143Y-19366429D01*
X8567143Y-19552143D02*
X8581428Y-19566429D01*
X8567143Y-19580714D01*
X8552857Y-19566429D01*
X8567143Y-19552143D01*
X8567143Y-19580714D01*
X8767143Y-19280714D02*
X8795714Y-19280714D01*
X8824286Y-19295000D01*
X8838571Y-19309286D01*
X8852857Y-19337857D01*
X8867143Y-19395000D01*
X8867143Y-19466429D01*
X8852857Y-19523572D01*
X8838571Y-19552143D01*
X8824286Y-19566429D01*
X8795714Y-19580714D01*
X8767143Y-19580714D01*
X8738571Y-19566429D01*
X8724286Y-19552143D01*
X8710000Y-19523572D01*
X8695714Y-19466429D01*
X8695714Y-19395000D01*
X8710000Y-19337857D01*
X8724286Y-19309286D01*
X8738571Y-19295000D01*
X8767143Y-19280714D01*
X8981428Y-19309286D02*
X8995714Y-19295000D01*
X9024286Y-19280714D01*
X9095714Y-19280714D01*
X9124286Y-19295000D01*
X9138571Y-19309286D01*
X9152857Y-19337857D01*
X9152857Y-19366429D01*
X9138571Y-19409286D01*
X8967143Y-19580714D01*
X9152857Y-19580714D01*
X9338571Y-19280714D02*
X9367143Y-19280714D01*
X9395714Y-19295000D01*
X9410000Y-19309286D01*
X9424286Y-19337857D01*
X9438571Y-19395000D01*
X9438571Y-19466429D01*
X9424286Y-19523572D01*
X9410000Y-19552143D01*
X9395714Y-19566429D01*
X9367143Y-19580714D01*
X9338571Y-19580714D01*
X9310000Y-19566429D01*
X9295714Y-19552143D01*
X9281428Y-19523572D01*
X9267143Y-19466429D01*
X9267143Y-19395000D01*
X9281428Y-19337857D01*
X9295714Y-19309286D01*
X9310000Y-19295000D01*
X9338571Y-19280714D01*
X9567143Y-19580714D02*
X9567143Y-19380714D01*
X9567143Y-19409286D02*
X9581428Y-19395000D01*
X9610000Y-19380714D01*
X9652857Y-19380714D01*
X9681428Y-19395000D01*
X9695714Y-19423572D01*
X9695714Y-19580714D01*
X9695714Y-19423572D02*
X9710000Y-19395000D01*
X9738571Y-19380714D01*
X9781428Y-19380714D01*
X9810000Y-19395000D01*
X9824286Y-19423572D01*
X9824286Y-19580714D01*
X9967143Y-19580714D02*
X9967143Y-19380714D01*
X9967143Y-19409286D02*
X9981428Y-19395000D01*
X10010000Y-19380714D01*
X10052857Y-19380714D01*
X10081428Y-19395000D01*
X10095714Y-19423572D01*
X10095714Y-19580714D01*
X10095714Y-19423572D02*
X10110000Y-19395000D01*
X10138571Y-19380714D01*
X10181428Y-19380714D01*
X10210000Y-19395000D01*
X10224286Y-19423572D01*
X10224286Y-19580714D01*
X10810000Y-19266429D02*
X10552857Y-19652143D01*
X11195714Y-19280714D02*
X11224286Y-19280714D01*
X11252857Y-19295000D01*
X11267143Y-19309286D01*
X11281428Y-19337857D01*
X11295714Y-19395000D01*
X11295714Y-19466429D01*
X11281428Y-19523572D01*
X11267143Y-19552143D01*
X11252857Y-19566429D01*
X11224286Y-19580714D01*
X11195714Y-19580714D01*
X11167143Y-19566429D01*
X11152857Y-19552143D01*
X11138571Y-19523572D01*
X11124286Y-19466429D01*
X11124286Y-19395000D01*
X11138571Y-19337857D01*
X11152857Y-19309286D01*
X11167143Y-19295000D01*
X11195714Y-19280714D01*
X11424286Y-19552143D02*
X11438571Y-19566429D01*
X11424286Y-19580714D01*
X11410000Y-19566429D01*
X11424286Y-19552143D01*
X11424286Y-19580714D01*
X11624286Y-19280714D02*
X11652857Y-19280714D01*
X11681428Y-19295000D01*
X11695714Y-19309286D01*
X11710000Y-19337857D01*
X11724286Y-19395000D01*
X11724286Y-19466429D01*
X11710000Y-19523572D01*
X11695714Y-19552143D01*
X11681428Y-19566429D01*
X11652857Y-19580714D01*
X11624286Y-19580714D01*
X11595714Y-19566429D01*
X11581428Y-19552143D01*
X11567143Y-19523572D01*
X11552857Y-19466429D01*
X11552857Y-19395000D01*
X11567143Y-19337857D01*
X11581428Y-19309286D01*
X11595714Y-19295000D01*
X11624286Y-19280714D01*
X11981428Y-19380714D02*
X11981428Y-19580714D01*
X11910000Y-19266429D02*
X11838571Y-19480714D01*
X12024286Y-19480714D01*
X12195714Y-19280714D02*
X12224286Y-19280714D01*
X12252857Y-19295000D01*
X12267143Y-19309286D01*
X12281428Y-19337857D01*
X12295714Y-19395000D01*
X12295714Y-19466429D01*
X12281428Y-19523572D01*
X12267143Y-19552143D01*
X12252857Y-19566429D01*
X12224286Y-19580714D01*
X12195714Y-19580714D01*
X12167143Y-19566429D01*
X12152857Y-19552143D01*
X12138571Y-19523572D01*
X12124286Y-19466429D01*
X12124286Y-19395000D01*
X12138571Y-19337857D01*
X12152857Y-19309286D01*
X12167143Y-19295000D01*
X12195714Y-19280714D01*
X12410000Y-19309286D02*
X12424286Y-19295000D01*
X12452857Y-19280714D01*
X12524286Y-19280714D01*
X12552857Y-19295000D01*
X12567143Y-19309286D01*
X12581428Y-19337857D01*
X12581428Y-19366429D01*
X12567143Y-19409286D01*
X12395714Y-19580714D01*
X12581428Y-19580714D01*
X12695714Y-19280714D02*
X12695714Y-19337857D01*
X12810000Y-19280714D02*
X12810000Y-19337857D01*
X13252857Y-19695000D02*
X13238571Y-19680714D01*
X13210000Y-19637857D01*
X13195714Y-19609286D01*
X13181428Y-19566429D01*
X13167143Y-19495000D01*
X13167143Y-19437857D01*
X13181428Y-19366429D01*
X13195714Y-19323572D01*
X13210000Y-19295000D01*
X13238571Y-19252143D01*
X13252857Y-19237857D01*
X13524286Y-19580714D02*
X13352857Y-19580714D01*
X13438571Y-19580714D02*
X13438571Y-19280714D01*
X13410000Y-19323572D01*
X13381428Y-19352143D01*
X13352857Y-19366429D01*
X13781428Y-19280714D02*
X13724286Y-19280714D01*
X13695714Y-19295000D01*
X13681428Y-19309286D01*
X13652857Y-19352143D01*
X13638571Y-19409286D01*
X13638571Y-19523572D01*
X13652857Y-19552143D01*
X13667143Y-19566429D01*
X13695714Y-19580714D01*
X13752857Y-19580714D01*
X13781428Y-19566429D01*
X13795714Y-19552143D01*
X13810000Y-19523572D01*
X13810000Y-19452143D01*
X13795714Y-19423572D01*
X13781428Y-19409286D01*
X13752857Y-19395000D01*
X13695714Y-19395000D01*
X13667143Y-19409286D01*
X13652857Y-19423572D01*
X13638571Y-19452143D01*
X14167143Y-19580714D02*
X14167143Y-19280714D01*
X14295714Y-19580714D02*
X14295714Y-19423572D01*
X14281428Y-19395000D01*
X14252857Y-19380714D01*
X14210000Y-19380714D01*
X14181428Y-19395000D01*
X14167143Y-19409286D01*
X14481428Y-19580714D02*
X14452857Y-19566429D01*
X14438571Y-19552143D01*
X14424286Y-19523572D01*
X14424286Y-19437857D01*
X14438571Y-19409286D01*
X14452857Y-19395000D01*
X14481428Y-19380714D01*
X14524286Y-19380714D01*
X14552857Y-19395000D01*
X14567143Y-19409286D01*
X14581428Y-19437857D01*
X14581428Y-19523572D01*
X14567143Y-19552143D01*
X14552857Y-19566429D01*
X14524286Y-19580714D01*
X14481428Y-19580714D01*
X14752857Y-19580714D02*
X14724286Y-19566429D01*
X14710000Y-19537857D01*
X14710000Y-19280714D01*
X14981428Y-19566429D02*
X14952857Y-19580714D01*
X14895714Y-19580714D01*
X14867143Y-19566429D01*
X14852857Y-19537857D01*
X14852857Y-19423572D01*
X14867143Y-19395000D01*
X14895714Y-19380714D01*
X14952857Y-19380714D01*
X14981428Y-19395000D01*
X14995714Y-19423572D01*
X14995714Y-19452143D01*
X14852857Y-19480714D01*
X15110000Y-19566429D02*
X15138571Y-19580714D01*
X15195714Y-19580714D01*
X15224286Y-19566429D01*
X15238571Y-19537857D01*
X15238571Y-19523572D01*
X15224286Y-19495000D01*
X15195714Y-19480714D01*
X15152857Y-19480714D01*
X15124286Y-19466429D01*
X15110000Y-19437857D01*
X15110000Y-19423572D01*
X15124286Y-19395000D01*
X15152857Y-19380714D01*
X15195714Y-19380714D01*
X15224286Y-19395000D01*
X15338571Y-19695000D02*
X15352857Y-19680714D01*
X15381428Y-19637857D01*
X15395714Y-19609286D01*
X15410000Y-19566429D01*
X15424286Y-19495000D01*
X15424286Y-19437857D01*
X15410000Y-19366429D01*
X15395714Y-19323572D01*
X15381428Y-19295000D01*
X15352857Y-19252143D01*
X15338571Y-19237857D01*
X7885000Y-19786000D02*
X7995000Y-19896000D01*
X7995000Y-19786000D02*
X7885000Y-19896000D01*
X7940000Y-19786000D02*
X7940000Y-19896000D01*
X7885000Y-19841000D02*
X7995000Y-19841000D01*
X8438571Y-19976714D02*
X8267143Y-19976714D01*
X8352857Y-19976714D02*
X8352857Y-19676714D01*
X8324286Y-19719572D01*
X8295714Y-19748143D01*
X8267143Y-19762429D01*
X8567143Y-19948143D02*
X8581428Y-19962429D01*
X8567143Y-19976714D01*
X8552857Y-19962429D01*
X8567143Y-19948143D01*
X8567143Y-19976714D01*
X8867143Y-19976714D02*
X8695714Y-19976714D01*
X8781428Y-19976714D02*
X8781428Y-19676714D01*
X8752857Y-19719572D01*
X8724286Y-19748143D01*
X8695714Y-19762429D01*
X9052857Y-19676714D02*
X9081428Y-19676714D01*
X9110000Y-19691000D01*
X9124286Y-19705286D01*
X9138571Y-19733857D01*
X9152857Y-19791000D01*
X9152857Y-19862429D01*
X9138571Y-19919572D01*
X9124286Y-19948143D01*
X9110000Y-19962429D01*
X9081428Y-19976714D01*
X9052857Y-19976714D01*
X9024286Y-19962429D01*
X9010000Y-19948143D01*
X8995714Y-19919572D01*
X8981428Y-19862429D01*
X8981428Y-19791000D01*
X8995714Y-19733857D01*
X9010000Y-19705286D01*
X9024286Y-19691000D01*
X9052857Y-19676714D01*
X9338571Y-19676714D02*
X9367143Y-19676714D01*
X9395714Y-19691000D01*
X9410000Y-19705286D01*
X9424286Y-19733857D01*
X9438571Y-19791000D01*
X9438571Y-19862429D01*
X9424286Y-19919572D01*
X9410000Y-19948143D01*
X9395714Y-19962429D01*
X9367143Y-19976714D01*
X9338571Y-19976714D01*
X9310000Y-19962429D01*
X9295714Y-19948143D01*
X9281428Y-19919572D01*
X9267143Y-19862429D01*
X9267143Y-19791000D01*
X9281428Y-19733857D01*
X9295714Y-19705286D01*
X9310000Y-19691000D01*
X9338571Y-19676714D01*
X9567143Y-19976714D02*
X9567143Y-19776714D01*
X9567143Y-19805286D02*
X9581428Y-19791000D01*
X9610000Y-19776714D01*
X9652857Y-19776714D01*
X9681428Y-19791000D01*
X9695714Y-19819572D01*
X9695714Y-19976714D01*
X9695714Y-19819572D02*
X9710000Y-19791000D01*
X9738571Y-19776714D01*
X9781428Y-19776714D01*
X9810000Y-19791000D01*
X9824286Y-19819572D01*
X9824286Y-19976714D01*
X9967143Y-19976714D02*
X9967143Y-19776714D01*
X9967143Y-19805286D02*
X9981428Y-19791000D01*
X10010000Y-19776714D01*
X10052857Y-19776714D01*
X10081428Y-19791000D01*
X10095714Y-19819572D01*
X10095714Y-19976714D01*
X10095714Y-19819572D02*
X10110000Y-19791000D01*
X10138571Y-19776714D01*
X10181428Y-19776714D01*
X10210000Y-19791000D01*
X10224286Y-19819572D01*
X10224286Y-19976714D01*
X10810000Y-19662429D02*
X10552857Y-20048143D01*
X11195714Y-19676714D02*
X11224286Y-19676714D01*
X11252857Y-19691000D01*
X11267143Y-19705286D01*
X11281428Y-19733857D01*
X11295714Y-19791000D01*
X11295714Y-19862429D01*
X11281428Y-19919572D01*
X11267143Y-19948143D01*
X11252857Y-19962429D01*
X11224286Y-19976714D01*
X11195714Y-19976714D01*
X11167143Y-19962429D01*
X11152857Y-19948143D01*
X11138571Y-19919572D01*
X11124286Y-19862429D01*
X11124286Y-19791000D01*
X11138571Y-19733857D01*
X11152857Y-19705286D01*
X11167143Y-19691000D01*
X11195714Y-19676714D01*
X11424286Y-19948143D02*
X11438571Y-19962429D01*
X11424286Y-19976714D01*
X11410000Y-19962429D01*
X11424286Y-19948143D01*
X11424286Y-19976714D01*
X11624286Y-19676714D02*
X11652857Y-19676714D01*
X11681428Y-19691000D01*
X11695714Y-19705286D01*
X11710000Y-19733857D01*
X11724286Y-19791000D01*
X11724286Y-19862429D01*
X11710000Y-19919572D01*
X11695714Y-19948143D01*
X11681428Y-19962429D01*
X11652857Y-19976714D01*
X11624286Y-19976714D01*
X11595714Y-19962429D01*
X11581428Y-19948143D01*
X11567143Y-19919572D01*
X11552857Y-19862429D01*
X11552857Y-19791000D01*
X11567143Y-19733857D01*
X11581428Y-19705286D01*
X11595714Y-19691000D01*
X11624286Y-19676714D01*
X11981428Y-19776714D02*
X11981428Y-19976714D01*
X11910000Y-19662429D02*
X11838571Y-19876714D01*
X12024286Y-19876714D01*
X12110000Y-19676714D02*
X12295714Y-19676714D01*
X12195714Y-19791000D01*
X12238571Y-19791000D01*
X12267143Y-19805286D01*
X12281428Y-19819572D01*
X12295714Y-19848143D01*
X12295714Y-19919572D01*
X12281428Y-19948143D01*
X12267143Y-19962429D01*
X12238571Y-19976714D01*
X12152857Y-19976714D01*
X12124286Y-19962429D01*
X12110000Y-19948143D01*
X12395714Y-19676714D02*
X12581428Y-19676714D01*
X12481428Y-19791000D01*
X12524286Y-19791000D01*
X12552857Y-19805286D01*
X12567143Y-19819572D01*
X12581428Y-19848143D01*
X12581428Y-19919572D01*
X12567143Y-19948143D01*
X12552857Y-19962429D01*
X12524286Y-19976714D01*
X12438571Y-19976714D01*
X12410000Y-19962429D01*
X12395714Y-19948143D01*
X12695714Y-19676714D02*
X12695714Y-19733857D01*
X12810000Y-19676714D02*
X12810000Y-19733857D01*
X13252857Y-20091000D02*
X13238571Y-20076714D01*
X13210000Y-20033857D01*
X13195714Y-20005286D01*
X13181428Y-19962429D01*
X13167143Y-19891000D01*
X13167143Y-19833857D01*
X13181428Y-19762429D01*
X13195714Y-19719572D01*
X13210000Y-19691000D01*
X13238571Y-19648143D01*
X13252857Y-19633857D01*
X13495714Y-19776714D02*
X13495714Y-19976714D01*
X13424286Y-19662429D02*
X13352857Y-19876714D01*
X13538571Y-19876714D01*
X13881428Y-19976714D02*
X13881428Y-19676714D01*
X14010000Y-19976714D02*
X14010000Y-19819572D01*
X13995714Y-19791000D01*
X13967143Y-19776714D01*
X13924286Y-19776714D01*
X13895714Y-19791000D01*
X13881428Y-19805286D01*
X14195714Y-19976714D02*
X14167143Y-19962429D01*
X14152857Y-19948143D01*
X14138571Y-19919572D01*
X14138571Y-19833857D01*
X14152857Y-19805286D01*
X14167143Y-19791000D01*
X14195714Y-19776714D01*
X14238571Y-19776714D01*
X14267143Y-19791000D01*
X14281428Y-19805286D01*
X14295714Y-19833857D01*
X14295714Y-19919572D01*
X14281428Y-19948143D01*
X14267143Y-19962429D01*
X14238571Y-19976714D01*
X14195714Y-19976714D01*
X14467143Y-19976714D02*
X14438571Y-19962429D01*
X14424286Y-19933857D01*
X14424286Y-19676714D01*
X14695714Y-19962429D02*
X14667143Y-19976714D01*
X14610000Y-19976714D01*
X14581428Y-19962429D01*
X14567143Y-19933857D01*
X14567143Y-19819572D01*
X14581428Y-19791000D01*
X14610000Y-19776714D01*
X14667143Y-19776714D01*
X14695714Y-19791000D01*
X14710000Y-19819572D01*
X14710000Y-19848143D01*
X14567143Y-19876714D01*
X14824286Y-19962429D02*
X14852857Y-19976714D01*
X14910000Y-19976714D01*
X14938571Y-19962429D01*
X14952857Y-19933857D01*
X14952857Y-19919572D01*
X14938571Y-19891000D01*
X14910000Y-19876714D01*
X14867143Y-19876714D01*
X14838571Y-19862429D01*
X14824286Y-19833857D01*
X14824286Y-19819572D01*
X14838571Y-19791000D01*
X14867143Y-19776714D01*
X14910000Y-19776714D01*
X14938571Y-19791000D01*
X15052857Y-20091000D02*
X15067143Y-20076714D01*
X15095714Y-20033857D01*
X15110000Y-20005286D01*
X15124286Y-19962429D01*
X15138571Y-19891000D01*
X15138571Y-19833857D01*
X15124286Y-19762429D01*
X15110000Y-19719572D01*
X15095714Y-19691000D01*
X15067143Y-19648143D01*
X15052857Y-19633857D01*
M02*
