G04 #@! TF.GenerationSoftware,KiCad,Pcbnew,(5.1.10)-1*
G04 #@! TF.CreationDate,2022-01-30T14:23:45-06:00*
G04 #@! TF.ProjectId,22-ELC-1-01-R1,32322d45-4c43-42d3-912d-30312d52312e,rev?*
G04 #@! TF.SameCoordinates,Original*
G04 #@! TF.FileFunction,Paste,Top*
G04 #@! TF.FilePolarity,Positive*
%FSLAX46Y46*%
G04 Gerber Fmt 4.6, Leading zero omitted, Abs format (unit mm)*
G04 Created by KiCad (PCBNEW (5.1.10)-1) date 2022-01-30 14:23:45*
%MOMM*%
%LPD*%
G01*
G04 APERTURE LIST*
%ADD10R,2.500000X1.800000*%
%ADD11R,1.100000X1.100000*%
%ADD12R,1.800000X3.500000*%
%ADD13R,1.200000X0.900000*%
%ADD14R,0.900000X1.200000*%
%ADD15R,3.500000X2.300000*%
%ADD16R,0.900000X0.800000*%
%ADD17R,0.800000X0.900000*%
%ADD18R,2.200000X1.200000*%
%ADD19R,3.050000X2.750000*%
%ADD20R,2.600000X3.100000*%
%ADD21R,1.550000X0.600000*%
%ADD22C,0.100000*%
G04 APERTURE END LIST*
G36*
G01*
X112100000Y-141025000D02*
X112100000Y-139775000D01*
G75*
G02*
X112350000Y-139525000I250000J0D01*
G01*
X113150000Y-139525000D01*
G75*
G02*
X113400000Y-139775000I0J-250000D01*
G01*
X113400000Y-141025000D01*
G75*
G02*
X113150000Y-141275000I-250000J0D01*
G01*
X112350000Y-141275000D01*
G75*
G02*
X112100000Y-141025000I0J250000D01*
G01*
G37*
G36*
G01*
X109000000Y-141025000D02*
X109000000Y-139775000D01*
G75*
G02*
X109250000Y-139525000I250000J0D01*
G01*
X110050000Y-139525000D01*
G75*
G02*
X110300000Y-139775000I0J-250000D01*
G01*
X110300000Y-141025000D01*
G75*
G02*
X110050000Y-141275000I-250000J0D01*
G01*
X109250000Y-141275000D01*
G75*
G02*
X109000000Y-141025000I0J250000D01*
G01*
G37*
G36*
G01*
X88249999Y-39900000D02*
X89550001Y-39900000D01*
G75*
G02*
X89800000Y-40149999I0J-249999D01*
G01*
X89800000Y-40975001D01*
G75*
G02*
X89550001Y-41225000I-249999J0D01*
G01*
X88249999Y-41225000D01*
G75*
G02*
X88000000Y-40975001I0J249999D01*
G01*
X88000000Y-40149999D01*
G75*
G02*
X88249999Y-39900000I249999J0D01*
G01*
G37*
G36*
G01*
X88249999Y-36775000D02*
X89550001Y-36775000D01*
G75*
G02*
X89800000Y-37024999I0J-249999D01*
G01*
X89800000Y-37850001D01*
G75*
G02*
X89550001Y-38100000I-249999J0D01*
G01*
X88249999Y-38100000D01*
G75*
G02*
X88000000Y-37850001I0J249999D01*
G01*
X88000000Y-37024999D01*
G75*
G02*
X88249999Y-36775000I249999J0D01*
G01*
G37*
G36*
G01*
X91225000Y-111549997D02*
X91225000Y-112850003D01*
G75*
G02*
X90975003Y-113100000I-249997J0D01*
G01*
X90149997Y-113100000D01*
G75*
G02*
X89900000Y-112850003I0J249997D01*
G01*
X89900000Y-111549997D01*
G75*
G02*
X90149997Y-111300000I249997J0D01*
G01*
X90975003Y-111300000D01*
G75*
G02*
X91225000Y-111549997I0J-249997D01*
G01*
G37*
G36*
G01*
X88100000Y-111549997D02*
X88100000Y-112850003D01*
G75*
G02*
X87850003Y-113100000I-249997J0D01*
G01*
X87024997Y-113100000D01*
G75*
G02*
X86775000Y-112850003I0J249997D01*
G01*
X86775000Y-111549997D01*
G75*
G02*
X87024997Y-111300000I249997J0D01*
G01*
X87850003Y-111300000D01*
G75*
G02*
X88100000Y-111549997I0J-249997D01*
G01*
G37*
G36*
G01*
X93250001Y-30100000D02*
X91949999Y-30100000D01*
G75*
G02*
X91700000Y-29850001I0J249999D01*
G01*
X91700000Y-29024999D01*
G75*
G02*
X91949999Y-28775000I249999J0D01*
G01*
X93250001Y-28775000D01*
G75*
G02*
X93500000Y-29024999I0J-249999D01*
G01*
X93500000Y-29850001D01*
G75*
G02*
X93250001Y-30100000I-249999J0D01*
G01*
G37*
G36*
G01*
X93250001Y-33225000D02*
X91949999Y-33225000D01*
G75*
G02*
X91700000Y-32975001I0J249999D01*
G01*
X91700000Y-32149999D01*
G75*
G02*
X91949999Y-31900000I249999J0D01*
G01*
X93250001Y-31900000D01*
G75*
G02*
X93500000Y-32149999I0J-249999D01*
G01*
X93500000Y-32975001D01*
G75*
G02*
X93250001Y-33225000I-249999J0D01*
G01*
G37*
G36*
G01*
X85349999Y-39900000D02*
X86650001Y-39900000D01*
G75*
G02*
X86900000Y-40149999I0J-249999D01*
G01*
X86900000Y-40975001D01*
G75*
G02*
X86650001Y-41225000I-249999J0D01*
G01*
X85349999Y-41225000D01*
G75*
G02*
X85100000Y-40975001I0J249999D01*
G01*
X85100000Y-40149999D01*
G75*
G02*
X85349999Y-39900000I249999J0D01*
G01*
G37*
G36*
G01*
X85349999Y-36775000D02*
X86650001Y-36775000D01*
G75*
G02*
X86900000Y-37024999I0J-249999D01*
G01*
X86900000Y-37850001D01*
G75*
G02*
X86650001Y-38100000I-249999J0D01*
G01*
X85349999Y-38100000D01*
G75*
G02*
X85100000Y-37850001I0J249999D01*
G01*
X85100000Y-37024999D01*
G75*
G02*
X85349999Y-36775000I249999J0D01*
G01*
G37*
D10*
X98400000Y-48200000D03*
X94400000Y-48200000D03*
D11*
X83000000Y-37200000D03*
X83000000Y-40000000D03*
G36*
G01*
X129410000Y-99050000D02*
X129710000Y-99050000D01*
G75*
G02*
X129860000Y-99200000I0J-150000D01*
G01*
X129860000Y-100850000D01*
G75*
G02*
X129710000Y-101000000I-150000J0D01*
G01*
X129410000Y-101000000D01*
G75*
G02*
X129260000Y-100850000I0J150000D01*
G01*
X129260000Y-99200000D01*
G75*
G02*
X129410000Y-99050000I150000J0D01*
G01*
G37*
G36*
G01*
X128140000Y-99050000D02*
X128440000Y-99050000D01*
G75*
G02*
X128590000Y-99200000I0J-150000D01*
G01*
X128590000Y-100850000D01*
G75*
G02*
X128440000Y-101000000I-150000J0D01*
G01*
X128140000Y-101000000D01*
G75*
G02*
X127990000Y-100850000I0J150000D01*
G01*
X127990000Y-99200000D01*
G75*
G02*
X128140000Y-99050000I150000J0D01*
G01*
G37*
G36*
G01*
X126870000Y-99050000D02*
X127170000Y-99050000D01*
G75*
G02*
X127320000Y-99200000I0J-150000D01*
G01*
X127320000Y-100850000D01*
G75*
G02*
X127170000Y-101000000I-150000J0D01*
G01*
X126870000Y-101000000D01*
G75*
G02*
X126720000Y-100850000I0J150000D01*
G01*
X126720000Y-99200000D01*
G75*
G02*
X126870000Y-99050000I150000J0D01*
G01*
G37*
G36*
G01*
X125600000Y-99050000D02*
X125900000Y-99050000D01*
G75*
G02*
X126050000Y-99200000I0J-150000D01*
G01*
X126050000Y-100850000D01*
G75*
G02*
X125900000Y-101000000I-150000J0D01*
G01*
X125600000Y-101000000D01*
G75*
G02*
X125450000Y-100850000I0J150000D01*
G01*
X125450000Y-99200000D01*
G75*
G02*
X125600000Y-99050000I150000J0D01*
G01*
G37*
G36*
G01*
X124330000Y-99050000D02*
X124630000Y-99050000D01*
G75*
G02*
X124780000Y-99200000I0J-150000D01*
G01*
X124780000Y-100850000D01*
G75*
G02*
X124630000Y-101000000I-150000J0D01*
G01*
X124330000Y-101000000D01*
G75*
G02*
X124180000Y-100850000I0J150000D01*
G01*
X124180000Y-99200000D01*
G75*
G02*
X124330000Y-99050000I150000J0D01*
G01*
G37*
G36*
G01*
X123060000Y-99050000D02*
X123360000Y-99050000D01*
G75*
G02*
X123510000Y-99200000I0J-150000D01*
G01*
X123510000Y-100850000D01*
G75*
G02*
X123360000Y-101000000I-150000J0D01*
G01*
X123060000Y-101000000D01*
G75*
G02*
X122910000Y-100850000I0J150000D01*
G01*
X122910000Y-99200000D01*
G75*
G02*
X123060000Y-99050000I150000J0D01*
G01*
G37*
G36*
G01*
X121790000Y-99050000D02*
X122090000Y-99050000D01*
G75*
G02*
X122240000Y-99200000I0J-150000D01*
G01*
X122240000Y-100850000D01*
G75*
G02*
X122090000Y-101000000I-150000J0D01*
G01*
X121790000Y-101000000D01*
G75*
G02*
X121640000Y-100850000I0J150000D01*
G01*
X121640000Y-99200000D01*
G75*
G02*
X121790000Y-99050000I150000J0D01*
G01*
G37*
G36*
G01*
X121790000Y-104000000D02*
X122090000Y-104000000D01*
G75*
G02*
X122240000Y-104150000I0J-150000D01*
G01*
X122240000Y-105800000D01*
G75*
G02*
X122090000Y-105950000I-150000J0D01*
G01*
X121790000Y-105950000D01*
G75*
G02*
X121640000Y-105800000I0J150000D01*
G01*
X121640000Y-104150000D01*
G75*
G02*
X121790000Y-104000000I150000J0D01*
G01*
G37*
G36*
G01*
X123060000Y-104000000D02*
X123360000Y-104000000D01*
G75*
G02*
X123510000Y-104150000I0J-150000D01*
G01*
X123510000Y-105800000D01*
G75*
G02*
X123360000Y-105950000I-150000J0D01*
G01*
X123060000Y-105950000D01*
G75*
G02*
X122910000Y-105800000I0J150000D01*
G01*
X122910000Y-104150000D01*
G75*
G02*
X123060000Y-104000000I150000J0D01*
G01*
G37*
G36*
G01*
X124330000Y-104000000D02*
X124630000Y-104000000D01*
G75*
G02*
X124780000Y-104150000I0J-150000D01*
G01*
X124780000Y-105800000D01*
G75*
G02*
X124630000Y-105950000I-150000J0D01*
G01*
X124330000Y-105950000D01*
G75*
G02*
X124180000Y-105800000I0J150000D01*
G01*
X124180000Y-104150000D01*
G75*
G02*
X124330000Y-104000000I150000J0D01*
G01*
G37*
G36*
G01*
X125600000Y-104000000D02*
X125900000Y-104000000D01*
G75*
G02*
X126050000Y-104150000I0J-150000D01*
G01*
X126050000Y-105800000D01*
G75*
G02*
X125900000Y-105950000I-150000J0D01*
G01*
X125600000Y-105950000D01*
G75*
G02*
X125450000Y-105800000I0J150000D01*
G01*
X125450000Y-104150000D01*
G75*
G02*
X125600000Y-104000000I150000J0D01*
G01*
G37*
G36*
G01*
X126870000Y-104000000D02*
X127170000Y-104000000D01*
G75*
G02*
X127320000Y-104150000I0J-150000D01*
G01*
X127320000Y-105800000D01*
G75*
G02*
X127170000Y-105950000I-150000J0D01*
G01*
X126870000Y-105950000D01*
G75*
G02*
X126720000Y-105800000I0J150000D01*
G01*
X126720000Y-104150000D01*
G75*
G02*
X126870000Y-104000000I150000J0D01*
G01*
G37*
G36*
G01*
X128140000Y-104000000D02*
X128440000Y-104000000D01*
G75*
G02*
X128590000Y-104150000I0J-150000D01*
G01*
X128590000Y-105800000D01*
G75*
G02*
X128440000Y-105950000I-150000J0D01*
G01*
X128140000Y-105950000D01*
G75*
G02*
X127990000Y-105800000I0J150000D01*
G01*
X127990000Y-104150000D01*
G75*
G02*
X128140000Y-104000000I150000J0D01*
G01*
G37*
G36*
G01*
X129410000Y-104000000D02*
X129710000Y-104000000D01*
G75*
G02*
X129860000Y-104150000I0J-150000D01*
G01*
X129860000Y-105800000D01*
G75*
G02*
X129710000Y-105950000I-150000J0D01*
G01*
X129410000Y-105950000D01*
G75*
G02*
X129260000Y-105800000I0J150000D01*
G01*
X129260000Y-104150000D01*
G75*
G02*
X129410000Y-104000000I150000J0D01*
G01*
G37*
G36*
G01*
X132200000Y-82037500D02*
X132200000Y-81562500D01*
G75*
G02*
X132437500Y-81325000I237500J0D01*
G01*
X133037500Y-81325000D01*
G75*
G02*
X133275000Y-81562500I0J-237500D01*
G01*
X133275000Y-82037500D01*
G75*
G02*
X133037500Y-82275000I-237500J0D01*
G01*
X132437500Y-82275000D01*
G75*
G02*
X132200000Y-82037500I0J237500D01*
G01*
G37*
G36*
G01*
X133925000Y-82037500D02*
X133925000Y-81562500D01*
G75*
G02*
X134162500Y-81325000I237500J0D01*
G01*
X134762500Y-81325000D01*
G75*
G02*
X135000000Y-81562500I0J-237500D01*
G01*
X135000000Y-82037500D01*
G75*
G02*
X134762500Y-82275000I-237500J0D01*
G01*
X134162500Y-82275000D01*
G75*
G02*
X133925000Y-82037500I0J237500D01*
G01*
G37*
G36*
G01*
X91125000Y-37575000D02*
X92075000Y-37575000D01*
G75*
G02*
X92325000Y-37825000I0J-250000D01*
G01*
X92325000Y-38500000D01*
G75*
G02*
X92075000Y-38750000I-250000J0D01*
G01*
X91125000Y-38750000D01*
G75*
G02*
X90875000Y-38500000I0J250000D01*
G01*
X90875000Y-37825000D01*
G75*
G02*
X91125000Y-37575000I250000J0D01*
G01*
G37*
G36*
G01*
X91125000Y-39650000D02*
X92075000Y-39650000D01*
G75*
G02*
X92325000Y-39900000I0J-250000D01*
G01*
X92325000Y-40575000D01*
G75*
G02*
X92075000Y-40825000I-250000J0D01*
G01*
X91125000Y-40825000D01*
G75*
G02*
X90875000Y-40575000I0J250000D01*
G01*
X90875000Y-39900000D01*
G75*
G02*
X91125000Y-39650000I250000J0D01*
G01*
G37*
G36*
G01*
X104075000Y-45362500D02*
X104075000Y-45837500D01*
G75*
G02*
X103837500Y-46075000I-237500J0D01*
G01*
X103237500Y-46075000D01*
G75*
G02*
X103000000Y-45837500I0J237500D01*
G01*
X103000000Y-45362500D01*
G75*
G02*
X103237500Y-45125000I237500J0D01*
G01*
X103837500Y-45125000D01*
G75*
G02*
X104075000Y-45362500I0J-237500D01*
G01*
G37*
G36*
G01*
X105800000Y-45362500D02*
X105800000Y-45837500D01*
G75*
G02*
X105562500Y-46075000I-237500J0D01*
G01*
X104962500Y-46075000D01*
G75*
G02*
X104725000Y-45837500I0J237500D01*
G01*
X104725000Y-45362500D01*
G75*
G02*
X104962500Y-45125000I237500J0D01*
G01*
X105562500Y-45125000D01*
G75*
G02*
X105800000Y-45362500I0J-237500D01*
G01*
G37*
G36*
G01*
X102100003Y-33225000D02*
X99899997Y-33225000D01*
G75*
G02*
X99650000Y-32975003I0J249997D01*
G01*
X99650000Y-32149997D01*
G75*
G02*
X99899997Y-31900000I249997J0D01*
G01*
X102100003Y-31900000D01*
G75*
G02*
X102350000Y-32149997I0J-249997D01*
G01*
X102350000Y-32975003D01*
G75*
G02*
X102100003Y-33225000I-249997J0D01*
G01*
G37*
G36*
G01*
X102100003Y-30100000D02*
X99899997Y-30100000D01*
G75*
G02*
X99650000Y-29850003I0J249997D01*
G01*
X99650000Y-29024997D01*
G75*
G02*
X99899997Y-28775000I249997J0D01*
G01*
X102100003Y-28775000D01*
G75*
G02*
X102350000Y-29024997I0J-249997D01*
G01*
X102350000Y-29850003D01*
G75*
G02*
X102100003Y-30100000I-249997J0D01*
G01*
G37*
G36*
G01*
X97900003Y-33225000D02*
X95699997Y-33225000D01*
G75*
G02*
X95450000Y-32975003I0J249997D01*
G01*
X95450000Y-32149997D01*
G75*
G02*
X95699997Y-31900000I249997J0D01*
G01*
X97900003Y-31900000D01*
G75*
G02*
X98150000Y-32149997I0J-249997D01*
G01*
X98150000Y-32975003D01*
G75*
G02*
X97900003Y-33225000I-249997J0D01*
G01*
G37*
G36*
G01*
X97900003Y-30100000D02*
X95699997Y-30100000D01*
G75*
G02*
X95450000Y-29850003I0J249997D01*
G01*
X95450000Y-29024997D01*
G75*
G02*
X95699997Y-28775000I249997J0D01*
G01*
X97900003Y-28775000D01*
G75*
G02*
X98150000Y-29024997I0J-249997D01*
G01*
X98150000Y-29850003D01*
G75*
G02*
X97900003Y-30100000I-249997J0D01*
G01*
G37*
G36*
G01*
X111375000Y-106337500D02*
X111375000Y-105862500D01*
G75*
G02*
X111612500Y-105625000I237500J0D01*
G01*
X112212500Y-105625000D01*
G75*
G02*
X112450000Y-105862500I0J-237500D01*
G01*
X112450000Y-106337500D01*
G75*
G02*
X112212500Y-106575000I-237500J0D01*
G01*
X111612500Y-106575000D01*
G75*
G02*
X111375000Y-106337500I0J237500D01*
G01*
G37*
G36*
G01*
X109650000Y-106337500D02*
X109650000Y-105862500D01*
G75*
G02*
X109887500Y-105625000I237500J0D01*
G01*
X110487500Y-105625000D01*
G75*
G02*
X110725000Y-105862500I0J-237500D01*
G01*
X110725000Y-106337500D01*
G75*
G02*
X110487500Y-106575000I-237500J0D01*
G01*
X109887500Y-106575000D01*
G75*
G02*
X109650000Y-106337500I0J237500D01*
G01*
G37*
G36*
G01*
X127100000Y-95237500D02*
X127100000Y-94762500D01*
G75*
G02*
X127337500Y-94525000I237500J0D01*
G01*
X127937500Y-94525000D01*
G75*
G02*
X128175000Y-94762500I0J-237500D01*
G01*
X128175000Y-95237500D01*
G75*
G02*
X127937500Y-95475000I-237500J0D01*
G01*
X127337500Y-95475000D01*
G75*
G02*
X127100000Y-95237500I0J237500D01*
G01*
G37*
G36*
G01*
X128825000Y-95237500D02*
X128825000Y-94762500D01*
G75*
G02*
X129062500Y-94525000I237500J0D01*
G01*
X129662500Y-94525000D01*
G75*
G02*
X129900000Y-94762500I0J-237500D01*
G01*
X129900000Y-95237500D01*
G75*
G02*
X129662500Y-95475000I-237500J0D01*
G01*
X129062500Y-95475000D01*
G75*
G02*
X128825000Y-95237500I0J237500D01*
G01*
G37*
G36*
G01*
X127100000Y-107987500D02*
X127100000Y-107512500D01*
G75*
G02*
X127337500Y-107275000I237500J0D01*
G01*
X127937500Y-107275000D01*
G75*
G02*
X128175000Y-107512500I0J-237500D01*
G01*
X128175000Y-107987500D01*
G75*
G02*
X127937500Y-108225000I-237500J0D01*
G01*
X127337500Y-108225000D01*
G75*
G02*
X127100000Y-107987500I0J237500D01*
G01*
G37*
G36*
G01*
X128825000Y-107987500D02*
X128825000Y-107512500D01*
G75*
G02*
X129062500Y-107275000I237500J0D01*
G01*
X129662500Y-107275000D01*
G75*
G02*
X129900000Y-107512500I0J-237500D01*
G01*
X129900000Y-107987500D01*
G75*
G02*
X129662500Y-108225000I-237500J0D01*
G01*
X129062500Y-108225000D01*
G75*
G02*
X128825000Y-107987500I0J237500D01*
G01*
G37*
G36*
G01*
X128175000Y-97012500D02*
X128175000Y-97487500D01*
G75*
G02*
X127937500Y-97725000I-237500J0D01*
G01*
X127337500Y-97725000D01*
G75*
G02*
X127100000Y-97487500I0J237500D01*
G01*
X127100000Y-97012500D01*
G75*
G02*
X127337500Y-96775000I237500J0D01*
G01*
X127937500Y-96775000D01*
G75*
G02*
X128175000Y-97012500I0J-237500D01*
G01*
G37*
G36*
G01*
X129900000Y-97012500D02*
X129900000Y-97487500D01*
G75*
G02*
X129662500Y-97725000I-237500J0D01*
G01*
X129062500Y-97725000D01*
G75*
G02*
X128825000Y-97487500I0J237500D01*
G01*
X128825000Y-97012500D01*
G75*
G02*
X129062500Y-96775000I237500J0D01*
G01*
X129662500Y-96775000D01*
G75*
G02*
X129900000Y-97012500I0J-237500D01*
G01*
G37*
G36*
G01*
X125487500Y-110150000D02*
X125012500Y-110150000D01*
G75*
G02*
X124775000Y-109912500I0J237500D01*
G01*
X124775000Y-109312500D01*
G75*
G02*
X125012500Y-109075000I237500J0D01*
G01*
X125487500Y-109075000D01*
G75*
G02*
X125725000Y-109312500I0J-237500D01*
G01*
X125725000Y-109912500D01*
G75*
G02*
X125487500Y-110150000I-237500J0D01*
G01*
G37*
G36*
G01*
X125487500Y-108425000D02*
X125012500Y-108425000D01*
G75*
G02*
X124775000Y-108187500I0J237500D01*
G01*
X124775000Y-107587500D01*
G75*
G02*
X125012500Y-107350000I237500J0D01*
G01*
X125487500Y-107350000D01*
G75*
G02*
X125725000Y-107587500I0J-237500D01*
G01*
X125725000Y-108187500D01*
G75*
G02*
X125487500Y-108425000I-237500J0D01*
G01*
G37*
G36*
G01*
X134400000Y-107762500D02*
X134400000Y-108237500D01*
G75*
G02*
X134162500Y-108475000I-237500J0D01*
G01*
X133562500Y-108475000D01*
G75*
G02*
X133325000Y-108237500I0J237500D01*
G01*
X133325000Y-107762500D01*
G75*
G02*
X133562500Y-107525000I237500J0D01*
G01*
X134162500Y-107525000D01*
G75*
G02*
X134400000Y-107762500I0J-237500D01*
G01*
G37*
G36*
G01*
X132675000Y-107762500D02*
X132675000Y-108237500D01*
G75*
G02*
X132437500Y-108475000I-237500J0D01*
G01*
X131837500Y-108475000D01*
G75*
G02*
X131600000Y-108237500I0J237500D01*
G01*
X131600000Y-107762500D01*
G75*
G02*
X131837500Y-107525000I237500J0D01*
G01*
X132437500Y-107525000D01*
G75*
G02*
X132675000Y-107762500I0J-237500D01*
G01*
G37*
G36*
G01*
X97962500Y-107025000D02*
X98437500Y-107025000D01*
G75*
G02*
X98675000Y-107262500I0J-237500D01*
G01*
X98675000Y-107862500D01*
G75*
G02*
X98437500Y-108100000I-237500J0D01*
G01*
X97962500Y-108100000D01*
G75*
G02*
X97725000Y-107862500I0J237500D01*
G01*
X97725000Y-107262500D01*
G75*
G02*
X97962500Y-107025000I237500J0D01*
G01*
G37*
G36*
G01*
X97962500Y-105300000D02*
X98437500Y-105300000D01*
G75*
G02*
X98675000Y-105537500I0J-237500D01*
G01*
X98675000Y-106137500D01*
G75*
G02*
X98437500Y-106375000I-237500J0D01*
G01*
X97962500Y-106375000D01*
G75*
G02*
X97725000Y-106137500I0J237500D01*
G01*
X97725000Y-105537500D01*
G75*
G02*
X97962500Y-105300000I237500J0D01*
G01*
G37*
G36*
G01*
X96075000Y-122962500D02*
X96075000Y-123437500D01*
G75*
G02*
X95837500Y-123675000I-237500J0D01*
G01*
X95237500Y-123675000D01*
G75*
G02*
X95000000Y-123437500I0J237500D01*
G01*
X95000000Y-122962500D01*
G75*
G02*
X95237500Y-122725000I237500J0D01*
G01*
X95837500Y-122725000D01*
G75*
G02*
X96075000Y-122962500I0J-237500D01*
G01*
G37*
G36*
G01*
X97800000Y-122962500D02*
X97800000Y-123437500D01*
G75*
G02*
X97562500Y-123675000I-237500J0D01*
G01*
X96962500Y-123675000D01*
G75*
G02*
X96725000Y-123437500I0J237500D01*
G01*
X96725000Y-122962500D01*
G75*
G02*
X96962500Y-122725000I237500J0D01*
G01*
X97562500Y-122725000D01*
G75*
G02*
X97800000Y-122962500I0J-237500D01*
G01*
G37*
G36*
G01*
X127348008Y-75822012D02*
X127012132Y-76157888D01*
G75*
G02*
X126676256Y-76157888I-167938J167938D01*
G01*
X126251992Y-75733624D01*
G75*
G02*
X126251992Y-75397748I167938J167938D01*
G01*
X126587868Y-75061872D01*
G75*
G02*
X126923744Y-75061872I167938J-167938D01*
G01*
X127348008Y-75486136D01*
G75*
G02*
X127348008Y-75822012I-167938J-167938D01*
G01*
G37*
G36*
G01*
X126128248Y-74602252D02*
X125792372Y-74938128D01*
G75*
G02*
X125456496Y-74938128I-167938J167938D01*
G01*
X125032232Y-74513864D01*
G75*
G02*
X125032232Y-74177988I167938J167938D01*
G01*
X125368108Y-73842112D01*
G75*
G02*
X125703984Y-73842112I167938J-167938D01*
G01*
X126128248Y-74266376D01*
G75*
G02*
X126128248Y-74602252I-167938J-167938D01*
G01*
G37*
G36*
G01*
X120138128Y-80602252D02*
X119802252Y-80938128D01*
G75*
G02*
X119466376Y-80938128I-167938J167938D01*
G01*
X119042112Y-80513864D01*
G75*
G02*
X119042112Y-80177988I167938J167938D01*
G01*
X119377988Y-79842112D01*
G75*
G02*
X119713864Y-79842112I167938J-167938D01*
G01*
X120138128Y-80266376D01*
G75*
G02*
X120138128Y-80602252I-167938J-167938D01*
G01*
G37*
G36*
G01*
X121357888Y-81822012D02*
X121022012Y-82157888D01*
G75*
G02*
X120686136Y-82157888I-167938J167938D01*
G01*
X120261872Y-81733624D01*
G75*
G02*
X120261872Y-81397748I167938J167938D01*
G01*
X120597748Y-81061872D01*
G75*
G02*
X120933624Y-81061872I167938J-167938D01*
G01*
X121357888Y-81486136D01*
G75*
G02*
X121357888Y-81822012I-167938J-167938D01*
G01*
G37*
G36*
G01*
X103262500Y-69437500D02*
X103737500Y-69437500D01*
G75*
G02*
X103975000Y-69675000I0J-237500D01*
G01*
X103975000Y-70275000D01*
G75*
G02*
X103737500Y-70512500I-237500J0D01*
G01*
X103262500Y-70512500D01*
G75*
G02*
X103025000Y-70275000I0J237500D01*
G01*
X103025000Y-69675000D01*
G75*
G02*
X103262500Y-69437500I237500J0D01*
G01*
G37*
G36*
G01*
X103262500Y-71162500D02*
X103737500Y-71162500D01*
G75*
G02*
X103975000Y-71400000I0J-237500D01*
G01*
X103975000Y-72000000D01*
G75*
G02*
X103737500Y-72237500I-237500J0D01*
G01*
X103262500Y-72237500D01*
G75*
G02*
X103025000Y-72000000I0J237500D01*
G01*
X103025000Y-71400000D01*
G75*
G02*
X103262500Y-71162500I237500J0D01*
G01*
G37*
G36*
G01*
X92100000Y-91837500D02*
X92100000Y-91362500D01*
G75*
G02*
X92337500Y-91125000I237500J0D01*
G01*
X92937500Y-91125000D01*
G75*
G02*
X93175000Y-91362500I0J-237500D01*
G01*
X93175000Y-91837500D01*
G75*
G02*
X92937500Y-92075000I-237500J0D01*
G01*
X92337500Y-92075000D01*
G75*
G02*
X92100000Y-91837500I0J237500D01*
G01*
G37*
G36*
G01*
X93825000Y-91837500D02*
X93825000Y-91362500D01*
G75*
G02*
X94062500Y-91125000I237500J0D01*
G01*
X94662500Y-91125000D01*
G75*
G02*
X94900000Y-91362500I0J-237500D01*
G01*
X94900000Y-91837500D01*
G75*
G02*
X94662500Y-92075000I-237500J0D01*
G01*
X94062500Y-92075000D01*
G75*
G02*
X93825000Y-91837500I0J237500D01*
G01*
G37*
G36*
G01*
X100325000Y-78737500D02*
X100325000Y-78262500D01*
G75*
G02*
X100562500Y-78025000I237500J0D01*
G01*
X101162500Y-78025000D01*
G75*
G02*
X101400000Y-78262500I0J-237500D01*
G01*
X101400000Y-78737500D01*
G75*
G02*
X101162500Y-78975000I-237500J0D01*
G01*
X100562500Y-78975000D01*
G75*
G02*
X100325000Y-78737500I0J237500D01*
G01*
G37*
G36*
G01*
X98600000Y-78737500D02*
X98600000Y-78262500D01*
G75*
G02*
X98837500Y-78025000I237500J0D01*
G01*
X99437500Y-78025000D01*
G75*
G02*
X99675000Y-78262500I0J-237500D01*
G01*
X99675000Y-78737500D01*
G75*
G02*
X99437500Y-78975000I-237500J0D01*
G01*
X98837500Y-78975000D01*
G75*
G02*
X98600000Y-78737500I0J237500D01*
G01*
G37*
G36*
G01*
X128637500Y-38275000D02*
X128162500Y-38275000D01*
G75*
G02*
X127925000Y-38037500I0J237500D01*
G01*
X127925000Y-37437500D01*
G75*
G02*
X128162500Y-37200000I237500J0D01*
G01*
X128637500Y-37200000D01*
G75*
G02*
X128875000Y-37437500I0J-237500D01*
G01*
X128875000Y-38037500D01*
G75*
G02*
X128637500Y-38275000I-237500J0D01*
G01*
G37*
G36*
G01*
X128637500Y-40000000D02*
X128162500Y-40000000D01*
G75*
G02*
X127925000Y-39762500I0J237500D01*
G01*
X127925000Y-39162500D01*
G75*
G02*
X128162500Y-38925000I237500J0D01*
G01*
X128637500Y-38925000D01*
G75*
G02*
X128875000Y-39162500I0J-237500D01*
G01*
X128875000Y-39762500D01*
G75*
G02*
X128637500Y-40000000I-237500J0D01*
G01*
G37*
G36*
G01*
X123475000Y-44562500D02*
X123475000Y-45037500D01*
G75*
G02*
X123237500Y-45275000I-237500J0D01*
G01*
X122637500Y-45275000D01*
G75*
G02*
X122400000Y-45037500I0J237500D01*
G01*
X122400000Y-44562500D01*
G75*
G02*
X122637500Y-44325000I237500J0D01*
G01*
X123237500Y-44325000D01*
G75*
G02*
X123475000Y-44562500I0J-237500D01*
G01*
G37*
G36*
G01*
X125200000Y-44562500D02*
X125200000Y-45037500D01*
G75*
G02*
X124962500Y-45275000I-237500J0D01*
G01*
X124362500Y-45275000D01*
G75*
G02*
X124125000Y-45037500I0J237500D01*
G01*
X124125000Y-44562500D01*
G75*
G02*
X124362500Y-44325000I237500J0D01*
G01*
X124962500Y-44325000D01*
G75*
G02*
X125200000Y-44562500I0J-237500D01*
G01*
G37*
G36*
G01*
X116000000Y-44562500D02*
X116000000Y-45037500D01*
G75*
G02*
X115762500Y-45275000I-237500J0D01*
G01*
X115162500Y-45275000D01*
G75*
G02*
X114925000Y-45037500I0J237500D01*
G01*
X114925000Y-44562500D01*
G75*
G02*
X115162500Y-44325000I237500J0D01*
G01*
X115762500Y-44325000D01*
G75*
G02*
X116000000Y-44562500I0J-237500D01*
G01*
G37*
G36*
G01*
X114275000Y-44562500D02*
X114275000Y-45037500D01*
G75*
G02*
X114037500Y-45275000I-237500J0D01*
G01*
X113437500Y-45275000D01*
G75*
G02*
X113200000Y-45037500I0J237500D01*
G01*
X113200000Y-44562500D01*
G75*
G02*
X113437500Y-44325000I237500J0D01*
G01*
X114037500Y-44325000D01*
G75*
G02*
X114275000Y-44562500I0J-237500D01*
G01*
G37*
G36*
G01*
X106725000Y-129037500D02*
X106725000Y-128562500D01*
G75*
G02*
X106962500Y-128325000I237500J0D01*
G01*
X107562500Y-128325000D01*
G75*
G02*
X107800000Y-128562500I0J-237500D01*
G01*
X107800000Y-129037500D01*
G75*
G02*
X107562500Y-129275000I-237500J0D01*
G01*
X106962500Y-129275000D01*
G75*
G02*
X106725000Y-129037500I0J237500D01*
G01*
G37*
G36*
G01*
X105000000Y-129037500D02*
X105000000Y-128562500D01*
G75*
G02*
X105237500Y-128325000I237500J0D01*
G01*
X105837500Y-128325000D01*
G75*
G02*
X106075000Y-128562500I0J-237500D01*
G01*
X106075000Y-129037500D01*
G75*
G02*
X105837500Y-129275000I-237500J0D01*
G01*
X105237500Y-129275000D01*
G75*
G02*
X105000000Y-129037500I0J237500D01*
G01*
G37*
G36*
G01*
X113000000Y-128562500D02*
X113000000Y-129037500D01*
G75*
G02*
X112762500Y-129275000I-237500J0D01*
G01*
X112162500Y-129275000D01*
G75*
G02*
X111925000Y-129037500I0J237500D01*
G01*
X111925000Y-128562500D01*
G75*
G02*
X112162500Y-128325000I237500J0D01*
G01*
X112762500Y-128325000D01*
G75*
G02*
X113000000Y-128562500I0J-237500D01*
G01*
G37*
G36*
G01*
X111275000Y-128562500D02*
X111275000Y-129037500D01*
G75*
G02*
X111037500Y-129275000I-237500J0D01*
G01*
X110437500Y-129275000D01*
G75*
G02*
X110200000Y-129037500I0J237500D01*
G01*
X110200000Y-128562500D01*
G75*
G02*
X110437500Y-128325000I237500J0D01*
G01*
X111037500Y-128325000D01*
G75*
G02*
X111275000Y-128562500I0J-237500D01*
G01*
G37*
G36*
G01*
X98037500Y-96525000D02*
X97562500Y-96525000D01*
G75*
G02*
X97325000Y-96287500I0J237500D01*
G01*
X97325000Y-95687500D01*
G75*
G02*
X97562500Y-95450000I237500J0D01*
G01*
X98037500Y-95450000D01*
G75*
G02*
X98275000Y-95687500I0J-237500D01*
G01*
X98275000Y-96287500D01*
G75*
G02*
X98037500Y-96525000I-237500J0D01*
G01*
G37*
G36*
G01*
X98037500Y-98250000D02*
X97562500Y-98250000D01*
G75*
G02*
X97325000Y-98012500I0J237500D01*
G01*
X97325000Y-97412500D01*
G75*
G02*
X97562500Y-97175000I237500J0D01*
G01*
X98037500Y-97175000D01*
G75*
G02*
X98275000Y-97412500I0J-237500D01*
G01*
X98275000Y-98012500D01*
G75*
G02*
X98037500Y-98250000I-237500J0D01*
G01*
G37*
D12*
X83600000Y-43700000D03*
X83600000Y-48700000D03*
D13*
X137000000Y-83950000D03*
X137000000Y-87250000D03*
X133800000Y-83950000D03*
X133800000Y-87250000D03*
D14*
X125050000Y-71000000D03*
X121750000Y-71000000D03*
X125050000Y-68000000D03*
X121750000Y-68000000D03*
D15*
X93900000Y-61200000D03*
X99300000Y-61200000D03*
G36*
G01*
X104962500Y-132000000D02*
X105437500Y-132000000D01*
G75*
G02*
X105675000Y-132237500I0J-237500D01*
G01*
X105675000Y-132812500D01*
G75*
G02*
X105437500Y-133050000I-237500J0D01*
G01*
X104962500Y-133050000D01*
G75*
G02*
X104725000Y-132812500I0J237500D01*
G01*
X104725000Y-132237500D01*
G75*
G02*
X104962500Y-132000000I237500J0D01*
G01*
G37*
G36*
G01*
X104962500Y-133750000D02*
X105437500Y-133750000D01*
G75*
G02*
X105675000Y-133987500I0J-237500D01*
G01*
X105675000Y-134562500D01*
G75*
G02*
X105437500Y-134800000I-237500J0D01*
G01*
X104962500Y-134800000D01*
G75*
G02*
X104725000Y-134562500I0J237500D01*
G01*
X104725000Y-133987500D01*
G75*
G02*
X104962500Y-133750000I237500J0D01*
G01*
G37*
G36*
G01*
X133312500Y-60025000D02*
X133312500Y-58775000D01*
G75*
G02*
X133562500Y-58525000I250000J0D01*
G01*
X134487500Y-58525000D01*
G75*
G02*
X134737500Y-58775000I0J-250000D01*
G01*
X134737500Y-60025000D01*
G75*
G02*
X134487500Y-60275000I-250000J0D01*
G01*
X133562500Y-60275000D01*
G75*
G02*
X133312500Y-60025000I0J250000D01*
G01*
G37*
G36*
G01*
X136287500Y-60025000D02*
X136287500Y-58775000D01*
G75*
G02*
X136537500Y-58525000I250000J0D01*
G01*
X137462500Y-58525000D01*
G75*
G02*
X137712500Y-58775000I0J-250000D01*
G01*
X137712500Y-60025000D01*
G75*
G02*
X137462500Y-60275000I-250000J0D01*
G01*
X136537500Y-60275000D01*
G75*
G02*
X136287500Y-60025000I0J250000D01*
G01*
G37*
G36*
G01*
X108265000Y-43800000D02*
X105335000Y-43800000D01*
G75*
G02*
X105100000Y-43565000I0J235000D01*
G01*
X105100000Y-41685000D01*
G75*
G02*
X105335000Y-41450000I235000J0D01*
G01*
X108265000Y-41450000D01*
G75*
G02*
X108500000Y-41685000I0J-235000D01*
G01*
X108500000Y-43565000D01*
G75*
G02*
X108265000Y-43800000I-235000J0D01*
G01*
G37*
G36*
G01*
X108265000Y-37750000D02*
X105335000Y-37750000D01*
G75*
G02*
X105100000Y-37515000I0J235000D01*
G01*
X105100000Y-35635000D01*
G75*
G02*
X105335000Y-35400000I235000J0D01*
G01*
X108265000Y-35400000D01*
G75*
G02*
X108500000Y-35635000I0J-235000D01*
G01*
X108500000Y-37515000D01*
G75*
G02*
X108265000Y-37750000I-235000J0D01*
G01*
G37*
D16*
X106000000Y-90500000D03*
X108000000Y-89550000D03*
X108000000Y-91450000D03*
X108000000Y-95575000D03*
X108000000Y-93675000D03*
X106000000Y-94625000D03*
X105300000Y-98800000D03*
X107300000Y-97850000D03*
X107300000Y-99750000D03*
X107900000Y-105900000D03*
X107900000Y-104000000D03*
X105900000Y-104950000D03*
X132000000Y-111050000D03*
X132000000Y-112950000D03*
X134000000Y-112000000D03*
D17*
X135500000Y-125500000D03*
X134550000Y-123500000D03*
X136450000Y-123500000D03*
D18*
X129200000Y-117280000D03*
X129200000Y-112720000D03*
D19*
X121225000Y-113475000D03*
X124575000Y-116525000D03*
X121225000Y-116525000D03*
X124575000Y-113475000D03*
D18*
X129200000Y-125280000D03*
X129200000Y-120720000D03*
D19*
X121225000Y-121475000D03*
X124575000Y-124525000D03*
X121225000Y-124525000D03*
X124575000Y-121475000D03*
D16*
X98400000Y-66000000D03*
X96400000Y-66950000D03*
X96400000Y-65050000D03*
D17*
X111400000Y-119200000D03*
X112350000Y-121200000D03*
X110450000Y-121200000D03*
X107550000Y-121400000D03*
X105650000Y-121400000D03*
X106600000Y-123400000D03*
D19*
X112375000Y-133475000D03*
X109025000Y-136525000D03*
X112375000Y-136525000D03*
X109025000Y-133475000D03*
D18*
X117000000Y-132720000D03*
X117000000Y-137280000D03*
D16*
X91300000Y-98400000D03*
X91300000Y-100300000D03*
X93300000Y-99350000D03*
G36*
G01*
X134025000Y-79837500D02*
X134025000Y-79362500D01*
G75*
G02*
X134262500Y-79125000I237500J0D01*
G01*
X134762500Y-79125000D01*
G75*
G02*
X135000000Y-79362500I0J-237500D01*
G01*
X135000000Y-79837500D01*
G75*
G02*
X134762500Y-80075000I-237500J0D01*
G01*
X134262500Y-80075000D01*
G75*
G02*
X134025000Y-79837500I0J237500D01*
G01*
G37*
G36*
G01*
X132200000Y-79837500D02*
X132200000Y-79362500D01*
G75*
G02*
X132437500Y-79125000I237500J0D01*
G01*
X132937500Y-79125000D01*
G75*
G02*
X133175000Y-79362500I0J-237500D01*
G01*
X133175000Y-79837500D01*
G75*
G02*
X132937500Y-80075000I-237500J0D01*
G01*
X132437500Y-80075000D01*
G75*
G02*
X132200000Y-79837500I0J237500D01*
G01*
G37*
G36*
G01*
X137437500Y-82000000D02*
X136962500Y-82000000D01*
G75*
G02*
X136725000Y-81762500I0J237500D01*
G01*
X136725000Y-81262500D01*
G75*
G02*
X136962500Y-81025000I237500J0D01*
G01*
X137437500Y-81025000D01*
G75*
G02*
X137675000Y-81262500I0J-237500D01*
G01*
X137675000Y-81762500D01*
G75*
G02*
X137437500Y-82000000I-237500J0D01*
G01*
G37*
G36*
G01*
X137437500Y-80175000D02*
X136962500Y-80175000D01*
G75*
G02*
X136725000Y-79937500I0J237500D01*
G01*
X136725000Y-79437500D01*
G75*
G02*
X136962500Y-79200000I237500J0D01*
G01*
X137437500Y-79200000D01*
G75*
G02*
X137675000Y-79437500I0J-237500D01*
G01*
X137675000Y-79937500D01*
G75*
G02*
X137437500Y-80175000I-237500J0D01*
G01*
G37*
G36*
G01*
X126962500Y-68200000D02*
X127437500Y-68200000D01*
G75*
G02*
X127675000Y-68437500I0J-237500D01*
G01*
X127675000Y-68937500D01*
G75*
G02*
X127437500Y-69175000I-237500J0D01*
G01*
X126962500Y-69175000D01*
G75*
G02*
X126725000Y-68937500I0J237500D01*
G01*
X126725000Y-68437500D01*
G75*
G02*
X126962500Y-68200000I237500J0D01*
G01*
G37*
G36*
G01*
X126962500Y-70025000D02*
X127437500Y-70025000D01*
G75*
G02*
X127675000Y-70262500I0J-237500D01*
G01*
X127675000Y-70762500D01*
G75*
G02*
X127437500Y-71000000I-237500J0D01*
G01*
X126962500Y-71000000D01*
G75*
G02*
X126725000Y-70762500I0J237500D01*
G01*
X126725000Y-70262500D01*
G75*
G02*
X126962500Y-70025000I237500J0D01*
G01*
G37*
G36*
G01*
X101562500Y-34400000D02*
X102037500Y-34400000D01*
G75*
G02*
X102275000Y-34637500I0J-237500D01*
G01*
X102275000Y-35137500D01*
G75*
G02*
X102037500Y-35375000I-237500J0D01*
G01*
X101562500Y-35375000D01*
G75*
G02*
X101325000Y-35137500I0J237500D01*
G01*
X101325000Y-34637500D01*
G75*
G02*
X101562500Y-34400000I237500J0D01*
G01*
G37*
G36*
G01*
X101562500Y-36225000D02*
X102037500Y-36225000D01*
G75*
G02*
X102275000Y-36462500I0J-237500D01*
G01*
X102275000Y-36962500D01*
G75*
G02*
X102037500Y-37200000I-237500J0D01*
G01*
X101562500Y-37200000D01*
G75*
G02*
X101325000Y-36962500I0J237500D01*
G01*
X101325000Y-36462500D01*
G75*
G02*
X101562500Y-36225000I237500J0D01*
G01*
G37*
G36*
G01*
X100037500Y-37200000D02*
X99562500Y-37200000D01*
G75*
G02*
X99325000Y-36962500I0J237500D01*
G01*
X99325000Y-36462500D01*
G75*
G02*
X99562500Y-36225000I237500J0D01*
G01*
X100037500Y-36225000D01*
G75*
G02*
X100275000Y-36462500I0J-237500D01*
G01*
X100275000Y-36962500D01*
G75*
G02*
X100037500Y-37200000I-237500J0D01*
G01*
G37*
G36*
G01*
X100037500Y-35375000D02*
X99562500Y-35375000D01*
G75*
G02*
X99325000Y-35137500I0J237500D01*
G01*
X99325000Y-34637500D01*
G75*
G02*
X99562500Y-34400000I237500J0D01*
G01*
X100037500Y-34400000D01*
G75*
G02*
X100275000Y-34637500I0J-237500D01*
G01*
X100275000Y-35137500D01*
G75*
G02*
X100037500Y-35375000I-237500J0D01*
G01*
G37*
G36*
G01*
X113787500Y-100200000D02*
X113312500Y-100200000D01*
G75*
G02*
X113075000Y-99962500I0J237500D01*
G01*
X113075000Y-99462500D01*
G75*
G02*
X113312500Y-99225000I237500J0D01*
G01*
X113787500Y-99225000D01*
G75*
G02*
X114025000Y-99462500I0J-237500D01*
G01*
X114025000Y-99962500D01*
G75*
G02*
X113787500Y-100200000I-237500J0D01*
G01*
G37*
G36*
G01*
X113787500Y-98375000D02*
X113312500Y-98375000D01*
G75*
G02*
X113075000Y-98137500I0J237500D01*
G01*
X113075000Y-97637500D01*
G75*
G02*
X113312500Y-97400000I237500J0D01*
G01*
X113787500Y-97400000D01*
G75*
G02*
X114025000Y-97637500I0J-237500D01*
G01*
X114025000Y-98137500D01*
G75*
G02*
X113787500Y-98375000I-237500J0D01*
G01*
G37*
G36*
G01*
X112262500Y-90825000D02*
X112737500Y-90825000D01*
G75*
G02*
X112975000Y-91062500I0J-237500D01*
G01*
X112975000Y-91562500D01*
G75*
G02*
X112737500Y-91800000I-237500J0D01*
G01*
X112262500Y-91800000D01*
G75*
G02*
X112025000Y-91562500I0J237500D01*
G01*
X112025000Y-91062500D01*
G75*
G02*
X112262500Y-90825000I237500J0D01*
G01*
G37*
G36*
G01*
X112262500Y-89000000D02*
X112737500Y-89000000D01*
G75*
G02*
X112975000Y-89237500I0J-237500D01*
G01*
X112975000Y-89737500D01*
G75*
G02*
X112737500Y-89975000I-237500J0D01*
G01*
X112262500Y-89975000D01*
G75*
G02*
X112025000Y-89737500I0J237500D01*
G01*
X112025000Y-89237500D01*
G75*
G02*
X112262500Y-89000000I237500J0D01*
G01*
G37*
G36*
G01*
X110100000Y-95987500D02*
X110100000Y-95512500D01*
G75*
G02*
X110337500Y-95275000I237500J0D01*
G01*
X110837500Y-95275000D01*
G75*
G02*
X111075000Y-95512500I0J-237500D01*
G01*
X111075000Y-95987500D01*
G75*
G02*
X110837500Y-96225000I-237500J0D01*
G01*
X110337500Y-96225000D01*
G75*
G02*
X110100000Y-95987500I0J237500D01*
G01*
G37*
G36*
G01*
X111925000Y-95987500D02*
X111925000Y-95512500D01*
G75*
G02*
X112162500Y-95275000I237500J0D01*
G01*
X112662500Y-95275000D01*
G75*
G02*
X112900000Y-95512500I0J-237500D01*
G01*
X112900000Y-95987500D01*
G75*
G02*
X112662500Y-96225000I-237500J0D01*
G01*
X112162500Y-96225000D01*
G75*
G02*
X111925000Y-95987500I0J237500D01*
G01*
G37*
G36*
G01*
X111687500Y-98325000D02*
X111212500Y-98325000D01*
G75*
G02*
X110975000Y-98087500I0J237500D01*
G01*
X110975000Y-97587500D01*
G75*
G02*
X111212500Y-97350000I237500J0D01*
G01*
X111687500Y-97350000D01*
G75*
G02*
X111925000Y-97587500I0J-237500D01*
G01*
X111925000Y-98087500D01*
G75*
G02*
X111687500Y-98325000I-237500J0D01*
G01*
G37*
G36*
G01*
X111687500Y-100150000D02*
X111212500Y-100150000D01*
G75*
G02*
X110975000Y-99912500I0J237500D01*
G01*
X110975000Y-99412500D01*
G75*
G02*
X111212500Y-99175000I237500J0D01*
G01*
X111687500Y-99175000D01*
G75*
G02*
X111925000Y-99412500I0J-237500D01*
G01*
X111925000Y-99912500D01*
G75*
G02*
X111687500Y-100150000I-237500J0D01*
G01*
G37*
G36*
G01*
X110737500Y-89975000D02*
X110262500Y-89975000D01*
G75*
G02*
X110025000Y-89737500I0J237500D01*
G01*
X110025000Y-89237500D01*
G75*
G02*
X110262500Y-89000000I237500J0D01*
G01*
X110737500Y-89000000D01*
G75*
G02*
X110975000Y-89237500I0J-237500D01*
G01*
X110975000Y-89737500D01*
G75*
G02*
X110737500Y-89975000I-237500J0D01*
G01*
G37*
G36*
G01*
X110737500Y-91800000D02*
X110262500Y-91800000D01*
G75*
G02*
X110025000Y-91562500I0J237500D01*
G01*
X110025000Y-91062500D01*
G75*
G02*
X110262500Y-90825000I237500J0D01*
G01*
X110737500Y-90825000D01*
G75*
G02*
X110975000Y-91062500I0J-237500D01*
G01*
X110975000Y-91562500D01*
G75*
G02*
X110737500Y-91800000I-237500J0D01*
G01*
G37*
G36*
G01*
X112900000Y-93262500D02*
X112900000Y-93737500D01*
G75*
G02*
X112662500Y-93975000I-237500J0D01*
G01*
X112162500Y-93975000D01*
G75*
G02*
X111925000Y-93737500I0J237500D01*
G01*
X111925000Y-93262500D01*
G75*
G02*
X112162500Y-93025000I237500J0D01*
G01*
X112662500Y-93025000D01*
G75*
G02*
X112900000Y-93262500I0J-237500D01*
G01*
G37*
G36*
G01*
X111075000Y-93262500D02*
X111075000Y-93737500D01*
G75*
G02*
X110837500Y-93975000I-237500J0D01*
G01*
X110337500Y-93975000D01*
G75*
G02*
X110100000Y-93737500I0J237500D01*
G01*
X110100000Y-93262500D01*
G75*
G02*
X110337500Y-93025000I237500J0D01*
G01*
X110837500Y-93025000D01*
G75*
G02*
X111075000Y-93262500I0J-237500D01*
G01*
G37*
G36*
G01*
X109637500Y-100150000D02*
X109162500Y-100150000D01*
G75*
G02*
X108925000Y-99912500I0J237500D01*
G01*
X108925000Y-99412500D01*
G75*
G02*
X109162500Y-99175000I237500J0D01*
G01*
X109637500Y-99175000D01*
G75*
G02*
X109875000Y-99412500I0J-237500D01*
G01*
X109875000Y-99912500D01*
G75*
G02*
X109637500Y-100150000I-237500J0D01*
G01*
G37*
G36*
G01*
X109637500Y-98325000D02*
X109162500Y-98325000D01*
G75*
G02*
X108925000Y-98087500I0J237500D01*
G01*
X108925000Y-97587500D01*
G75*
G02*
X109162500Y-97350000I237500J0D01*
G01*
X109637500Y-97350000D01*
G75*
G02*
X109875000Y-97587500I0J-237500D01*
G01*
X109875000Y-98087500D01*
G75*
G02*
X109637500Y-98325000I-237500J0D01*
G01*
G37*
G36*
G01*
X111475000Y-104087500D02*
X111475000Y-103612500D01*
G75*
G02*
X111712500Y-103375000I237500J0D01*
G01*
X112212500Y-103375000D01*
G75*
G02*
X112450000Y-103612500I0J-237500D01*
G01*
X112450000Y-104087500D01*
G75*
G02*
X112212500Y-104325000I-237500J0D01*
G01*
X111712500Y-104325000D01*
G75*
G02*
X111475000Y-104087500I0J237500D01*
G01*
G37*
G36*
G01*
X109650000Y-104087500D02*
X109650000Y-103612500D01*
G75*
G02*
X109887500Y-103375000I237500J0D01*
G01*
X110387500Y-103375000D01*
G75*
G02*
X110625000Y-103612500I0J-237500D01*
G01*
X110625000Y-104087500D01*
G75*
G02*
X110387500Y-104325000I-237500J0D01*
G01*
X109887500Y-104325000D01*
G75*
G02*
X109650000Y-104087500I0J237500D01*
G01*
G37*
G36*
G01*
X122512500Y-94600000D02*
X122987500Y-94600000D01*
G75*
G02*
X123225000Y-94837500I0J-237500D01*
G01*
X123225000Y-95337500D01*
G75*
G02*
X122987500Y-95575000I-237500J0D01*
G01*
X122512500Y-95575000D01*
G75*
G02*
X122275000Y-95337500I0J237500D01*
G01*
X122275000Y-94837500D01*
G75*
G02*
X122512500Y-94600000I237500J0D01*
G01*
G37*
G36*
G01*
X122512500Y-96425000D02*
X122987500Y-96425000D01*
G75*
G02*
X123225000Y-96662500I0J-237500D01*
G01*
X123225000Y-97162500D01*
G75*
G02*
X122987500Y-97400000I-237500J0D01*
G01*
X122512500Y-97400000D01*
G75*
G02*
X122275000Y-97162500I0J237500D01*
G01*
X122275000Y-96662500D01*
G75*
G02*
X122512500Y-96425000I237500J0D01*
G01*
G37*
G36*
G01*
X125012500Y-96425000D02*
X125487500Y-96425000D01*
G75*
G02*
X125725000Y-96662500I0J-237500D01*
G01*
X125725000Y-97162500D01*
G75*
G02*
X125487500Y-97400000I-237500J0D01*
G01*
X125012500Y-97400000D01*
G75*
G02*
X124775000Y-97162500I0J237500D01*
G01*
X124775000Y-96662500D01*
G75*
G02*
X125012500Y-96425000I237500J0D01*
G01*
G37*
G36*
G01*
X125012500Y-94600000D02*
X125487500Y-94600000D01*
G75*
G02*
X125725000Y-94837500I0J-237500D01*
G01*
X125725000Y-95337500D01*
G75*
G02*
X125487500Y-95575000I-237500J0D01*
G01*
X125012500Y-95575000D01*
G75*
G02*
X124775000Y-95337500I0J237500D01*
G01*
X124775000Y-94837500D01*
G75*
G02*
X125012500Y-94600000I237500J0D01*
G01*
G37*
G36*
G01*
X122762500Y-107350000D02*
X123237500Y-107350000D01*
G75*
G02*
X123475000Y-107587500I0J-237500D01*
G01*
X123475000Y-108087500D01*
G75*
G02*
X123237500Y-108325000I-237500J0D01*
G01*
X122762500Y-108325000D01*
G75*
G02*
X122525000Y-108087500I0J237500D01*
G01*
X122525000Y-107587500D01*
G75*
G02*
X122762500Y-107350000I237500J0D01*
G01*
G37*
G36*
G01*
X122762500Y-109175000D02*
X123237500Y-109175000D01*
G75*
G02*
X123475000Y-109412500I0J-237500D01*
G01*
X123475000Y-109912500D01*
G75*
G02*
X123237500Y-110150000I-237500J0D01*
G01*
X122762500Y-110150000D01*
G75*
G02*
X122525000Y-109912500I0J237500D01*
G01*
X122525000Y-109412500D01*
G75*
G02*
X122762500Y-109175000I237500J0D01*
G01*
G37*
G36*
G01*
X120487500Y-95575000D02*
X120012500Y-95575000D01*
G75*
G02*
X119775000Y-95337500I0J237500D01*
G01*
X119775000Y-94837500D01*
G75*
G02*
X120012500Y-94600000I237500J0D01*
G01*
X120487500Y-94600000D01*
G75*
G02*
X120725000Y-94837500I0J-237500D01*
G01*
X120725000Y-95337500D01*
G75*
G02*
X120487500Y-95575000I-237500J0D01*
G01*
G37*
G36*
G01*
X120487500Y-97400000D02*
X120012500Y-97400000D01*
G75*
G02*
X119775000Y-97162500I0J237500D01*
G01*
X119775000Y-96662500D01*
G75*
G02*
X120012500Y-96425000I237500J0D01*
G01*
X120487500Y-96425000D01*
G75*
G02*
X120725000Y-96662500I0J-237500D01*
G01*
X120725000Y-97162500D01*
G75*
G02*
X120487500Y-97400000I-237500J0D01*
G01*
G37*
G36*
G01*
X132862500Y-101525000D02*
X133337500Y-101525000D01*
G75*
G02*
X133575000Y-101762500I0J-237500D01*
G01*
X133575000Y-102262500D01*
G75*
G02*
X133337500Y-102500000I-237500J0D01*
G01*
X132862500Y-102500000D01*
G75*
G02*
X132625000Y-102262500I0J237500D01*
G01*
X132625000Y-101762500D01*
G75*
G02*
X132862500Y-101525000I237500J0D01*
G01*
G37*
G36*
G01*
X132862500Y-99700000D02*
X133337500Y-99700000D01*
G75*
G02*
X133575000Y-99937500I0J-237500D01*
G01*
X133575000Y-100437500D01*
G75*
G02*
X133337500Y-100675000I-237500J0D01*
G01*
X132862500Y-100675000D01*
G75*
G02*
X132625000Y-100437500I0J237500D01*
G01*
X132625000Y-99937500D01*
G75*
G02*
X132862500Y-99700000I237500J0D01*
G01*
G37*
G36*
G01*
X120512500Y-107350000D02*
X120987500Y-107350000D01*
G75*
G02*
X121225000Y-107587500I0J-237500D01*
G01*
X121225000Y-108087500D01*
G75*
G02*
X120987500Y-108325000I-237500J0D01*
G01*
X120512500Y-108325000D01*
G75*
G02*
X120275000Y-108087500I0J237500D01*
G01*
X120275000Y-107587500D01*
G75*
G02*
X120512500Y-107350000I237500J0D01*
G01*
G37*
G36*
G01*
X120512500Y-109175000D02*
X120987500Y-109175000D01*
G75*
G02*
X121225000Y-109412500I0J-237500D01*
G01*
X121225000Y-109912500D01*
G75*
G02*
X120987500Y-110150000I-237500J0D01*
G01*
X120512500Y-110150000D01*
G75*
G02*
X120275000Y-109912500I0J237500D01*
G01*
X120275000Y-109412500D01*
G75*
G02*
X120512500Y-109175000I237500J0D01*
G01*
G37*
G36*
G01*
X135075000Y-120762500D02*
X135075000Y-121237500D01*
G75*
G02*
X134837500Y-121475000I-237500J0D01*
G01*
X134337500Y-121475000D01*
G75*
G02*
X134100000Y-121237500I0J237500D01*
G01*
X134100000Y-120762500D01*
G75*
G02*
X134337500Y-120525000I237500J0D01*
G01*
X134837500Y-120525000D01*
G75*
G02*
X135075000Y-120762500I0J-237500D01*
G01*
G37*
G36*
G01*
X136900000Y-120762500D02*
X136900000Y-121237500D01*
G75*
G02*
X136662500Y-121475000I-237500J0D01*
G01*
X136162500Y-121475000D01*
G75*
G02*
X135925000Y-121237500I0J237500D01*
G01*
X135925000Y-120762500D01*
G75*
G02*
X136162500Y-120525000I237500J0D01*
G01*
X136662500Y-120525000D01*
G75*
G02*
X136900000Y-120762500I0J-237500D01*
G01*
G37*
G36*
G01*
X131500000Y-116337500D02*
X131500000Y-115862500D01*
G75*
G02*
X131737500Y-115625000I237500J0D01*
G01*
X132237500Y-115625000D01*
G75*
G02*
X132475000Y-115862500I0J-237500D01*
G01*
X132475000Y-116337500D01*
G75*
G02*
X132237500Y-116575000I-237500J0D01*
G01*
X131737500Y-116575000D01*
G75*
G02*
X131500000Y-116337500I0J237500D01*
G01*
G37*
G36*
G01*
X133325000Y-116337500D02*
X133325000Y-115862500D01*
G75*
G02*
X133562500Y-115625000I237500J0D01*
G01*
X134062500Y-115625000D01*
G75*
G02*
X134300000Y-115862500I0J-237500D01*
G01*
X134300000Y-116337500D01*
G75*
G02*
X134062500Y-116575000I-237500J0D01*
G01*
X133562500Y-116575000D01*
G75*
G02*
X133325000Y-116337500I0J237500D01*
G01*
G37*
G36*
G01*
X131762500Y-123100000D02*
X132237500Y-123100000D01*
G75*
G02*
X132475000Y-123337500I0J-237500D01*
G01*
X132475000Y-123837500D01*
G75*
G02*
X132237500Y-124075000I-237500J0D01*
G01*
X131762500Y-124075000D01*
G75*
G02*
X131525000Y-123837500I0J237500D01*
G01*
X131525000Y-123337500D01*
G75*
G02*
X131762500Y-123100000I237500J0D01*
G01*
G37*
G36*
G01*
X131762500Y-124925000D02*
X132237500Y-124925000D01*
G75*
G02*
X132475000Y-125162500I0J-237500D01*
G01*
X132475000Y-125662500D01*
G75*
G02*
X132237500Y-125900000I-237500J0D01*
G01*
X131762500Y-125900000D01*
G75*
G02*
X131525000Y-125662500I0J237500D01*
G01*
X131525000Y-125162500D01*
G75*
G02*
X131762500Y-124925000I237500J0D01*
G01*
G37*
G36*
G01*
X97825000Y-113437500D02*
X97825000Y-112962500D01*
G75*
G02*
X98062500Y-112725000I237500J0D01*
G01*
X98562500Y-112725000D01*
G75*
G02*
X98800000Y-112962500I0J-237500D01*
G01*
X98800000Y-113437500D01*
G75*
G02*
X98562500Y-113675000I-237500J0D01*
G01*
X98062500Y-113675000D01*
G75*
G02*
X97825000Y-113437500I0J237500D01*
G01*
G37*
G36*
G01*
X96000000Y-113437500D02*
X96000000Y-112962500D01*
G75*
G02*
X96237500Y-112725000I237500J0D01*
G01*
X96737500Y-112725000D01*
G75*
G02*
X96975000Y-112962500I0J-237500D01*
G01*
X96975000Y-113437500D01*
G75*
G02*
X96737500Y-113675000I-237500J0D01*
G01*
X96237500Y-113675000D01*
G75*
G02*
X96000000Y-113437500I0J237500D01*
G01*
G37*
G36*
G01*
X94437500Y-111775000D02*
X93962500Y-111775000D01*
G75*
G02*
X93725000Y-111537500I0J237500D01*
G01*
X93725000Y-111037500D01*
G75*
G02*
X93962500Y-110800000I237500J0D01*
G01*
X94437500Y-110800000D01*
G75*
G02*
X94675000Y-111037500I0J-237500D01*
G01*
X94675000Y-111537500D01*
G75*
G02*
X94437500Y-111775000I-237500J0D01*
G01*
G37*
G36*
G01*
X94437500Y-113600000D02*
X93962500Y-113600000D01*
G75*
G02*
X93725000Y-113362500I0J237500D01*
G01*
X93725000Y-112862500D01*
G75*
G02*
X93962500Y-112625000I237500J0D01*
G01*
X94437500Y-112625000D01*
G75*
G02*
X94675000Y-112862500I0J-237500D01*
G01*
X94675000Y-113362500D01*
G75*
G02*
X94437500Y-113600000I-237500J0D01*
G01*
G37*
G36*
G01*
X136262500Y-103600000D02*
X136737500Y-103600000D01*
G75*
G02*
X136975000Y-103837500I0J-237500D01*
G01*
X136975000Y-104337500D01*
G75*
G02*
X136737500Y-104575000I-237500J0D01*
G01*
X136262500Y-104575000D01*
G75*
G02*
X136025000Y-104337500I0J237500D01*
G01*
X136025000Y-103837500D01*
G75*
G02*
X136262500Y-103600000I237500J0D01*
G01*
G37*
G36*
G01*
X136262500Y-105425000D02*
X136737500Y-105425000D01*
G75*
G02*
X136975000Y-105662500I0J-237500D01*
G01*
X136975000Y-106162500D01*
G75*
G02*
X136737500Y-106400000I-237500J0D01*
G01*
X136262500Y-106400000D01*
G75*
G02*
X136025000Y-106162500I0J237500D01*
G01*
X136025000Y-105662500D01*
G75*
G02*
X136262500Y-105425000I237500J0D01*
G01*
G37*
G36*
G01*
X136262500Y-107600000D02*
X136737500Y-107600000D01*
G75*
G02*
X136975000Y-107837500I0J-237500D01*
G01*
X136975000Y-108337500D01*
G75*
G02*
X136737500Y-108575000I-237500J0D01*
G01*
X136262500Y-108575000D01*
G75*
G02*
X136025000Y-108337500I0J237500D01*
G01*
X136025000Y-107837500D01*
G75*
G02*
X136262500Y-107600000I237500J0D01*
G01*
G37*
G36*
G01*
X136262500Y-109425000D02*
X136737500Y-109425000D01*
G75*
G02*
X136975000Y-109662500I0J-237500D01*
G01*
X136975000Y-110162500D01*
G75*
G02*
X136737500Y-110400000I-237500J0D01*
G01*
X136262500Y-110400000D01*
G75*
G02*
X136025000Y-110162500I0J237500D01*
G01*
X136025000Y-109662500D01*
G75*
G02*
X136262500Y-109425000I237500J0D01*
G01*
G37*
G36*
G01*
X90575000Y-102762500D02*
X90575000Y-103237500D01*
G75*
G02*
X90337500Y-103475000I-237500J0D01*
G01*
X89837500Y-103475000D01*
G75*
G02*
X89600000Y-103237500I0J237500D01*
G01*
X89600000Y-102762500D01*
G75*
G02*
X89837500Y-102525000I237500J0D01*
G01*
X90337500Y-102525000D01*
G75*
G02*
X90575000Y-102762500I0J-237500D01*
G01*
G37*
G36*
G01*
X92400000Y-102762500D02*
X92400000Y-103237500D01*
G75*
G02*
X92162500Y-103475000I-237500J0D01*
G01*
X91662500Y-103475000D01*
G75*
G02*
X91425000Y-103237500I0J237500D01*
G01*
X91425000Y-102762500D01*
G75*
G02*
X91662500Y-102525000I237500J0D01*
G01*
X92162500Y-102525000D01*
G75*
G02*
X92400000Y-102762500I0J-237500D01*
G01*
G37*
G36*
G01*
X105362500Y-69400000D02*
X105837500Y-69400000D01*
G75*
G02*
X106075000Y-69637500I0J-237500D01*
G01*
X106075000Y-70137500D01*
G75*
G02*
X105837500Y-70375000I-237500J0D01*
G01*
X105362500Y-70375000D01*
G75*
G02*
X105125000Y-70137500I0J237500D01*
G01*
X105125000Y-69637500D01*
G75*
G02*
X105362500Y-69400000I237500J0D01*
G01*
G37*
G36*
G01*
X105362500Y-71225000D02*
X105837500Y-71225000D01*
G75*
G02*
X106075000Y-71462500I0J-237500D01*
G01*
X106075000Y-71962500D01*
G75*
G02*
X105837500Y-72200000I-237500J0D01*
G01*
X105362500Y-72200000D01*
G75*
G02*
X105125000Y-71962500I0J237500D01*
G01*
X105125000Y-71462500D01*
G75*
G02*
X105362500Y-71225000I237500J0D01*
G01*
G37*
G36*
G01*
X98887500Y-82900000D02*
X98412500Y-82900000D01*
G75*
G02*
X98175000Y-82662500I0J237500D01*
G01*
X98175000Y-82162500D01*
G75*
G02*
X98412500Y-81925000I237500J0D01*
G01*
X98887500Y-81925000D01*
G75*
G02*
X99125000Y-82162500I0J-237500D01*
G01*
X99125000Y-82662500D01*
G75*
G02*
X98887500Y-82900000I-237500J0D01*
G01*
G37*
G36*
G01*
X98887500Y-81075000D02*
X98412500Y-81075000D01*
G75*
G02*
X98175000Y-80837500I0J237500D01*
G01*
X98175000Y-80337500D01*
G75*
G02*
X98412500Y-80100000I237500J0D01*
G01*
X98887500Y-80100000D01*
G75*
G02*
X99125000Y-80337500I0J-237500D01*
G01*
X99125000Y-80837500D01*
G75*
G02*
X98887500Y-81075000I-237500J0D01*
G01*
G37*
G36*
G01*
X101237500Y-81075000D02*
X100762500Y-81075000D01*
G75*
G02*
X100525000Y-80837500I0J237500D01*
G01*
X100525000Y-80337500D01*
G75*
G02*
X100762500Y-80100000I237500J0D01*
G01*
X101237500Y-80100000D01*
G75*
G02*
X101475000Y-80337500I0J-237500D01*
G01*
X101475000Y-80837500D01*
G75*
G02*
X101237500Y-81075000I-237500J0D01*
G01*
G37*
G36*
G01*
X101237500Y-82900000D02*
X100762500Y-82900000D01*
G75*
G02*
X100525000Y-82662500I0J237500D01*
G01*
X100525000Y-82162500D01*
G75*
G02*
X100762500Y-81925000I237500J0D01*
G01*
X101237500Y-81925000D01*
G75*
G02*
X101475000Y-82162500I0J-237500D01*
G01*
X101475000Y-82662500D01*
G75*
G02*
X101237500Y-82900000I-237500J0D01*
G01*
G37*
G36*
G01*
X98412500Y-75925000D02*
X98887500Y-75925000D01*
G75*
G02*
X99125000Y-76162500I0J-237500D01*
G01*
X99125000Y-76662500D01*
G75*
G02*
X98887500Y-76900000I-237500J0D01*
G01*
X98412500Y-76900000D01*
G75*
G02*
X98175000Y-76662500I0J237500D01*
G01*
X98175000Y-76162500D01*
G75*
G02*
X98412500Y-75925000I237500J0D01*
G01*
G37*
G36*
G01*
X98412500Y-74100000D02*
X98887500Y-74100000D01*
G75*
G02*
X99125000Y-74337500I0J-237500D01*
G01*
X99125000Y-74837500D01*
G75*
G02*
X98887500Y-75075000I-237500J0D01*
G01*
X98412500Y-75075000D01*
G75*
G02*
X98175000Y-74837500I0J237500D01*
G01*
X98175000Y-74337500D01*
G75*
G02*
X98412500Y-74100000I237500J0D01*
G01*
G37*
G36*
G01*
X100762500Y-74100000D02*
X101237500Y-74100000D01*
G75*
G02*
X101475000Y-74337500I0J-237500D01*
G01*
X101475000Y-74837500D01*
G75*
G02*
X101237500Y-75075000I-237500J0D01*
G01*
X100762500Y-75075000D01*
G75*
G02*
X100525000Y-74837500I0J237500D01*
G01*
X100525000Y-74337500D01*
G75*
G02*
X100762500Y-74100000I237500J0D01*
G01*
G37*
G36*
G01*
X100762500Y-75925000D02*
X101237500Y-75925000D01*
G75*
G02*
X101475000Y-76162500I0J-237500D01*
G01*
X101475000Y-76662500D01*
G75*
G02*
X101237500Y-76900000I-237500J0D01*
G01*
X100762500Y-76900000D01*
G75*
G02*
X100525000Y-76662500I0J237500D01*
G01*
X100525000Y-76162500D01*
G75*
G02*
X100762500Y-75925000I237500J0D01*
G01*
G37*
G36*
G01*
X135425001Y-41400000D02*
X134174999Y-41400000D01*
G75*
G02*
X133925000Y-41150001I0J249999D01*
G01*
X133925000Y-40349999D01*
G75*
G02*
X134174999Y-40100000I249999J0D01*
G01*
X135425001Y-40100000D01*
G75*
G02*
X135675000Y-40349999I0J-249999D01*
G01*
X135675000Y-41150001D01*
G75*
G02*
X135425001Y-41400000I-249999J0D01*
G01*
G37*
G36*
G01*
X135425001Y-38300000D02*
X134174999Y-38300000D01*
G75*
G02*
X133925000Y-38050001I0J249999D01*
G01*
X133925000Y-37249999D01*
G75*
G02*
X134174999Y-37000000I249999J0D01*
G01*
X135425001Y-37000000D01*
G75*
G02*
X135675000Y-37249999I0J-249999D01*
G01*
X135675000Y-38050001D01*
G75*
G02*
X135425001Y-38300000I-249999J0D01*
G01*
G37*
G36*
G01*
X130100000Y-34774999D02*
X130100000Y-36025001D01*
G75*
G02*
X129850001Y-36275000I-249999J0D01*
G01*
X129049999Y-36275000D01*
G75*
G02*
X128800000Y-36025001I0J249999D01*
G01*
X128800000Y-34774999D01*
G75*
G02*
X129049999Y-34525000I249999J0D01*
G01*
X129850001Y-34525000D01*
G75*
G02*
X130100000Y-34774999I0J-249999D01*
G01*
G37*
G36*
G01*
X133200000Y-34774999D02*
X133200000Y-36025001D01*
G75*
G02*
X132950001Y-36275000I-249999J0D01*
G01*
X132149999Y-36275000D01*
G75*
G02*
X131900000Y-36025001I0J249999D01*
G01*
X131900000Y-34774999D01*
G75*
G02*
X132149999Y-34525000I249999J0D01*
G01*
X132950001Y-34525000D01*
G75*
G02*
X133200000Y-34774999I0J-249999D01*
G01*
G37*
G36*
G01*
X126437500Y-38175000D02*
X125962500Y-38175000D01*
G75*
G02*
X125725000Y-37937500I0J237500D01*
G01*
X125725000Y-37437500D01*
G75*
G02*
X125962500Y-37200000I237500J0D01*
G01*
X126437500Y-37200000D01*
G75*
G02*
X126675000Y-37437500I0J-237500D01*
G01*
X126675000Y-37937500D01*
G75*
G02*
X126437500Y-38175000I-237500J0D01*
G01*
G37*
G36*
G01*
X126437500Y-40000000D02*
X125962500Y-40000000D01*
G75*
G02*
X125725000Y-39762500I0J237500D01*
G01*
X125725000Y-39262500D01*
G75*
G02*
X125962500Y-39025000I237500J0D01*
G01*
X126437500Y-39025000D01*
G75*
G02*
X126675000Y-39262500I0J-237500D01*
G01*
X126675000Y-39762500D01*
G75*
G02*
X126437500Y-40000000I-237500J0D01*
G01*
G37*
G36*
G01*
X111637500Y-58575000D02*
X111162500Y-58575000D01*
G75*
G02*
X110925000Y-58337500I0J237500D01*
G01*
X110925000Y-57837500D01*
G75*
G02*
X111162500Y-57600000I237500J0D01*
G01*
X111637500Y-57600000D01*
G75*
G02*
X111875000Y-57837500I0J-237500D01*
G01*
X111875000Y-58337500D01*
G75*
G02*
X111637500Y-58575000I-237500J0D01*
G01*
G37*
G36*
G01*
X111637500Y-60400000D02*
X111162500Y-60400000D01*
G75*
G02*
X110925000Y-60162500I0J237500D01*
G01*
X110925000Y-59662500D01*
G75*
G02*
X111162500Y-59425000I237500J0D01*
G01*
X111637500Y-59425000D01*
G75*
G02*
X111875000Y-59662500I0J-237500D01*
G01*
X111875000Y-60162500D01*
G75*
G02*
X111637500Y-60400000I-237500J0D01*
G01*
G37*
G36*
G01*
X93762500Y-66425000D02*
X94237500Y-66425000D01*
G75*
G02*
X94475000Y-66662500I0J-237500D01*
G01*
X94475000Y-67162500D01*
G75*
G02*
X94237500Y-67400000I-237500J0D01*
G01*
X93762500Y-67400000D01*
G75*
G02*
X93525000Y-67162500I0J237500D01*
G01*
X93525000Y-66662500D01*
G75*
G02*
X93762500Y-66425000I237500J0D01*
G01*
G37*
G36*
G01*
X93762500Y-64600000D02*
X94237500Y-64600000D01*
G75*
G02*
X94475000Y-64837500I0J-237500D01*
G01*
X94475000Y-65337500D01*
G75*
G02*
X94237500Y-65575000I-237500J0D01*
G01*
X93762500Y-65575000D01*
G75*
G02*
X93525000Y-65337500I0J237500D01*
G01*
X93525000Y-64837500D01*
G75*
G02*
X93762500Y-64600000I237500J0D01*
G01*
G37*
G36*
G01*
X112800000Y-122962500D02*
X112800000Y-123437500D01*
G75*
G02*
X112562500Y-123675000I-237500J0D01*
G01*
X112062500Y-123675000D01*
G75*
G02*
X111825000Y-123437500I0J237500D01*
G01*
X111825000Y-122962500D01*
G75*
G02*
X112062500Y-122725000I237500J0D01*
G01*
X112562500Y-122725000D01*
G75*
G02*
X112800000Y-122962500I0J-237500D01*
G01*
G37*
G36*
G01*
X110975000Y-122962500D02*
X110975000Y-123437500D01*
G75*
G02*
X110737500Y-123675000I-237500J0D01*
G01*
X110237500Y-123675000D01*
G75*
G02*
X110000000Y-123437500I0J237500D01*
G01*
X110000000Y-122962500D01*
G75*
G02*
X110237500Y-122725000I237500J0D01*
G01*
X110737500Y-122725000D01*
G75*
G02*
X110975000Y-122962500I0J-237500D01*
G01*
G37*
G36*
G01*
X112800000Y-115162500D02*
X112800000Y-115637500D01*
G75*
G02*
X112562500Y-115875000I-237500J0D01*
G01*
X112062500Y-115875000D01*
G75*
G02*
X111825000Y-115637500I0J237500D01*
G01*
X111825000Y-115162500D01*
G75*
G02*
X112062500Y-114925000I237500J0D01*
G01*
X112562500Y-114925000D01*
G75*
G02*
X112800000Y-115162500I0J-237500D01*
G01*
G37*
G36*
G01*
X110975000Y-115162500D02*
X110975000Y-115637500D01*
G75*
G02*
X110737500Y-115875000I-237500J0D01*
G01*
X110237500Y-115875000D01*
G75*
G02*
X110000000Y-115637500I0J237500D01*
G01*
X110000000Y-115162500D01*
G75*
G02*
X110237500Y-114925000I237500J0D01*
G01*
X110737500Y-114925000D01*
G75*
G02*
X110975000Y-115162500I0J-237500D01*
G01*
G37*
G36*
G01*
X111825000Y-113637500D02*
X111825000Y-113162500D01*
G75*
G02*
X112062500Y-112925000I237500J0D01*
G01*
X112562500Y-112925000D01*
G75*
G02*
X112800000Y-113162500I0J-237500D01*
G01*
X112800000Y-113637500D01*
G75*
G02*
X112562500Y-113875000I-237500J0D01*
G01*
X112062500Y-113875000D01*
G75*
G02*
X111825000Y-113637500I0J237500D01*
G01*
G37*
G36*
G01*
X110000000Y-113637500D02*
X110000000Y-113162500D01*
G75*
G02*
X110237500Y-112925000I237500J0D01*
G01*
X110737500Y-112925000D01*
G75*
G02*
X110975000Y-113162500I0J-237500D01*
G01*
X110975000Y-113637500D01*
G75*
G02*
X110737500Y-113875000I-237500J0D01*
G01*
X110237500Y-113875000D01*
G75*
G02*
X110000000Y-113637500I0J237500D01*
G01*
G37*
G36*
G01*
X105437500Y-136975000D02*
X104962500Y-136975000D01*
G75*
G02*
X104725000Y-136737500I0J237500D01*
G01*
X104725000Y-136237500D01*
G75*
G02*
X104962500Y-136000000I237500J0D01*
G01*
X105437500Y-136000000D01*
G75*
G02*
X105675000Y-136237500I0J-237500D01*
G01*
X105675000Y-136737500D01*
G75*
G02*
X105437500Y-136975000I-237500J0D01*
G01*
G37*
G36*
G01*
X105437500Y-138800000D02*
X104962500Y-138800000D01*
G75*
G02*
X104725000Y-138562500I0J237500D01*
G01*
X104725000Y-138062500D01*
G75*
G02*
X104962500Y-137825000I237500J0D01*
G01*
X105437500Y-137825000D01*
G75*
G02*
X105675000Y-138062500I0J-237500D01*
G01*
X105675000Y-138562500D01*
G75*
G02*
X105437500Y-138800000I-237500J0D01*
G01*
G37*
G36*
G01*
X106825000Y-127237500D02*
X106825000Y-126762500D01*
G75*
G02*
X107062500Y-126525000I237500J0D01*
G01*
X107562500Y-126525000D01*
G75*
G02*
X107800000Y-126762500I0J-237500D01*
G01*
X107800000Y-127237500D01*
G75*
G02*
X107562500Y-127475000I-237500J0D01*
G01*
X107062500Y-127475000D01*
G75*
G02*
X106825000Y-127237500I0J237500D01*
G01*
G37*
G36*
G01*
X105000000Y-127237500D02*
X105000000Y-126762500D01*
G75*
G02*
X105237500Y-126525000I237500J0D01*
G01*
X105737500Y-126525000D01*
G75*
G02*
X105975000Y-126762500I0J-237500D01*
G01*
X105975000Y-127237500D01*
G75*
G02*
X105737500Y-127475000I-237500J0D01*
G01*
X105237500Y-127475000D01*
G75*
G02*
X105000000Y-127237500I0J237500D01*
G01*
G37*
G36*
G01*
X113000000Y-126762500D02*
X113000000Y-127237500D01*
G75*
G02*
X112762500Y-127475000I-237500J0D01*
G01*
X112262500Y-127475000D01*
G75*
G02*
X112025000Y-127237500I0J237500D01*
G01*
X112025000Y-126762500D01*
G75*
G02*
X112262500Y-126525000I237500J0D01*
G01*
X112762500Y-126525000D01*
G75*
G02*
X113000000Y-126762500I0J-237500D01*
G01*
G37*
G36*
G01*
X111175000Y-126762500D02*
X111175000Y-127237500D01*
G75*
G02*
X110937500Y-127475000I-237500J0D01*
G01*
X110437500Y-127475000D01*
G75*
G02*
X110200000Y-127237500I0J237500D01*
G01*
X110200000Y-126762500D01*
G75*
G02*
X110437500Y-126525000I237500J0D01*
G01*
X110937500Y-126525000D01*
G75*
G02*
X111175000Y-126762500I0J-237500D01*
G01*
G37*
G36*
G01*
X104800000Y-140637500D02*
X104800000Y-140162500D01*
G75*
G02*
X105037500Y-139925000I237500J0D01*
G01*
X105537500Y-139925000D01*
G75*
G02*
X105775000Y-140162500I0J-237500D01*
G01*
X105775000Y-140637500D01*
G75*
G02*
X105537500Y-140875000I-237500J0D01*
G01*
X105037500Y-140875000D01*
G75*
G02*
X104800000Y-140637500I0J237500D01*
G01*
G37*
G36*
G01*
X106625000Y-140637500D02*
X106625000Y-140162500D01*
G75*
G02*
X106862500Y-139925000I237500J0D01*
G01*
X107362500Y-139925000D01*
G75*
G02*
X107600000Y-140162500I0J-237500D01*
G01*
X107600000Y-140637500D01*
G75*
G02*
X107362500Y-140875000I-237500J0D01*
G01*
X106862500Y-140875000D01*
G75*
G02*
X106625000Y-140637500I0J237500D01*
G01*
G37*
G36*
G01*
X93700000Y-95612500D02*
X93700000Y-96087500D01*
G75*
G02*
X93462500Y-96325000I-237500J0D01*
G01*
X92962500Y-96325000D01*
G75*
G02*
X92725000Y-96087500I0J237500D01*
G01*
X92725000Y-95612500D01*
G75*
G02*
X92962500Y-95375000I237500J0D01*
G01*
X93462500Y-95375000D01*
G75*
G02*
X93700000Y-95612500I0J-237500D01*
G01*
G37*
G36*
G01*
X91875000Y-95612500D02*
X91875000Y-96087500D01*
G75*
G02*
X91637500Y-96325000I-237500J0D01*
G01*
X91137500Y-96325000D01*
G75*
G02*
X90900000Y-96087500I0J237500D01*
G01*
X90900000Y-95612500D01*
G75*
G02*
X91137500Y-95375000I237500J0D01*
G01*
X91637500Y-95375000D01*
G75*
G02*
X91875000Y-95612500I0J-237500D01*
G01*
G37*
G36*
G01*
X95312500Y-97275000D02*
X95787500Y-97275000D01*
G75*
G02*
X96025000Y-97512500I0J-237500D01*
G01*
X96025000Y-98012500D01*
G75*
G02*
X95787500Y-98250000I-237500J0D01*
G01*
X95312500Y-98250000D01*
G75*
G02*
X95075000Y-98012500I0J237500D01*
G01*
X95075000Y-97512500D01*
G75*
G02*
X95312500Y-97275000I237500J0D01*
G01*
G37*
G36*
G01*
X95312500Y-95450000D02*
X95787500Y-95450000D01*
G75*
G02*
X96025000Y-95687500I0J-237500D01*
G01*
X96025000Y-96187500D01*
G75*
G02*
X95787500Y-96425000I-237500J0D01*
G01*
X95312500Y-96425000D01*
G75*
G02*
X95075000Y-96187500I0J237500D01*
G01*
X95075000Y-95687500D01*
G75*
G02*
X95312500Y-95450000I237500J0D01*
G01*
G37*
G36*
G01*
X96125000Y-99862500D02*
X96125000Y-100337500D01*
G75*
G02*
X95887500Y-100575000I-237500J0D01*
G01*
X95387500Y-100575000D01*
G75*
G02*
X95150000Y-100337500I0J237500D01*
G01*
X95150000Y-99862500D01*
G75*
G02*
X95387500Y-99625000I237500J0D01*
G01*
X95887500Y-99625000D01*
G75*
G02*
X96125000Y-99862500I0J-237500D01*
G01*
G37*
G36*
G01*
X97950000Y-99862500D02*
X97950000Y-100337500D01*
G75*
G02*
X97712500Y-100575000I-237500J0D01*
G01*
X97212500Y-100575000D01*
G75*
G02*
X96975000Y-100337500I0J237500D01*
G01*
X96975000Y-99862500D01*
G75*
G02*
X97212500Y-99625000I237500J0D01*
G01*
X97712500Y-99625000D01*
G75*
G02*
X97950000Y-99862500I0J-237500D01*
G01*
G37*
D20*
X97800000Y-40800000D03*
D21*
X100500000Y-42705000D03*
X100500000Y-41435000D03*
X100500000Y-40165000D03*
X100500000Y-38895000D03*
X95100000Y-38895000D03*
X95100000Y-40165000D03*
X95100000Y-41435000D03*
X95100000Y-42705000D03*
G36*
G01*
X128910000Y-91000000D02*
X129210000Y-91000000D01*
G75*
G02*
X129360000Y-91150000I0J-150000D01*
G01*
X129360000Y-92800000D01*
G75*
G02*
X129210000Y-92950000I-150000J0D01*
G01*
X128910000Y-92950000D01*
G75*
G02*
X128760000Y-92800000I0J150000D01*
G01*
X128760000Y-91150000D01*
G75*
G02*
X128910000Y-91000000I150000J0D01*
G01*
G37*
G36*
G01*
X127640000Y-91000000D02*
X127940000Y-91000000D01*
G75*
G02*
X128090000Y-91150000I0J-150000D01*
G01*
X128090000Y-92800000D01*
G75*
G02*
X127940000Y-92950000I-150000J0D01*
G01*
X127640000Y-92950000D01*
G75*
G02*
X127490000Y-92800000I0J150000D01*
G01*
X127490000Y-91150000D01*
G75*
G02*
X127640000Y-91000000I150000J0D01*
G01*
G37*
G36*
G01*
X126370000Y-91000000D02*
X126670000Y-91000000D01*
G75*
G02*
X126820000Y-91150000I0J-150000D01*
G01*
X126820000Y-92800000D01*
G75*
G02*
X126670000Y-92950000I-150000J0D01*
G01*
X126370000Y-92950000D01*
G75*
G02*
X126220000Y-92800000I0J150000D01*
G01*
X126220000Y-91150000D01*
G75*
G02*
X126370000Y-91000000I150000J0D01*
G01*
G37*
G36*
G01*
X125100000Y-91000000D02*
X125400000Y-91000000D01*
G75*
G02*
X125550000Y-91150000I0J-150000D01*
G01*
X125550000Y-92800000D01*
G75*
G02*
X125400000Y-92950000I-150000J0D01*
G01*
X125100000Y-92950000D01*
G75*
G02*
X124950000Y-92800000I0J150000D01*
G01*
X124950000Y-91150000D01*
G75*
G02*
X125100000Y-91000000I150000J0D01*
G01*
G37*
G36*
G01*
X123830000Y-91000000D02*
X124130000Y-91000000D01*
G75*
G02*
X124280000Y-91150000I0J-150000D01*
G01*
X124280000Y-92800000D01*
G75*
G02*
X124130000Y-92950000I-150000J0D01*
G01*
X123830000Y-92950000D01*
G75*
G02*
X123680000Y-92800000I0J150000D01*
G01*
X123680000Y-91150000D01*
G75*
G02*
X123830000Y-91000000I150000J0D01*
G01*
G37*
G36*
G01*
X122560000Y-91000000D02*
X122860000Y-91000000D01*
G75*
G02*
X123010000Y-91150000I0J-150000D01*
G01*
X123010000Y-92800000D01*
G75*
G02*
X122860000Y-92950000I-150000J0D01*
G01*
X122560000Y-92950000D01*
G75*
G02*
X122410000Y-92800000I0J150000D01*
G01*
X122410000Y-91150000D01*
G75*
G02*
X122560000Y-91000000I150000J0D01*
G01*
G37*
G36*
G01*
X121290000Y-91000000D02*
X121590000Y-91000000D01*
G75*
G02*
X121740000Y-91150000I0J-150000D01*
G01*
X121740000Y-92800000D01*
G75*
G02*
X121590000Y-92950000I-150000J0D01*
G01*
X121290000Y-92950000D01*
G75*
G02*
X121140000Y-92800000I0J150000D01*
G01*
X121140000Y-91150000D01*
G75*
G02*
X121290000Y-91000000I150000J0D01*
G01*
G37*
G36*
G01*
X121290000Y-86050000D02*
X121590000Y-86050000D01*
G75*
G02*
X121740000Y-86200000I0J-150000D01*
G01*
X121740000Y-87850000D01*
G75*
G02*
X121590000Y-88000000I-150000J0D01*
G01*
X121290000Y-88000000D01*
G75*
G02*
X121140000Y-87850000I0J150000D01*
G01*
X121140000Y-86200000D01*
G75*
G02*
X121290000Y-86050000I150000J0D01*
G01*
G37*
G36*
G01*
X122560000Y-86050000D02*
X122860000Y-86050000D01*
G75*
G02*
X123010000Y-86200000I0J-150000D01*
G01*
X123010000Y-87850000D01*
G75*
G02*
X122860000Y-88000000I-150000J0D01*
G01*
X122560000Y-88000000D01*
G75*
G02*
X122410000Y-87850000I0J150000D01*
G01*
X122410000Y-86200000D01*
G75*
G02*
X122560000Y-86050000I150000J0D01*
G01*
G37*
G36*
G01*
X123830000Y-86050000D02*
X124130000Y-86050000D01*
G75*
G02*
X124280000Y-86200000I0J-150000D01*
G01*
X124280000Y-87850000D01*
G75*
G02*
X124130000Y-88000000I-150000J0D01*
G01*
X123830000Y-88000000D01*
G75*
G02*
X123680000Y-87850000I0J150000D01*
G01*
X123680000Y-86200000D01*
G75*
G02*
X123830000Y-86050000I150000J0D01*
G01*
G37*
G36*
G01*
X125100000Y-86050000D02*
X125400000Y-86050000D01*
G75*
G02*
X125550000Y-86200000I0J-150000D01*
G01*
X125550000Y-87850000D01*
G75*
G02*
X125400000Y-88000000I-150000J0D01*
G01*
X125100000Y-88000000D01*
G75*
G02*
X124950000Y-87850000I0J150000D01*
G01*
X124950000Y-86200000D01*
G75*
G02*
X125100000Y-86050000I150000J0D01*
G01*
G37*
G36*
G01*
X126370000Y-86050000D02*
X126670000Y-86050000D01*
G75*
G02*
X126820000Y-86200000I0J-150000D01*
G01*
X126820000Y-87850000D01*
G75*
G02*
X126670000Y-88000000I-150000J0D01*
G01*
X126370000Y-88000000D01*
G75*
G02*
X126220000Y-87850000I0J150000D01*
G01*
X126220000Y-86200000D01*
G75*
G02*
X126370000Y-86050000I150000J0D01*
G01*
G37*
G36*
G01*
X127640000Y-86050000D02*
X127940000Y-86050000D01*
G75*
G02*
X128090000Y-86200000I0J-150000D01*
G01*
X128090000Y-87850000D01*
G75*
G02*
X127940000Y-88000000I-150000J0D01*
G01*
X127640000Y-88000000D01*
G75*
G02*
X127490000Y-87850000I0J150000D01*
G01*
X127490000Y-86200000D01*
G75*
G02*
X127640000Y-86050000I150000J0D01*
G01*
G37*
G36*
G01*
X128910000Y-86050000D02*
X129210000Y-86050000D01*
G75*
G02*
X129360000Y-86200000I0J-150000D01*
G01*
X129360000Y-87850000D01*
G75*
G02*
X129210000Y-88000000I-150000J0D01*
G01*
X128910000Y-88000000D01*
G75*
G02*
X128760000Y-87850000I0J150000D01*
G01*
X128760000Y-86200000D01*
G75*
G02*
X128910000Y-86050000I150000J0D01*
G01*
G37*
D17*
X133950000Y-104000000D03*
X132050000Y-104000000D03*
X133000000Y-106000000D03*
G36*
G01*
X94500000Y-105445000D02*
X94500000Y-105145000D01*
G75*
G02*
X94650000Y-104995000I150000J0D01*
G01*
X96300000Y-104995000D01*
G75*
G02*
X96450000Y-105145000I0J-150000D01*
G01*
X96450000Y-105445000D01*
G75*
G02*
X96300000Y-105595000I-150000J0D01*
G01*
X94650000Y-105595000D01*
G75*
G02*
X94500000Y-105445000I0J150000D01*
G01*
G37*
G36*
G01*
X94500000Y-106715000D02*
X94500000Y-106415000D01*
G75*
G02*
X94650000Y-106265000I150000J0D01*
G01*
X96300000Y-106265000D01*
G75*
G02*
X96450000Y-106415000I0J-150000D01*
G01*
X96450000Y-106715000D01*
G75*
G02*
X96300000Y-106865000I-150000J0D01*
G01*
X94650000Y-106865000D01*
G75*
G02*
X94500000Y-106715000I0J150000D01*
G01*
G37*
G36*
G01*
X94500000Y-107985000D02*
X94500000Y-107685000D01*
G75*
G02*
X94650000Y-107535000I150000J0D01*
G01*
X96300000Y-107535000D01*
G75*
G02*
X96450000Y-107685000I0J-150000D01*
G01*
X96450000Y-107985000D01*
G75*
G02*
X96300000Y-108135000I-150000J0D01*
G01*
X94650000Y-108135000D01*
G75*
G02*
X94500000Y-107985000I0J150000D01*
G01*
G37*
G36*
G01*
X94500000Y-109255000D02*
X94500000Y-108955000D01*
G75*
G02*
X94650000Y-108805000I150000J0D01*
G01*
X96300000Y-108805000D01*
G75*
G02*
X96450000Y-108955000I0J-150000D01*
G01*
X96450000Y-109255000D01*
G75*
G02*
X96300000Y-109405000I-150000J0D01*
G01*
X94650000Y-109405000D01*
G75*
G02*
X94500000Y-109255000I0J150000D01*
G01*
G37*
G36*
G01*
X89550000Y-109255000D02*
X89550000Y-108955000D01*
G75*
G02*
X89700000Y-108805000I150000J0D01*
G01*
X91350000Y-108805000D01*
G75*
G02*
X91500000Y-108955000I0J-150000D01*
G01*
X91500000Y-109255000D01*
G75*
G02*
X91350000Y-109405000I-150000J0D01*
G01*
X89700000Y-109405000D01*
G75*
G02*
X89550000Y-109255000I0J150000D01*
G01*
G37*
G36*
G01*
X89550000Y-107985000D02*
X89550000Y-107685000D01*
G75*
G02*
X89700000Y-107535000I150000J0D01*
G01*
X91350000Y-107535000D01*
G75*
G02*
X91500000Y-107685000I0J-150000D01*
G01*
X91500000Y-107985000D01*
G75*
G02*
X91350000Y-108135000I-150000J0D01*
G01*
X89700000Y-108135000D01*
G75*
G02*
X89550000Y-107985000I0J150000D01*
G01*
G37*
G36*
G01*
X89550000Y-106715000D02*
X89550000Y-106415000D01*
G75*
G02*
X89700000Y-106265000I150000J0D01*
G01*
X91350000Y-106265000D01*
G75*
G02*
X91500000Y-106415000I0J-150000D01*
G01*
X91500000Y-106715000D01*
G75*
G02*
X91350000Y-106865000I-150000J0D01*
G01*
X89700000Y-106865000D01*
G75*
G02*
X89550000Y-106715000I0J150000D01*
G01*
G37*
G36*
G01*
X89550000Y-105445000D02*
X89550000Y-105145000D01*
G75*
G02*
X89700000Y-104995000I150000J0D01*
G01*
X91350000Y-104995000D01*
G75*
G02*
X91500000Y-105145000I0J-150000D01*
G01*
X91500000Y-105445000D01*
G75*
G02*
X91350000Y-105595000I-150000J0D01*
G01*
X89700000Y-105595000D01*
G75*
G02*
X89550000Y-105445000I0J150000D01*
G01*
G37*
G36*
G01*
X97160000Y-114750000D02*
X97460000Y-114750000D01*
G75*
G02*
X97610000Y-114900000I0J-150000D01*
G01*
X97610000Y-116550000D01*
G75*
G02*
X97460000Y-116700000I-150000J0D01*
G01*
X97160000Y-116700000D01*
G75*
G02*
X97010000Y-116550000I0J150000D01*
G01*
X97010000Y-114900000D01*
G75*
G02*
X97160000Y-114750000I150000J0D01*
G01*
G37*
G36*
G01*
X95890000Y-114750000D02*
X96190000Y-114750000D01*
G75*
G02*
X96340000Y-114900000I0J-150000D01*
G01*
X96340000Y-116550000D01*
G75*
G02*
X96190000Y-116700000I-150000J0D01*
G01*
X95890000Y-116700000D01*
G75*
G02*
X95740000Y-116550000I0J150000D01*
G01*
X95740000Y-114900000D01*
G75*
G02*
X95890000Y-114750000I150000J0D01*
G01*
G37*
G36*
G01*
X94620000Y-114750000D02*
X94920000Y-114750000D01*
G75*
G02*
X95070000Y-114900000I0J-150000D01*
G01*
X95070000Y-116550000D01*
G75*
G02*
X94920000Y-116700000I-150000J0D01*
G01*
X94620000Y-116700000D01*
G75*
G02*
X94470000Y-116550000I0J150000D01*
G01*
X94470000Y-114900000D01*
G75*
G02*
X94620000Y-114750000I150000J0D01*
G01*
G37*
G36*
G01*
X93350000Y-114750000D02*
X93650000Y-114750000D01*
G75*
G02*
X93800000Y-114900000I0J-150000D01*
G01*
X93800000Y-116550000D01*
G75*
G02*
X93650000Y-116700000I-150000J0D01*
G01*
X93350000Y-116700000D01*
G75*
G02*
X93200000Y-116550000I0J150000D01*
G01*
X93200000Y-114900000D01*
G75*
G02*
X93350000Y-114750000I150000J0D01*
G01*
G37*
G36*
G01*
X92080000Y-114750000D02*
X92380000Y-114750000D01*
G75*
G02*
X92530000Y-114900000I0J-150000D01*
G01*
X92530000Y-116550000D01*
G75*
G02*
X92380000Y-116700000I-150000J0D01*
G01*
X92080000Y-116700000D01*
G75*
G02*
X91930000Y-116550000I0J150000D01*
G01*
X91930000Y-114900000D01*
G75*
G02*
X92080000Y-114750000I150000J0D01*
G01*
G37*
G36*
G01*
X90810000Y-114750000D02*
X91110000Y-114750000D01*
G75*
G02*
X91260000Y-114900000I0J-150000D01*
G01*
X91260000Y-116550000D01*
G75*
G02*
X91110000Y-116700000I-150000J0D01*
G01*
X90810000Y-116700000D01*
G75*
G02*
X90660000Y-116550000I0J150000D01*
G01*
X90660000Y-114900000D01*
G75*
G02*
X90810000Y-114750000I150000J0D01*
G01*
G37*
G36*
G01*
X89540000Y-114750000D02*
X89840000Y-114750000D01*
G75*
G02*
X89990000Y-114900000I0J-150000D01*
G01*
X89990000Y-116550000D01*
G75*
G02*
X89840000Y-116700000I-150000J0D01*
G01*
X89540000Y-116700000D01*
G75*
G02*
X89390000Y-116550000I0J150000D01*
G01*
X89390000Y-114900000D01*
G75*
G02*
X89540000Y-114750000I150000J0D01*
G01*
G37*
G36*
G01*
X89540000Y-119700000D02*
X89840000Y-119700000D01*
G75*
G02*
X89990000Y-119850000I0J-150000D01*
G01*
X89990000Y-121500000D01*
G75*
G02*
X89840000Y-121650000I-150000J0D01*
G01*
X89540000Y-121650000D01*
G75*
G02*
X89390000Y-121500000I0J150000D01*
G01*
X89390000Y-119850000D01*
G75*
G02*
X89540000Y-119700000I150000J0D01*
G01*
G37*
G36*
G01*
X90810000Y-119700000D02*
X91110000Y-119700000D01*
G75*
G02*
X91260000Y-119850000I0J-150000D01*
G01*
X91260000Y-121500000D01*
G75*
G02*
X91110000Y-121650000I-150000J0D01*
G01*
X90810000Y-121650000D01*
G75*
G02*
X90660000Y-121500000I0J150000D01*
G01*
X90660000Y-119850000D01*
G75*
G02*
X90810000Y-119700000I150000J0D01*
G01*
G37*
G36*
G01*
X92080000Y-119700000D02*
X92380000Y-119700000D01*
G75*
G02*
X92530000Y-119850000I0J-150000D01*
G01*
X92530000Y-121500000D01*
G75*
G02*
X92380000Y-121650000I-150000J0D01*
G01*
X92080000Y-121650000D01*
G75*
G02*
X91930000Y-121500000I0J150000D01*
G01*
X91930000Y-119850000D01*
G75*
G02*
X92080000Y-119700000I150000J0D01*
G01*
G37*
G36*
G01*
X93350000Y-119700000D02*
X93650000Y-119700000D01*
G75*
G02*
X93800000Y-119850000I0J-150000D01*
G01*
X93800000Y-121500000D01*
G75*
G02*
X93650000Y-121650000I-150000J0D01*
G01*
X93350000Y-121650000D01*
G75*
G02*
X93200000Y-121500000I0J150000D01*
G01*
X93200000Y-119850000D01*
G75*
G02*
X93350000Y-119700000I150000J0D01*
G01*
G37*
G36*
G01*
X94620000Y-119700000D02*
X94920000Y-119700000D01*
G75*
G02*
X95070000Y-119850000I0J-150000D01*
G01*
X95070000Y-121500000D01*
G75*
G02*
X94920000Y-121650000I-150000J0D01*
G01*
X94620000Y-121650000D01*
G75*
G02*
X94470000Y-121500000I0J150000D01*
G01*
X94470000Y-119850000D01*
G75*
G02*
X94620000Y-119700000I150000J0D01*
G01*
G37*
G36*
G01*
X95890000Y-119700000D02*
X96190000Y-119700000D01*
G75*
G02*
X96340000Y-119850000I0J-150000D01*
G01*
X96340000Y-121500000D01*
G75*
G02*
X96190000Y-121650000I-150000J0D01*
G01*
X95890000Y-121650000D01*
G75*
G02*
X95740000Y-121500000I0J150000D01*
G01*
X95740000Y-119850000D01*
G75*
G02*
X95890000Y-119700000I150000J0D01*
G01*
G37*
G36*
G01*
X97160000Y-119700000D02*
X97460000Y-119700000D01*
G75*
G02*
X97610000Y-119850000I0J-150000D01*
G01*
X97610000Y-121500000D01*
G75*
G02*
X97460000Y-121650000I-150000J0D01*
G01*
X97160000Y-121650000D01*
G75*
G02*
X97010000Y-121500000I0J150000D01*
G01*
X97010000Y-119850000D01*
G75*
G02*
X97160000Y-119700000I150000J0D01*
G01*
G37*
G36*
G01*
X104260000Y-84675000D02*
X103960000Y-84675000D01*
G75*
G02*
X103810000Y-84525000I0J150000D01*
G01*
X103810000Y-82775000D01*
G75*
G02*
X103960000Y-82625000I150000J0D01*
G01*
X104260000Y-82625000D01*
G75*
G02*
X104410000Y-82775000I0J-150000D01*
G01*
X104410000Y-84525000D01*
G75*
G02*
X104260000Y-84675000I-150000J0D01*
G01*
G37*
G36*
G01*
X105530000Y-84675000D02*
X105230000Y-84675000D01*
G75*
G02*
X105080000Y-84525000I0J150000D01*
G01*
X105080000Y-82775000D01*
G75*
G02*
X105230000Y-82625000I150000J0D01*
G01*
X105530000Y-82625000D01*
G75*
G02*
X105680000Y-82775000I0J-150000D01*
G01*
X105680000Y-84525000D01*
G75*
G02*
X105530000Y-84675000I-150000J0D01*
G01*
G37*
G36*
G01*
X106800000Y-84675000D02*
X106500000Y-84675000D01*
G75*
G02*
X106350000Y-84525000I0J150000D01*
G01*
X106350000Y-82775000D01*
G75*
G02*
X106500000Y-82625000I150000J0D01*
G01*
X106800000Y-82625000D01*
G75*
G02*
X106950000Y-82775000I0J-150000D01*
G01*
X106950000Y-84525000D01*
G75*
G02*
X106800000Y-84675000I-150000J0D01*
G01*
G37*
G36*
G01*
X108070000Y-84675000D02*
X107770000Y-84675000D01*
G75*
G02*
X107620000Y-84525000I0J150000D01*
G01*
X107620000Y-82775000D01*
G75*
G02*
X107770000Y-82625000I150000J0D01*
G01*
X108070000Y-82625000D01*
G75*
G02*
X108220000Y-82775000I0J-150000D01*
G01*
X108220000Y-84525000D01*
G75*
G02*
X108070000Y-84675000I-150000J0D01*
G01*
G37*
G36*
G01*
X109340000Y-84675000D02*
X109040000Y-84675000D01*
G75*
G02*
X108890000Y-84525000I0J150000D01*
G01*
X108890000Y-82775000D01*
G75*
G02*
X109040000Y-82625000I150000J0D01*
G01*
X109340000Y-82625000D01*
G75*
G02*
X109490000Y-82775000I0J-150000D01*
G01*
X109490000Y-84525000D01*
G75*
G02*
X109340000Y-84675000I-150000J0D01*
G01*
G37*
G36*
G01*
X110610000Y-84675000D02*
X110310000Y-84675000D01*
G75*
G02*
X110160000Y-84525000I0J150000D01*
G01*
X110160000Y-82775000D01*
G75*
G02*
X110310000Y-82625000I150000J0D01*
G01*
X110610000Y-82625000D01*
G75*
G02*
X110760000Y-82775000I0J-150000D01*
G01*
X110760000Y-84525000D01*
G75*
G02*
X110610000Y-84675000I-150000J0D01*
G01*
G37*
G36*
G01*
X111880000Y-84675000D02*
X111580000Y-84675000D01*
G75*
G02*
X111430000Y-84525000I0J150000D01*
G01*
X111430000Y-82775000D01*
G75*
G02*
X111580000Y-82625000I150000J0D01*
G01*
X111880000Y-82625000D01*
G75*
G02*
X112030000Y-82775000I0J-150000D01*
G01*
X112030000Y-84525000D01*
G75*
G02*
X111880000Y-84675000I-150000J0D01*
G01*
G37*
G36*
G01*
X113150000Y-84675000D02*
X112850000Y-84675000D01*
G75*
G02*
X112700000Y-84525000I0J150000D01*
G01*
X112700000Y-82775000D01*
G75*
G02*
X112850000Y-82625000I150000J0D01*
G01*
X113150000Y-82625000D01*
G75*
G02*
X113300000Y-82775000I0J-150000D01*
G01*
X113300000Y-84525000D01*
G75*
G02*
X113150000Y-84675000I-150000J0D01*
G01*
G37*
G36*
G01*
X114420000Y-84675000D02*
X114120000Y-84675000D01*
G75*
G02*
X113970000Y-84525000I0J150000D01*
G01*
X113970000Y-82775000D01*
G75*
G02*
X114120000Y-82625000I150000J0D01*
G01*
X114420000Y-82625000D01*
G75*
G02*
X114570000Y-82775000I0J-150000D01*
G01*
X114570000Y-84525000D01*
G75*
G02*
X114420000Y-84675000I-150000J0D01*
G01*
G37*
G36*
G01*
X114420000Y-75375000D02*
X114120000Y-75375000D01*
G75*
G02*
X113970000Y-75225000I0J150000D01*
G01*
X113970000Y-73475000D01*
G75*
G02*
X114120000Y-73325000I150000J0D01*
G01*
X114420000Y-73325000D01*
G75*
G02*
X114570000Y-73475000I0J-150000D01*
G01*
X114570000Y-75225000D01*
G75*
G02*
X114420000Y-75375000I-150000J0D01*
G01*
G37*
G36*
G01*
X113150000Y-75375000D02*
X112850000Y-75375000D01*
G75*
G02*
X112700000Y-75225000I0J150000D01*
G01*
X112700000Y-73475000D01*
G75*
G02*
X112850000Y-73325000I150000J0D01*
G01*
X113150000Y-73325000D01*
G75*
G02*
X113300000Y-73475000I0J-150000D01*
G01*
X113300000Y-75225000D01*
G75*
G02*
X113150000Y-75375000I-150000J0D01*
G01*
G37*
G36*
G01*
X111880000Y-75375000D02*
X111580000Y-75375000D01*
G75*
G02*
X111430000Y-75225000I0J150000D01*
G01*
X111430000Y-73475000D01*
G75*
G02*
X111580000Y-73325000I150000J0D01*
G01*
X111880000Y-73325000D01*
G75*
G02*
X112030000Y-73475000I0J-150000D01*
G01*
X112030000Y-75225000D01*
G75*
G02*
X111880000Y-75375000I-150000J0D01*
G01*
G37*
G36*
G01*
X110610000Y-75375000D02*
X110310000Y-75375000D01*
G75*
G02*
X110160000Y-75225000I0J150000D01*
G01*
X110160000Y-73475000D01*
G75*
G02*
X110310000Y-73325000I150000J0D01*
G01*
X110610000Y-73325000D01*
G75*
G02*
X110760000Y-73475000I0J-150000D01*
G01*
X110760000Y-75225000D01*
G75*
G02*
X110610000Y-75375000I-150000J0D01*
G01*
G37*
G36*
G01*
X109340000Y-75375000D02*
X109040000Y-75375000D01*
G75*
G02*
X108890000Y-75225000I0J150000D01*
G01*
X108890000Y-73475000D01*
G75*
G02*
X109040000Y-73325000I150000J0D01*
G01*
X109340000Y-73325000D01*
G75*
G02*
X109490000Y-73475000I0J-150000D01*
G01*
X109490000Y-75225000D01*
G75*
G02*
X109340000Y-75375000I-150000J0D01*
G01*
G37*
G36*
G01*
X108070000Y-75375000D02*
X107770000Y-75375000D01*
G75*
G02*
X107620000Y-75225000I0J150000D01*
G01*
X107620000Y-73475000D01*
G75*
G02*
X107770000Y-73325000I150000J0D01*
G01*
X108070000Y-73325000D01*
G75*
G02*
X108220000Y-73475000I0J-150000D01*
G01*
X108220000Y-75225000D01*
G75*
G02*
X108070000Y-75375000I-150000J0D01*
G01*
G37*
G36*
G01*
X106800000Y-75375000D02*
X106500000Y-75375000D01*
G75*
G02*
X106350000Y-75225000I0J150000D01*
G01*
X106350000Y-73475000D01*
G75*
G02*
X106500000Y-73325000I150000J0D01*
G01*
X106800000Y-73325000D01*
G75*
G02*
X106950000Y-73475000I0J-150000D01*
G01*
X106950000Y-75225000D01*
G75*
G02*
X106800000Y-75375000I-150000J0D01*
G01*
G37*
G36*
G01*
X105530000Y-75375000D02*
X105230000Y-75375000D01*
G75*
G02*
X105080000Y-75225000I0J150000D01*
G01*
X105080000Y-73475000D01*
G75*
G02*
X105230000Y-73325000I150000J0D01*
G01*
X105530000Y-73325000D01*
G75*
G02*
X105680000Y-73475000I0J-150000D01*
G01*
X105680000Y-75225000D01*
G75*
G02*
X105530000Y-75375000I-150000J0D01*
G01*
G37*
G36*
G01*
X104260000Y-75375000D02*
X103960000Y-75375000D01*
G75*
G02*
X103810000Y-75225000I0J150000D01*
G01*
X103810000Y-73475000D01*
G75*
G02*
X103960000Y-73325000I150000J0D01*
G01*
X104260000Y-73325000D01*
G75*
G02*
X104410000Y-73475000I0J-150000D01*
G01*
X104410000Y-75225000D01*
G75*
G02*
X104260000Y-75375000I-150000J0D01*
G01*
G37*
G36*
G01*
X92045000Y-89950000D02*
X91745000Y-89950000D01*
G75*
G02*
X91595000Y-89800000I0J150000D01*
G01*
X91595000Y-88150000D01*
G75*
G02*
X91745000Y-88000000I150000J0D01*
G01*
X92045000Y-88000000D01*
G75*
G02*
X92195000Y-88150000I0J-150000D01*
G01*
X92195000Y-89800000D01*
G75*
G02*
X92045000Y-89950000I-150000J0D01*
G01*
G37*
G36*
G01*
X93315000Y-89950000D02*
X93015000Y-89950000D01*
G75*
G02*
X92865000Y-89800000I0J150000D01*
G01*
X92865000Y-88150000D01*
G75*
G02*
X93015000Y-88000000I150000J0D01*
G01*
X93315000Y-88000000D01*
G75*
G02*
X93465000Y-88150000I0J-150000D01*
G01*
X93465000Y-89800000D01*
G75*
G02*
X93315000Y-89950000I-150000J0D01*
G01*
G37*
G36*
G01*
X94585000Y-89950000D02*
X94285000Y-89950000D01*
G75*
G02*
X94135000Y-89800000I0J150000D01*
G01*
X94135000Y-88150000D01*
G75*
G02*
X94285000Y-88000000I150000J0D01*
G01*
X94585000Y-88000000D01*
G75*
G02*
X94735000Y-88150000I0J-150000D01*
G01*
X94735000Y-89800000D01*
G75*
G02*
X94585000Y-89950000I-150000J0D01*
G01*
G37*
G36*
G01*
X95855000Y-89950000D02*
X95555000Y-89950000D01*
G75*
G02*
X95405000Y-89800000I0J150000D01*
G01*
X95405000Y-88150000D01*
G75*
G02*
X95555000Y-88000000I150000J0D01*
G01*
X95855000Y-88000000D01*
G75*
G02*
X96005000Y-88150000I0J-150000D01*
G01*
X96005000Y-89800000D01*
G75*
G02*
X95855000Y-89950000I-150000J0D01*
G01*
G37*
G36*
G01*
X95855000Y-85000000D02*
X95555000Y-85000000D01*
G75*
G02*
X95405000Y-84850000I0J150000D01*
G01*
X95405000Y-83200000D01*
G75*
G02*
X95555000Y-83050000I150000J0D01*
G01*
X95855000Y-83050000D01*
G75*
G02*
X96005000Y-83200000I0J-150000D01*
G01*
X96005000Y-84850000D01*
G75*
G02*
X95855000Y-85000000I-150000J0D01*
G01*
G37*
G36*
G01*
X94585000Y-85000000D02*
X94285000Y-85000000D01*
G75*
G02*
X94135000Y-84850000I0J150000D01*
G01*
X94135000Y-83200000D01*
G75*
G02*
X94285000Y-83050000I150000J0D01*
G01*
X94585000Y-83050000D01*
G75*
G02*
X94735000Y-83200000I0J-150000D01*
G01*
X94735000Y-84850000D01*
G75*
G02*
X94585000Y-85000000I-150000J0D01*
G01*
G37*
G36*
G01*
X93315000Y-85000000D02*
X93015000Y-85000000D01*
G75*
G02*
X92865000Y-84850000I0J150000D01*
G01*
X92865000Y-83200000D01*
G75*
G02*
X93015000Y-83050000I150000J0D01*
G01*
X93315000Y-83050000D01*
G75*
G02*
X93465000Y-83200000I0J-150000D01*
G01*
X93465000Y-84850000D01*
G75*
G02*
X93315000Y-85000000I-150000J0D01*
G01*
G37*
G36*
G01*
X92045000Y-85000000D02*
X91745000Y-85000000D01*
G75*
G02*
X91595000Y-84850000I0J150000D01*
G01*
X91595000Y-83200000D01*
G75*
G02*
X91745000Y-83050000I150000J0D01*
G01*
X92045000Y-83050000D01*
G75*
G02*
X92195000Y-83200000I0J-150000D01*
G01*
X92195000Y-84850000D01*
G75*
G02*
X92045000Y-85000000I-150000J0D01*
G01*
G37*
G36*
G01*
X124100000Y-42447500D02*
X124100000Y-42772500D01*
G75*
G02*
X123937500Y-42935000I-162500J0D01*
G01*
X121912500Y-42935000D01*
G75*
G02*
X121750000Y-42772500I0J162500D01*
G01*
X121750000Y-42447500D01*
G75*
G02*
X121912500Y-42285000I162500J0D01*
G01*
X123937500Y-42285000D01*
G75*
G02*
X124100000Y-42447500I0J-162500D01*
G01*
G37*
G36*
G01*
X124100000Y-39907500D02*
X124100000Y-40232500D01*
G75*
G02*
X123937500Y-40395000I-162500J0D01*
G01*
X121912500Y-40395000D01*
G75*
G02*
X121750000Y-40232500I0J162500D01*
G01*
X121750000Y-39907500D01*
G75*
G02*
X121912500Y-39745000I162500J0D01*
G01*
X123937500Y-39745000D01*
G75*
G02*
X124100000Y-39907500I0J-162500D01*
G01*
G37*
G36*
G01*
X124100000Y-37367500D02*
X124100000Y-37692500D01*
G75*
G02*
X123937500Y-37855000I-162500J0D01*
G01*
X121912500Y-37855000D01*
G75*
G02*
X121750000Y-37692500I0J162500D01*
G01*
X121750000Y-37367500D01*
G75*
G02*
X121912500Y-37205000I162500J0D01*
G01*
X123937500Y-37205000D01*
G75*
G02*
X124100000Y-37367500I0J-162500D01*
G01*
G37*
G36*
G01*
X124100000Y-34827500D02*
X124100000Y-35152500D01*
G75*
G02*
X123937500Y-35315000I-162500J0D01*
G01*
X121912500Y-35315000D01*
G75*
G02*
X121750000Y-35152500I0J162500D01*
G01*
X121750000Y-34827500D01*
G75*
G02*
X121912500Y-34665000I162500J0D01*
G01*
X123937500Y-34665000D01*
G75*
G02*
X124100000Y-34827500I0J-162500D01*
G01*
G37*
G36*
G01*
X115050000Y-34827500D02*
X115050000Y-35152500D01*
G75*
G02*
X114887500Y-35315000I-162500J0D01*
G01*
X112862500Y-35315000D01*
G75*
G02*
X112700000Y-35152500I0J162500D01*
G01*
X112700000Y-34827500D01*
G75*
G02*
X112862500Y-34665000I162500J0D01*
G01*
X114887500Y-34665000D01*
G75*
G02*
X115050000Y-34827500I0J-162500D01*
G01*
G37*
G36*
G01*
X115050000Y-37367500D02*
X115050000Y-37692500D01*
G75*
G02*
X114887500Y-37855000I-162500J0D01*
G01*
X112862500Y-37855000D01*
G75*
G02*
X112700000Y-37692500I0J162500D01*
G01*
X112700000Y-37367500D01*
G75*
G02*
X112862500Y-37205000I162500J0D01*
G01*
X114887500Y-37205000D01*
G75*
G02*
X115050000Y-37367500I0J-162500D01*
G01*
G37*
G36*
G01*
X115050000Y-39907500D02*
X115050000Y-40232500D01*
G75*
G02*
X114887500Y-40395000I-162500J0D01*
G01*
X112862500Y-40395000D01*
G75*
G02*
X112700000Y-40232500I0J162500D01*
G01*
X112700000Y-39907500D01*
G75*
G02*
X112862500Y-39745000I162500J0D01*
G01*
X114887500Y-39745000D01*
G75*
G02*
X115050000Y-39907500I0J-162500D01*
G01*
G37*
G36*
G01*
X115050000Y-42447500D02*
X115050000Y-42772500D01*
G75*
G02*
X114887500Y-42935000I-162500J0D01*
G01*
X112862500Y-42935000D01*
G75*
G02*
X112700000Y-42772500I0J162500D01*
G01*
X112700000Y-42447500D01*
G75*
G02*
X112862500Y-42285000I162500J0D01*
G01*
X114887500Y-42285000D01*
G75*
G02*
X115050000Y-42447500I0J-162500D01*
G01*
G37*
D22*
G36*
X122843324Y-81229468D02*
G01*
X121570532Y-79956676D01*
X123055456Y-78471752D01*
X124328248Y-79744544D01*
X122843324Y-81229468D01*
G37*
G36*
X124893934Y-79178858D02*
G01*
X123621142Y-77906066D01*
X125106066Y-76421142D01*
X126378858Y-77693934D01*
X124893934Y-79178858D01*
G37*
G36*
X123267588Y-77552512D02*
G01*
X121994796Y-76279720D01*
X123479720Y-74794796D01*
X124752512Y-76067588D01*
X123267588Y-77552512D01*
G37*
G36*
X121216978Y-79603122D02*
G01*
X119944186Y-78330330D01*
X121429110Y-76845406D01*
X122701902Y-78118198D01*
X121216978Y-79603122D01*
G37*
M02*
