G04 #@! TF.GenerationSoftware,KiCad,Pcbnew,(5.1.10)-1*
G04 #@! TF.CreationDate,2022-01-30T14:23:45-06:00*
G04 #@! TF.ProjectId,22-ELC-1-01-R1,32322d45-4c43-42d3-912d-30312d52312e,rev?*
G04 #@! TF.SameCoordinates,Original*
G04 #@! TF.FileFunction,Soldermask,Bot*
G04 #@! TF.FilePolarity,Negative*
%FSLAX46Y46*%
G04 Gerber Fmt 4.6, Leading zero omitted, Abs format (unit mm)*
G04 Created by KiCad (PCBNEW (5.1.10)-1) date 2022-01-30 14:23:45*
%MOMM*%
%LPD*%
G01*
G04 APERTURE LIST*
%ADD10C,3.000000*%
%ADD11C,1.500000*%
%ADD12C,1.000000*%
%ADD13O,1.600000X1.600000*%
%ADD14R,1.600000X1.600000*%
%ADD15C,3.700000*%
%ADD16R,1.700000X1.700000*%
%ADD17O,1.700000X1.700000*%
%ADD18C,1.440000*%
%ADD19C,1.800000*%
G04 APERTURE END LIST*
D10*
X135000000Y-133500000D03*
G36*
G01*
X130180000Y-131250000D02*
X131180000Y-131250000D01*
G75*
G02*
X131430000Y-131500000I0J-250000D01*
G01*
X131430000Y-132500000D01*
G75*
G02*
X131180000Y-132750000I-250000J0D01*
G01*
X130180000Y-132750000D01*
G75*
G02*
X129930000Y-132500000I0J250000D01*
G01*
X129930000Y-131500000D01*
G75*
G02*
X130180000Y-131250000I250000J0D01*
G01*
G37*
D11*
X130680000Y-135000000D03*
X127680000Y-132000000D03*
X127680000Y-135000000D03*
D12*
X87500000Y-116250000D03*
D13*
X101570000Y-91040000D03*
X116810000Y-91040000D03*
X101570000Y-126600000D03*
X116810000Y-93580000D03*
X101570000Y-124060000D03*
X116810000Y-96120000D03*
X101570000Y-121520000D03*
X116810000Y-98660000D03*
X101570000Y-118980000D03*
X116810000Y-101200000D03*
X101570000Y-116440000D03*
X116810000Y-103740000D03*
X101570000Y-113900000D03*
X116810000Y-106280000D03*
X101570000Y-111360000D03*
X116810000Y-108820000D03*
X101570000Y-108820000D03*
X116810000Y-111360000D03*
X101570000Y-106280000D03*
X116810000Y-113900000D03*
X101570000Y-103740000D03*
X116810000Y-116440000D03*
X101570000Y-101200000D03*
X116810000Y-118980000D03*
X101570000Y-98660000D03*
X116810000Y-121520000D03*
X101570000Y-96120000D03*
X116810000Y-124060000D03*
X101570000Y-93580000D03*
D14*
X116810000Y-126600000D03*
D11*
X127400000Y-46600000D03*
G36*
G01*
X129900000Y-45850000D02*
X130900000Y-45850000D01*
G75*
G02*
X131150000Y-46100000I0J-250000D01*
G01*
X131150000Y-47100000D01*
G75*
G02*
X130900000Y-47350000I-250000J0D01*
G01*
X129900000Y-47350000D01*
G75*
G02*
X129650000Y-47100000I0J250000D01*
G01*
X129650000Y-46100000D01*
G75*
G02*
X129900000Y-45850000I250000J0D01*
G01*
G37*
D10*
X134720000Y-46600000D03*
D15*
X85000000Y-30000000D03*
X135000000Y-30000000D03*
X85000000Y-95000000D03*
X135000000Y-95000000D03*
X85000000Y-160000000D03*
X135000000Y-160000000D03*
D12*
X86940000Y-89000000D03*
X86940000Y-62000000D03*
G36*
G01*
X83500000Y-86750000D02*
X82500000Y-86750000D01*
G75*
G02*
X82250000Y-86500000I0J250000D01*
G01*
X82250000Y-85500000D01*
G75*
G02*
X82500000Y-85250000I250000J0D01*
G01*
X83500000Y-85250000D01*
G75*
G02*
X83750000Y-85500000I0J-250000D01*
G01*
X83750000Y-86500000D01*
G75*
G02*
X83500000Y-86750000I-250000J0D01*
G01*
G37*
D11*
X83000000Y-83000000D03*
X83000000Y-80000000D03*
X83000000Y-77000000D03*
X83000000Y-74000000D03*
X83000000Y-71000000D03*
X83000000Y-68000000D03*
X83000000Y-65000000D03*
X86000000Y-86000000D03*
X86000000Y-83000000D03*
X86000000Y-80000000D03*
X86000000Y-77000000D03*
X86000000Y-74000000D03*
X86000000Y-71000000D03*
X86000000Y-68000000D03*
X86000000Y-65000000D03*
D12*
X133060000Y-62500000D03*
X133060000Y-77500000D03*
G36*
G01*
X136500000Y-64750000D02*
X137500000Y-64750000D01*
G75*
G02*
X137750000Y-65000000I0J-250000D01*
G01*
X137750000Y-66000000D01*
G75*
G02*
X137500000Y-66250000I-250000J0D01*
G01*
X136500000Y-66250000D01*
G75*
G02*
X136250000Y-66000000I0J250000D01*
G01*
X136250000Y-65000000D01*
G75*
G02*
X136500000Y-64750000I250000J0D01*
G01*
G37*
D11*
X137000000Y-68500000D03*
X137000000Y-71500000D03*
X137000000Y-74500000D03*
X134000000Y-65500000D03*
X134000000Y-68500000D03*
X134000000Y-71500000D03*
X134000000Y-74500000D03*
D10*
X85280000Y-128700000D03*
G36*
G01*
X90100000Y-130950000D02*
X89100000Y-130950000D01*
G75*
G02*
X88850000Y-130700000I0J250000D01*
G01*
X88850000Y-129700000D01*
G75*
G02*
X89100000Y-129450000I250000J0D01*
G01*
X90100000Y-129450000D01*
G75*
G02*
X90350000Y-129700000I0J-250000D01*
G01*
X90350000Y-130700000D01*
G75*
G02*
X90100000Y-130950000I-250000J0D01*
G01*
G37*
D11*
X89600000Y-127200000D03*
X92600000Y-130200000D03*
X92600000Y-127200000D03*
D16*
X84000000Y-112800000D03*
D10*
X85480000Y-56000000D03*
G36*
G01*
X90300000Y-56750000D02*
X89300000Y-56750000D01*
G75*
G02*
X89050000Y-56500000I0J250000D01*
G01*
X89050000Y-55500000D01*
G75*
G02*
X89300000Y-55250000I250000J0D01*
G01*
X90300000Y-55250000D01*
G75*
G02*
X90550000Y-55500000I0J-250000D01*
G01*
X90550000Y-56500000D01*
G75*
G02*
X90300000Y-56750000I-250000J0D01*
G01*
G37*
D11*
X92800000Y-56000000D03*
X92500000Y-138750000D03*
X92500000Y-141750000D03*
X89500000Y-138750000D03*
G36*
G01*
X90000000Y-142500000D02*
X89000000Y-142500000D01*
G75*
G02*
X88750000Y-142250000I0J250000D01*
G01*
X88750000Y-141250000D01*
G75*
G02*
X89000000Y-141000000I250000J0D01*
G01*
X90000000Y-141000000D01*
G75*
G02*
X90250000Y-141250000I0J-250000D01*
G01*
X90250000Y-142250000D01*
G75*
G02*
X90000000Y-142500000I-250000J0D01*
G01*
G37*
D10*
X85180000Y-140250000D03*
D16*
X92500000Y-79400000D03*
D17*
X95040000Y-79400000D03*
X95040000Y-75400000D03*
D16*
X92500000Y-75400000D03*
D18*
X85000000Y-102000000D03*
X85000000Y-104540000D03*
X85000000Y-107080000D03*
D12*
X126500000Y-84250000D03*
X123750000Y-84250000D03*
X119700000Y-104500000D03*
X136500000Y-118000000D03*
X136500000Y-115200000D03*
X96500000Y-111250000D03*
X85000000Y-116250000D03*
X109600000Y-71500000D03*
X113700000Y-71500000D03*
X108600000Y-68800000D03*
X112600000Y-68800000D03*
X89800000Y-91800000D03*
X96500000Y-92300000D03*
X91600000Y-65000000D03*
X127000000Y-138000000D03*
X127000000Y-140500000D03*
X98500000Y-135250000D03*
X136500000Y-112250000D03*
D19*
X112000000Y-28200000D03*
X114540000Y-28200000D03*
X122160000Y-28200000D03*
X127240000Y-28200000D03*
M02*
